<?xml version="1.0" encoding="UTF-8"?><svg id="Layer_1" xmlns="http://www.w3.org/2000/svg" viewBox="0 0 274.71 44.23"><defs><style>.cls-1{fill:#ff8f15;}</style></defs><rect class="cls-1" width="274.71" height="44.23" rx="4.48" ry="4.48"/><g><path d="M17.56,16.64c.01,.11,.1,.21,.17,.31,.06,.16,.29,.31,.2,.46-.5,.36-1.01,.7-1.5,1.05-.27-.4-.53-.74-.78-1.07-.13-.17-.1-.29,.04-.48,.19-.26,.41-.58,.44-.91,.06-.68,.01-1.37,.01-2.05-.01-.16-.09-.36-.19-.4-.56-.19-1.08-.34-1.67-.53,0,.73-.01,1.38,.01,2.05,.07,1.44-1.03,2.48-2.04,2.95-.83,.37-1.74,.53-2.61,.1-.41-.19-.77-.51-1.13-.78-.4-.27-.77-.54-1.27-.27-.07,.03-.17-.04-.33-.07,.43-.41,.83-.66,1.34-.63,.8,.03,1.38,.43,1.8,1.05,.3,.48,.74,.61,1.27,.56,.9-.1,1.51-.73,1.58-1.74,.06-1.04,.06-2.1,.04-3.14,0-.23-.17-.48-.34-.64-.41-.37-.91-.6-1.51-.24,.13-.78,.88-1.4,1.81-1.54,0-.29,.03-.56,0-.84-.09-.97,.61-1.81,1.6-2.01,.71-.14,1.44-.23,2.18-.3,.1-.01,.21,.1,.31,.2,.31,.21,.6,.44,.91,.66,.13,.11,.31,.18,.47,.28-.14,.11-.27,.31-.43,.39-.5,.18-.47,.56-.46,.95,.01,.73,.01,1.43,.01,2.12,0,1.51,.01,3.01,.03,4.5Zm-3.99-9.63c-.43-.14-.9-.38-1.34-.38s-.87,.23-1.3,.38c-.04,.01-.07,.16-.09,.24,0,.06,.13,.09,.17,.1l1.15,.3c.41,.11,.81,.29,1.25,.34,.53,.09,.88-.17,1.1-.73-.34-.07-.63-.17-.96-.26Zm2.57,6.27c-.07-.36-1.05-.77-1.88-.84,.06,.13,.07,.3,.16,.33,.57,.19,1.11,.36,1.72,.51Zm-1.84-1.8c.57,.14,1.11,.33,1.81,.53,0-.51,0-1.01-.01-1.5-.03-.8,.11-1.67-.67-2.27-.04-.04-.09-.13-.1-.19-.66,.06-.96,.47-1.01,1.03-.06,.78-.01,1.6-.01,2.39Z"/><path d="M25.25,14.41c-.41,.17-.8,.36-1.17,.53-.01-.03-.04-.07-.06-.11,.4-.28,.98-.34,1.24-.78-.01-.07-.04-.11-.07-.16-.37,.16-.74,.29-1.11,.44l-.07-.13c.24-.11,.47-.27,.7-.33,.41-.11,.51-.36,.5-.74,0-.44-.31-.58-.58-.74-.13-.06-.4,.17-.74,.3,.08-.17,.11-.34,.2-.4,.71-.34,1.18-.88,1.51-1.57,.54-1.1-.11-2.37-1.37-2.54-.07,1.03-.11,2.04-.19,3.05h-.07v-2.85l-.23-.04c-.1,.31-.3,.63-.31,.96-.03,.94-.04,1.91,.03,2.84,.07,1.28-.24,2.34-1.33,3.09l-.41,.26c.01-.13,0-.21,.06-.27,.67-.85,.44-1.88,.44-2.85,0-.83-.1-1.65-.03-2.47,.03-.36,.29-.81,.58-1.04,.76-.64,1.58-1.21,2.41-1.78,.11-.08,.3-.13,.41-.18,.27,.29,.51,.53,.74,.8,.77,.84,.83,1.74,.19,2.72-.14,.23-.33,.47-.51,.67-.24,.24-.2,.41,.04,.58,.41,.3,.85,.58,1.28,.88,0,0,0,.04-.03,.04-.58,.14-.81,.51-.71,1.1,.07,.74,.07,1.47,.13,2.29-.3,0-.57,.01-.81,0-.41-.01-.74,.07-.98,.44-.23,.36-.51,.67-.8,.98-.07,.06-.29,.06-.38,0-1.34-.78-2.77-.64-4.18-.26-.36,.1-.7,.26-1.11,.31,.36-.34,.73-.7,1.08-1.03,.64-.6,1.45-.74,2.31-.78,.87-.04,1.74,.06,2.57,.37,.33,.13,.8-.11,.84-.46,.04-.36,0-.73,0-1.15Zm-6.3-5.77c.5-.36,.98-.74,1.44-1.07,.7,.66,1.45,.58,2.34,.3-.48,.77-1.08,1.08-1.75,1.11-.66,.03-1.3-.07-1.95-.13-.03-.09-.04-.14-.07-.21Zm1.65,6.8c0-.63-.01-1.24,0-1.85,0-.33-.07-.57-.43-.64-.44-.06-.81,.16-.91,.51-.03,.13-.03,.26-.1,.41-.04-.1-.1-.2-.1-.3-.06-.56,.6-1.51,1.13-1.67,.29-.11,.48-.23,.41-.54-.26-.93,.23-1.5,.96-1.95,.31-.2,.61-.44,.98-.61-.16,.2-.33,.38-.44,.6-.13,.24-.27,.5-.29,.76-.04,1.11-.11,2.25-.01,3.38,.09,1.01-.48,1.48-1.2,1.91Z"/><path d="M36.34,14.02c-.06,.24-.07,.64-.17,1-.31,1.01-.88,1.65-1.58,2-1.31,.64-2.65,.54-3.95-.16-.88-.47-1.28-1.33-1.92-2.35-.46-.83-.84-1.68-1.31-2.52,.54-.87,.98-1.7,1.51-2.57,.98-1.61,1.98-2.02,3.41-1.88,.67,.09,1.34,.31,1.85,.97,.23,.27,.43,.23,.66-.01,.37-.4,.77-.44,1.2-.2-.5,1.14-.61,2.25-.04,3.38-.51,.17-1-.13-1.31-.75-.11-.27-.2-.44-.48-.27-.37,.23-.71-.07-.91-.61,.1-.38,.34-.76,.29-.98-.14-.36-.38-.76-.67-.86-.61-.26-1.3-.36-1.75,.44-.56,1.05-.77,2.05,.21,3.05-.85,1.13-.71,2.39-.24,3.69,.33,.85,.87,1.23,1.51,1.4,.76,.27,1.55,.06,2.28-.54,.56-.43,.73-1.13,.76-1.95v-.88c.2,.13,.34,.3,.48,.44l.2,.19Z"/><path d="M36.5,17.76c.03-.07,.04-.17,.1-.23l.7-.77c.13-.14,.26-.26,.37-.41,.23-.29,.41-.63,.44-1.01,.04-.7-.41-1.34-1.05-1.33-.13,0-.26,.17-.37,.27-.08,.04-.14,.1-.2,.14-.03-.07-.04-.14-.06-.21-.11-.71,.53-1.38,1.2-1.3,.1,0,.23,.03,.33,.06,.29,.06,.34,0,.34-.34,0-.76,.21-1.45,.61-2.02,.29-.38,.66-.64,1-.97,.04-.04,.1-.08,.17-.16-.33,.04-.61,.01-.88,.08-.46,.1-.9,.01-1.34-.04-.8-.1-1.33-.76-1.38-1.65-.01-.17-.01-.36,.03-.5,.07-.21,.19-.21,.3-.03,.13,.17,.2,.37,.44,.43,.07,.01,.14,0,.23,.01,.07,0,.17,.04,.26,.04,.36,.01,.73,.01,1.08,0,.47-.01,.94-.06,1.41-.09,.31-.04,.64-.08,.97-.1,.56-.01,1.14-.16,1.71,0,.3,.07,.6,.07,.88,.19,.84,.37,1.42,1.03,1.78,2,.3,.83,.37,1.71,.43,2.58,.04,.61,.13,1.21,.16,1.82,.03,.54,.03,1.07,.03,1.6,0,.07-.06,.16-.11,.19-.16,.11-.3,.2-.47,.29-.61,.28-1.11,.78-1.57,1.3-.1,.11-.16,.13-.26,.08-.76-.29-1.52-.47-2.31-.51-.34-.03-.67-.03-1.01-.04-.9,0-1.74,.26-2.57,.67-.34,.19-.71,.34-1.05,.51-.06,.01-.11-.01-.16-.03,.01-.08,.01-.19,.06-.23,.14-.13,.3-.24,.43-.34,.43-.3,.87-.58,1.3-.91,.5-.38,1.03-.78,1.51-1.23,.19-.18,.31-.47,.43-.73,.47-1.01,.16-2.09,.26-3.14,.01-.26,.03-.5,.06-.73,0-.04,.01-.11,0-.16-.14-.26,.01-.49,.04-.74,.06-.23,.11-.46,.17-.73-.09,.04-.14,.04-.2,.09-.51,.43-.81,.98-.83,1.74,0,1.01-.01,2.02-.04,3.04-.01,.19-.09,.4-.17,.56-.27,.41-.58,.83-.87,1.23-.47,.66-1.11,1.01-1.68,1.51-.13,.09-.24,.19-.38,.27-.06,.03-.14,.03-.21,.06-.01-.03-.01-.06-.03-.07Zm4.03-2.37h.78q.3,.01,.3-.3v-2.67c.01-.87,.04-1.72,.04-2.61,.01-.13-.01-.26-.06-.37-.01-.06-.13-.1-.19-.1-.07,0-.17,.06-.19,.1-.06,.2-.14,.4-.16,.6-.06,.6-.1,1.2-.13,1.8-.01,.46,.03,.9,.04,1.34,.01,.67,.03,1.37-.33,1.97-.04,.07-.07,.16-.13,.24Zm1.44-6.03c0,.77-.03,1.48,0,2.22,.01,.13,.09,.28,.2,.36,.46,.31,.94,.5,1.48,.26,.19-.07,.34-.19,.51-.26,.19-.1,.23-.24,.17-.48-.07-.21-.07-.47-.16-.67-.14-.34-.27-.71-.5-.94-.47-.47-1.05-.63-1.71-.48Zm.01,5.79c-.06,.17,.01,.27,.19,.27,.11,.01,.24,.04,.36,.07,.64,.11,1.27,.26,1.88,.4,.19,.04,.23-.04,.23-.23l-.04-.98c0-.07-.03-.13-.06-.16-.37-.3-.77-.51-1.25-.46-.19,.01-.37,.06-.56,.13-.24,.11-.48,.23-.7,.43-.09,.09-.03,.34-.04,.53Zm2.58-1.04c-.03-.6-.07-1.11-.11-1.61-.01-.26-.07-.26-.26-.13-.5,.34-1.03,.48-1.58,.24-.21-.08-.43-.2-.64-.29v1.81c.85-.58,1.7-.7,2.59-.03Z"/><path d="M50.27,8.52c-.07,.73-.14,1.28-.19,1.85-.03,.31-.04,.64,0,.96,.04,.2,.19,.43,.36,.51,.13,.06,.43-.03,.53-.14,.3-.36,.54-.77,.81-1.14,.1-.13,.26-.21,.38-.31,.1,.13,.27,.27,.27,.4,.04,1.11,.04,2.21,.03,3.31,0,.16-.19,.31-.29,.47-.17-.16-.44-.3-.48-.5-.13-.56-.33-1.01-.96-1.17-.44-.11-.68,.07-.68,.51-.01,.46-.1,.9-.09,1.35,.03,.54,.13,1.1,.24,1.62,.03,.11,.26,.26,.4,.26,.98,.03,2.02,.11,2.75-.71,.31-.36,.46-.87,.67-1.31,.06-.13,.11-.27,.19-.41,.16-.3,.4-.23,.51-.01,.13,.24,.17,.54,.19,.81,.01,.51-.06,1.03-.03,1.53,.01,.68-.36,1.07-1.03,1.05-1.74-.04-3.49-.06-5.24-.07-.57-.01-1.13,.04-1.68,.03-.14,0-.4-.17-.4-.27,0-.16,.16-.47,.26-.47,.93-.01,.8-.73,.8-1.25,.01-1.34-.06-2.67-.09-4,0-.74-.01-1.48,.01-2.22,.01-.46-.24-.63-.61-.77-.14-.06-.37-.29-.34-.34,.07-.2,.23-.46,.4-.48,.5-.09,1.01-.1,1.52-.1,1.78,0,3.56,.01,5.36,.03,.5,0,.66,.29,.66,.75-.01,.37,.03,.76,.13,1.11,.1,.41,.06,.8-.34,.95-.4,.14-.58-.24-.78-.51-.27-.38-.48-.83-.81-1.14-.19-.18-.54-.27-.83-.27-.56,0-1.11,.09-1.6,.11Z"/><path d="M64.52,8.19c.03,.87-.3,1.31-.94,1.7-.41,.26-.46,.3-.44,.8,.01,.31-.03,.63-.01,.94,0,.17,.04,.36,.04,.53,.01,.41,0,.81,0,1.23v.8c0,.07,.04,3.01,.04,3.35,.01,.21,.03,.43,.01,.64-.01,.08-.2,.21-.26,.2-.1-.04-.28-.17-.28-.26-.01-.64,.06-1.28,.06-1.92,0-.57-.04-1.13-.07-1.7,.04-.09-.06-.14-.19-.14-.1-.01-.2,.01-.3,0-.61-.04-.81,.16-.78,.81,.01,.34,.07,.68,.07,1.03,0,.37-.04,.73-.07,1.08-.03,.23-.06,.44-.1,.66-.13,.48-.48,.71-.9,.84-.9,.36-.81,.96-2.49,1.18-.66,.07-1.35,.04-1.98-.31-.34-.19-.78-.21-1.17-.24-.16-.01-.31,.14-.47,.21-.1,.03-.24,.06-.31,.01-.06-.03-.1-.2-.07-.28,.04-.17,.11-.33,.2-.47,.17-.24,.36-.48,.56-.71,.1-.1,.24-.23,.37-.3,.13-.1,.36-.13,.53-.23,.06-.03,.13-.06,.19-.04,.67,.17,1.33,.34,1.87,.85,.37,.36,.88,.64,1.43,.46,.24-.08,.47-.36,.6-.6,.13-.23,.16-.54,.17-.83,.01-.44-.06-.88-.04-1.33,0-.9,.06-1.81,.03-2.72-.03-.8,.11-1.61-.01-2.42-.06-.29,.1-.6,.17-.9,.01-.06,.08-.1,.14-.14,.28-.24,.58-.48,.87-.71,.09-.07,.17-.18,.27-.21,.36-.11,.61-.36,.88-.63,.17-.17,.33-.34,.53-.47,.19-.13,.37-.13,.48,.17,.09,.23,.51,.41,.76,.34,.13-.03,.23-.04,.34-.07,.11-.04,.19-.11,.3-.19Zm-9.46,1.48c-.09-.24,.03-.34,.16-.61,.19-.39,.41-.73,.76-.94,.46-.29,.93-.41,1.45-.23,.48,.17,1.01,.24,1.47,.44,.53,.23,.94-.01,1.35-.23,.09-.03,.19-.07,.26-.07,.04,.01,.13,.13,.11,.17-.04,.14-.11,.3-.2,.41-.36,.38-.71,.78-1.1,1.11-.2,.16-.48,.21-.73,.3-.67,.23-1.23-.21-1.81-.33-.26-.04-.47-.16-.7-.21-.09-.01-.17-.01-.24,.03-.16,.1-.3,.21-.44,.31-.07,.06-.2,.13-.24,.1-.06-.04-.07-.17-.1-.26Zm4.02,3.88c.09,.71,.06,1.08,.04,1.81,0,.27,.01,.54-.04,.78-.03,.14-.16,.26-.27,.37-.3,.3-.7,.93-1.41,1.13-.09,.01-.19,.01-.29,.03,0-.1-.03-.3,.01-.31,.33-.14,.24-.44,.26-.68,.06-.38,.07-.78,.09-1.18,0-.26,0-.54-.04-.8-.03-.1-.14-.23-.24-.27-.24-.09-.54,.14-.66,.38-.06,.13-.2,.26-.33,.3-.07,.01-.24-.16-.27-.27-.21-.7-.14-1.37,.34-1.92,.14-.16,.4-.17,.6-.24,.09-.03,.19,0,.27-.01,.27-.03,.37-.14,.34-.44-.03-.36-.03-.71,.19-1.01,.03-.04,.04-.13,.08-.13,.5-.04,.68-.63,1.13-.77,.34-.1,.34-.03,.3,.33,0,.16-.01,.33-.03,.48-.01,.09-.01,.19-.03,.27-.06,.36-.2,.76-.11,1.08,.09,.37,.03,.73,.07,1.08Zm3.09-.76c.4-.01,.41,0,.5-.27,.04-.16,.04-.34,.04-.51v-1.5c-.01-.08-.04-.21-.11-.27-.26-.21-.51-.41-.78-.6s-.48-.09-.51,.24c-.01,.29,.09,.56,.09,.84-.01,.5,.1,1-.04,1.51-.04,.16-.06,.46,.21,.51,.2,.04,.41,.03,.61,.04Z"/><path d="M73.56,10.49c-.14-.24-.29-.46-.41-.7-.38-.67-.9-1.15-1.53-1.45-.74-.37-1.54-.53-2.35-.37-.2,.04-.43,.19-.54,.37-.27,.44-.54,.9-.68,1.41-.2,.64-.33,1.34-.38,2.02-.06,.61,.03,1.25,.04,1.88,.01,.14,.06,.29,.04,.4-.06,.74,.21,1.4,.41,2.05,.24,.8,.85,1.03,1.61,.87,.51-.1,.87-.37,1.13-.81,.16-.29,.26-.61,.3-.93,.06-.64,.31-1.25,.1-1.92-.11-.36-.31-.57-.66-.63,.01-.04,.01-.08,.01-.11h3.95c-.07,.13-.1,.21-.16,.26-.37,.29-.4,.76-.46,1.18-.07,.51-.03,1.04-.03,1.57,0,.08,.01,.17,.03,.26,.14,.46,.07,.57-.36,.48-.2-.03-.41-.11-.58-.24-.23-.19-.38-.1-.57,.04-.37,.24-.71,.57-1.11,.76-.9,.44-1.84,.58-2.82,.41-.77-.14-1.44-.53-2.04-1-.83-.63-1.44-1.48-1.71-2.61-.2-.87-.14-1.72,.01-2.58,.07-.36,.24-.71,.43-1,.63-.97,1.35-1.81,2.39-2.24,.29-.11,.6-.19,.9-.23,.46-.06,.9-.11,1.35-.11,.24,0,.5,.11,.74,.16,.95,.17,1.9,.21,2.82-.14,.19-.06,.36,.1,.34,.33-.04,.68-.07,1.4-.1,2.11-.01,.16-.01,.3-.03,.46-.03,.03-.07,.04-.1,.06Z"/><path d="M80.28,7.88c.21-.4,4.73-.36,5.17-.08-.3,.1-.53,.2-.74,.24-.46,.08-.53,.6-.56,1.08-.04,.98,0,1.97,0,2.95-.01,.94-.06,1.85-.06,2.78,0,.85-.01,1.72,.66,2.14,.2,.13,.43,.16,.64,.2,.14,.03,.29,.01,.46,.01v.23c-.84,0-1.67,.01-2.51,.03h-2.54c-.01-.07-.01-.14-.03-.21,.14-.06,.27-.14,.41-.17,.44-.1,.63-.4,.63-1.05v-3.02c0-.31,.07-.77-.03-.91-.14-.18-.44-.1-.67-.1-.78-.06-1.6-.07-2.41-.1-.24-.01-.36,.1-.34,.53,.03,1.14,.03,2.29,.01,3.43-.01,.68,.27,.96,.61,1.15,.26,.13,.56,.13,.83,.19l.27,.09v.16h-5.13s-.01-.09-.01-.13c.1-.04,.17-.09,.26-.11,.76-.26,.93-.56,.93-1.68,0-2.11,0-4.23,.01-6.36,0-.66-.44-1.31-.9-1.34-.19-.01-.38-.04-.57-.07v-.17h4.83s.01,.09,.01,.13c-.2,.1-.44,.17-.64,.31-.39,.23-.57,.64-.54,1.3,.03,.58,.01,1.18-.01,1.79,0,.4,.14,.46,.37,.46,.81,0,1.62,.01,2.44,0,.21,0,.54,.06,.64-.11,.11-.21,.01-.66,.06-.98,.06-.54,.07-1.05-.06-1.6-.13-.58-.44-1-.88-.98h-.61Z"/><path d="M86.1,17.81c-.17-.94,.43-1.85,1.25-2.01,.2-.04,.43-.01,.64-.04,.16-.01,.33-.04,.47-.13,.4-.26,.47-1.25,.17-2.09-.21-.56-.54-.87-1.11-.73-.21,.06-.44,.08-.77,.14,.16-1.14,.85-1.37,1.52-1.57l.73-2.49c-.8,.3-1.75-.8-2.44,.57-.21-1.18,.66-2.19,1.68-2.02,.8,.11,1.57,.48,2.37,.04,.06-.04,.24,.06,.29,.14,.03,.1,0,.28-.07,.36-1.14,1.11-1.01,2.55-.87,4,.07,.61,.13,1.23,.19,1.84,.09,1.1,.1,2.17-1.31,2.48,.37,.31,.6,.57,.87,.7,.58,.29,1.03-.01,1.01-.74-.04-1.11-.2-2.24-.26-3.35-.06-1.04-.13-2.09-.07-3.12,.04-.97,.53-1.72,1.33-2.14,.24-.13,.54-.13,1-.23-.19,.34-.21,.5-.3,.54-.64,.37-.71,1.01-.64,1.71,.14,1.31,.37,2.61,.4,3.92,.01,.98-.07,2.05-.38,2.95-.41,1.15-1.48,1.55-2.58,1.28-.3-.09-.6-.13-.9-.26-.77-.34-1.53-.64-2.21,.24Z"/><path d="M99.8,7.87c-.03,.17-.04,.36-.07,.53-.07,.53-.23,1.04-.24,1.57-.04,1.87-.04,3.71-.07,5.57,0,.29-.01,.57,0,.86,.09,1.54-.68,2.38-1.91,2.84-.85,.33-1.74,.43-2.65,.21-.14-.04-.31-.07-.44-.16-.64-.6-1.25-.43-1.85,.06-.11,.08-.26,.1-.38,.14-.03-.14-.14-.33-.09-.47,.19-.73,.64-1.24,1.24-1.55,.88-.46,1.52-.04,2.15,.64,.24,.33,.66,.54,1.03,.7,.61,.23,1.07-.2,1.2-.74,.1-.43,.1-.87,.11-1.3,.01-2.18,0-4.36,.06-6.54,.01-.37,.23-.81,.46-1.11,.38-.48,.87-.9,1.31-1.33l.16,.09Zm-1.4-.21c-.04,.23-.04,.41-.13,.57-.48,1.07-1.54,1.62-2.59,1.37-.37-.07-.76-.21-1.13-.3-.38-.07-.71-.01-.91,.44-.04,.11-.19,.14-.26,.19-.06-.08-.13-.2-.13-.3,0-.8,.98-1.98,1.71-1.95,.57,.01,1.15,.09,1.68,.31,.58,.23,1.03,.26,1.47-.26,.03-.04,.14-.03,.29-.07Zm-2.72,6.64c-.36,.21-.67,.31-.83,.54-.19,.29-.4,.24-.44,.04-.13-.47-.24-.98-.14-1.41,.08-.41,.43-.83,.9-.78,.48,.01,.53-.26,.54-.68,.01-1.03,.56-1.82,1.41-2.15,.13-.06,.27-.06,.44-.08-.47,1.58-.3,3.15-.29,4.72,0,.58-.09,1.2-.23,1.77-.21,.78-.85,1.05-1.48,1.33-.06,0-.19-.03-.24-.09-.01-.03-.01-.18,.04-.23,.33-.36,.33-.81,.31-1.28v-1.68Z"/><path d="M105.26,7.45v1.14l-1.31-.09-.11,4.16,3.52-4.12v-.3l-1.04-.03-.03-.77h4v.94h-1.35l-2.12,2.64,2.15,5.12,1.33,.1v1.21h-4.63v-.84h1.15l-1.62-3.89-1.3,1.38-.04,2.21,1.27,.07,.09,1.07-4.62,.07v-1.2l1.31-.03,.07-7.77-1.38-.06v-1.03h4.67Z"/><path d="M112.69,9.26c-.44,.03-.8-.24-1.18-.41-.4-.19-.68-.09-.96,.33-.03,.04-.08,.09-.1,.07-.03-.03-.09-.08-.07-.13,.01-.11,.03-.24,.09-.34,.38-.6,.78-1.17,1.48-1.3,.46-.09,.91-.01,1.35,.18l.41,.17c.31,.16,.61,.14,.88-.13,.04-.03,.13,0,.19-.01-.01,.07,0,.16-.03,.2-.36,.36-.71,.73-1.1,1.07-.29,.26-.63,.29-.97,.3Zm.83,.4c-.07,.37-.16,.73-.17,1.08-.03,.81-.01,1.64-.01,2.45v.56c-.01,.9-.41,1.51-1.01,1.98-.21,.16-.43,.31-.66,.46-.07,.04-.14,.07-.26,.13,.01-.1,.01-.14,.03-.16,.34-.44,.43-.97,.43-1.52-.01-.36,0-.7,.01-1.04,.01-.2-.04-.3-.21-.29-.16,.03-.33,0-.47,.07-.13,.07-.23,.23-.31,.36-.04,.06-.04,.14-.07,.23-.01,.01-.04,.03-.07,.04l-.04-.14c-.16-.41-.26-1.27,.11-1.7,.21-.24,.46-.36,.76-.36,.31,.01,.33,0,.33-.34,.01-.44,.21-.77,.47-1.05,.31-.36,.7-.58,1.11-.77,.01,0,.04,.01,.04,.01Zm3.95,5.69c.26,.13,.5,.24,.74,.34,.03,.03,.11-.01,.14-.04,.09-.11,.16-.26,.24-.36,.04-.06,.13-.09,.19-.11,.01,.09,.06,.2,.03,.26-.13,.23-.26,.46-.4,.67-.23,.38-.47,.75-.7,1.15-.11,.2-.23,.2-.4,.14-.54-.19-1.08-.37-1.64-.5-.94-.21-1.88-.19-2.81,.03-.5,.1-.97,.29-1.45,.43-.04,.03-.1,.01-.19-.03,.04-.07,.09-.16,.14-.21,.58-.58,1.27-1,1.98-1.35,1.03-.51,2.1-.7,3.21-.6,.03,0,.07,0,.07,.01,.04,.11,.09,.2,.13,.29l.23-.14c.07-.03,.14-.04,.24-.07v-.38c.01-.85,.01-1.71,0-2.57,0-.07-.04-.16-.09-.23-.13-.17-.11-.46,.03-.6,.13-.13,.33-.1,.44,.06,.13,.16,.1,.38-.04,.57-.04,.04-.08,.11-.08,.17-.01,1.04-.01,2.07-.01,3.08Zm-3.99-.29l.17-.24c.2-.3,.26-.66,.26-1.03,.01-1,.06-2.01,.01-3.01-.04-.97,.3-1.67,.96-2.19,.47-.38,.96-.76,1.51-.96,.63-.2,1.27-.27,1.9,.03,.06,.03,.11,.09,.17,.1,.07,0,.16,0,.24-.03l.21-.14c-.01,.11,0,.26-.06,.34-.2,.33-.43,.64-.66,.97-.11,.17-.23,.36-.36,.54-.14,.23-.17,.23-.31,0-.28-.44-.56-.9-1.01-1.11-.09-.04-.17-.07-.26-.1-.36-.07-.68,.17-.71,.6-.04,.64-.04,1.28-.04,1.92-.01,.78-.03,1.57-.01,2.35,.01,.76-.24,1.3-.87,1.58-.36,.19-.71,.37-1.11,.44,0-.03-.01-.04-.03-.07Z"/><path d="M122.3,9.88c.21-1.82,.38-1.45,0-1.52-.24-.06-.67-.2-.88-.24-.23-.03-.85-.09-1.24,.26-.4,.34-.67,.93-.51,1.68,.17,.78,.57,1.24,.91,1.24s.88-.75,.96-.94c.07-.13,.06-.58,.11-.58l.11,.07s-.01,.24-.06,.43c-.06,.26-.37,.77-.54,.88-.14,.11-.44,.36-.68,.4s-.97,.26-1.37-.6c-.4-.87,.43-2.21,.56-2.37,.14-.14,.63-.68,1.15-.71,.51-.04,.81,.01,1.11,.07l.71,.13s.47,.04,.64,.38c.04,.26,.14,1,.26,1.27,.13,.29,.93,1.58,1.24,2.29,0,0,.33,.71,.38,1.13,.07,.41,.1,1.15,.1,1.15,0,0,.61-2.45,.81-3.56,.21-1.1,.87-2.38,1.17-2.62,.3-.21,.71-.51,.97-.54v.24s.03,7.37,.03,7.37c-.06,.37,.2,1,.53,1.07,.36,.11,.97,.1,1.5-.94,.54-1.04,.29-.87,.33-.94l.11,.07s-.43,1.43-.95,2.12c-.54,.71-.6,.78-1.18,.75,0,0-.98-.37-1.08-.94,0,0-.3-1.91-.26-3.49,.03-1.1-.01-4.36-.01-4.36,0,0-.4,.36-.53,.84-.14,.5-.48,1.77-.6,2.48-.13,.73-.71,3.11-.86,3.33-.17,.24-.26,.27-.26,.27,0,0-.31-1.48-.51-1.81-.17-.33-.68-1.07-.97-1.65-.14-.31-.61-2.05-.61-2.38,.01-.34,.04-1.11,.03-1.13l-.14-.1c-.07-.01-.23,.93-.23,1.37,0,.47,.24,2.57,.24,3.16s.19,1.38,.19,2.19c0,.77-.63,1.67-.86,1.84-.24,.19-.85,.34-1.18,.37s-.76-.07-.91-.38c-.17-.31-.44-.81-.4-1.07,.07-.3,.3-.54,.51-.46,.21,.07,.31,.38,.23,.58-.11,.21-.36,.2-.36,.2,0,0,.11,.77,.94,.68,.84-.09,1.4-.46,1.43-1,.04-.51-.01-1.31-.07-1.85-.03-.46-.04-3.59,0-4.15Z"/><path d="M137.76,9.16c-.06,.74,.5,8.24-.1,8.07-.88-.63-.66-.86-1.97-2.76-.63-.33-2.25-.07-2.76,.16v1.27c1.52,.3,1.64,.53,.48,1.57-.5-.66-2.07-.83-2.64-.11,.27-.54,.96-1.38,1.9-1.47l.04-2.41c-.58-.54-.86-.46-1.54-.23-.14-.3,.23-1.12,1.54-1.18v-2.17c-.44-.66-.78-1.11-.88-1.14-.46-.17-.57,.51-.67,.49-.1-.01-.07-.01-.1-.46,.07-.97,1.42-1.41,2.07-.74,.04,.03,.07,.06,.1,.1,.17,.23,.84,1.27,.96,1.45,.17,.26,.68,1.11,.8,1.3l.34,.57,.27,.43s.06,.09,.08,.14c.01,.03,.04,.11,.09,.13h.06c.21-.01,.41-.01,.63-.04,.23-.01,.46-.04,.68-.07l.33-.07c.06-.01,.17-.04,.17-.13l-.06-2.68c-.53,.01-1.03-.49-1.17-.66-1.52,.13,1.15-.9,1.25-.94,.1,.01,.08,.4,.44,.66,.26,.19,1.24-.23,1.24-.23,.03,.16-.77,1.28-1.58,1.17Zm-2.17,5.13c-.04-.06-.07-.1-.1-.16-.44-.7-.88-1.4-1.34-2.09-.41-.64-.83-1.27-1.25-1.91v4.22s.03-.01,.04-.01c.43-.13,.86-.2,1.3-.21,.4-.01,.8,.03,1.21,.11,.04,0,.1,.01,.14,.06Zm2.04,.81c0-.17-.01-.33-.01-.48,0-.33-.01-.67-.01-1s-.01-.68-.01-1.01c0-.13,0-.24-.01-.37,0-.04,.01-.2,0-.2-.03,0-.11,.04-.13,.06l-.11,.04c-.16,.06-.3,.1-.46,.13-.19,.04-.37,.07-.54,.06h-.28s-.17,.01-.2-.01c.07,.1,1.78,2.79,1.78,2.79Z"/><path d="M139.42,13.24c.01-.85,.19-1.65,.46-2.45,.09-.27,.24-.41,.44-.56,.29-.21,.58-.41,.87-.63,.17-.11,.34-.23,.51-.36,.26-.18,.56-.33,.76-.58,.14-.19,.33-.26,.48-.4,.3-.26,.6-.5,.93-.7,.13-.08,.34-.08,.48-.03,.57,.17,1.17,.31,1.71,.6,.67,.33,1.2,.88,1.57,1.61,.36,.68,.58,1.38,.57,2.18-.01,.64-.23,1.18-.53,1.71-.5,.93-1.14,1.71-1.92,2.34-.54,.44-1.13,.83-1.74,1.16-.34,.2-.74,.27-1.15,.28-1.31,.04-2.62-1.1-3.04-2.27-.23-.63-.43-1.24-.4-1.91Zm2.37-3.49s-.07-.01-.1-.01c-.73,.88-1.11,1.91-.98,3.12,.07,.73,.3,1.4,.76,1.97,.34-.54,.34-1.11,.34-1.67,.01-1.04,.01-2.09,.03-3.14,0-.08-.03-.18-.04-.27Zm1.64-.75c-.16-.03-.26-.06-.36-.06-.04,0-.1,.06-.11,.1-.03,.1-.04,.21-.06,.33,0,1.11-.01,2.24,0,3.35,0,.6-.23,1.08-.54,1.54-.2,.29-.46,.54-.7,.83,.44,.46,.88,.84,1.47,1.01,.16,.04,.23-.03,.23-.2,.01-.38,0-.76,0-1.14-.01-.53-.01-1.07,0-1.6,.01-.76,.11-1.53-.06-2.28-.01-.04,.01-.1,.03-.14,.01-.07,.07-.14,.07-.21,.01-.19,.03-.38,.03-.57v-.95Zm.27,5.96c0,.33,0,.66-.01,.98,0,.18,.04,.26,.21,.18,.27-.11,.57-.18,.83-.33,.71-.38,1.25-.98,1.68-1.71,.1-.17,.09-.3-.03-.44-.3-.4-.7-.6-1.14-.67-.44-.07-.81,.13-1.15,.41-.33,.27-.46,.61-.39,1.07,.01,.16,0,.33,0,.5Zm.01-5.15h-.01c0,.19-.01,.38,0,.57,.01,.11,.04,.26,.11,.33,.68,.87,1.78,.75,2.45,.1,.04-.04,.04-.2,.01-.26-.17-.2-.34-.41-.54-.58-.54-.47-1.17-.76-1.84-.93-.14-.04-.19,.01-.19,.17v.6Zm0,3.41h.07l.11-.13c.29-.23,.56-.44,.93-.47,.66-.04,1.21,.16,1.68,.67,.03,.03,.1,.07,.16,.07,.01-.01,.06-.1,.06-.16,.09-.66,.11-1.31-.09-1.97-.09-.24-.11-.24-.29-.07-.63,.64-1.71,.71-2.41,.14-.06-.04-.13-.09-.23-.14v2.05Z"/><path d="M148.05,10.5c-.01-.95,.88-1.95,1.81-2.18,.74-.17,1.68,.26,2.02,1.13,.24,.53,.23,1.18,.23,1.77,.03,1.31,0,2.64,.01,3.95,0,.37-.09,.5-.48,.63-.98,.29-1.88,.74-2.34,1.81,.23-1.08,1.01-1.64,1.94-2.25-.66-.47-1.24-.94-1.85-1.42,.31-.46,.4-.48,.87-.14,.4,.34,.77,.66,1.18,.98,.04-.04,.11-.09,.14-.16-.46-.43-.91-.87-1.44-1.37,.33-.2,.61-.41,.88-.57,.34-.2,.54-.44,.51-.84-.07-.77,.1-1.57-.34-2.27-.38-.61-.9-.84-1.6-.61-.64,.2-1.07,.63-1.38,1.21-.06,.1-.11,.2-.17,.34Zm2.12-2.59c1.05-.41,2.04,.06,2.61,.94,.41,.58,.46,.58,1.04,.26l2.21-1.25c.17,1.17,.58,2.11,1.15,2.99,.3,.41,.57,.85,.75,1.3,.48,1.05,.48,2.04-.3,2.96-.56,.63-1.05,1.28-1.58,1.91-.24,.3-.48,.33-.76,0-.61-.7-1.44-1.07-2.34-1.24-.44-.1-.54-.27-.54-.67,.04-1.41,.04-2.79,.06-4.22,.03-1.74-.6-2.57-2.31-2.98Zm1.3,5.82c-.03-.37-.06-.64-.07-1-.24,.16-.46,.27-.71,.46,.29,.19,.53,.36,.78,.54Zm-.13,6.85c.04-.5,.1-1.01,.13-1.54,.01-.7-.01-1.4,0-2.12,0-.5,0-.51-.51-.61,.34-.11,.68-.19,1.11-.31,.01,.73,.03,1.33,.03,1.98,0,.58,.01,1.15,0,1.75-.01,.67-.13,.8-.76,.85Zm1.14-.54c-.04-1.25-.07-2.45-.09-3.66,0-.29,.16-.34,.41-.3,1.07,.16,1.91,.71,2.64,1.54-.16,.11-.31,.23-.53,.4-.23-.23-.46-.47-.73-.68-.26-.17-.58-.27-1-.44-.01,.83-.06,1.53-.01,2.2,.03,.51-.16,.8-.7,.96Zm1.74-10.83c-.54,.21-.94,.33-.93,.88,0,1.58,0,3.19-.04,4.77-.03,.5,.34,.43,.61,.44,.09,.01,.29-.29,.3-.44,.03-1.13,.03-2.21,.03-3.32,.01-.74,.01-1.5,.03-2.34Zm.16,6.03c.04,.06,.1,.31,.24,.43,.36,.3,.74,.53,1.13,.77,.13,.06,.38,.11,.43,.06,.31-.46,.73-.91,.84-1.43,.11-.64-.73-1.28-1.44-1.27-.74,.04-1.23,.53-1.2,1.44Zm.01-1.3c1.27-.63,2.24-.49,2.92,.74,.43-.94,.24-2.08-.38-2.72-.71,.77-1.51,1-2.49,.3-.01,.58-.04,1.08-.04,1.68Zm1.04-5.42c-.41,.2-.88,.17-.93,.67-.03,.7-.04,1.41-.06,2.11,0,.47,.17,.84,.63,1.04,.46,.19,1.13,.04,1.47-.31,.21-.21,.27-.41,.07-.7-.63-.78-1.2-1.62-1.18-2.81Zm3.23,4.53c-.2-1.04-.83-1.82-1.28-2.68-.38-.67-.64-1.45-.87-2.22-.17-.47,.04-.64,.63-.73-.03,1.03,.41,1.91,1.03,2.72,.54,.68,.63,1.52,.64,2.35,0,.18-.1,.36-.14,.56Z"/><path d="M168.08,16.66c.14,.24-.09,1.55-.61,2.09-.46,.48-1.41,.5-1.95-.01-.31-.31-.47-.66-.53-1.07-.03-.26-.14-.37-.41-.34-.21,.03-.43,.11-.66,.11-1.43,.06-2.49-.61-3.36-1.71-.51-.66-.93-1.35-1.11-2.17-.28-1.24-.16-2.45,.47-3.58,.51-.91,1.21-1.61,2.12-2.17,1-.6,1.98-.5,2.96-.23,1.08,.29,1.67,1.18,2.22,2.07,.58,.87,.8,1.85,.73,2.88-.06,.84-.2,1.68-.7,2.38-.33,.48-.66,.95-.98,1.42-.06,.1-.11,.24-.09,.33,.2,.37,.36,.78,.64,1.08,.36,.37,.64,.07,.83-.43,.06-.11,.01-.27,.07-.37,.07-.11,.31-.37,.36-.3Zm-6.19-.8c.19-.78,.47-1.35,1.17-1.62,.4-.16,1.3-.09,1.54,.17,.3,.3,.57,.64,.86,.96,.17,.17,.27,.24,.46-.06,.41-.7,.46-1.48,.51-2.25,.11-1.14,.04-2.29-.43-3.39-.34-.84-1-1.45-1.88-1.61-1.4-.21-2.01,.36-2.59,1.43-.2,.34-.31,.77-.38,1.15-.09,.66-.19,1.33-.17,2,.01,.7,.13,1.4,.26,2.08,.09,.4,.29,.78,.67,1.15Zm2.95,.21c-.04-.83-.51-1.33-1.24-1.31-.57,.01-1.05,.51-1.04,1.03,.04,.6,.66,1.2,1.2,1.13,.73-.1,1.18-.23,1.08-.84Z"/><path d="M171.09,12.18c-.07,.17-.23,.34-.23,.5-.03,1.25-.04,2.48-.01,3.73,0,.57,.43,.9,.94,.86-.13,.04-.24,.13-.38,.13-1.01,.01-2.04,0-3.22,0,1.18-.84,.74-1.97,.77-2.99,.04-1.64-.03-3.29-.04-4.95,0-.53,.04-1.07-.38-1.5-.14-.16-.3-.3-.5-.5,.91,0,1.81,0,2.71,.01,.07,.01,.19,.24,.19,.36-.01,1.3-.06,2.57-.06,3.85,0,.18,.16,.34,.23,.5Zm4.16,5.07c-.14-.1-.23-.27-.28-.43-.29-.87-.51-1.74-.81-2.59-.2-.56-.5-.94,0-1.41-.7-.06-1.41-.13-2.14-.21,.01-.03,.01-.21,.01-.26,2.31-.34,3.08-1.1,2.84-2.78-.19-1.4-1.43-2.24-2.94-2.04,.13,.14,.36,.29,.4,.48,.11,.54,.19,1.11,.23,1.67,.01,.51,.03,1.03-.07,1.54-.04,.24,.01,.64-.41,.74l-.98,.21c.16,.13,.41,.23,.48,.4,.24,.7,.44,1.43,.68,2.15,.13,.38,.3,.77,.46,1.15,.16,.4,.27,.81,.46,1.2,.09,.16,.3,.33,.47,.34l2.01,.13c-.01-.06-.03-.11-.06-.17-.13,.01-.23-.04-.34-.13Z"/><path d="M177.08,15.16c.57-.37,1.07-.68,1.58-1.01-.03-.04-.03-.06-.04-.1-.27-.03-.56-.06-.83-.13-.24-.06-.5-.11-.71-.23-.68-.33-.94-.87-.8-1.62,.06-.3,.19-.56,.28-.9,.97,1.31,2.32,1.11,3.58,1.18,.23,.01,.47-.27,.67-.51l-1.95-.17c-.73-.1-1.38-.3-1.58-1.15-.19-.74,.17-1.61,.85-2.11,.81-.6,1.74-.81,2.71-.87,1.14-.07,2.22,.11,3.23,.66,.1,.06,.26-.06,.37-.07,.11,0,.21,0,.34,.01-.06,.1-.09,.2-.16,.27-.66,.53-1.33,1.07-1.98,1.62,.01,.04,.01,.07,.03,.1,.31,.06,.63,.1,.94,.14,.81,.17,1.54,.46,1.97,1.25,.44,.8,.29,1.54-.2,2.2-.5,.71-1.13,1.34-1.7,2-.44,.48-.9,.96-1.31,1.47-.21,.21-.34,.27-.64,.14-1.6-.61-3.24-.88-4.9-.33-.3,.09-.57,.24-.94,.3,.07-.1,.1-.24,.2-.31,1.64-1.45,3.49-2.18,5.67-1.71,.43,.09,.83,.27,1.23,.4,.09,.01,.23,.01,.27-.04,.46-.54,.98-1.03,1.31-1.61,.5-.87,.03-1.75-.98-1.95-.7-.14-1.38-.21-2.09-.21-.24,0-.5,.27-.74,.41,0,.04,.01,.09,.04,.13,.37,.01,.74,.03,1.11,.06,.34,.06,.7,.11,1.04,.23,.86,.31,1.11,1.17,.58,1.92-.17,.21-.38,.39-.63,.61-.11-.83-.11-.87-.9-.96-.91-.08-1.84-.11-2.76-.17-.13,0-.27,.11-.38,.21-.54,.36-1.07,.74-1.62,1.07-.21,.14-.48,.17-.73,.18-.44,.04-.77-.24-.78-.66-.01-.41,.26-.74,.63-.76,.4-.04,.68,.29,.7,.77,0,.04,0,.07,.03,.24Zm5.54-5.49c-.7-.67-1.48-1.23-2.45-1.4-.56-.09-1.14-.1-1.61,.3-.19,.16-.36,.47-.33,.67,.04,.21,.3,.4,.48,.58,.07,.06,.23,.06,.33,.08,.91,.04,1.81,.06,2.72,.17,.38,.03,.66-.06,.85-.41Z"/><path d="M188.59,15.7c.57-1.17,.4-2.32-.11-3.04,.64-.93,.51-2.28,.47-3.51,0-.63-.47-.87-.81-.46-.3,.41-.41,1.1-.2,2.39-.34-.3-.64-.58-.93-.88-.23,.41-.47,.88-.7,1.35-.06,0-.11-.07-.11-.07l.17-3.68c.3-.17,.58-.1,.88,.24,.17,.11,.41,.23,.51,.11,.66-.53,1.23-.24,1.81,.17,.13,.11,.36,.19,.47,.06,.88-.93,1.81-.93,2.75-.23,.06,.06,.17-.07,.29-.11,.24-.17,.28-.61,.64-.58,.23,.01-.06,2.69-.06,3.96-.04,0-.11,.06-.17,.06-.28-.21-.37-1.07-.7-1.11-.11-.01-.53,.87-.61,.83,.01,0-.33-1.2-.33-1.24,.06-.51,.17-.93,.13-1.16-.07-.24-.36-.41-.47-.36-.24,.11-.54,.28-.58,.66-.13,.75-.13,1.62-.06,2.45,0,.29,.17,.58,.34,.93-.58,.75-.58,1.87-.24,2.75,.3,.8,.84,1.53,1.23,2.09-.57,.3-1.15-.16-1.68-.73-.4-.41-.64-.41-.94,.06-.58,.75-1.27,.9-1.91,.67,.27-.41,.64-1,.93-1.64Z"/><path d="M202.42,6.9l.1-.03c-.09,.04-.71,.54-1.05,1.01-.84,1.15-.56,.88-.73,2.74,0,.43,.01,.84,0,1.27-.03,.78-.04,1.55-.09,2.35-.01,.29-.01,.58-.03,.88,0,.37-.34,.97-.74,1.4-.2,.26-.47,.4-.77,.53-.23,.1-.48,.16-.74,.21-.27,.04-.53,.08-.8,.1-.36,.04-.76,.1-1.13-.03-.2-.06-.44-.11-.63-.2-.5-.24-.9-.6-1.05-1.11-.1-.31-.1-.64-.11-.96-.01-.61,.01-1.23,.06-1.82,0-.77,.03-1.52,.03-2.29,.01-.53-.01-1.04-.01-1.55,0-.17,.01-.33,0-.51-.01-.27-.3-.56-.6-.53-.06,0-.14-.03-.2-.03v-.04c.08-.03,.16-.06,.24-.07l1.71-.26c.47-.08,.96-.16,1.43-.24,.29-.04,.56-.1,.84-.14,.06-.01,.11,.01,.16,.03-.04,.03-.07,.09-.11,.09-.53,.14-.87,.56-.9,1.11v1.28c-.01,.46-.03,.93-.03,1.38l-.03,1c-.01,.31,0,.63-.01,.93-.03,.51-.06,1.03-.07,1.55,0,.38-.03,.8,.03,1.17,.06,.43,.26,.8,.73,.97,.07,.03,.2,.03,.3,0,.24-.04,.5-.08,.74-.17,.56-.17,.97-.51,1.24-1.03,.26-.5,.28-1.01,.31-1.51,.03-.53,.06-1.07,.07-1.6v-1.31c0-.23-.01-.44-.01-.68,0-.58-.01-1.08,.01-1.68,.03-.27-.29-.93-.56-1.28-.19-.18-.38-.34-.68-.31-.1,.01-.19,.01-.26,0-.01,0-.03-.06-.04-.07,.01-.01,.04-.06,.07-.06,.88-.1,2.48-.31,3.32-.47Zm.11-.03h0Z"/><path d="M210.46,7.48c.76,1.11,1.14,2.27,1.14,3.46,0,.9-.19,1.71-.58,2.47-.54,1.01-1.62,2.37-3.23,4.05-.29-.18-.54-.31-.74-.4-.21-.07-.44-.1-.67-.1-.27,0-.51,.03-.76,.1s-.54,.2-.91,.4l-.2-.18c.36-.66,.58-1.17,.7-1.55,.13-.37,.19-.71,.19-1.01,0-.47-.14-.84-.38-1.13-.26-.3-.56-.44-.88-.44-.16,0-.29,.03-.37,.09-.09,.03-.19,.13-.26,.26l-.23-.17c.11-.3,.26-.53,.46-.66,.19-.14,.43-.21,.68-.21,.17,0,.34,.03,.47,.09,.16,.04,.37,.16,.61,.34-.04-1.48-.36-2.65-.93-3.51-.3-.48-.66-.73-1.01-.73-.19,0-.34,.06-.46,.18-.16,.17-.27,.47-.34,.91l-.24-.08c.03-.51,.08-.91,.21-1.21,.13-.3,.31-.53,.56-.7,.23-.17,.48-.26,.75-.26,.4,0,.81,.17,1.21,.48,.41,.33,.77,.9,1.1,1.68l4.12-2.17Zm-.78,6.58c-.38-.19-.68-.29-.91-.33-.23-.06-.48-.08-.77-.08-.21,0-.46,.01-.7,.07-.26,.04-.53,.11-.81,.21-.14,.46-.29,.87-.46,1.23-.3,.58-.63,1.18-1.03,1.78,.48-.36,.87-.61,1.21-.74,.44-.17,.86-.27,1.25-.27,.3,0,.63,.07,1.01,.18,.3-.41,.54-.75,.71-1.04,.17-.3,.33-.64,.48-1.01Zm-3.22-4.09c.13,.47,.24,.94,.29,1.37,.6,.2,1.14,.3,1.61,.3,.61,0,1.25-.16,1.92-.46-.04-.47-.13-.93-.28-1.37-.13-.44-.37-.9-.68-1.4l-2.85,1.55Zm3.82,1.55c-.4,.16-.74,.27-1.01,.33-.29,.07-.6,.08-.93,.08-.5,0-1.03-.08-1.57-.27,.01,.2,.03,.37,.03,.47,0,.41-.09,.9-.21,1.45,.26-.08,.51-.14,.74-.18,.24-.03,.47-.06,.67-.06,.58,0,1.18,.14,1.81,.43,.3-.83,.44-1.58,.47-2.25Z"/><path d="M224.29,7.48h1.35v.63l-.8,.07c-.11,.33-1.14,2.95-2.12,5.32-.34,.84-.68,1.67-.98,2.32-.29,.67-.54,1.18-.7,1.45-.04,.07-.1,.13-.13,.16-.01,.01-.06,.03-.07,.03h-.01s-.04-.01-.06-.04c-.03-.01-.04-.06-.09-.08l-.14-.29c-.11-.21-.26-.54-.4-.93-.3-.75-.66-1.7-.93-2.51-.07-.11-.1-.23-.14-.34-.09-.24-.16-.47-.24-.67-.06-.16-.13-.31-.17-.43-.03-.1-.09-.17-.1-.23-.03-.07-.04-.11-.06-.13l-.07,.13c-.04,.09-.1,.23-.2,.43-.14,.36-.33,.87-.56,1.41-.4,1.08-.88,2.34-1.23,3.02-.09,.19-.17,.31-.23,.38-.03,.07-.07,.1-.11,.1h-.01s-.03,0-.06-.01c-.01-.01-.01-.06-.04-.07-.03-.04-.06-.09-.09-.16-.07-.13-.14-.31-.23-.54-.2-.46-.43-1.12-.67-1.82l-.13-.37c-.03-.11-.06-.23-.11-.34-.03-.13-.09-.24-.13-.38-.04-.1-.07-.21-.1-.33h-.01c-.14-.5-.31-.98-.47-1.47l-.53-1.62c-.07-.29-.17-.56-.26-.77-.17-.61-.31-1.04-.36-1.18h-1.24v-.8l4.86,.04v.6h-.61l.06,.17,.14,.41,.26,.77,.13,.37,.13,.38,.56,1.75,.13,.38,.11,.3h.01c.2-.57,1.03-2.72,1.58-4.05,.21-.46,.36-.8,.46-.96l.07-.11s.03-.01,.04-.01c.04,0,.07,.01,.09,.03,.01,.01,.03,.03,.04,.07l.11,.2c.09,.19,.2,.44,.36,.74,.04,.13,.1,.24,.16,.37,.04,.13,.1,.24,.17,.38,.06,.11,.1,.26,.16,.37l.17,.41c.06,.13,.11,.24,.14,.34,.06,.1,.1,.21,.13,.31,.06,.1,.1,.21,.13,.31,.06,.17,.13,.31,.19,.47,.06,.1,.1,.2,.14,.31l.16,.41c.07,.14,.13,.27,.17,.38,.07,.18,.13,.33,.19,.46,.06,.16,.1,.29,.14,.36l.94-2.57-.26-.57-.14-.31-.16-.33-.13-.24-.13-.3-.44-.91h-.47s-.03-.73-.03-.73h2.54s.33,.03,.33,.03Zm-10.59,.81l.13,.33,.26-.33h-.38Zm.19,.5l.07,.21,.57-.71h-.27l-.37,.5Zm.13,.37l.07,.2,.83-1.07h-.21l-.68,.87Zm.13,.36l.08,.24,1.11-1.41v-.06h-.24l-.95,1.23Zm.14,.41l.08,.23,1.1-1.41-.09-.24-1.1,1.43Zm.23,.63l1.08-1.41-.08-.23-1.1,1.41,.1,.23Zm.11,.4l1.11-1.4-.08-.23-1.1,1.4,.07,.23Zm.13,.34l1.08-1.38-.06-.17-1.1,1.38,.07,.17Zm.07,.18l.06,.2,1.07-1.37-.06-.21-1.07,1.38Zm.11,.36l.07,.2,1.07-1.35-.09-.21-1.05,1.37Zm.11,.37l.07,.2,1.07-1.35-.06-.21-1.08,1.37Zm.14,.36l.06,.17,1.04-1.35-.04-.17-1.05,1.35Zm.11,.34l.06,.19,1.04-1.34-.06-.2-1.04,1.35Zm.13,.36l.04,.18,1.05-1.34-.06-.17-1.04,1.33Zm.19,.54l1.03-1.33-.07-.2-1.04,1.33,.09,.2Zm.06,.16l.07,.21,1.01-1.3-.06-.24-1.03,1.33Zm.2,.58l1-1.3-.06-.21-1.01,1.3,.07,.21Zm.76-.37l.19-.61-.9,1.15,.1,.24,.58-.74,.03-.04Zm-.43,1.31l.3-.88-.43,.53,.13,.36Zm2.67-4.4l.04,.07,1.01-1.31-.07-.23-.87,1.13h-.01s-.1,.34-.1,.34Zm.1,.21l.1,.26,1.05-1.33-.13-.24-1.03,1.31Zm.29-1.51l-.17,.57,.7-.9-.09-.21-.41,.53h-.03Zm-.13,1.94l.13,.27,1.03-1.34-.1-.26-1.05,1.33Zm.19,.41l.07,.19,1.04-1.34-.09-.17-1.03,1.33Zm.21-3.25l-.14,.54,.24-.33-.1-.21Zm-.09,3.61l.07,.13,1.04-1.34-.07-.13-1.04,1.34Zm.13,.3l.07,.16,1.04-1.34-.06-.16-1.05,1.34Zm.14,.31l.11,.28,1.05-1.34-.13-.3-1.04,1.35Zm.17,.44l.09,.19,1.04-1.35-.07-.18-1.05,1.35Zm.14,.34l.11,.27,1.05-1.35-.11-.26-1.05,1.34Zm.17,.41l.1,.23,1.05-1.35-.1-.23-1.05,1.35Zm.27,.68l1.08-1.37-.13-.29-1.07,1.37,.11,.29Zm.19,.41l1.07-1.34-.11-.27-1.07,1.35,.11,.26Zm.58-.17l.31-.71-.83,1.07,.07,.19,.43-.56h.01Zm-.34,.78l.14-.29-.19,.21,.04,.07Zm2.01-7.67l.13-.2h-.21l.09,.2Zm.06,.14l.07,.14,.37-.49h-.17l-.27,.34Zm.2,.4l.57-.74h-.16l-.47,.63,.06,.11Zm.07,.14l.09,.16,.81-1.04h-.21l-.68,.88Zm.8-.29l.29-.6h-.01l-.93,1.2,.09,.16,.53-.68,.04-.07Zm-.47,1.03l.21-.44-.26,.31,.04,.13Z"/><path d="M232.75,7.38c.58,.41,1.27,.8,2.04,1.14l-.58,1.11-1.78-.77-1.43,3.02h3.12l-.47,1.03h-2.05l1.23,2.58c.24,.53,.43,.84,.53,.97,.16,.18,.3,.29,.41,.29,.07,0,.19-.09,.36-.24l.44-.38,.23,.24-1.67,1.47c-.41-.2-.71-.38-.87-.54-.16-.16-.34-.48-.56-.94l-1.41-2.96-2.12,4.45c-.61-.43-1.34-.8-2.17-1.11l.56-1.23,2.01,.78,1.57-3.36h-3.01l.47-1.03h1.98l-1.01-2.15c-.21-.41-.34-.68-.43-.78-.11-.17-.26-.3-.46-.38-.19-.1-.37-.14-.54-.14-.21,0-.41,.06-.61,.19-.2,.13-.4,.34-.61,.63l-.19-.21c.14-.53,.41-.94,.77-1.21,.36-.29,.75-.43,1.18-.43,.48,0,.88,.11,1.18,.37,.31,.24,.63,.68,.93,1.34l1.08,2.28,1.88-3.99Z"/><path d="M238.1,9.83c.61-.11,.6-.4,.57-.91-.01-.37-.04-.76-.04-1.14,0-.1,.11-.19,.17-.27,.07,.08,.2,.17,.2,.26,.03,.33,.01,.66,.01,1,0,.11,.01,.23,.03,.33l.1,.06c.56-.57,1.13-1.11,1.74-1.72,.14,.26,.26,.5,.4,.74,.26,.4,.64,.46,1.03,.2,.09-.06,.21-.06,.33-.08,0,.13,.04,.29,0,.37-.1,.19-.2,.41-.37,.51-.38,.26-.36,.61-.36,.98,.01,1.3,.01,2.61,.01,3.89l.04,1.45c.07,1.07-.41,1.68-1.48,1.9-.74,.16-1.48,.31-2.21,.51-.23,.06-.48,.17-.61,.36-.11,.14-.16,.43-.1,.61,.07,.24,.33,.3,.56,.16,.43-.26,.84-.51,1.25-.78,.68-.41,1.7-.53,2.19,.29,.19,.33,.19,.87-.03,1.13-.3,.38-.9,.6-1.24,.46-.07-.01-.1-.09-.21-.2,.19-.03,.3-.06,.43-.06,.27,0,.53-.04,.66-.29,.07-.14,.16-.34,.1-.43-.09-.11-.31-.26-.44-.23-.27,.06-.53,.19-.76,.33-.27,.19-.51,.44-.78,.64-.63,.46-1.54,.48-2.07-.17-.5-.61-.3-1.5,.36-1.84,.17-.08,.34-.2,.53-.28-.33-.16-.64-.24-.88-.43-.44-.3-.68-.71-.63-1.3,.08-.87,.04-1.77,.03-2.64,0-.09-.11-.2-.21-.23-.33-.08-.63,.14-.71,.53h-.36c0-.37-.04-.75,.01-1.11,.11-.64,.3-.81,.94-.88,.29-.03,.27-.14,.27-.37-.03-.47,.01-.94,0-1.4,0-.43-.24-.77-.56-.78-.31,0-.61,.34-.64,.8-.2,.01-.33,0-.29-.26,.04-.46-.01-.94,.29-1.35,.28-.43,.67-.63,1.15-.64,.63-.01,1.08,.26,1.28,.81,.17,.47,.21,1,.3,1.5Zm.58,7.23c-.06-.47,.19-.91,.07-1.4-.11-.44-.03-.93-.04-1.4,0-.88-.01-1.77-.01-2.64-.01-.56,0-1.11,0-1.67-.47,.06-.7,.34-.7,.77,.01,1.72,0,3.43,.04,5.16,.01,.44,.16,.9,.64,1.17Zm.63-5.42c.2-.03,.36-.04,.53-.06,.48-.04,.58-.13,.61-.58,.01-.29-.06-.56,0-.84,.07-.38,.01-.7-.43-.84-.13-.06-.3-.2-.37-.16-.24,.14-.64,.36-.64,.56-.01,.64-.26,1.37,.3,1.92Zm-.26,.24v2.07h1.44c0-.64,0-1.28-.01-1.92,0-.06-.19-.14-.29-.14-.36-.01-.71,0-1.14,0Zm.01,4.52h.01c0,.2-.01,.4,0,.6,.01,.09,.07,.19,.14,.21,.44,.17,1.13-.14,1.17-.61,.09-.67,.07-1.34,.09-2.01,0-.07-.1-.21-.14-.21-.36-.03-.71-.04-1.05-.03-.09,.01-.2,.17-.2,.27-.03,.58-.01,1.18-.01,1.78Z"/><path d="M251.11,7.65c-.41,.54-.75,1.04-1.03,1.48-.29,.43-.8,1.25-1.57,2.48h2.22l-.27,.51h-2.28c-.13,.26-.29,.51-.47,.77h2.38l-.23,.5h-2.47c-.29,.46-.58,.87-.94,1.24-.34,.38-1.14,1.15-2.38,2.32,1.35-.58,2.64-.87,3.83-.87,.4,0,.77,.03,1.13,.13,.33,.08,.71,.24,1.11,.44l.76-.88,.2,.2-1.55,1.9c-.6-.28-1.13-.48-1.6-.6-.47-.13-1-.19-1.55-.19s-1.1,.07-1.62,.19c-.5,.13-1.08,.33-1.74,.6l-.19-.24c.53-.58,.97-1.14,1.31-1.61,.36-.48,.94-1.35,1.77-2.62h-2.22l.24-.5h2.32l.47-.77h-2.42l.24-.51h2.54c.31-.47,.64-.9,1-1.28,.5-.54,1.17-1.18,1.98-1.97-.67,.34-1.27,.57-1.78,.7-.53,.13-1.07,.2-1.64,.2-.47,0-.88-.04-1.27-.14-.27-.07-.61-.21-1-.43l-.85,1.04-.23-.21,1.72-2.04c.58,.3,1.08,.5,1.54,.61s.93,.17,1.38,.17,.91-.06,1.34-.17c.46-.11,.98-.31,1.6-.61l.21,.17Z"/><path d="M50.86,33.89c-.07,.08-.13,.16-.2,.2-.27,.21-.58,.37-.74,.68-.07,.11-.29,.1-.4-.01-.36-.33-.56-.66-.67-1.17-.19,.07-.37,.11-.54,.19-.29,.1-.56,.21-.84,.33-.1,.04-.21,.1-.29,.18-.16,.17-.4,.24-.58,.37-.21,.16-.41,.1-.66-.13-.06-.06-.11-.11-.2-.14-.11-.04-.14-.13-.14-.24,0-.08,0-.17-.03-.26-.06-.2-.16-.38-.17-.6-.03-.21,.03-.44,.07-.67,.06-.33,.2-.63,.38-.93,.29-.5,.76-.75,1.24-1.03-.06-.1-.1-.2-.17-.28-.19-.27-.38-.53-.58-.78-.07-.1-.11-.23-.2-.33-.13-.14-.29-.26-.43-.38-.09-.07-.17-.16-.24-.24-.13-.17-.11-.2,.06-.3l.78-.34c.16-.07,.3-.07,.43,.1,.23,.28,.54,.47,.9,.54,.27,.04,.48-.1,.7-.26,.26-.17,.5-.37,.77-.54,.1-.07,.19-.03,.29,.06,.19,.17,.4,.34,.61,.48,.1,.06,.26,.04,.38,.07,.06,.01,.13-.01,.19,.01,.04,.01,.1,.07,.1,.13,.01,.03-.03,.09-.06,.11-.13,.1-.26,.21-.38,.29-.13,.09-.16,.19-.17,.31,0,.2,0,.4-.01,.6-.04,.6,.07,1.18,.04,1.8-.01,.37-.01,.74,0,1.11,.01,.2,.04,.43,.13,.6,.1,.19,.23,.37,.46,.41,.06,0,.1,.03,.19,.06Zm-4.55-4.69c.14,.21,.26,.41,.4,.6,.13,.2,.29,.37,.41,.56,.11,.19,.19,.24,.41,.2,.14-.01,.27-.04,.41-.06,.03-.01,.07,0,.1,.01,.01,.01,.01,.03,.01,.04l-.27,.13c-.27,.13-.28,.2-.11,.44,.19,.26,.4,.5,.56,.78,.07,.13,.06,.3,.06,.46,.01,.04-.07,.11-.11,.11-.06,0-.13-.06-.16-.1-.03-.06-.03-.13-.01-.19,.01-.19,.01-.34-.13-.5-.13-.11-.21-.29-.31-.43-.1-.16-.16-.17-.3-.04-.29,.26-.37,.61-.43,.97-.07,.46-.04,.93,.23,1.34,.09,.11,.19,.23,.29,.34,.14,.13,.27,.03,.41-.03,.31-.13,.64-.23,.97-.36,.1-.03,.13-.1,.13-.21,.01-.4-.03-.81,0-1.21,.03-.27,.01-.56,0-.83-.01-.66-.03-1.31-.06-1.95,0-.14-.03-.24-.17-.31-.17-.06-.3-.26-.5-.21-.19,.04-.38,.08-.53,.2-.23,.19-.5,.23-.77,.24-.16,.01-.31,0-.53,0Z"/><path d="M51.05,34.13c.06-.23,.8-.67,.8-1.5-.01-1.81,0-3.61-.01-5.42,0-.54-.03-1.13-.03-1.67,0-.29-.16-.44-.38-.57-.21-.09-.46-.37-.48-.61-.01-.33,.3-.38,.6-.38h2.27c.34,0,.48,.14,.48,.5-.04,.88-.04,1.78-.07,2.68-.01,.64,.11,.8,.71,.77,.27,0,.54-.1,.84-.13,.7-.13,1.33,.11,1.88,.61l.97,1.07c.21,.56,.44,1.11,.37,1.74-.01,.24,0,.53-.09,.71-.2,.5-.33,.98-.58,1.47-.3,.58-.74,1.01-1.35,1.17-.68,.21-1.38,.46-2.14,.11-.19-.11-.43-.03-.63-.03s-.4,.04-.6,.04c-.46-.04-.91-.09-1.34-.16-.08,0-.21,0-.27,.03-.46,.17-.94-.03-.94-.44Zm4.99-1.3c.29-1.37,.33-1.82,.17-2.89-.14-.36-.29-.77-.54-.98-.29-.2-.87,.21-1.03,.67-.13,.44-.16,.9-.29,1.34-.19,.83,.13,2,.77,2.57,0,0,.68,.3,.91-.7Z"/><path d="M63.48,27.76c.8,0,1.58,.21,2.35,.58,.29,.13,.4,.36,.33,.66-.06,.33-.23,.6-.6,.58-.11,0-.24,0-.33-.04-1.05-.51-2.11-.4-3.16-.13-.63,.16-1.4,1.01-1.42,1.64-.03,.87,.27,1.61,1.11,2.04,.29,.14,.61,.2,.93,.21,.93,.04,1.84,.07,2.72-.34,.46-.21,.8,.01,.88,.41,.09,.43-.16,.78-.58,.94-.76,.31-1.54,.49-2.34,.51-1.5,.06-3.32-.91-3.86-2.45-.4-1.11-.26-2.24,.57-3.24,.9-1.08,2.05-1.38,3.41-1.38Z"/><path d="M74.75,32.66c-.06,.13-.07,.24-.13,.36-.11,.38-.27,.78-.51,1.11-.31,.4-.66,.71-1.18,.74-.19,0-.4,.03-.58,.01-.16-.01-.33-.04-.47-.13-.1-.06-.17-.21-.26-.31l-.16-.3c-.06-.1-.11-.1-.2,0-.19,.21-.34,.43-.56,.61-.21,.21-.46,.38-.7,.54-.5,.29-1.05,.4-1.62,.27-.37-.07-.64-.31-.88-.58-.19-.21-.33-.47-.44-.71-.04-.11-.09-.24-.11-.4l-.17-.61c.04-1.77,.23-1.92,.4-2.31,.09-.27,.03-.14,.24-.57,.16-.24,.3-.49,.48-.67,.2-.24,.43-.44,.68-.61,.28-.21,.61-.37,.94-.54,.33-.17,.68-.21,1.07-.26,.3-.03,.56,0,.78,.14,.07,.03,.13,.08,.2,.13,.09,.07,.13,.07,.17-.06,0-.14,.01-.27,.01-.4,.06-.58,.1-1.17,.14-1.74,.01-.26,.01-.5-.07-.74-.07-.2-.14-.33-.34-.38-.03,0-.04-.01-.07-.06,.87-.51,1.77-1,2.55-1.64-.04,.24-.13,.43-.17,.63l-.09,1.17c-.04,.77-.11,1.51-.17,2.28-.08,1.11-.16,2.25-.24,3.39-.03,.46-.04,.91-.04,1.37-.01,.23,.01,.41,.19,.57,.1,.06,.17,.19,.24,.24,.06,.03,.14,0,.19,0,.14-.03,.24-.1,.37-.11,.28-.01,.31-.28,.51-.43Zm-3.09-3.51c.1-.19,.01-.33-.1-.44-.03-.03-.04-.06-.07-.07-.16-.21-.4-.3-.66-.29-.31,.03-.57,.11-.83,.3-.1,.1-.23,.23-.33,.34-.37,.4-.58,.87-.68,1.41-.04,.13-.04,.27-.07,.38,0,.04-.03,.1-.06,.4-.03,.11-.04,.21-.06,.31-.06,.41-.03,.81,.04,1.21,.06,.48,.26,.87,.64,1.15,.2,.16,.43,.17,.66,.17,.11,.01,.21-.01,.36-.06l.26-.09q.24-.16,.36-.31s.07-.07,.09-.11c.07-.07,.16-.14,.2-.23,.01-.1,.03-.23,.03-.34,.06-.71,.1-1.44,.17-2.17,.01-.13,.01-1.54,.06-1.58Z"/><path d="M82.2,29.82c-1.38,.73-2.72,1.44-4.06,2.15v.83c.53,.26,1.01,.51,1.51,.73,.11,.04,.3-.03,.44-.09,.21-.07,.41-.17,.61-.27,.04,.04,.07,.09,.1,.13-.09,.09-.16,.2-.26,.27-.67,.4-1.35,.81-2.04,1.18-.13,.08-.4,.13-.48,.06-.71-.6-1.54-.74-2.44-.67-.07,0-.14-.01-.3-.13,.24-.23,.48-.44,.71-.68,.13-.14,.3-.33,.3-.5,.01-1.13,.01-2.25-.03-3.38-.01-.3-.17-.6-.27-.88-.04-.11-.1-.21-.16-.37,.56-.04,1.05-.07,1.55-.11,.91-.09,1.8-.31,2.59-.8,.2-.13,.33-.14,.5,.1,.48,.71,1.03,1.41,1.54,2.11,.07,.1,.11,.21,.17,.33Zm-3.41-1.62q-.67,.11-.64,.77c0,.14,0,.29,.01,.43v2.19c.77-.43,1.43-.78,2.05-1.13-.48-.78-.96-1.51-1.43-2.27Z"/><path d="M85.04,25.23c0,1.01-.01,1.94,0,2.87,0,.34,.64,.51,1.05,.31,.11-.06,.26-.09,.38-.14,0,.14,.04,.29,.01,.43-.1,.57-.21,.67-.81,.7-.58,.03-.66,.08-.64,.68,.01,1.15,.07,2.32,.1,3.49,.01,.5,.36,.78,.86,.71,.14-.01,.29-.06,.48-.1,0,.13,.04,.3-.01,.36-.44,.4-.85,.86-1.35,1.17-.44,.27-.81,.07-1.15-.38-.3-.43-.6-.44-.9-.06-.2,.29-.44,.24-.66,.09-.24-.2-.07-.41,.11-.54,.21-.2,.44-.34,.67-.53,.4-.26,.43-.61,.37-1.07-.06-.64,.03-1.3,.03-1.94,0-.53-.03-1.05-.07-1.58-.03-.33-.33-.36-.68-.16-.16,.1-.36,.13-.53,.17,0-.2-.01-.41,0-.63,.04-.53,.4-.68,.87-.66,.34,.01,.46-.16,.44-.46-.09-.77-.13-1.54-.24-2.28-.04-.43,.11-.66,.44-.88,.48-.33,.96-.7,1.37-1.08,.38-.36,.7-.36,1.01,.09,.1,.11,.26,.27,.4,.29,.2,.01,.46-.11,.5,.2,.03,.23,.03,.54-.1,.73-.37,.54-1.13,.67-1.71,.34l-.24-.13Z"/><path d="M87.82,30.64c.23-.54,.57-1.05,.95-1.52,.47-.54,1.03-.96,1.85-1.23,.37-.1,.7-.06,.91,.21,.06,.01,.16,.08,.24,.16,.11-.5,.1-.57,.33-.63,.33-.11,.7-.2,1.03-.31,.04,0,.09-.09,.16-.13,.01,.04,.07,.04,.16,.11-.34,1.44-.66,2.89-1.03,4.39l-.37,1.7c-.16,.3-.29,.67-.43,1.01-.04,.11-.11,.19-.16,.29-.13,.24-.2,.51-.34,.77-.34,.53-.73,1.07-1.13,1.6-.17,.26-.36,.49-.57,.74-.26,.21-.46,.46-.74,.66-.33,.26-.71,.5-1.11,.63-.3,.11-.58,.21-.93,.2-.37,0-.58-.17-.61-.48,0-.47,.21-.96,.48-1.38,.7-1.08,1.11-1.65,2.17-2.42,.28-.2,.57-.41,.9-.6,.24-.17,.48-.33,.74-.47,.16-.04,.21-.11,.2-.23,.11-.34,.2-.66,.27-1.01,.04-.19,.06-.34,.03-.51-.11,.14-.24,.3-.31,.46-.27,.43-.61,.75-1.11,1.01-.6,.31-1.07,.21-1.35-.17-.16-.17-.41-.84-.47-1.15-.13-.64-.01-1.18,.24-1.67Zm2.19,3.99c-.64,.36-1.1,.81-1.51,1.31-.4,.56-.77,1.05-.9,1.64-.1,.26-.01,.43,.21,.44,.56,.03,.9-.21,1.08-.66,.31-.63,.66-1.23,.98-1.8,.16-.29,.27-.57,.36-.87,.04-.14-.01-.21-.23-.07Zm1.6-5.57c.06-.21-.01-.37-.13-.58-.13-.07-.23-.1-.41-.07-.47-.01-.74,.27-.98,.57-.14,.21-.2,.44-.27,.67-.11,.31-.23,.66-.33,.96-.06,.31-.13,.63,.07,.9,.37,.61,1.44-.03,1.67-.8,.16-.53,.23-1.08,.38-1.64Z"/><path d="M96.93,24.18c-.7,1.77-.34,3.51-.47,5.29,.93-.54,1.72-1.07,2.52-1.6,.26-.14,.43-.19,.64,.09,.56,.56,1.21,.78,2.05,.37-.04,.56-.34,.83-.63,1.13-.09,.11-.2,.24-.2,.38-.01,1.2-.04,2.42,0,3.66,.03,.43,.21,.87,.36,1.24-.36,0-.77-.01-1.17,0-.23,.03-.46,.04-.67,.11-.57,.21-.63,.74-.14,1.1,.09,.08,.21,.13,.33,.21,.58,.48,.77,.95,.54,1.48-.21,.54-.84,.84-1.57,.76,.77-.64,.47-1.4,.21-2.09-.27-.56-.34-1.08,.04-1.61,.14-.16,.17-.4,.17-.63,0-1.33,.03-2.67,0-4,0-.09-.08-.24-.17-.31-.33-.2-.67-.41-1.07-.63-.3,.19-.67,.38-1.01,.63-.11,.07-.21,.24-.21,.36,0,1.07,0,2.12,.01,3.22,.04,.11,.19,.33,.3,.4,.36,.24,.74,.43,1.21,.68-.54,.24-.98,.37-1.31,.63-.6,.47-1.07,.67-1.71,.03-.28-.29-.91-.23-1.41-.34,.06-.33,.37-.63,.67-.86,.14-.14,.24-.34,.24-.5,0-2.19,0-4.39-.04-6.58,0-.37-.13-.78-.23-1.11-.1-.34-.1-.53,.29-.64,.57-.14,1.08-.4,1.61-.61,.24-.1,.53-.16,.81-.24Z"/><path d="M103.1,27.9s.17,.51,.47,.54,1.15-.14,1.15-.14c0,0-.21,.54-.48,.7l-.48,.27,.04,4.06s0,.5,.37,.54c.37,.06,.73,0,.73,0,0,0-.7,.34-.95,.58-.24,.24-.38,.43-.38,.43,0,0-.71-.34-.77-.81-.08-.44,0-4.77,0-4.77,0,0-.3-.1-.44-.23-.16-.14-.29-.31-.29-.31l-.34,.19-.11-.1,1.5-.94Zm-.98-1.67s.41,.38,1.03,.38,1.21-.67,1.21-.67c0,0,.24-.4,.21-.5-.03-.11-.33,.29-.63,.29s-.54-.06-.67-.16c-.13-.09-.24-.4-.24-.4l-1.25,1.15,.07,.09,.27-.19Z"/><path d="M106.93,27.66c.26,.3,.47,.51,.67,.7,.2,.19,.48,.38,.86,.64-.3,.44-.53,.84-.66,1.24-.11,.4-.2,.84-.2,1.31s.06,1.07,.19,1.8c.09,.5,.13,.88,.13,1.11,0,.53-.11,1.01-.34,1.44-.24,.44-.56,.83-.98,1.15-.26,.23-.66,.43-1.17,.68l-.14-.27c.46-.3,.8-.64,.98-1.01,.21-.38,.33-.78,.33-1.18,0-.29-.06-.75-.2-1.35-.2-.93-.3-1.68-.3-2.25,0-.4,.03-.75,.1-1.08s.17-.71,.36-1.14c-.16-.24-.37-.43-.61-.61l-.74,.4-.23-.21,1.97-1.35Zm1.58-2.58l-1.01,1.6h-.33l.37-1.6h.97Z"/><path d="M114.72,30.58c.58,1.05,1.11,1.91,1.55,2.82,.47,1.01,.43,1.03,1.33,.78-.64,.57-1.31,1.2-2.02,1.84-.91-.51-1.08-1.54-1.5-2.38-.19-.36-.27-.74-.5-1.05-.26-.37-.43-1.08-1.15-.56-.74,.51-1.05,1.34-.61,1.88,.11,.17,.48,.17,.74,.17,.14,.01,.3-.14,.48-.14-.54,.61-1.1,1.24-1.65,1.84-.11,.08-.37,.06-.54,.01-.1-.03-.16-.2-.26-.29-.76-.83-1.08-.88-2-.41,0-.04-.01-.13,0-.14,1.13-.68,1.33-1.71,1.27-2.95-.1-1.78-.06-3.56-.03-5.34,.01-.68-.04-1.25-.88-1.28,.98-.57,1.97-1.14,2.81-1.64v5.46c1.37-.54,2.44-1.48,3.52-2.51,.43,.83,.86,1.57,1.2,2.37,.06,.13-.13,.43-.3,.56-.48,.36-1.01,.68-1.45,.97Zm.13-.46c-.66-1.72-.83-1.78-2.22-1.05-1.04,.54-1.43,1.91-.83,3.02l3.05-1.97Z"/><path d="M120.17,29c-.48,0-.34,.9-.88,3.41l-.06,.23c-.34,.91,.13,1.08,.76,1.03,.26-.01,.5-.01,.77-.01,1.18,0,.37-2.14,1.33-2.14,.68-.01,1.11,.48,1.01,.73-.24,.7-.48,1.4-.8,2.07-.2,.4-.56,.58-1.1,.56-1.03-.1-2.07-.07-3.12-.07-.44,0-.41-.14-.38-.56,.03-.44,.21-1.03,.29-1.54,.06-.29,.13-.7,.2-.98,.17-.74,.3-1.34,.47-2.09,.04-.19,.17-.6,.04-.61-.61-.1-.77-.8-.51-1.03,.24-.21,.81-.2,2.17-.16,.64,.01,.9,.27,.83,.8-.03,.29-.63,.38-1,.38Z"/><path d="M123.77,34.17c1.15-1.11,.68-2.51,.7-3.78,0-.77-.37-1.05-1.3-1.14,.73-.54,1.37-.98,2.08-1.51-.01,.77,.51,1,.9,1.27,.09,.06,.38-.06,.51-.17,.51-.38,.97-.8,1.52-1.12-.07,.11-.14,.23-.23,.4,.53,.26,.91,.97,1.62,.71,.57-.2,1.05-.66,1.62-1.03,.48,.86,1.31,.98,2.21,.98l.09,.19c-.36,.33-.77,.63-1.11,1.01-.16,.16-.31,.46-.33,.71,0,.73,.06,1.45,.07,2.18,.04,.58,.31,.91,.97,1.07-.46,.44-.9,.88-1.35,1.25-.07,.06-.41-.07-.54-.21-.44-.53-.71-1.04-.53-1.85,.2-.97,.1-2.02,.03-3.02-.03-.31-.61-.85-.77-.8-.41,.16-.83,.51-1,.9-.19,.36-.06,.88-.06,1.3,0,.13,.06,.28,.04,.38-.04,.88-.06,1.72,1.01,2.14-.54,.47-1,.84-1.37,1.15-.54-.47-1-.88-1.51-1.28,.66-.66,.46-1.51,.44-2.35-.04-.43-.06-.84-.1-1.28-.01-.2-.07-.47-.2-.58-.2-.19-.58-.4-.73-.33-.27,.14-.58,.5-.6,.78-.04,1.03-.03,2.07,.07,3.11,.01,.24,.36,.44,.64,.75-.36,.3-.71,.66-1.13,.98-.09,.06-.27,.03-.38-.01-.43-.24-.85-.5-1.31-.8Z"/><path d="M141.25,34.46c.17,.46-.97,.44-1.5,.44-.4,.01-.81,.01-1.18-.07-.21-.04-.38-.23-.6-.34,.13-.13,.29-.24,.41-.4,.16-.19,.41-.38,.44-.61,.17-1.3,.19-2.59-.08-3.89-.07-.47-.74-.78-1.21-.57-.78,.34-1.14,1.01-1.23,1.81-.06,.86,0,1.74,.03,2.61,.01,.18,.2,.37,.33,.53,.17,.26,.34,.5,.54,.73-.03,.07-.07,.14-.1,.26-.98-.03-1.95-.03-2.94-.07-.1,0-.29-.2-.29-.3,0-.13,.14-.36,.24-.37,.76-.19,.8-.68,.77-1.31-.01-.64,.16-1.3,.14-1.94-.01-.6-.14-1.21-.3-1.77-.03-.14-.38-.17-.57-.29-.21-.11-.56-.24-.57-.4-.04-.27,.09-.53,.53-.48,.43,.04,.87-.09,1.31-.16,.51-.09,.8,.18,.74,.7-.03,.13,.01,.27,.01,.57,.46-.31,.78-.48,1.03-.77,.5-.56,1.08-.6,1.68-.4,.77,.23,1.27,.75,1.3,1.58,.04,1.21,.04,2.39,.06,3.59q.01,.86,.85,.96l.14,.37Z"/><path d="M141.5,34.01c.03-1.28,.06-2.52,.1-3.76v-.1c-.37-.74,.2-.74,.73-.96,0,.68,0,1.28-.01,1.9,0,.74-.09,1.43-.07,2.15,.01,.2,.19,.44,.34,.56,.57,.4,1.17,.77,1.77,1.15-.26,.41-.48,.48-.9,.21-.66-.44-1.35-.81-1.95-1.15Zm4.05-4.15c0,.64-.01,1.27-.03,1.88-.01,.67-.09,1.37-.03,2.04,.01,.51-.37,.67-.68,.85-.13,.09-.43-.04-.58-.14-.47-.27-.96-.58-1.4-.88-.1-.08-.24-.3-.21-.44-.01-1.28,.01-2.58,.04-3.88,.01-.34,.77-.98,1.11-.94,.07,0,.14,.04,.19,.09l1.47,1.27c.06,.06,.09,.11,.13,.16Zm-2.1-.73c-.03,.1-.1,.2-.1,.3-.01,.91-.07,1.85-.09,2.79,0,.33-.06,.8,.14,.96,.37,.34,.87,.47,1.38,.7-.01-.4-.06-.84-.06-1.3,.01-.71,.09-1.41,.11-2.11,0-.16-.07-.36-.19-.46-.36-.3-.78-.57-1.21-.88Zm3.15,4.32c-.23,.11-.46,.29-.78,.48-.01-.4-.04-.7-.03-1.01,.01-.98,.07-1.94,.06-2.92-.01-.2-.19-.44-.36-.58-.46-.4-.97-.78-1.45-1.15,.33-.46,.54-.53,.9-.19,.46,.43,1,.74,1.48,1.13,.13,.11,.21,.33,.23,.51,0,.74-.07,1.48-.1,2.24-.01,.47,.03,.94,.06,1.5Z"/><path d="M149.34,34.97h-.04c-.04,.54-.16,1.05,.01,1.57,.06,.13,.1,.27,.16,.4,.07,.14,.01,.23-.1,.29-.14,.07-.3,.17-.46,.16-.3,0-.54,.11-.8,.26-.07,.06-.19,.08-.27,.07-.11-.01-.26-.1-.31-.2-.04-.1-.03-.3,.04-.4,.11-.26,.21-.51,.21-.81,.01-.34,.04-.67,.06-1.01,0-.13,0-.27-.03-.38-.04-.14-.13-.37-.19-.36-.16,.01-.31,.1-.47,.19-.06,.04-.1,.17-.17,.24-.11,.14-.23,.13-.26-.04-.03-.2-.03-.41,.03-.6,.11-.48,.43-.86,.81-1.14,.03-.03,.09-.03,.13-.07,.06-.06,.13-.14,.13-.23,0-.27-.04-.56-.06-.83-.01-.67-.04-1.34-.1-2.01-.01-.11-.14-.23-.24-.33-.09-.07-.21-.08-.31-.14-.1-.06-.24-.14-.24-.23,0-.1,.07-.27,.16-.34,.31-.21,.56-.49,.77-.8,.3-.43,.96-.3,1.14,.21,.1,.27,.17,.53,.26,.8,.04,.17,.16,.21,.3,.16,.44-.19,.77-.54,1.11-.9,.24-.26,.5-.56,.91-.53,.2,.01,.37,.07,.47,.27,.11,.21,.27,.27,.47,.27,.19,0,.36,.01,.43,.26,.09,.29,.09,.43-.16,.6-.28,.21-.38,.5-.38,.85,.01,.19-.03,.39-.06,.57,0,.06-.03,.1-.01,.13,.14,.61,.06,1.24,.09,1.85,.04,.43,.16,.85,.24,1.3,.07,.4-.07,.56-.44,.43-.54-.17-1.07-.07-1.58,.14-.21,.08-.4,.3-.58,.47-.2,.17-.33,.19-.5-.01-.06-.06-.09-.13-.1-.2-.03,.03-.04,.06-.06,.09Zm1.54-4.6h.01v-.23c.01-.27-.34-.66-.58-.66-.04,.01-.09,.03-.11,.06-.19,.1-.36,.21-.56,.31-.37,.23-.47,.46-.4,.9,.01,.11,.03,.23,.03,.36-.03,.51-.04,1.04-.06,1.55-.01,.31,.08,.41,.36,.53,.14,.06,.3,.16,.41,.24,.14,.11,.26,.26,.4,.37,.09,.06,.21,.11,.27,.09,.07-.04,.16-.17,.17-.27,.03-.27,.01-.54,.01-.83,.01-.81,.01-1.61,.04-2.42Z"/><path d="M158.64,28.83c-.23,.14-.37,.23-.38,.41-.07,.11-.13,.47-.13,1v5.26c0,.46,.06,.81,.13,1.01,.09,.19,.23,.41,.46,.63l-.14,.16c-.37-.13-.68-.37-1.04-.68-.19,.3-.41,.53-.68,.68-.26,.17-.63,.3-1.11,.44l-.04-.14c.34-.31,.6-.61,.68-.86,.1-.27,.17-.67,.17-1.17v-1.74l-2.17,1.74c-.44-.3-.77-.56-.93-.77-.17-.2-.29-.38-.36-.6-.06-.2-.09-.53-.09-.98v-4.55c1-.33,1.8-.77,2.42-1.3,.74,.53,1.38,.9,1.87,1.08,.37,.14,.81,.21,1.27,.21l.07,.16Zm-4.1,3.98c0,.46,.04,.75,.11,.87,.03,.1,.3,.33,.76,.7l1.14-.91v-3.82l-2.01-.97v4.13Z"/><path d="M163.45,30.54c-.4,.19-.73,.31-1.03,.51-.14,.07-.2,.3-.31,.44-.09,.11-.21,.19-.33,.27-.04-.13-.17-.33-.11-.38,.54-.74-.17-1.17-.27-1.74l-.17-.04c-.06,.16-.19,.31-.19,.44,0,1.03,.01,2.01,.07,3.01,.01,.24,.17,.46,.34,.8-.4,.34-.87,.75-1.35,1.15-.06,.04-.29-.03-.36-.1-.27-.36-.48-.7-.71-1.04-.2-.24-.1-.43,.13-.56,.4-.26,.5-.64,.47-1.07-.06-1.04-.09-2.07-.16-3.11,0-.2-.16-.4-.31-.57-.26-.24-.27-.51,.04-.63,.3-.13,.67-.21,1.03-.21,.38-.03,.66,.33,.68,.84,.01,.26,.01,.53,.01,.78h.13c.17-.16,.31,.09,.36-.08,.26-.19,.5-.38,.77-.53,.14-.06,.47-.04,.48,.03,.31,.6,.56,1.23,.78,1.78Z"/><path d="M164.56,32.48s.2,.36,.3,.51c.54,.84,1.58,1.14,2.75,.83,.27-.07,.56-.29,.56-.54,0-.29-.29-.57-.56-.83-.54-.29-1.08-.29-1.64-.57-.56-.26-1.11-.54-1.35-.8-.83-.83-.57-2.22,.24-2.75,1.38-.83,2.75-.54,4.13-.27,.16,0,.38,.3,.19,.7-.23,.24-.71,.83-.84,.83,0,0-.98-.73-1.81-.98-.56-.27-.83,0-1.11,.54,0,.56,.29,.83,.56,.83,.83,.29,1.38,.56,2.19,.83,.54,.29,1.1,.54,1.1,1.37s0,1.65-.83,2.19c-1.64,.83-3.02,.54-4.65,0,0,0-.29-.54,0-.83,0-.26,.71-1.05,.77-1.05Z"/><path d="M169.67,26.23s.57-.13,.9-.33c.46-.23,.78-.46,.78-.46l-.23,2.24h1.57v3.91s.11-.11,.34-.11c.1,0,.1,.23,.1,.33,0,.11-.21,.11-.33,.11s-.23-.33-.23-.33v-3.25h-1.45l.13,5.79,.66,.44s.44-.04,.46,0c.03,.09-.56,.23-.68,.33-.1,.13-.33,.46-.33,.46,0,0-.33-.46-.67-.46-.33-.1-1.34-.1-1.34-.1,0,0,.23-.34,.46-.46l.44-.21,.04-5.8h-.7v-.68h.66v-.97l-.23-.23c-.11-.11-.34-.21-.34-.21Z"/><path d="M173.56,28.8c.17-.1,.36-.16,.48-.29,.34-.33,.68-.66,.97-1.01,.3-.37,.53-.41,.74,.03,.24,.5,.48,1.05,.51,1.6,.09,1.25,.07,2.51,.06,3.76,0,.38,0,.7,.43,.84,.13,.03,.24,.13,.33,.23,.16,.17,.29,.14,.44,.01,.24-.2,.51-.36,.71-.58,.13-.17,.2-.43,.2-.64,.01-.9-.01-1.81,0-2.71,0-.74-.21-.94-1-.95-.1,0-.2-.09-.36-.16,.14-.13,.23-.19,.31-.26,.46-.44,.93-.87,1.37-1.31,.19-.17,.36-.29,.54-.01,.41,.63,.93,.9,1.68,.43,.11,.5-.13,.84-.41,1.04-.5,.37-.56,.78-.48,1.35,.07,.67-.03,1.34-.03,2.01,0,.41,.04,.83,.09,1.23,.04,.37,.33,.5,.64,.57,.13,.03,.24,.03,.43,.06-.07,.14-.1,.24-.16,.31-.29,.4-.6,.77-.88,1.18-.2,.3-.41,.23-.64,.09-.56-.34-.91-.81-.98-1.47-.01-.13-.09-.24-.14-.46-.83,.71-1.58,1.38-2.37,2.08-.57-.67-1.17-1.27-2.21-.75-.04-.44,.13-.76,.43-.94,.56-.31,.58-.77,.54-1.34-.07-.9-.07-1.78-.07-2.68,0-.61-.23-.93-.83-1.03-.07-.01-.13-.04-.2-.06l-.14-.17Z"/><path d="M186.97,28.18c0,.07,0,.14-.03,.2-.07,.34-.17,.68-.24,1.01-.17,.83-.33,1.68-.51,2.51-.14,.66-.29,1.3-.46,1.94-.04,.14-.1,.27-.17,.38s-.16,.23-.27,.3c-.07,.06-.16,.1-.24,.11-.4,.07-.85,.11-1.27,.11-.06,0-.61,.07-.97-.37-.26-.28-.46-.68-.56-1.14-.16-.68-.24-1.38-.37-2.08-.14-.81-.29-1.61-.41-2.41-.03-.2-.04-.33-.04-.46,0-.06,0-.11,.01-.19,.01-.04,.04-.13,.11-.17,.03-.03,.06-.04,.1-.06,.16-.07,.21-.06,.34-.06h.01c.16,0,.29-.01,.44,.11,.04,.03,.09,.09,.1,.13l.09,.2c.01,.1,.03,.23,.06,.36,.51,3.25,.74,4.6,.87,4.66,.1,.04,.93,.04,.97,.01,.04-.03,.07-.06,.1-.1,.06-.1,.14-.23,.17-.43,.31-1.51,.61-3.05,.93-4.56,.01-.08,.04-.14,.07-.2,.06-.06,.09-.1,.14-.14,.03-.04,.09-.07,.13-.08,.1-.03,.19-.03,.27-.03h.23c.09,0,.16,.01,.24,.07,.06,.06,.1,.13,.13,.21,.03,.04,.03,.09,.03,.14Z"/><path d="M192.81,29.07c.11,.16,.04,.16,.04,.36,.01,.06,.03,.19,.09,.2,.06,.01,.19,.01,.24-.03,.29-.17,.57-.38,.87-.57,.33-.26,.7-.48,1-.75,.3-.27,.56-.16,.77,.18,.11,.19,.24,.36,.4,.51,.23,.23,.43,.21,.68,.01,.31-.2,.51-.01,.16,.23-.21,.19-.47,.37-.68,.58-.09,.1-.14,.3-.16,.47,0,.85,.01,1.74,.01,2.62,0,.17-.01,.34-.01,.5-.03,.26,.01,.44,.27,.56,.07,.03,.09,.17,.13,.27-.09,.04-.17,.14-.27,.14-.66-.11-1.25,.07-1.87,.31-.43,.17-.9,.36-1.25,.7-.21,.21-.46,.14-.66-.06-.17-.21-.38-.38-.56-.58-.06-.07-.11-.17-.16-.27-.1-.31-.36-.38-.6-.2-.37,.29-.73,.56-1.1,.81-.21,.13-.41,.27-.66,.36-.1,.03-.24,0-.31-.07-.27-.26-.54-.53-.78-.81-.24-.3-.41-.33-.68-.07-.09,.11-.16,.23-.26,.33-.09,.1-.23,.23-.37,.07-.1-.14-.01-.26,.13-.37,.3-.19,.58-.43,.87-.67,.07-.07,.11-.18,.11-.29,.01-1.1,.03-2.19,.03-3.26,0-.13-.04-.26-.13-.34-.41-.34-.5-.83-.57-1.33-.11-.78,.2-1.44,.54-2.08,.17-.34,.41-.67,.68-.95,.21-.24,.54-.41,.83-.57,.31-.19,.66-.36,.98-.51,.19-.06,.37-.13,.56-.16,.13-.03,.26,.1,.14,.31-.04,.04-.1,.06-.19,.07-.83,.16-1.47,.61-1.9,1.35-.37,.63-.61,1.31-.48,2.05,.09,.41,.24,.85,.41,1.27,.11,.27,.26,.26,.5,.1,.48-.33,1-.63,1.51-.97,.17-.11,.34-.21,.51-.31,.2-.14,.38-.16,.56,.06,.21,.26,.41,.54,.61,.8Zm-1.15,3.56c0-.58-.04-1.2,.03-1.84,.04-.97-.6-1.91-1.21-1.54-.21,.14-.43,.23-.64,.36-.33,.2-.44,.28-.43,.71,.01,.68,.01,1.38-.03,2.08-.06,.81-.04,1.4,.78,1.81,.27,.21,.48,.21,.77-.01,.67-.33,.78-.34,.77-.98-.01-.19-.01-.36-.04-.58Zm3.46-.8c.03-.43,.01-1.01,.06-1.38,.07-.6-.34-.87-.7-1.21-.07-.04-.26-.03-.36,.01-.24,.14-.44,.37-.7,.47-.47,.19-.57,.48-.54,1,.06,.77,0,1.55,.01,2.34,0,.2,.11,.43,.24,.61,.1,.18,.29,.3,.43,.47,.3,.34,.46,.38,.84,.21,.07-.01,.16-.03,.23-.07,.3-.1,.51-.26,.5-.64-.03-.61-.01-1.21-.01-1.81Z"/><path d="M203.48,28.34l-.57,1.28-1.17-.58-.83,1.51,.7,1.41c.36,.58,.6,.93,.83,1.27,.21,.24,.47,.47,.58,.6h.23s.23,0,.34-.13l.13,.13-1.28,1.17c-.36-.13-.58-.23-.83-.6-.34-.34-.81-1.17-1.4-2.32l-1.41,2.92-1.38-.7,.57-1.3,1.17,.7,.94-1.98c-.47-.93-.94-1.74-1.41-2.45-.23-.23-.46-.46-.7-.46-.11,0-.36,.1-.47,.34l-.23-.24,1.51-1.27c.36,.23,.7,.46,.94,.81,.23,.36,.58,.93,1.05,1.87l1.28-2.68,1.4,.7Z"/><path d="M209.54,37.9c-.48-.5-.98-.3-1.48-.11-.54,.21-1.08,.41-1.64,.57-.46,.13-.97,.01-1.3-.26-.43-.4-.64-1.03-.54-1.65,.03-.1,.06-.41,.11-.51,.01-.06,.11-.13,.16-.14,.24-.13,.47-.3,.7-.48-.23-.14-.46-.29-.68-.38-.67-.34-.9-.96-.91-1.67-.01-.94-.04-1.85-.04-2.79,.14-.77-.11-1.54-.11-2.31,.36-.06,.68-.17,.97-.5,.24,.26,.48,.44,.64,.73,.13,.23,.14,.56,.23,.88,.33-.18,.64-.37,.95-.57,.47-.16,.83-.36,1.15-.67,.28-.21,.6-.43,.87-.57,.21,.63,.48,1.15,.61,1.74,.2,.91,.28,1.82,.19,2.75-.16,1.31-.75,2.28-2.01,2.79-.66,.26-1.3,.57-1.94,.87-.14,.07-.31,.21-.4,.36-.07,.13-.09,.34-.03,.49,.06,.1,.24,.17,.38,.18,.13,.01,.27-.03,.44-.07,1.04,0,1.98-.87,3.01-.56,.21,.26,.46,.51,.63,.8,.2,.33,.24,.7,.04,1.1Zm-3.92-5.83c0,.51-.03,1.03,.06,1.54,.04,.34,.2,.71,.4,1.01,.23,.34,.54,.38,.84,.08,.34-.47,.54-.96,.6-1.45,0-.01,.01-.03,.01-.06,.04-.17,.07-.31,.1-.48,.13-.73,.11-1.47-.01-2.21v-.04c0-.41-.03-.91-.27-1.25l-.09-.13c-.1-.14-.1-.43-.41-.27-.36,.19-.73,.37-1.08,.57-.09,.07-.14,.23-.14,.34-.01,.78-.01,1.57,0,2.35Z"/><path d="M215.7,32.9c-.2,.6-.53,1.47-.67,1.97h-5.2l-.09-.24c1.34-1.95,2.65-4,3.93-6.01h-1.5c-1.11,0-1.3,.17-1.91,1.5l-.43-.11c.19-.61,.37-1.55,.48-2.24h.34c.1,.21,.29,.31,.85,.31h3.65l.1,.23c-1.21,1.85-2.58,3.96-3.86,6.04h1.64c1.2,0,1.54-.33,2.24-1.62l.41,.19Z"/></g><g><path d="M264.67,11.14h4.54v-1.6h.6c0,.29,.02,.56,.06,.81,.04,.25,.13,.46,.25,.65s.31,.32,.56,.4v.5h-6.01v-.76Z"/><path d="M264.67,14.74c.23,.16,.44,.31,.62,.44s.39,.27,.61,.41c.22,.14,.43,.28,.63,.4-.04-.15-.05-.31-.05-.48,0-.39,.1-.75,.29-1.08,.19-.33,.46-.59,.78-.78,.33-.2,.69-.29,1.08-.29s.76,.1,1.08,.29c.32,.19,.58,.45,.77,.78,.19,.33,.29,.69,.29,1.08s-.1,.78-.29,1.11-.46,.58-.78,.76c-.33,.19-.69,.28-1.08,.28-.28,0-.55-.05-.82-.16-.07-.03-.21-.1-.42-.21s-.46-.25-.75-.41c-.29-.17-.61-.35-.95-.56-.34-.21-.68-.42-1.01-.65v-.94Zm2.58,.77c0,.26,.06,.49,.19,.7s.29,.38,.5,.5,.44,.19,.69,.19,.48-.06,.69-.19,.38-.29,.5-.5c.12-.21,.18-.44,.18-.7s-.06-.48-.18-.69c-.12-.21-.29-.38-.5-.5s-.44-.18-.69-.18-.48,.06-.69,.18-.38,.29-.5,.5c-.13,.21-.19,.44-.19,.69Z"/><path d="M264.57,21.17c0-.77,.27-1.36,.81-1.77,.54-.41,1.31-.61,2.32-.61s1.77,.2,2.3,.61,.8,.99,.8,1.77-.27,1.36-.8,1.77-1.3,.61-2.3,.61-1.78-.2-2.32-.61c-.54-.41-.81-1-.81-1.77Zm.67,0c0,.41,.13,.75,.4,1l3.41-2.38c-.19-.06-.39-.11-.62-.13-.23-.03-.47-.05-.74-.05-.79,0-1.39,.13-1.82,.38-.43,.25-.64,.65-.64,1.17Zm1.15,1.4c.36,.1,.79,.15,1.31,.15,.79,0,1.39-.13,1.81-.38,.42-.25,.63-.65,.63-1.17,0-.39-.12-.71-.36-.96l-3.38,2.37Z"/><path d="M264.57,27.05c0-.77,.27-1.36,.81-1.77,.54-.41,1.31-.61,2.32-.61s1.77,.2,2.3,.61,.8,.99,.8,1.77-.27,1.36-.8,1.77-1.3,.61-2.3,.61-1.78-.2-2.32-.61c-.54-.41-.81-1-.81-1.77Zm.67,0c0,.41,.13,.75,.4,1l3.41-2.38c-.19-.06-.39-.11-.62-.13-.23-.03-.47-.05-.74-.05-.79,0-1.39,.13-1.82,.38-.43,.25-.64,.65-.64,1.17Zm1.15,1.4c.36,.1,.79,.15,1.31,.15,.79,0,1.39-.13,1.81-.38,.42-.25,.63-.65,.63-1.17,0-.39-.12-.71-.36-.96l-3.38,2.37Z"/><path d="M264.57,32.16c0-.26,.04-.51,.12-.76,.08-.25,.2-.47,.37-.67,.17-.2,.37-.34,.63-.45l.27,.73c-.26,.07-.45,.21-.57,.44-.12,.22-.18,.46-.18,.71,0,.18,.03,.35,.08,.51,.05,.16,.13,.29,.23,.39,.1,.1,.22,.15,.35,.15,.25,0,.42-.1,.52-.29,.1-.19,.18-.43,.23-.7l.13-.62c.05-.22,.12-.42,.2-.6,.09-.19,.21-.34,.37-.45,.16-.11,.38-.17,.65-.17s.5,.08,.68,.25,.32,.38,.42,.64c.1,.26,.14,.54,.14,.82,0,.35-.07,.69-.22,1-.15,.31-.38,.54-.69,.67l-.26-.71c.18-.08,.31-.21,.4-.41,.09-.2,.13-.4,.13-.61,0-.23-.05-.43-.15-.62-.1-.19-.25-.28-.44-.28s-.33,.08-.42,.24-.15,.36-.2,.59l-.12,.58c-.05,.24-.12,.47-.21,.68-.09,.22-.22,.39-.4,.53-.18,.14-.42,.21-.74,.21-.28,0-.52-.09-.72-.26-.2-.17-.35-.4-.45-.67-.1-.28-.16-.57-.16-.88Z"/></g></svg>