<?xml version="1.0" encoding="UTF-8"?><svg id="Layer_1" xmlns="http://www.w3.org/2000/svg" viewBox="0 0 274.71 44.23"><defs><style>.cls-1{fill:#ff8f15;}</style></defs><rect class="cls-1" width="274.71" height="44.23" rx="4.48" ry="4.48"/><g><path d="M264.67,8.97h.67c.52,.71,1,1.31,1.44,1.81,.44,.5,.85,.88,1.23,1.15,.38,.27,.75,.4,1.1,.4,.31,0,.56-.1,.76-.3,.19-.2,.29-.47,.29-.83,0-.28-.08-.54-.23-.79-.15-.24-.41-.4-.78-.47l.22-.76c.44,.11,.78,.34,1.04,.7,.26,.36,.38,.8,.38,1.33,0,.37-.06,.7-.18,.99s-.3,.51-.54,.68c-.23,.16-.52,.25-.85,.25s-.69-.08-1.02-.25-.66-.4-.97-.69c-.31-.29-.63-.63-.94-1.01-.31-.38-.62-.78-.92-1.2v3.31h-.69v-4.33Z"/><path d="M264.57,16.56c0-.77,.27-1.36,.81-1.77,.54-.41,1.31-.61,2.32-.61s1.77,.2,2.3,.61c.53,.4,.8,.99,.8,1.77s-.27,1.36-.8,1.77c-.53,.4-1.3,.61-2.3,.61s-1.78-.2-2.32-.61c-.54-.41-.81-1-.81-1.77Zm.67,0c0,.41,.13,.75,.4,1l3.41-2.38c-.19-.06-.39-.1-.62-.13-.23-.03-.47-.04-.74-.04-.79,0-1.39,.13-1.82,.38-.43,.25-.64,.65-.64,1.17Zm1.15,1.4c.36,.1,.79,.15,1.31,.15,.79,0,1.39-.13,1.81-.38,.42-.25,.63-.65,.63-1.17,0-.39-.12-.71-.36-.96l-3.38,2.37Z"/><path d="M264.57,22.44c0-.77,.27-1.36,.81-1.77,.54-.41,1.31-.61,2.32-.61s1.77,.2,2.3,.61c.53,.4,.8,.99,.8,1.77s-.27,1.36-.8,1.77c-.53,.4-1.3,.61-2.3,.61s-1.78-.2-2.32-.61c-.54-.41-.81-1-.81-1.77Zm.67,0c0,.41,.13,.75,.4,1l3.41-2.38c-.19-.06-.39-.1-.62-.13-.23-.03-.47-.04-.74-.04-.79,0-1.39,.13-1.82,.38-.43,.25-.64,.65-.64,1.17Zm1.15,1.4c.36,.1,.79,.15,1.31,.15,.79,0,1.39-.13,1.81-.38,.42-.25,.63-.65,.63-1.17,0-.39-.12-.71-.36-.96l-3.38,2.37Z"/><path d="M264.57,28.32c0-.77,.27-1.36,.81-1.77,.54-.41,1.31-.61,2.32-.61s1.77,.2,2.3,.61c.53,.4,.8,.99,.8,1.77s-.27,1.36-.8,1.77c-.53,.4-1.3,.61-2.3,.61s-1.78-.2-2.32-.61c-.54-.41-.81-1-.81-1.77Zm.67,0c0,.41,.13,.75,.4,1l3.41-2.38c-.19-.06-.39-.1-.62-.13-.23-.03-.47-.04-.74-.04-.79,0-1.39,.13-1.82,.38-.43,.25-.64,.65-.64,1.17Zm1.15,1.4c.36,.1,.79,.15,1.31,.15,.79,0,1.39-.13,1.81-.38,.42-.25,.63-.65,.63-1.17,0-.39-.12-.71-.36-.96l-3.38,2.37Z"/><path d="M264.57,33.43c0-.26,.04-.51,.12-.76s.2-.47,.37-.67c.17-.19,.37-.34,.63-.45l.27,.73c-.26,.07-.45,.21-.57,.44-.12,.22-.18,.46-.18,.71,0,.18,.03,.35,.08,.51,.05,.16,.13,.29,.23,.39,.1,.1,.22,.15,.35,.15,.25,0,.42-.1,.52-.29,.1-.2,.18-.43,.23-.7l.13-.62c.05-.22,.12-.42,.2-.6,.09-.19,.21-.34,.37-.45,.16-.11,.38-.17,.65-.17s.5,.08,.68,.25,.32,.38,.42,.64c.1,.26,.14,.54,.14,.82,0,.35-.07,.69-.22,1-.15,.32-.38,.54-.69,.67l-.26-.71c.18-.08,.31-.21,.4-.41,.09-.2,.13-.4,.13-.61,0-.23-.05-.43-.15-.62-.1-.19-.25-.28-.44-.28s-.33,.08-.42,.24-.15,.36-.2,.59l-.12,.58c-.05,.24-.12,.47-.21,.68-.09,.22-.22,.39-.4,.53-.18,.14-.42,.21-.74,.21-.28,0-.52-.09-.72-.26-.2-.17-.35-.4-.45-.68-.1-.28-.16-.57-.16-.88Z"/></g><g><path d="M16.45,17.22c.31,0,.58,0,.87-.03,.07,0,.07,.03,.1,.08,.11,.38,.11,.74,0,1.13q-.03,.06-.09,.06h-3.33c-.06,0-.09,0-.09-.03-.14-.41-.14-.8,0-1.21h.03c.24,0,.5-.03,.74,0,.06,0,.09-.03,.11-.09,.97-2.85,1.91-5.7,2.88-8.55,.03-.06,.06-.08,.11-.08h1.91s.07,0,.1,.06c.91,2.85,1.85,5.73,2.79,8.58,0,.06,.03,.09,.11,.09,.2-.03,.41,0,.64-.03,.06,0,.09,.03,.09,.08,.1,.38,.1,.74,0,1.13,0,.06-.03,.06-.09,.06h-3.46s-.06,0-.06-.03c-.13-.41-.13-.8,0-1.18,0-.03,.03-.06,.06-.06,.28,.03,.53,.03,.8,.03h.09c-.06-.14-.09-.26-.11-.4-.1-.38-.24-.77-.36-1.13,0-.06-.03-.08-.09-.08h-3.18c-.06,0-.09,0-.09,.06-.16,.5-.33,1-.47,1.5,0,0,0,.03-.03,.06Zm3.44-2.94c-.38-1.35-.8-2.69-1.18-4.02h-.03c-.41,1.33-.87,2.67-1.28,4.02h2.49Z"/><path d="M25.87,8.48c.54,.04,1.18-.04,1.82,.06,.86,.13,1.5,.53,1.8,1.34,.31,.86,.03,1.6-.53,2.28-.03,.04-.07,.07-.1,.13q-.34,.43,.14,.68c1.17,.61,1.81,1.75,1.64,2.86-.21,1.4-1.24,2.35-2.72,2.51-1.2,.13-2.41-.06-3.61,0-.1,0-.23-.01-.23-.16-.01-.1,.09-.11,.16-.14,.61-.17,.61-.21,.64-.84,.11-2.19,.03-4.38,.04-6.57,0-.41-.04-.83-.06-1.24-.01-.34-.2-.5-.5-.56-.09-.01-.17,0-.24-.01-.11-.01-.27-.01-.27-.16,0-.19,.17-.19,.28-.19h1.72Zm.24,2.34v1.13q0,.67,.67,.73c.93,.08,1.45-.26,1.7-1.11,.07-.27,.06-.54,.01-.8-.19-1.17-.71-1.88-1.98-1.78-.27,.01-.41,.13-.4,.43,.01,.47,0,.94,0,1.41Zm.01,4.4c.06,.51-.04,1.17,.04,1.82,.04,.4,.26,.58,.6,.68,.34,.1,.68,.14,1.03,.11,.87-.08,1.47-.56,1.57-1.37,.14-1.13-.17-2.12-1.07-2.85-.53-.41-1.17-.46-1.82-.46-.26,.01-.36,.09-.34,.33v1.72Z"/><path d="M39.72,15.28c.27,.16,.29,.19,.1,.43-.66,1-1.5,1.82-2.61,2.28-.54,.21-1.1,.4-1.65,.47-1.11,.13-2.18-.07-3.09-.77-.64-.54-1.08-1.24-1.28-2.04-.21-.83-.17-1.65,.06-2.47,.29-.98,.84-1.78,1.53-2.49,.37-.4,.81-.7,1.2-1.05,.13-.11,.19-.03,.28,.04,.09,.1,.03,.17-.04,.23-.47,.44-.93,.87-1.27,1.43-.53,.84-.73,1.77-.63,2.75,.04,.63,.3,1.17,.67,1.68,.08,.14,.17,.14,.3,.01,.3-.3,.31-.67,.31-1.04v-3.32c0-.1,.06-.21,.13-.29,.68-.71,1.41-1.4,2.12-2.11,.17-.14,.33-.31,.51-.44,.06-.06,.17-.07,.26-.07,.54,.09,1.11,.2,1.68,.26,.31,.03,.66-.04,1-.06,.11-.01,.23-.04,.28,.1,.07,.13,.06,.23-.06,.34-.31,.33-.61,.66-.94,.98-.07,.04-.19,.1-.26,.08-.61-.1-1.21-.21-1.81-.31-.01,0-.03-.01-.06-.01-.33-.11-.34-.1-.34,.24l.04,3.26c0,1.07,.01,2.14,.01,3.21,0,.46,0,.49,.48,.41,.67-.11,1.28-.37,1.82-.76,.43-.31,.83-.66,1.24-.98Zm-4.08-5.27s-.06-.03-.07-.03c-.13,.13-.27,.24-.38,.38-.09,.1-.14,.23-.16,.34,0,.94-.03,1.87,.01,2.82,.03,.63-.2,1.11-.6,1.57-.31,.31-.6,.64-.91,.97-.06,.08-.13,.16-.01,.27,.57,.53,1.24,.71,2,.77,.16,.01,.21-.06,.21-.23,0-.58,0-1.17-.01-1.77l-.04-4.75c0-.13-.01-.24-.03-.36Z"/><path d="M42.73,18.44h-1.6c-.13,0-.27,0-.41-.01-.17-.01-.37-.04-.38-.24,0-.21,.2-.24,.37-.27,.76-.08,.87-.4,.94-1.2,.06-.83,0-1.67,0-2.51-.01-1.23-.1-2.44,.01-3.66,.06-.7-.29-1.25-.94-1.42-.21-.06-.47-.11-.4-.38,.06-.26,.33-.33,.54-.26,.64,.19,1.28,.07,1.92,.11,.5,.03,.98-.1,1.48-.11,1.38-.03,2.69,.2,3.88,.97,.67,.44,1.24,1.03,1.6,1.75,.31,.66,.53,1.35,.48,2.11-.03,.38,.03,.77-.01,1.17-.2,1.55-.95,2.71-2.38,3.43-.68,.36-1.41,.47-2.15,.51-.98,.04-1.97,.01-2.95,.01Zm1.55-9.28c-.2,0-.4-.01-.6,0-.13,0-.26,.04-.29,.18-.06,.23-.16,.44-.13,.68,.06,.51,.07,1.03,.03,1.55-.09,.88,.06,1.77,.03,2.65-.01,.81-.01,1.62,0,2.44,.01,.47,.27,.78,.68,.96,.63,.27,1.28,.27,1.95,.11,.66-.14,1.14-.5,1.55-1.01,.5-.63,.54-1.4,.64-2.14,.11-.9-.01-1.78-.17-2.67-.19-1.03-.7-1.8-1.6-2.31-.66-.4-1.38-.41-2.11-.46Z"/><path d="M50.6,13.47v-4.85q0-.14,.13-.14c2.01,0,4,.01,6.01,0,.11,0,.13,.03,.13,.13-.01,.29-.01,.57,0,.83,0,.1-.01,.14-.11,.14h-4.72c-.1,0-.13,.01-.13,.11v2.96c0,.11,.03,.13,.11,.13h4.08c.16,0,.13-.01,.13,.14v.81c0,.1-.01,.13-.1,.13-1.35-.01-2.71-.01-4.06-.01q-.16,0-.16,.16v3.25q0,.14,.14,.14h4.75q.13,0,.13,.13c0,.29,0,.56,.01,.84,0,.09-.03,.1-.1,.1h-6.14c-.1,0-.11-.04-.11-.11,.01-1.64,.01-3.25,.01-4.89Z"/><path d="M65.68,11.73l-2.11,.03v-.68h-.48s0-.33,0-.33l-1.75-.03-.03,2.1,2.84-.04v.44h.76s0,1.87,0,1.87l-3.75-.03v2.02h.66v.4h.71v1.65h-4.72v-.66h-.5v-1.47h.73v-6.43h-.23v-.67h-.5v-1.41h7.65v.44h.73v2.79Zm-3.42,6.01h-.46s0,.73,0,.73h-3.76v.41h4.22v-1.14Zm2.37-4.32h-.48v.98l-3.73-.03v2.68h.51v-2.24h3.71s0-1.4,0-1.4Zm-3.55-2.98l2.01,.04v-.4l-2.49-.04-.06,2.78h.5s.04-2.38,.04-2.38Zm4.33-1.28h-.46v1.89h-1.14v.43l1.6-.03v-2.29Z"/><path d="M71.01,14.28c.16-.03,.31-.06,.46-.06l2.69,.04c.23,0,.41-.03,.63-.03,.1,0,.17,.07,.17,.07,.01,.03,.01,.04,0,.11,0,0-.03,.07-.11,.08-.43,.1-.67,.38-.68,.88-.01,.66,0,1.31-.03,1.97-.01,.16-.13,.34-.23,.38-.51,.2-1.01,.31-1.52,.47-.85,.24-1.75,.28-2.64,.14-1.13-.16-2.07-.67-2.88-1.58-1.13-1.28-1.27-2.78-.97-4.42,.36-1.98,2.29-3.56,3.99-3.75,1.08-.11,2.11,.1,3.11,.53,.4,.19,.6,.11,.84-.31,.04-.07,.14-.13,.21-.18,.04,.08,.1,.18,.1,.27v2.65c0,.09-.04,.17-.07,.26-.09-.07-.17-.13-.23-.21-.14-.31-.29-.66-.46-.97-.58-1.03-2.09-1.95-3.38-1.48-.9,.33-1.5,1-1.8,2.05-.37,1.35-.4,2.75-.14,4.12,.28,1.53,.81,2.29,2.18,2.64,.6,.14,1.18,0,1.77-.24,.06-.03,.14-.19,.14-.31,.01-.66,.01-1.33-.01-2-.01-.51-.28-.8-.77-.9-.11-.03-.24-.04-.36-.08-.01-.06-.01-.1-.01-.14Z"/><path d="M85.21,18.46h-2.85c.73-.5,.67-1.2,.67-1.84,.01-.84,0-1.67,0-2.49v-.41c-.11-.01-.21-.03-.3-.03-1.62,0-3.25,.01-4.89,.01-.24,0-.31,.07-.3,.31,.01,1.05,.01,2.11,.03,3.15,0,.48,.1,.95,.61,1.31h-2.81c.64-.48,.63-1.13,.63-1.77,0-2.1,0-4.18-.01-6.26,0-.29-.01-.56-.03-.84-.03-.41-.2-.78-.63-1.08h2.75c-.6,.5-.54,1.17-.54,1.82-.01,.63,0,1.27,0,1.9-.01,.2,.06,.27,.26,.26,1.67,0,3.32-.01,4.97-.01,.16,0,.27-.01,.26-.23-.01-.83-.01-1.64-.03-2.46,0-.51-.11-.97-.64-1.3h2.81c-.68,.54-.58,1.27-.58,1.97-.01,2.08,0,4.18,0,6.28,0,.24,.03,.49,.04,.73,.04,.38,.24,.7,.58,.98Z"/><path d="M85.57,8.5h2.85c-.77,.56-.64,1.34-.64,2.04-.01,2.22,0,4.45,.01,6.66,0,.5,.17,.93,.63,1.28h-2.84c.53-.41,.61-.94,.61-1.51v-6.95c-.01-.57-.07-1.08-.63-1.51Z"/><path d="M93.89,9.08c-1.08,.13-1.24,.21-1.24,1.54v5.2c0,1.82-.17,3.36-1.67,4.55-.64,.47-1.35,.78-1.97,.96l-.24-.6c.88-.4,1.34-.94,1.51-1.94,.14-.88,.19-1.85,.19-3.04v-5.13c0-1.33-.17-1.42-1.38-1.54v-.58h4.8v.58Z"/><path d="M95.79,18.47c.13,0-.48-.01-.6,0h-.94c.68-.34,.63-.91,.63-1.48v-7.3c.01-.51-.03-.97-.63-1.15h2.96c-.78,.51-.74,1.3-.74,2.04,0,2.01-.01,4.02-.01,6.03,0,.7,.07,1.38,.77,1.87-.48,0-.95,.03-1.44,0Zm7.07-.18c-.3-.21-.64-.4-.88-.67-1.18-1.44-2.34-2.88-3.49-4.35-.06-.07,0-.31,.07-.41,.68-.91,1.4-1.81,2.09-2.71,.41-.51,.83-1.05,1.27-1.61h-2.88c.58,.6,.6,.74,.11,1.38-.63,.91-1.3,1.81-1.94,2.69-.17,.24-.34,.46-.5,.71,1.07,1.48,2.14,2.92,3.22,4.38,.1,.14,.27,.26,.43,.36,.76,.58,1.64,.41,2.49,.41v-.18Z"/><path d="M104.26,13.58v-3.58c0-.24-.03-.47-.06-.71-.04-.3-.23-.43-.63-.47-.14,0-.37,.07-.36-.17,.01-.2,.24-.16,.38-.16,.83,.07,1.64-.03,2.47,0,.09,0,.19,0,.27,.01,.07,.01,.14,.04,.14,.13,.01,.08-.04,.14-.13,.16-.07,.03-.16,.03-.23,.03-.4,.03-.6,.23-.63,.61-.04,.73-.03,1.44-.01,2.15,0,.93-.01,1.84,.01,2.77,.01,.87-.03,1.74,.1,2.59,.1,.61,.24,.81,.84,.87s1.21,.07,1.81-.03c.44-.09,.77-.43,.84-.86,.03-.16-.01-.41,.23-.38,.27,.04,.17,.29,.14,.46-.04,.34-.1,.7-.19,1.04-.09,.34-.21,.43-.56,.43-1.18,0-2.37,0-3.55-.07-.46-.03-.93,.03-1.38,.04-.09,0-.17,0-.24-.01-.08-.01-.13-.07-.13-.16s.06-.13,.13-.14c.03,0,.04-.01,.06-.01,.54-.1,.67-.24,.67-.81v-3.72h-.01Z"/><path d="M111.99,12.98c0,.78,.01,1.58,0,2.38,0,.88-.01,1.74,0,2.62,0,.34-.11,.48-.41,.48-.51-.01-1.03,0-1.68,0v-1.61c-.01-2.01-.03-4.02-.03-6.03,0-.63,.01-1.27,.09-1.9,.01-.16,.28-.38,.47-.4,.53-.04,1.05-.03,1.58,0,.58,.04,.7,.64,.88,1.07,.5,1.18,.91,2.41,1.37,3.59,.11,.28,.3,.54,.54,.95,.29-.73,.51-1.31,.73-1.88l.38-1.01c.37-.83,.73-1.62,1.08-2.44,.06-.11,.16-.29,.26-.29,.67-.01,1.35-.01,2.02,.06,.1,0,.29,.33,.3,.51,.06,1.31,.07,2.65,.07,3.96,0,1.62-.04,3.22-.01,4.83,.01,.44-.13,.56-.44,.57-.37,.01-.73,.04-1.1,.03-.58-.01-.7-.21-.68-.9,.03-1.58,.01-3.16-.06-4.79-.29,.68-.54,1.38-.84,2.07-.31,.78-.6,1.58-.98,2.34-.29,.57-1.55,.34-1.78-.26l-1.58-4c-.07,.01-.11,.01-.17,.03Z"/><path d="M122.4,13.77c0,1-.01,2,.07,2.99,.04,.6,.19,.8,.77,1.01,.21,.09,.56,.09,.5,.41-.06,.3-.36,.16-.56,.19-.8,.11-1.58,.06-2.39,.07-.09,0-.19,0-.29-.01-.14-.01-.31-.04-.34-.21-.03-.2,.14-.29,.3-.31,.2-.06,.4-.11,.58-.24,.2-.13,.31-.31,.33-.54,.01-.63,.14-1.25,.03-1.9-.07-.36,.04-.7,.04-1.05-.03-1.24-.04-2.47-.07-3.69-.01-.73-.21-1.01-.91-1.24l-.21-.04c-.16-.06-.27-.14-.24-.33,.03-.14,.16-.21,.3-.21,.74,.03,1.47-.04,2.19,.04,.3,.04,.48,.24,.64,.46,.5,.71,1.13,1.3,1.65,1.98,.97,1.28,2.04,2.48,3.09,3.71,.04,.06,.08,.17,.19,.13,.09-.04,.09-.14,.07-.23-.16-.93,.01-1.87-.07-2.81-.04-.57,0-1.14-.03-1.71-.03-.56-.21-.83-.75-.98-.24-.07-.57-.08-.53-.4,.03-.34,.37-.27,.63-.29,.81-.04,1.62,.04,2.45-.03,.13-.01,.24,.03,.36,.08,.23,.13,.2,.27,.01,.41-.07,.06-.16,.07-.24,.1-.67,.2-.91,.5-.91,1.21,0,1.51,0,3.01,.01,4.5,0,1.08-.04,2.15,.04,3.22,.01,.17-.01,.33-.19,.41-.14,.07-.29-.01-.38-.11-.3-.3-.6-.61-.87-.94-1.45-1.77-2.89-3.53-4.33-5.32-.2-.24-.46-.44-.67-.68-.06-.06-.11-.16-.21-.13-.1,.04-.06,.16-.06,.23v2.25Z"/><path d="M136.18,8.5c1.07-.03,2.07,.21,3.01,.7,.67,.36,1.23,.85,1.65,1.5,.64,.96,.87,2.04,.75,3.16-.11,1.17-.6,2.19-1.41,3.05-1.03,1.1-2.31,1.57-3.79,1.55-1.08,0-2.11-.19-3.08-.71-1.3-.7-2.14-1.77-2.39-3.24-.2-1.17,0-2.28,.54-3.35,.36-.7,.86-1.3,1.51-1.74,.97-.66,2.02-1,3.21-.93Zm-3.49,5.02c-.03,.83,.23,1.58,.7,2.24,.61,.83,1.41,1.35,2.44,1.52,1.1,.19,2.09-.06,2.92-.8,.8-.73,1.14-1.7,1.13-2.75,0-1.44-.56-2.65-1.74-3.54-1.24-.94-2.99-.94-4.18,.23-.85,.84-1.25,1.9-1.27,3.09Z"/><path d="M142.99,9.81h-.83c-.06,0-.06-.03-.08-.06-.11-.38-.09-.78,.03-1.17,0-.03,.03-.06,.06-.06h4.73c.36,0,.71,.03,1.05,.14,.94,.33,1.55,.94,1.78,1.91,.19,.78,.13,1.57-.23,2.29-.36,.77-1,1.21-1.84,1.38-.24,.06-.5,.06-.76,.09h-2.19v2.81h.96c.06,0,.07,0,.07,.06,.11,.38,.14,.78,0,1.17-.01,.06-.04,.06-.1,.06h-3.48s-.06,0-.08-.06c-.11-.38-.11-.78,0-1.14,.03-.06,.06-.09,.08-.09h.83v-7.34Zm1.72,3.16h1.78c.14,0,.31,0,.44-.03,.46-.1,.78-.36,.96-.8,.17-.47,.17-.93,.03-1.4-.11-.36-.37-.64-.73-.77-.23-.08-.44-.11-.7-.11h-1.78v3.11Z"/><path d="M154.69,15.38c-.07,.16-.11,.34-.23,.46-.67,.57-1.45,.77-2.32,.61-.77-.14-1.24-.67-1.44-1.42-.4-1.53,.13-2.88,1.01-4.1,.8-1.13,1.9-1.94,3.28-2.27,2.15-.48,4.03,.81,4.18,2.95,.1,1.48-.44,2.69-1.38,3.81-1.2,1.42-2.79,2.15-4.46,2.79-.16,.03-.3,.11-.54,.2,.29,.16,.44,.29,.64,.36,1.23,.53,2.47,1.07,3.71,1.55,.97,.38,1.95,.46,2.89-.04,.06-.04,.13-.06,.19-.06,.03-.03,.07,0,.26,.01-.19,.24-.29,.47-.44,.6-.91,.76-1.92,.91-2.99,.5-1.74-.67-3.48-1.38-5.23-2.09-.67-.29-1.37-.56-2.04-.84,.31-.76,.53-.83,1.18-.6,.91,.31,1.78,.06,2.62-.21,1.68-.54,2.74-1.75,3.49-3.31,.58-1.18,.68-2.37,.43-3.62-.29-1.45-1.62-2.07-2.96-1.42-1,.48-1.54,1.28-1.98,2.27-.34,.74-.5,1.51-.57,2.34-.07,.88,.34,1.65,1.07,1.77,.34,.06,.7-.06,1.04-.13,.16-.03,.33-.1,.5-.16,.04,.03,.07,.06,.11,.07Z"/><path d="M164.28,13.65c1,1.61,1.98,3.21,2.99,4.8-.06,.01-.09,.01-.13,.01h-1.14c-.09,0-.13-.03-.17-.1-.94-1.5-1.9-2.99-2.84-4.5-.06-.1-.13-.14-.26-.14h-1.41v4.73h-1.23V8.48h.14c1.04,0,2.1-.01,3.15,0,.47,0,.94,.04,1.38,.2,.87,.31,1.38,.93,1.54,1.84,.09,.47,.07,.96-.06,1.41-.24,.91-.87,1.42-1.74,1.67-.07,.03-.16,.04-.24,.06Zm-2.95-1.08h.1c.66,0,1.31,.01,1.95,0,.21,0,.43-.01,.64-.06,.53-.1,.95-.4,1.05-1.04,.03-.23,.03-.46,0-.68-.06-.53-.34-.9-.85-1.04-.29-.07-.57-.11-.86-.11-.64-.01-1.27-.01-1.91-.01-.04,0-.09,.01-.13,.01v2.94Z"/><path d="M174.42,16.76c-.11,.31-.34,.57-.54,.83-.3,.37-.71,.67-1.18,.78-.58,.1-1.18,.2-1.8,.09-.38-.06-.77-.09-1.13-.27-.11-.07-.34-.03-.44,.04-.34,.27-.74,.16-1.1,.19-.2,0-.29-.19-.3-.36,0-.1-.01-.2-.01-.27,.01-.34,.03-.68,.03-1.03,0-.46-.01-.91-.01-1.35,0-.29,.03-.56,.07-.83,.01-.07,.04-.14,.1-.17,.13-.11,.8-.06,.9,.07,.06,.04,.11,.11,.11,.17-.03,.47,.21,.88,.33,1.31,.03,.16,.11,.3,.14,.44,.09,.4,.41,.61,.7,.86,.28,.26,.63,.34,1,.37,.81,.07,1.51-.77,1.35-1.58-.1-.54-.41-.95-.83-1.27-.2-.14-.46-.16-.67-.24h-.01c-.37-.07-.74-.16-1.11-.29-.33-.1-.64-.23-.94-.36-.1-.06-.2-.11-.29-.19-.23-.24-.48-.47-.66-.74-.17-.26-.23-.56-.33-.84-.21-.6-.24-1.2-.01-1.8,.24-.64,.57-1.18,1.23-1.47,.31-.13,.63-.31,.94-.38,.7-.13,1.35,.14,1.98,.37,.04,.01,.09,.07,.13,.1,.37,.37,.43,.24,.73-.03,.21-.2,.41-.36,.73-.33,.3,.01,.43,.08,.43,.38,0,.58-.01,1.17-.01,1.75-.01,.38-.01,.77,0,1.15,0,.23-.23,.4-.47,.37-.11-.01-.23-.03-.34-.03-.2-.01-.3-.11-.34-.29-.17-.5-.33-1-.51-1.48-.23-.54-.66-.9-1.24-1.05-.46-.13-1.28,.33-1.38,.85-.1,.5-.07,.96,.24,1.37,.08,.14,.26,.24,.41,.31,.41,.21,.78,.44,1.27,.47,.33,.04,.64,.21,.98,.34,.23,.09,.47,.13,.67,.29,.51,.36,.95,.77,1.21,1.38,.34,.81,.24,1.58-.01,2.34Z"/><path d="M175.01,8.5h5.39v1.75c-.44,0-.9,.01-1.34-.01-.33-.01-.43,.1-.43,.43,.01,2.45,0,4.9,.01,7.35,0,.31-.07,.46-.41,.43-.37-.03-.74-.03-1.11,0-.3,.01-.37-.09-.37-.37,.01-2.25,0-4.5,0-6.77,0-.23-.01-.46,.01-.68,.01-.29-.09-.4-.37-.38-.46,.03-.9,.01-1.38,.01v-1.75Z"/><path d="M189,13.63v-3.42c0-.38-.13-.67-.54-.81-.24-.09-.6-.16-.53-.54,.08-.31,.43-.36,.7-.33,.66,.07,1.3-.21,1.95,0,.3,.1,.4,.31,.17,.48-.77,.61-.58,1.41-.58,2.19,0,1.3,.06,2.59,.03,3.89-.06,1.55-1.47,3.05-3.02,3.28-1.41,.2-2.78,.16-4.02-.6-.73-.43-1.17-1.1-1.31-1.94-.3-1.74-.14-3.49-.11-5.23,0-.27,.03-.54-.07-.8-.11-.24-.27-.44-.56-.5-.19-.04-.36-.13-.36-.36s.2-.31,.37-.37c.34-.13,.71-.06,1.05-.06,.5-.01,1.03-.01,1.52,0,.16,0,.33,.04,.39,.21,.07,.2-.1,.27-.23,.37-.41,.29-.57,.66-.56,1.18,.06,1.4,.01,2.78,.03,4.16,.01,2.28,1.45,3.16,3.48,2.98,1.68-.16,2.09-1.2,2.24-3.04,.01-.26,0-.51,0-.77h-.04Z"/><path d="M196.92,8.52c.21,.01,.4,.01,.58,.04,1.47,.2,1.85,1.07,1.74,2.38-.09,1.01-.48,1.91-.93,2.82-.47,.98-.8,2.04-1,3.11-.04,.17-.1,.31-.13,.48-.03,.17-.01,.36,.14,.48,.16,.11,.31,.01,.46-.06,.44-.2,.77-.57,1.11-.9,1.03-.94,1.9-2.02,2.44-3.33,.17-.43,.29-.88,.29-1.35,0-.4-.03-.78-.53-.91-.11-.04-.24-.13-.17-.29,.07-.16,.23-.2,.38-.17,.37,.1,.67,.29,.87,.63,.3,.48,.34,1.01,.17,1.55-.41,1.31-1.15,2.41-2.05,3.41-.67,.74-1.4,1.42-2.34,1.82-.3,.14-.61,.23-.95,.2-.38-.03-.64-.29-.67-.67-.04-.66,.08-1.28,.26-1.91,.27-1.05,.73-2.05,1.11-3.08,.3-.8,.63-1.6,.68-2.45,.09-.94-.24-1.28-1.18-1.34-.94-.04-1.75,.3-2.52,.78-1.24,.8-2.14,1.87-2.52,3.32-.09,.36-.09,.73-.03,1.1,.17,1.08,1.21,1.68,2.24,1.24,.87-.37,1.42-1.03,1.57-1.98,.07-.56-.21-.9-.77-.9-.1,0-.26,.06-.27-.11-.01-.13,.11-.17,.21-.23,.73-.36,1.45,.07,1.54,.88,.07,.78-.33,1.41-.86,1.9-.58,.57-1.3,.98-2.17,1.05-.98,.09-2.08-.73-2.29-1.71-.33-1.48,.3-2.65,1.24-3.71,.56-.63,1.21-1.14,1.98-1.48,.76-.34,1.54-.6,2.37-.63Z"/><path d="M202.15,8.55h2.22c.06,.41,.06,.83,.16,1.21,.2,.74,.46,1.45,.68,2.2,.44,1.34,.88,2.67,1.31,4,.03,.08,.06,.16,.14,.23,.1-.33,.19-.66,.28-.97l1.07-3.69c.16-.5,.3-1.01,.44-1.52,.14-.54,0-1-.46-1.35-.01-.01-.01-.04-.03-.08h2.12c-.17,.93,.2,1.72,.46,2.54,.53,1.61,1.05,3.22,1.57,4.83,.01,.04,.04,.07,.07,.16,.04-.08,.09-.13,.1-.17,.37-1.2,.76-2.38,1.13-3.58,.19-.63,.4-1.25,.54-1.9,.19-.7,.33-1.42-.53-1.87h2.27c-1.01,3.29-2.01,6.56-3.02,9.89-.34-.2-.67-.37-.97-.56-.47-.3-.68-.74-.86-1.27-.46-1.48-.95-2.96-1.42-4.45-.07-.2-.13-.4-.19-.61-.03,0-.04,.01-.07,.01-.73,2.27-1.47,4.53-2.22,6.86-.3-.2-.58-.37-.83-.57-.58-.5-.93-1.14-1.14-1.87-.6-2.02-1.2-4.03-1.78-6.06-.16-.51-.53-.88-.87-1.25-.03-.03-.13-.01-.19-.03v-.13Z"/><path d="M221.63,17.9c1.04-.16,1-.38,.73-.88-.16-.26-.46-.8-1.6-2.69-.68,1.1-1.37,2.1-1.64,2.62-.34,.66-.27,.8,.8,.95v.57h-3.83v-.57c.85-.07,1.44-.3,1.85-.88,.57-.64,1.57-2.01,2.44-3.31-.73-1.23-1.37-2.32-2.17-3.59-.43-.68-.77-.94-1.91-1.05v-.57h4.8v.57c-.91,.07-.95,.26-.77,.71,.27,.47,.77,1.3,1.38,2.34,.46-.66,1.03-1.57,1.41-2.22,.26-.53,.14-.68-.81-.83v-.57h3.73v.57c-.98,.11-1.44,.26-2.05,.98-.5,.68-1.1,1.57-1.87,2.64,.88,1.41,1.6,2.58,2.52,3.96,.6,.98,.91,1.14,1.98,1.25v.57h-5v-.57Z"/><path d="M227,8.77c.08-.17,1.2-.23,1.92-.16,.27,.01,.44-.04,.8,.49,.68,1.01,1.08,2.02,1.64,3.06,.1,.17,.19,.33,.36,.61,.73-1.34,1.35-2.45,1.95-3.55,.27-.53,.61-.66,1.24-.68,.29-.01,.64,0,.97,.01,.66,.03,.8,.26,.48,.84-.34,.67-.76,1.33-1.14,1.98-.66,1.2-1.4,2.38-1.97,3.62-.24,.56-.14,1.25-.21,1.87-.01,.21,0,.43,0,.63q-.06,.94-.97,.97c-.2,0-.41-.01-.61-.01-1,.06-1.01,.06-1-.93,.01-.5-.01-1.03,.01-1.54,.1-.95-.6-1.57-.94-2.34s-.83-1.51-1.25-2.27c-.4-.68-.77-1.48-1.17-2.18,0,0-.19-.29-.11-.43Z"/><path d="M241.54,10.43h-4.23v-1.9h7.07v1.35l-4.7,6.75h4.73v1.9h-7.53v-1.37l4.66-6.74Z"/><path d="M44.93,34.88c-.01,.38-.24,.63-.51,.83-.44,.36-1.15,.34-1.58-.03-.11-.11-.17-.3-.24-.48-.11-.29-.17-.3-.44-.16-.21,.13-.44,.28-.66,.43-.44,.3-.94,.5-1.48,.51-.23,0-.47,.01-.7-.03-.68-.17-.8-.64-.6-1.21,.21-.67,.7-1.15,1.21-1.57,.68-.54,1.45-.91,2.28-1.2,.2-.06,.31-.19,.3-.4,0-.37,.01-.75-.01-1.1-.1-.64-.29-1.01-.91-1.24-.3-.13-.57,.01-.81,.09-.48,.14-.88,.43-1.01,.97-.06,.27-.14,.53-.24,.81-.13,.31-.51,.51-.84,.44-.21-.07-.29-.19-.2-.38,.46-1.17,1.23-2.01,2.47-2.31,.7-.17,1.41-.17,2.02,.38,.3,.24,.48,.57,.48,.96v4.36c.01,.34,.11,.58,.44,.73,.29,.1,.57,.01,.81-.27,.07-.04,.1-.13,.13-.21,.04,.03,.07,.06,.1,.08Zm-2.45-1.61v-.86c0-.18-.13-.29-.31-.2-.3,.13-.6,.27-.87,.46-.54,.38-1.14,.74-1.45,1.37-.17,.36-.2,.71,.01,1.05,.24,.33,.57,.43,.96,.36,.57-.14,1.05-.46,1.44-.9,.13-.13,.17-.34,.23-.56,.03-.24,0-.48,0-.73Z"/><path d="M46.55,35.74c-.13-.03-.27,0-.4,.01-.16,.01-.31,.06-.48,.04-.21-.01-.29-.23-.14-.37,.31-.27,.38-.63,.37-1.01v-2.34c-.01-1.58-.01-3.16-.01-4.75,0-.26,.01-.51-.3-.67-.1-.06-.17-.33-.13-.48,.03-.1,.27-.2,.41-.21,.38-.04,.77,0,1.15-.04,.27-.03,.4,.03,.4,.3,0,.47-.01,.94-.01,1.4,0,.54,.03,1.08,.03,1.62,.01,.09,.01,.19,.01,.29-.03,.5-.06,1.01-.07,1.51-.01,.34,.01,.71,.01,1.07,.01,.31,0,.63,0,.96-.01,.4-.06,.8-.03,1.18,.01,.14,.17,.29,.29,.37,.14,.08,.31,.14,.47,.16,1.08,.17,1.97-.44,2.42-1.45,.37-.87,.21-1.64-.21-2.39-.43-.77-1.05-1.24-2-.93-.13,.03-.34,.03-.41-.06-.08-.07,.01-.41,.07-.48,.3-.3,.23-.63,.76-.67,.43-.04,.74-.1,1.18-.04,.61,.07,1.11,.41,1.48,.91,.33,.4,.57,.88,.77,1.37,.14,.31,.29,.68,.27,1.03-.04,.9-.29,1.8-.83,2.51-.44,.6-1.13,.96-1.91,1.18-.53,.14-1.05,.24-1.6,.2l-1.57-.2Z"/><path d="M58.37,34.54c.07,.38-.04,.66-.36,.84-.93,.47-1.85,.73-2.86,.41-1.05-.37-1.7-1.1-2.02-2.18-.29-.87-.2-1.71,.09-2.54,.31-.78,.84-1.4,1.6-1.8,1.1-.61,2.24-.6,3.41-.3,.11,.03,.24,.19,.26,.31,.01,.38,0,.77-.01,1.15-.01,.11-.16,.24-.26,.31-.07,.01-.2-.14-.29-.23-.21-.26-.36-.63-.63-.81-.67-.47-1.62-.19-2.05,.51-.44,.71-.41,1.48-.31,2.25,.11,.7,.4,1.3,.94,1.78,.5,.41,1.07,.57,1.74,.46,.24-.03,.51-.11,.77-.19Z"/><path d="M63.04,35.27c-.73,.7-1.52,.9-2.44,.71-.85-.14-1.47-.6-1.72-1.4-.47-1.4-.46-2.84-.01-4.23,.34-1.08,1.21-1.47,2.28-1.52,.01,0,.03-.01,.04,0,1.17,.03,1-.23,1.01,1.03,0,.29-.11,.37-.38,.37-.28,0-.57,.01-.84,.11-.47,.18-.73,.57-.76,1.04-.06,.74-.09,1.47,.01,2.19,.07,.74,.63,1.16,1.33,1.16,.74,0,1.27-.43,1.4-1.18,.06-.33,.09-.67,.09-1,.01-1.97,.01-3.92,0-5.89,0-.4,.1-.53,.51-.51,1.08,.01,1.08,0,1.08,1.1v8.02c0,.63-.01,.63-.63,.63-.09,0-.19-.01-.27,0-.4,.03-.78,.04-.7-.63Z"/><path d="M67.73,35.88c-.48,.01-.98-.06-1.45-.3-.73-.4-1.1-1.04-1.21-1.84-.23-1.7,.57-3.79,2.31-4.6,.84-.38,1.71-.47,2.59-.23,.7,.2,1.11,.76,1.15,1.47,.09,1.2-.66,2-1.54,2.34-.64,.26-1.3,.44-2,.47-.24,0-.31,.11-.24,.34,.1,.36,.38,.6,.77,.64,.58,.07,1.11-.1,1.61-.38,.23-.13,.34-.1,.41,.16,.09,.29,.19,.57,.3,.86,.09,.23,.01,.37-.2,.48-.68,.37-1.6,.6-2.51,.6Zm.95-5.46h-.08c-.46,.07-1.1,.78-1.11,1.24,0,.14,.09,.13,.17,.11,.21-.04,.43-.1,.63-.16,.31-.11,.6-.26,.75-.57,.17-.34,.01-.63-.36-.63Z"/><path d="M73.91,32.76v1.68c.01,.66,.14,.81,.76,1.01,.2,.06,.43,.08,.37,.36-.04,.24-.27,.23-.46,.2-.68-.11-1.4-.06-2.09,.01-.19,.01-.41,.06-.51-.19-.11-.24,.11-.34,.27-.44,.3-.2,.38-.51,.38-.83,.01-1.31,0-2.64,0-3.95,0-.37-.13-.5-.47-.49-.27,0-.64,.1-.67-.34-.03-.33,.19-.51,.68-.53,.34,0,.5-.14,.51-.47,.07-1.14,.47-2.18,1.2-3.05,.67-.85,1.51-1.48,2.69-1.35,.51,.06,.68,.29,.53,.77-.04,.13-.09,.24-.14,.36-.2,.46-.46,.5-.81,.17-.39-.36-.9-.34-1.31,.01-.33,.27-.51,.6-.64,1-.23,.73-.28,1.47-.23,2.24,.01,.21,.11,.33,.34,.33,.37-.01,.76,.03,1.13-.07,.14-.04,.33-.08,.44,.06,.14,.16,.04,.33-.01,.48-.13,.36-.36,.47-.76,.44-1.2-.08-1.14-.11-1.18,1.04-.03,.53-.01,1.04-.01,1.54Z"/><path d="M76.89,36.61c.64-.03,1.14-.16,1.55,.56,.6,1.04,2.82,.71,3.22-.41,.21-.58,.24-1.2,.36-1.82-.66,.31-1.17,.68-1.77,.83-1.67,.38-3.01-.47-3.48-2.11-.26-.91-.23-1.84,0-2.75,.6-2.25,3.38-2.99,5.13-1.35,.03-.23,.04-.41,.07-.63h1.11s.07,.06,.07,.1c-.03,2.42,.03,4.85-.11,7.25-.09,1.64-1.01,2.41-2.65,2.45-.64,.03-1.33-.01-1.97-.17-.93-.23-1.45-.88-1.54-1.94Zm5.05-4.48c0-.08,.01-.33-.01-.56-.17-1.14-.85-1.82-1.9-1.87-1.08-.01-1.84,.56-2,1.72-.1,.67-.07,1.43,.13,2.08,.37,1.24,1.84,1.65,2.91,.88,.73-.51,.88-1.28,.87-2.27Z"/><path d="M83.95,31.12v-3.35c0-.57-.07-1.08-.6-1.44-.06-.04-.17-.11-.08-.23,.07-.1,.17-.04,.26-.03,.31,.07,.51,.3,.76,.46,.19,.16,.3,.14,.46,0,.4-.31,.84-.58,1.38-.66,.07-.01,.17-.04,.23,.04,.06,.11-.03,.2-.1,.24-.61,.43-.73,1.05-.73,1.74v2.12c0,.08-.03,.2,.06,.23,.09,.04,.17-.03,.24-.08,.61-.44,1.18-.9,1.72-1.4,.2-.17,.36-.17,.54-.03,.64,.48,.91,1.11,.91,1.87v4.15c0,1.03-.47,1.77-1.27,2.39-.83,.67-1.78,1.1-2.75,1.5-.09,.03-.24,.16-.31-.03-.06-.17,.06-.26,.2-.3,.53-.27,1.07-.5,1.57-.83,.66-.47,.97-1.13,1-1.95v-4.83c0-.38-.21-.63-.5-.81-.11-.08-.19-.04-.28,.04l-1,.74c-.11,.1-.16,.2-.16,.36,.06,.74-.01,1.45-.01,2.19,.01,.48,.04,.98,0,1.47-.01,.26,.16,.44,.34,.57,.17,.17,.16,.29-.01,.44-.3,.23-.6,.46-.88,.73-.16,.11-.3,.1-.44,0-.29-.26-.58-.48-.9-.71-.19-.13-.2-.3-.03-.44,.41-.29,.4-.68,.4-1.13-.01-1.03,0-2.04,0-3.04Z"/><path d="M90.72,25.95c.63,0,1.05,.43,1.05,1.04,0,.66-.43,1.08-1.08,1.08-.6-.03-1.05-.46-1.05-1.07s.46-1.05,1.08-1.05Zm-.8,9.95v-6.83h1.61v6.83h-1.61Z"/><path d="M89.31,38.41c.3-.56,.61-.86,1.33-.63,.97,.34,1.74,.03,2.22-.93,.29-.56,.48-1.17,.61-1.8,.38-1.74,.71-3.48,1.07-5.24,.03-.16,.06-.33,.07-.5,.03-.5-.14-.78-.71-.67-.17,.04-.34,.04-.53,.04,0-.07-.01-.14-.03-.2,.94-.31,1.87-.64,2.98-1.01-.06,.5-.07,.84-.14,1.17-.41,1.87-.84,3.73-1.27,5.59-.46,2-1.48,3.55-3.53,4.22-.66,.21-1.35,.3-2.07-.04Zm5.87-12.29c.41-.86,1.14-1.14,1.85-1.54-.01,.87-.38,1.18-1.85,1.54Z"/><path d="M97.29,35.54c.36,0,.54-.18,.71-.36v-9.09c-.17-.19-.36-.19-.71-.36v-.36h3.04v6.77l1.95-1.95c0-.19,.19-.36,.19-.36v-.36s0-.19-.19-.19c-.17-.17-.36-.17-.71-.17v-.36h3.39v.36c-.36,0-.54,.17-.71,.17-.36,.19-.71,.36-1.07,.71l-1.25,1.07,3.04,4.28q.17,0,.17,.18h.19v.36h-3.56v-.36c.17,0,.36,0,.53-.18q.19,0,.19-.17l-.19-.19s0-.17-.17-.53l-1.61-1.97-.17,.36v2.49c.17,0,.36,.18,.71,.18v.36h-3.71l-.04-.36Z"/><path d="M113.26,24.7c-.26,.33-.48,.6-.64,.78-.63,.03-1.17,.01-1.67,.1-.63,.09-.88,.46-1.03,.86-.23,.68-.48,1.4-.71,2.07-.14,.47-.27,.96-.39,1.42-.16,.56-.21,1.1-.43,1.61-.2,.48-.37,.95-.44,1.45-.1,.5-.27,1-.33,1.5-.09,.46,.4,.67,.95,.47,.63-.19,1.28-.4,1.91-.64,.17,.13,.11,.29-.07,.4-.43,.23-.83,.48-1.23,.7-.61,.33-1.23,.66-1.87,.96-.91,.44-1.27,.07-1.45-.47-.14-.53,.23-1.01,.28-1.54,.07-.4,.19-.78,.31-1.2,.21-.64,.46-1.23,.64-1.87,.11-.38,.14-.8,.23-1.17,.1-.33,.23-.68,.33-1.04,.19-.61,.29-1.23,.54-1.85,.13-.36,.3-.73,.84-.98,.44-.2,.77-.56,1.14-.8,.76-.5,1.58-.86,2.64-.87,.13,.03,.29,.08,.43,.11Z"/><path d="M112.76,35.87l.31-1.74c.23-1.2,.43-2.38,.63-3.56,.07-.46,.04-.53-.4-.63-.24-.06-.26-.16-.21-.37,.13-.58,.13-.6,.77-.6,.38,0,.8,.01,1.18,0,.26-.01,.33,.08,.3,.3-.03,.16-.04,.3-.03,.5,.56-.57,1.18-.96,2-1,.87-.04,1.47,.27,1.8,1.17,.24-.24,.43-.48,.63-.66,.74-.6,2.04-.7,2.77-.23,.36,.24,.57,.58,.57,1,0,.56-.07,1.11-.16,1.65-.11,.88-.29,1.75-.43,2.62q-.09,.6,.53,.64s.09,.01,.13,.01c-.03,.24-.06,.48-.1,.71-.04,.19-.13,.3-.36,.29-.41,0-.83,.07-1.24,.01-.44-.06-.67-.34-.64-.81,.03-.51,.13-1.03,.21-1.55,.07-.46,.17-.9,.26-1.35,.04-.27,.09-.57,.14-.85,0-.01,0-.03,.01-.06,.1-.6-.03-1.05-.37-1.23-.47-.21-1.17-.06-1.52,.37-.36,.37-.47,.87-.56,1.35-.2,1.05-.38,2.11-.57,3.16-.03,.19-.1,.4-.11,.6-.01,.21-.11,.27-.33,.26-.4-.01-.81,0-1.25,0l.31-1.8c.16-.97,.33-1.94,.5-2.89,.09-.51-.08-.91-.44-1.07-.46-.19-1.08-.04-1.44,.36-.34,.37-.51,.85-.6,1.35-.19,1-.36,2.01-.56,3.04-.04,.26-.09,.54-.14,.8-.03,.07-.1,.2-.16,.2-.46,.01-.9,0-1.43,0Z"/><path d="M134.06,33.52c-.46,.43-.9,.83-1.35,1.23-.43,.4-.85,.83-1.41,1.08-.81,.41-1.6,.03-1.8-.84-.24-1.05,.1-1.98,.68-2.84,.56-.81,1.13-1.6,1.7-2.39,.08-.14,.24-.29,.13-.43-.14-.19-.33,0-.47,.07-1,.51-1.71,1.37-2.47,2.17-1.15,1.24-2.29,2.49-3.32,3.85-.3,.4-1.44,.67-1.87,.48-.3-.16-.11-.34-.01-.5,.6-.87,1.18-1.75,1.78-2.62,.64-.91,1.27-1.85,1.78-2.84,.1-.2,.3-.44,.07-.67-.19-.17-.43-.03-.61,.06-.46,.16-.84,.41-1.14,.77-.64,.74-1.48,1.34-1.84,2.32-.11,.3-.37,.57-.7,.71v-1.1c.47-.53,.97-1.05,1.44-1.58,.46-.54,.98-1.01,1.57-1.38,.21-.16,.46-.27,.7-.34,1.07-.31,1.8,.3,1.67,1.4-.04,.38-.17,.77-.28,1.3,.77-.7,1.37-1.4,2.09-1.95,.34-.28,.71-.51,1.11-.7,.77-.36,1.45,.03,1.57,.88,.1,.68-.03,1.3-.43,1.88-.67,.98-1.47,1.9-1.98,2.99-.11,.23-.37,.51-.08,.76,.27,.23,.58,.04,.83-.14,.96-.68,1.82-1.48,2.54-2.44l.11,.81Z"/><path d="M139.25,30.65v3.19c0,.37,.03,.73,0,1.13-.03,.16-.16,.37-.3,.46-.56,.33-1.13,.64-1.68,.97-.33,.19-.6,.07-.91-.09-.3-.18-.67-.3-.97-.48-.43-.27-.85-.37-1.37-.37-.16,.03-.21-.09-.13-.24,.4-.48,.31-1.07,.31-1.61,.03-.97,0-1.92,0-2.87,0-.24-.03-.48,0-.7,.03-.11,.14-.3,.27-.36,.57-.34,1.21-.61,1.8-.98,.43-.3,.7-.06,1.03,.1,.46,.21,.91,.38,1.37,.54,.53,.19,.64,.37,.58,1.31Zm-3.53,2.01h.04c0,.51,0,1.05,.03,1.58,0,.14,.08,.36,.21,.43,.48,.21,1,.41,1.48,.6,.19,.07,.27-.06,.27-.24v-4.05c0-.17-.11-.41-.27-.51-.36-.24-.78-.43-1.18-.57-.46-.16-.54-.1-.58,.38v2.38Z"/><path d="M140.56,38.69c-.2,.03-.36,.06-.53,.06s-.33-.03-.38-.23c-.06-.18-.03-.4,.16-.47,.56-.21,.57-.67,.57-1.15,.07-2.09,.01-4.19,0-6.29,0-.33-.11-.6-.48-.68-.21-.04-.27-.17-.26-.37,0-.2,.1-.33,.3-.37,.71-.07,1.38-.21,2.07-.44,.23-.1,.3,.11,.34,.3,.07,.34,.1,.34,.41,.2,.51-.29,.98-.54,1.6-.61,.8-.07,2.11,.78,2.37,1.57,.54,1.67,.16,3.08-1,4.29-.71,.73-1.65,1.13-2.74,.98-.06,0-.13,0-.2-.01-.3-.06-.4,.07-.38,.38,0,.47-.06,.94,0,1.42,.03,.37,.2,.6,.57,.71,.23,.06,.58,.1,.5,.47-.1,.36-.4,.31-.68,.3-.76-.09-1.5-.07-2.22-.06Zm4.35-7.01c-.03-.14-.03-.3-.06-.44-.11-.78-.78-1.34-1.51-1.25-.78,.08-1.13,.47-1.07,1.25,.03,.31,.06,.63,.04,.93-.01,.63,0,1.24,.01,1.85,0,.31,.19,.5,.46,.6,.53,.14,1.28-.11,1.6-.58,.48-.7,.6-1.51,.53-2.35Z"/><path d="M152.62,35.37h-.06c-.47,.47-1.18,.83-1.87,.83-1.85,0-3.05-1.43-3.05-3.79s1.52-3.81,3.09-3.81c.81,0,1.41,.29,2.01,.93h.07l.17-.76h1.67v9.93h-2.14v-2.18l.1-1.15Zm-.1-4.53c-.4-.36-.8-.47-1.23-.47-.77,0-1.44,.63-1.44,2.01s.53,2.05,1.38,2.05c.5,0,.9-.17,1.28-.67v-2.92Z"/><path d="M155.22,30.5c.36-.58,1.08-1.17,1.68-1.47,.37-.17,.76-.2,1.15-.17,.21,.03,.47,.33,.53,.57,.11,.57,.06,1.13-.09,1.68-.09,.29-.11,.56-.17,.84l.09,.04c.11-.17,.24-.33,.36-.5,.21-.29,.4-.57,.61-.86,.44-.58,.95-1.11,1.58-1.48,.54-.33,1.13-.38,1.75-.13-.17,.4-.37,.74-.74,.97-.07,.04-.2,.06-.29,.03-.63-.23-1.11,.03-1.52,.46-.38,.4-.74,.84-1.07,1.31-.73,1.07-.95,1.27-1.21,2.49-.09,.41-.17,.83-.24,1.24-.04,.23-.19,.31-.4,.33-.24,0-.47,.01-.71,.03-.19,.01-.26-.04-.21-.24,.13-.66,.27-1.31,.4-1.97,.1-.53,.21-1.08,.31-1.62,.1-.54,.21-1.1,.31-1.65,.01-.1,.04-.21,.04-.31,0-.43-.3-.66-.67-.47-.43,.21-.8,.53-1.2,.78-.07,.06-.13,.11-.2,.19-.03-.03-.06-.06-.1-.09Z"/><path d="M169.16,33.03c-.68,.98-1.57,1.75-2.64,2.32-.63,.33-1.3,.48-2.01,.54-.44,.04-.87,.09-1.33-.1-.57-.21-.93-.6-1.17-1.13-.03-.04-.04-.1-.09-.17,0,0-.04-.7-.03-.83,.06-.53,.27-.94,.76-1.21,.04-.01,.07-.04,.11-.07,.4-.08,.38-.04,.67-.04,.37,.07,.57,.37,.67,.66,.11,.58-.26,1.1-.73,1.05-.26-.03-.31,.1-.33,.29-.06,.4,.11,.73,.4,.98,.43,.37,1.1,.34,1.7-.04,.58-.34,.87-1.2,.68-1.84-.14-.5-.53-.78-.84-1.13-.36-.34-.77-.63-1.03-1.07-.23-.34-.14-.54-.17-.97,.01-.04,.01-.08,.01-.13,.03-.37,.21-.7,.46-.97,.83-.86,1.84-1.18,3.01-1,.56,.09,.97,.4,1.13,.94,.17,.57-.04,1.05-.47,1.44-.24,.21-.54,.36-.9,.23-.2-.07-.31-.19-.23-.4,.13-.3,.16-.61,.13-.93-.03-.63-.63-1.12-1.23-.83-.31,.14-.51,.6-.46,1.03,.07,.43,.21,.78,.53,1.08,.33,.33,.67,.63,.98,.96,.76,.78,.9,1.79,.26,2.72-.04,.07-.11,.17-.23,.31,.41-.19,.7-.4,.97-.66,.9-.87,1.58-1.88,2.12-3.01,.3-.6,.6-.43,.31,.2-.3,.61-.64,1.2-1.04,1.75Z"/><path d="M171.66,25.25v2.31h1.58v1.21h-1.4v5.64s.07,.6,.44,.6,.9-.8,.9-.8l.36,.29s-.81,1.4-2.14,1.4-1.31-1.25-1.31-1.25v-5.87h-1.13v-1.21l2.69-2.31Z"/><path d="M173.87,30.51c-.1-.11-.17-.2-.26-.31,.4-.33,.77-.67,1.13-1,.19-.2,.38-.38,.61-.54,.06-.06,.2-.11,.26-.09,.43,.33,.87,.63,1.31,1-.14,.18-.3,.31-.44,.48-.09,.07-.14,.19-.14,.29-.04,1.31-.06,2.64-.09,3.95,.03,.3,.17,.48,.37,.67,.06,.06,.21,.06,.29,.01,.4-.29,.74-.58,1.11-.88,.03-.04,.07-.16,.07-.24,.04-1.2,.07-2.41,.07-3.61,.01-.13-.09-.27-.17-.39-.07-.13-.2-.23-.34-.37l1.34-1.23s.2-.03,.26,.04c.4,.3,.81,.63,1.3,1-.23,.17-.37,.29-.53,.47-.09,.08-.17,.2-.19,.33-.01,.78-.04,1.57-.04,2.35-.01,.58,0,1.17-.01,1.75,0,.07,.01,.14,.01,.21,.1,.41,.3,.5,.64,.2,.03-.03,.07-.04,.09-.06,.33,.23,.3,.31,.04,.51-.43,.33-.78,.66-1.17,1-.27,.2-.3,.21-.57,.01-.41-.29-.7-.67-.73-1.21,0-.06-.01-.1-.04-.2-.07,.06-.16,.09-.21,.11l-1.9,1.68s-.17,.09-.19,.06c-.43-.31-.88-.6-1.03-1.14-.1-.37-.1-.76-.13-1.11,0-1.24,.04-2.45,.07-3.68,0-.1-.09-.29-.14-.33-.1-.03-.27,0-.38,.04-.1,.04-.14,.13-.27,.2Z"/><path d="M181.89,34.03c-.04-1,.4-1.72,.67-2.51,.07-.2,.23-.34,.04-.56-.19-.21-.43-.23-.68-.16-.23,.04-.51,.46-.71,.04-.16-.36-.16-.8,.13-1.14,.48-.63,.96-.68,1.67-.24,.26,.14,.46,.24,.63-.13,.14-.31,.29-.71,.76-.56,.34,.13,.43,.77,.21,1.17-.23,.43-.57,.77-.77,1.23-.41,1-.48,2.04-.4,3.09,.06,.7,.6,.9,1.13,.41,.64-.58,1.17-1.21,1.31-2.2,.13-1,.17-2,.23-2.99,.01-.34,.2-.63,.53-.76,.34-.11,.56,.16,.73,.4,.46,.56,.36,1.21,.23,1.85-.13,.6-.31,1.17-.47,1.74-.14,.56-.53,.96-.83,1.41-.51,.76-1.08,1.44-2.01,1.75-1.03,.34-2.32-.34-2.37-1.58-.01-.13-.01-.27-.01-.29Z"/><path d="M198.24,29.84c-.23,1.33-.38,2.67-1.21,3.82-.34,.48-.71,.96-1.11,1.41-.93,1.08-2.18,1.17-3.22,.21-.27-.26-.47-.24-.77,.01-1.2,1.03-2.34,.88-3.21-.23-.36-.44-.33-.97-.17-1.44,.2-.64,.38-1.27,.77-1.81,.1-.14,.19-.31,.24-.5,.07-.21,.36-.47,.04-.67-.3-.19-.67-.48-1.05-.13-.17,.16-.33,.23-.54,.1-.21-.14-.27-.34-.23-.57,.19-1.07,1.14-1.4,2.14-.9,.09,.04,.14,.14,.24,.19,.31,.14,.61,.23,.74-.24,.01-.07,.07-.14,.11-.21,.19-.23,.41-.44,.73-.31,.33,.14,.2,.43,.17,.67-.07,.37-.27,.7-.47,1-.63,1.01-.96,2.09-1.11,3.25-.04,.4,.04,.78,.19,1.14,.16,.41,.67,.47,1.05,.13,.47-.47,.76-1.05,.93-1.7,.29-.98,.56-1.98,.81-2.96,.09-.29,.21-.53,.43-.74,.38-.37,1.01-.2,1.14,.33,.08,.36,.08,.71-.07,1.04-.43,.98-.67,2-.86,3.04-.03,.2-.04,.43,0,.6,.09,.27,.24,.51,.53,.57,.29,.06,.54-.04,.77-.27,.77-.73,1.03-1.7,1.3-2.67,.17-.71,.19-1.41,.01-2.14-.03-.14-.03-.33-.01-.5,.01-.61,.23-.87,.77-.88,.41,0,.88,.44,.93,.86,.01,.17,0,.34,0,.51Z"/><path d="M198.33,35.54c.27-.04,.48-.13,.67-.24,.19-.13,.48-.41,.85-.87,.14-.21,.36-.46,.61-.81,.26-.36,.47-.63,.63-.84l-2-3.05c-.14-.24-.27-.38-.37-.46-.1-.06-.23-.1-.41-.11v-.38h3.86v.38c-.36,.03-.56,.07-.63,.1-.06,.01-.1,.08-.1,.18s.13,.37,.4,.78c.24,.4,.47,.75,.68,1.03,.54-.68,.84-1.1,.97-1.3,.14-.19,.21-.33,.21-.46,0-.14-.07-.24-.19-.29-.13-.04-.34-.06-.63-.06v-.38h2.59v.38c-.19,.01-.33,.07-.47,.11-.24,.11-.43,.26-.58,.46l-1.6,1.98,2.29,3.51c.07,.08,.13,.14,.19,.2,.07,.04,.17,.09,.27,.13v.36h-3.71v-.36c.2-.01,.38-.04,.51-.08,.13-.04,.19-.11,.19-.24,0-.09-.06-.23-.17-.41-.06-.13-.16-.3-.28-.5-.09-.1-.19-.27-.33-.48-.13-.2-.26-.38-.37-.57-.34,.41-.58,.74-.75,.97-.33,.48-.5,.78-.5,.91,0,.17,.06,.27,.19,.33,.14,.04,.34,.07,.58,.08v.36h-2.62v-.36Z"/><path d="M205.68,28.77c.68,0,1.33,0,1.98,.01,.06,0,.13,.11,.14,.17,.38,1.07,.78,2.15,1.17,3.24,.2,.56,.38,1.11,.61,1.72l.07-.2c.56-1.6,1.1-3.18,1.62-4.76,.06-.13,.11-.19,.26-.19,.54,.01,1.05,0,1.6,0,.07,0,.13,.01,.17,.01,0,.04,0,.1-.01,.11l-2.95,7.75c-.09,.27-.24,.53-.34,.78-.36,.78-.9,1.28-1.8,1.3-.71,.01-1.43,0-2.17,0v-1.47c.29,0,.56,.01,.84,0,.33,0,.63-.01,.94-.01,.17-.03,.31-.11,.41-.26,.11-.2,.21-.4,.3-.61,.03-.06,.01-.14-.01-.21-.93-2.38-1.85-4.76-2.75-7.14-.03-.07-.04-.14-.09-.26Z"/><path d="M219.6,29.36l-3.56,5.86h2.07l.46-1.78h1.2l-.16,2.46h-6.2l-.03-.57,3.71-5.87h-2.02l-.37,1.62-1.21-.06,.11-2.25h6.01v.58Z"/></g></svg>