<?xml version="1.0" encoding="UTF-8"?><svg id="Layer_1" xmlns="http://www.w3.org/2000/svg" viewBox="0 0 120.74 48.58"><defs><style>.cls-1{fill:#ff8f15;}</style></defs><g><rect class="cls-1" x="16.34" y="5.84" width="40.23" height="37.48"/><rect class="cls-1" x="72.22" y="36.16" width="40.23" height="7.16"/><polyline points="8.52 43.79 120.27 43.79 120.27 42.85 8.52 42.85"/><polyline points="8.99 43.32 8.99 42.27 8.05 42.27 8.05 43.32"/><polyline points="64.86 43.32 64.86 42.27 63.92 42.27 63.92 43.32"/><polyline points="120.74 43.32 120.74 42.27 119.8 42.27 119.8 43.32"/><path d="M5.5,44.85c-.24,0-.45-.06-.62-.17s-.3-.27-.38-.48c-.08-.21-.13-.45-.13-.73,0-.42,.1-.76,.29-1s.47-.36,.84-.36,.65,.12,.85,.36,.29,.58,.29,1c0,.28-.04,.52-.13,.73-.08,.21-.21,.36-.38,.48s-.38,.17-.62,.17Zm0-.45c.13,0,.24-.05,.32-.15l-.8-1.15c-.01,.05-.02,.11-.02,.18,0,.06,0,.13,0,.2,0,.32,.05,.55,.14,.7s.22,.22,.37,.22Zm.49-.57c.02-.1,.02-.22,.02-.35,0-.32-.05-.55-.14-.7-.09-.15-.22-.22-.37-.22-.12,0-.22,.04-.3,.13l.79,1.14Z"/><g><path d="M2,36.38v-.49c.35-.25,.62-.45,.83-.62,.21-.17,.35-.32,.44-.45s.14-.25,.14-.36c0-.1-.04-.18-.11-.23s-.16-.08-.25-.08c-.08,0-.16,.02-.24,.07-.08,.04-.13,.13-.16,.25l-.54-.2c.07-.18,.19-.33,.37-.42s.38-.15,.61-.15c.18,0,.34,.03,.48,.09,.14,.06,.25,.15,.34,.26,.08,.11,.12,.25,.12,.42,0,.27-.11,.51-.33,.74-.22,.23-.53,.46-.91,.68h1.26v.49H2Z"/><path d="M5.5,36.43c-.24,0-.45-.06-.62-.17-.17-.11-.3-.27-.38-.48-.08-.21-.13-.45-.13-.73,0-.42,.1-.76,.29-1s.47-.36,.84-.36,.65,.12,.85,.36,.29,.57,.29,1c0,.28-.04,.52-.13,.73-.08,.21-.21,.36-.38,.48-.17,.11-.38,.17-.62,.17Zm0-.45c.13,0,.24-.05,.32-.15l-.8-1.15c-.01,.06-.02,.11-.02,.18,0,.06,0,.13,0,.2,0,.32,.05,.55,.14,.7s.22,.22,.37,.22Zm.49-.57c.02-.1,.02-.22,.02-.35,0-.32-.05-.55-.14-.7s-.22-.22-.37-.22c-.12,0-.22,.04-.3,.13l.79,1.14Z"/></g><g><path d="M3.08,27.96v-.56H1.8v-.44l1.28-1.64h.6v1.55h.36v.53h-.36v.56h-.6Zm-.63-1.09h.63v-.77l-.63,.77Z"/><path d="M5.5,28c-.25,0-.45-.05-.62-.17-.17-.11-.29-.27-.38-.47-.09-.21-.13-.45-.13-.73,0-.42,.1-.76,.29-1,.19-.24,.47-.36,.84-.36s.65,.12,.84,.36c.19,.24,.29,.58,.29,1,0,.28-.04,.52-.13,.73-.09,.21-.21,.36-.38,.47-.17,.11-.38,.17-.62,.17Zm0-.45c.13,0,.24-.05,.32-.15l-.8-1.15c-.01,.05-.02,.11-.02,.18,0,.06,0,.13,0,.2,0,.32,.05,.55,.14,.7,.09,.15,.22,.22,.37,.22Zm.49-.57c.02-.1,.02-.22,.02-.35,0-.32-.05-.55-.14-.7-.09-.15-.22-.22-.37-.22-.12,0-.22,.04-.3,.13l.79,1.14Z"/></g><g><path d="M2.95,19.58c-.25,0-.46-.05-.61-.16-.16-.11-.27-.25-.34-.44-.07-.19-.11-.41-.11-.66,0-.19,.02-.37,.06-.55s.11-.33,.2-.47c.09-.14,.21-.25,.35-.33s.32-.12,.53-.12,.37,.04,.5,.11c.13,.07,.24,.16,.3,.28l-.54,.19s-.07-.08-.12-.1c-.05-.03-.12-.04-.19-.04-.14,0-.25,.05-.34,.16s-.13,.27-.13,.5c.07-.06,.14-.11,.24-.14s.2-.05,.33-.05c.16,0,.3,.04,.44,.11s.25,.17,.33,.31c.08,.13,.12,.29,.12,.47s-.04,.34-.13,.49c-.09,.14-.21,.25-.36,.33s-.33,.12-.52,.12Zm0-.45c.13,0,.23-.04,.3-.13,.07-.09,.11-.2,.11-.34s-.04-.25-.11-.34c-.07-.09-.18-.13-.31-.13s-.23,.04-.31,.13c-.08,.08-.12,.2-.12,.34s.04,.26,.12,.34,.18,.13,.31,.13Z"/><path d="M5.5,19.58c-.25,0-.45-.05-.62-.17-.17-.11-.3-.27-.38-.47-.09-.21-.13-.45-.13-.73,0-.42,.1-.76,.29-1s.47-.36,.84-.36,.65,.12,.84,.36,.29,.58,.29,1c0,.28-.04,.52-.13,.73-.09,.21-.21,.36-.38,.47-.17,.11-.38,.17-.62,.17Zm0-.45c.13,0,.24-.05,.32-.15l-.8-1.15c-.01,.05-.02,.11-.02,.18,0,.06,0,.13,0,.2,0,.32,.05,.55,.14,.7,.09,.15,.22,.22,.37,.22Zm.49-.57c.02-.1,.02-.22,.02-.35,0-.32-.05-.55-.14-.7-.09-.15-.22-.22-.37-.22-.12,0-.22,.04-.3,.13l.79,1.14Z"/></g><g><path d="M2.95,11.16c-.21,0-.39-.03-.55-.1-.16-.07-.29-.16-.39-.29-.09-.13-.14-.29-.14-.47,0-.16,.04-.29,.11-.39,.08-.1,.19-.2,.34-.28-.04-.06-.07-.13-.09-.2s-.03-.15-.03-.23c0-.14,.03-.27,.1-.38,.06-.12,.15-.21,.27-.28,.11-.07,.25-.1,.4-.1s.28,.03,.4,.1c.11,.07,.2,.16,.27,.28,.06,.12,.09,.24,.09,.38,0,.16-.04,.3-.13,.43,.15,.08,.26,.18,.34,.28s.12,.24,.12,.4c0,.18-.05,.34-.14,.47-.09,.13-.22,.23-.39,.29-.16,.07-.35,.1-.55,.1Zm0-.5c.13,0,.24-.03,.33-.1s.13-.16,.13-.26-.04-.2-.13-.26-.2-.09-.33-.09-.25,.03-.34,.09-.13,.15-.13,.26,.04,.2,.13,.26,.2,.1,.34,.1Zm0-1.2c.07,0,.14-.03,.19-.08,.05-.05,.08-.12,.08-.19s-.02-.14-.08-.19-.11-.08-.19-.08-.14,.03-.19,.08-.08,.12-.08,.19,.03,.14,.08,.19c.05,.05,.12,.08,.19,.08Z"/><path d="M5.5,11.16c-.24,0-.45-.06-.62-.17-.17-.11-.3-.27-.38-.48s-.13-.45-.13-.73c0-.42,.1-.76,.29-1,.19-.24,.47-.36,.84-.36s.65,.12,.85,.36c.19,.24,.29,.57,.29,1,0,.28-.04,.52-.13,.73s-.21,.36-.38,.48c-.17,.11-.38,.17-.62,.17Zm0-.45c.13,0,.24-.05,.32-.15l-.8-1.15c-.01,.06-.02,.11-.02,.18,0,.06,0,.13,0,.2,0,.32,.05,.55,.14,.7s.22,.22,.37,.22Zm.49-.57c.02-.1,.02-.22,.02-.35,0-.32-.05-.55-.14-.7-.09-.15-.22-.22-.37-.22-.12,0-.22,.04-.3,.13l.79,1.14Z"/></g><g><path d="M.6,2.68V.92H0V.43c.14,0,.26,0,.35-.02,.09-.01,.17-.05,.23-.1,.06-.05,.12-.14,.16-.26h.45V2.68H.6Z"/><path d="M2.91,2.73c-.25,0-.45-.06-.62-.17-.17-.11-.3-.27-.38-.48-.09-.21-.13-.45-.13-.73,0-.42,.1-.76,.29-1s.47-.36,.84-.36,.65,.12,.84,.36,.29,.57,.29,1c0,.28-.04,.52-.13,.73-.09,.21-.21,.36-.38,.48-.17,.11-.38,.17-.62,.17Zm0-.45c.13,0,.24-.05,.32-.15l-.8-1.15c-.01,.06-.02,.11-.02,.18,0,.06,0,.13,0,.2,0,.32,.05,.55,.14,.7s.22,.22,.37,.22Zm.49-.57c.02-.1,.02-.22,.02-.35,0-.32-.05-.55-.14-.7-.09-.15-.22-.22-.37-.22-.12,0-.22,.04-.3,.13l.79,1.14Z"/><path d="M5.5,2.73c-.24,0-.45-.06-.62-.17-.17-.11-.3-.27-.38-.48-.08-.21-.13-.45-.13-.73,0-.42,.1-.76,.29-1s.47-.36,.84-.36,.65,.12,.85,.36,.29,.57,.29,1c0,.28-.04,.52-.13,.73-.08,.21-.21,.36-.38,.48-.17,.11-.38,.17-.62,.17Zm0-.45c.13,0,.24-.05,.32-.15l-.8-1.15c-.01,.06-.02,.11-.02,.18,0,.06,0,.13,0,.2,0,.32,.05,.55,.14,.7s.22,.22,.37,.22Zm.49-.57c.02-.1,.02-.22,.02-.35,0-.32-.05-.55-.14-.7s-.22-.22-.37-.22c-.12,0-.22,.04-.3,.13l.79,1.14Z"/></g><polyline points="8.99 43.79 8.99 1.2 8.05 1.2 8.05 43.79"/><polyline points="8.52 43.79 11.31 43.79 11.31 42.85 8.52 42.85"/><polyline points="8.52 35.37 11.31 35.37 11.31 34.43 8.52 34.43"/><polyline points="8.52 26.94 11.31 26.94 11.31 26 8.52 26"/><polyline points="8.52 18.52 11.31 18.52 11.31 17.58 8.52 17.58"/><polyline points="8.52 10.1 11.31 10.1 11.31 9.16 8.52 9.16"/><polyline points="8.05 1.67 11.31 1.67 11.31 .73 8.05 .73"/><g><path d="M85.38,47.94v-2.64h1.01c.23,0,.43,.02,.61,.07,.18,.05,.32,.13,.43,.26,.1,.12,.16,.3,.16,.53s-.05,.41-.16,.53c-.1,.12-.25,.21-.43,.26-.18,.05-.38,.07-.61,.07h-.39v.92h-.62Zm.62-1.43h.41c.1,0,.18,0,.26-.03,.08-.02,.14-.05,.19-.1,.05-.05,.07-.12,.07-.21s-.02-.16-.07-.21c-.05-.05-.11-.08-.19-.1-.08-.02-.17-.03-.26-.03h-.41v.68Z"/><path d="M88.83,47.99c-.18,0-.35-.04-.51-.11-.16-.07-.29-.19-.38-.34s-.15-.35-.15-.58,.05-.43,.15-.58c.1-.15,.23-.26,.38-.34s.33-.11,.51-.11,.35,.04,.51,.11c.16,.07,.29,.18,.38,.34,.1,.15,.15,.34,.15,.58s-.05,.43-.15,.58c-.1,.15-.23,.27-.38,.34-.16,.07-.33,.11-.51,.11Zm0-.47c.12,0,.22-.04,.3-.13,.08-.09,.12-.23,.12-.44s-.04-.35-.12-.44c-.08-.08-.18-.12-.3-.12s-.22,.04-.3,.12-.12,.23-.12,.44,.04,.35,.12,.44c.08,.09,.18,.13,.3,.13Z"/><path d="M90.18,47.94v-1.96h.47l.11,.36c.06-.16,.14-.27,.25-.33,.11-.06,.23-.09,.38-.08v.6s-.06,0-.08,0c-.02,0-.05,0-.08,0-.15,0-.26,.03-.33,.1-.08,.07-.12,.18-.12,.34v.99h-.6Z"/><path d="M92.55,47.94c-.16,0-.29-.01-.38-.04s-.16-.08-.2-.16c-.04-.08-.06-.2-.06-.35v-.95h-.32v-.46h.32v-.49h.6v.49h.43v.46h-.43v.79c0,.09,.02,.15,.05,.18,.04,.03,.1,.04,.2,.04h.17v.49h-.38Z"/><path d="M93.24,47.94v-1.96h.47l.11,.36c.06-.16,.14-.27,.25-.33,.11-.06,.23-.09,.38-.08v.6s-.06,0-.08,0-.05,0-.08,0c-.15,0-.26,.03-.33,.1s-.12,.18-.12,.34v.99h-.6Z"/><path d="M95.26,47.99c-.12,0-.24-.02-.34-.07-.1-.05-.18-.11-.24-.2s-.09-.19-.09-.31c0-.16,.06-.29,.17-.38,.11-.09,.27-.17,.46-.21,.19-.05,.42-.08,.67-.1,0-.14-.02-.24-.07-.3-.04-.06-.13-.09-.26-.09-.08,0-.15,.02-.22,.06-.06,.04-.1,.1-.12,.18l-.51-.18c.07-.13,.18-.24,.33-.33,.15-.09,.34-.13,.57-.13,.28,0,.49,.06,.64,.19,.15,.12,.23,.33,.23,.63v.43c0,.08,0,.18,0,.27,0,.1,.01,.19,.02,.28,.01,.09,.02,.16,.04,.22h-.56l-.07-.24c-.07,.1-.17,.18-.28,.22-.11,.04-.24,.07-.38,.07Zm.22-.41c.12,0,.22-.03,.3-.09,.08-.06,.12-.18,.12-.36v-.05c-.21,.02-.38,.05-.5,.08-.13,.04-.19,.11-.19,.21,0,.06,.03,.11,.08,.15,.05,.04,.12,.06,.2,.06Z"/><path d="M97.16,47.94v-1.5h-.37v-.46h.98v1.96h-.6Zm.3-2.28c-.1,0-.18-.04-.25-.11-.07-.07-.1-.15-.1-.25s.03-.18,.1-.25c.07-.07,.15-.1,.25-.1s.18,.03,.25,.1,.1,.15,.1,.25-.03,.18-.1,.25c-.07,.07-.15,.11-.25,.11Z"/><path d="M98.98,47.94c-.16,0-.29-.01-.38-.04s-.16-.08-.2-.16-.06-.2-.06-.35v-.95h-.32v-.46h.32v-.49h.6v.49h.43v.46h-.43v.79c0,.09,.02,.15,.05,.18,.04,.03,.1,.04,.2,.04h.17v.49h-.38Z"/></g><g><path d="M26.62,47.94v-2.64h.62v2.09h1.26v.55h-1.89Z"/><path d="M29.4,47.99c-.12,0-.24-.02-.34-.07-.1-.05-.18-.11-.25-.2s-.09-.19-.09-.31c0-.16,.06-.29,.17-.38,.11-.09,.27-.17,.46-.21,.19-.05,.42-.08,.67-.1,0-.14-.02-.24-.07-.3-.04-.06-.13-.09-.26-.09-.08,0-.15,.02-.22,.06-.06,.04-.1,.1-.12,.18l-.5-.18c.07-.13,.18-.24,.33-.33,.15-.09,.34-.13,.57-.13,.28,0,.49,.06,.64,.19,.15,.12,.23,.33,.23,.63v.43c0,.08,0,.18,0,.27,0,.1,.01,.19,.02,.28,.01,.09,.02,.16,.04,.22h-.56l-.07-.24c-.07,.1-.17,.18-.28,.22-.11,.04-.24,.07-.38,.07Zm.22-.41c.12,0,.22-.03,.3-.09,.08-.06,.12-.18,.12-.36v-.05c-.21,.02-.38,.05-.5,.08-.13,.04-.19,.11-.19,.21,0,.06,.03,.11,.08,.15s.12,.06,.2,.06Z"/><path d="M31.03,47.94v-1.96h.52l.07,.26c.04-.07,.12-.14,.22-.21,.1-.07,.23-.1,.38-.1,.25,0,.43,.07,.52,.21,.09,.14,.14,.34,.14,.61v1.19h-.6v-1.04c0-.09,0-.18-.02-.25-.01-.08-.04-.14-.08-.18-.04-.05-.11-.07-.21-.07-.13,0-.22,.04-.28,.14-.06,.09-.09,.23-.09,.41v1.01h-.6Z"/><path d="M34.04,47.99c-.17,0-.32-.04-.45-.13s-.23-.21-.31-.36c-.07-.16-.11-.34-.11-.55s.04-.4,.11-.55c.07-.15,.18-.27,.31-.35s.28-.12,.45-.12c.11,0,.22,.03,.33,.08,.11,.05,.2,.13,.26,.24v-.95h.6v1.87c0,.1,0,.21,.01,.35,0,.13,.03,.27,.05,.42h-.57l-.08-.26c-.08,.11-.18,.19-.29,.24-.11,.05-.22,.07-.33,.07Zm.19-.47c.12,0,.22-.04,.3-.13,.09-.09,.13-.23,.13-.43s-.04-.34-.13-.43c-.09-.09-.19-.13-.3-.13s-.22,.05-.31,.14c-.08,.09-.13,.23-.13,.41s.04,.32,.13,.42c.09,.1,.19,.15,.31,.15Z"/><path d="M36.49,47.99c-.23,0-.43-.04-.59-.13-.17-.08-.29-.21-.37-.37l.51-.19c.03,.08,.08,.14,.17,.18s.18,.06,.29,.06c.1,0,.18-.02,.26-.04,.08-.03,.11-.08,.11-.14,0-.04-.02-.08-.07-.11-.04-.03-.12-.05-.24-.07l-.35-.06c-.19-.03-.34-.1-.46-.19-.12-.1-.18-.23-.18-.39,0-.14,.04-.25,.12-.34,.08-.09,.19-.16,.33-.21s.29-.07,.45-.07c.19,0,.36,.03,.52,.1,.16,.07,.28,.18,.35,.33l-.51,.19c-.02-.07-.06-.12-.13-.14-.07-.03-.15-.04-.24-.04-.22,0-.32,.05-.32,.16,0,.04,.02,.07,.06,.1s.1,.04,.19,.06l.36,.07c.24,.04,.41,.1,.53,.19,.11,.08,.17,.2,.17,.37,0,.15-.04,.28-.13,.38-.09,.1-.2,.18-.35,.23-.15,.05-.31,.08-.48,.08Z"/><path d="M38.68,47.99c-.22,0-.4-.04-.55-.13-.15-.09-.26-.21-.34-.37-.08-.16-.12-.34-.12-.54s.04-.38,.13-.54,.2-.27,.35-.36,.33-.13,.52-.13c.11,0,.23,.02,.34,.05,.11,.03,.22,.08,.31,.16,.1,.08,.17,.18,.24,.31l-.5,.18c-.03-.08-.08-.14-.14-.18-.06-.03-.13-.05-.21-.05-.07,0-.14,.02-.21,.05-.07,.04-.12,.09-.16,.18-.04,.08-.06,.19-.06,.33s.02,.25,.06,.34c.04,.08,.1,.14,.16,.18,.06,.04,.13,.05,.2,.05,.08,0,.16-.02,.21-.05,.06-.03,.1-.08,.14-.14l.49,.18c-.07,.12-.15,.21-.24,.28-.1,.07-.2,.12-.31,.15-.11,.03-.22,.04-.32,.04Z"/><path d="M40.42,47.99c-.12,0-.24-.02-.34-.07-.1-.05-.18-.11-.24-.2s-.09-.19-.09-.31c0-.16,.06-.29,.17-.38,.11-.09,.27-.17,.46-.21,.19-.05,.42-.08,.67-.1,0-.14-.02-.24-.07-.3-.04-.06-.13-.09-.26-.09-.08,0-.15,.02-.22,.06-.06,.04-.1,.1-.12,.18l-.51-.18c.07-.13,.18-.24,.33-.33,.15-.09,.34-.13,.57-.13,.28,0,.49,.06,.64,.19,.15,.12,.23,.33,.23,.63v.43c0,.08,0,.18,0,.27,0,.1,.01,.19,.02,.28,.01,.09,.02,.16,.04,.22h-.56l-.07-.24c-.07,.1-.17,.18-.28,.22-.11,.04-.24,.07-.38,.07Zm.22-.41c.12,0,.22-.03,.3-.09,.08-.06,.12-.18,.12-.36v-.05c-.21,.02-.38,.05-.5,.08-.13,.04-.19,.11-.19,.21,0,.06,.03,.11,.08,.15,.05,.04,.12,.06,.2,.06Z"/><path d="M42.05,48.58v-2.59h.52l.08,.27c.06-.11,.15-.19,.27-.24,.11-.05,.22-.08,.33-.08,.17,0,.32,.04,.45,.13,.13,.08,.23,.2,.31,.36,.07,.15,.11,.34,.11,.55s-.04,.4-.11,.55c-.07,.15-.18,.27-.31,.35-.13,.08-.28,.12-.45,.12-.11,0-.21-.03-.33-.08s-.2-.14-.27-.24v.92h-.6Zm1.01-1.05c.12,0,.22-.05,.3-.14,.09-.09,.13-.23,.13-.42s-.04-.32-.13-.42c-.09-.1-.19-.15-.3-.15s-.22,.04-.31,.13c-.09,.08-.13,.23-.13,.43s.04,.35,.13,.44c.09,.09,.19,.14,.31,.14Z"/><path d="M45.4,47.99c-.21,0-.4-.04-.56-.12-.16-.08-.29-.2-.38-.36-.09-.16-.14-.34-.14-.56s.05-.39,.14-.54c.1-.15,.22-.27,.38-.36s.33-.13,.52-.13c.22,0,.4,.05,.55,.15,.15,.1,.27,.24,.35,.42,.08,.18,.11,.38,.1,.62h-1.45c.01,.14,.06,.24,.15,.31,.09,.07,.19,.1,.3,.1,.09,0,.17-.01,.24-.04,.07-.03,.12-.06,.16-.11l.48,.17c-.1,.15-.23,.26-.38,.33-.15,.07-.31,.11-.47,.11Zm-.47-1.23h.89c0-.13-.05-.22-.13-.29-.08-.06-.18-.1-.3-.1s-.21,.03-.3,.09c-.09,.06-.14,.16-.16,.29Z"/></g></g><g><path d="M34.92,4.7c-.29,0-.54-.05-.77-.14-.23-.09-.41-.23-.54-.41-.13-.18-.2-.4-.2-.66,0-.22,.05-.41,.16-.55,.11-.14,.26-.27,.47-.38-.05-.09-.1-.18-.13-.28-.03-.1-.05-.21-.05-.32,0-.19,.04-.37,.13-.53,.09-.16,.21-.29,.37-.38,.16-.1,.34-.14,.55-.14s.39,.05,.55,.14,.28,.22,.37,.38c.09,.16,.13,.34,.13,.53,0,.22-.06,.42-.18,.6,.21,.11,.36,.24,.47,.39,.11,.15,.16,.33,.16,.56,0,.26-.07,.47-.2,.65-.13,.18-.31,.32-.54,.41-.23,.09-.48,.14-.77,.14Zm0-.69c.19,0,.34-.05,.46-.14,.12-.09,.18-.21,.18-.36,0-.15-.06-.27-.18-.36-.12-.08-.27-.13-.46-.13s-.35,.04-.47,.13c-.12,.08-.18,.2-.18,.36s.06,.27,.18,.37c.12,.09,.28,.14,.47,.14Zm0-1.66c.1,0,.19-.04,.26-.11,.07-.08,.11-.16,.11-.27s-.04-.2-.1-.27c-.07-.07-.16-.11-.26-.11s-.19,.04-.27,.11-.11,.16-.11,.27,.04,.19,.11,.27c.08,.07,.16,.11,.27,.11Z"/><path d="M38.35,4.7c-.29,0-.54-.05-.77-.14-.23-.09-.41-.23-.54-.41-.13-.18-.2-.4-.2-.66,0-.22,.05-.41,.16-.55,.11-.14,.26-.27,.47-.38-.05-.09-.1-.18-.13-.28-.03-.1-.05-.21-.05-.32,0-.19,.04-.37,.13-.53,.09-.16,.21-.29,.37-.38,.16-.1,.34-.14,.55-.14s.39,.05,.55,.14,.28,.22,.37,.38c.09,.16,.13,.34,.13,.53,0,.22-.06,.42-.18,.6,.21,.11,.36,.24,.47,.39,.11,.15,.16,.33,.16,.56,0,.26-.07,.47-.2,.65-.13,.18-.31,.32-.54,.41-.23,.09-.48,.14-.77,.14Zm0-.69c.19,0,.34-.05,.46-.14,.12-.09,.18-.21,.18-.36,0-.15-.06-.27-.18-.36-.12-.08-.27-.13-.46-.13s-.35,.04-.47,.13c-.12,.08-.18,.2-.18,.36s.06,.27,.18,.37c.12,.09,.28,.14,.47,.14Zm0-1.66c.1,0,.19-.04,.26-.11,.07-.08,.11-.16,.11-.27s-.04-.2-.1-.27c-.07-.07-.16-.11-.26-.11s-.19,.04-.27,.11-.11,.16-.11,.27,.04,.19,.11,.27c.08,.07,.16,.11,.27,.11Z"/></g><g><path d="M90.48,35.13v-2.46h-.83v-.68c.19,0,.35,0,.48-.03,.13-.02,.23-.07,.32-.14,.09-.08,.16-.19,.23-.36h.63v3.67h-.83Z"/><path d="M93.56,35.2c-.29,0-.54-.05-.77-.14-.23-.09-.41-.23-.54-.41-.13-.18-.2-.4-.2-.66,0-.22,.05-.41,.16-.55,.11-.14,.26-.27,.47-.38-.06-.09-.1-.18-.13-.28-.03-.1-.05-.21-.05-.32,0-.19,.04-.37,.13-.53,.09-.16,.21-.29,.37-.38,.16-.1,.34-.14,.55-.14s.39,.05,.55,.14c.16,.09,.28,.22,.37,.38s.13,.34,.13,.53c0,.22-.06,.42-.18,.6,.21,.11,.36,.24,.47,.39,.11,.15,.16,.33,.16,.56,0,.26-.07,.47-.2,.65-.13,.18-.31,.32-.54,.41-.23,.09-.48,.14-.77,.14Zm0-.69c.19,0,.34-.05,.46-.14,.12-.09,.18-.22,.18-.36s-.06-.27-.18-.36c-.12-.08-.27-.13-.46-.13s-.35,.04-.47,.13c-.12,.08-.18,.2-.18,.36s.06,.27,.18,.37c.12,.09,.28,.14,.47,.14Zm0-1.66c.1,0,.19-.04,.26-.11,.07-.08,.11-.16,.11-.27s-.03-.2-.1-.27c-.07-.07-.16-.11-.26-.11s-.19,.04-.27,.11-.11,.16-.11,.27,.04,.19,.11,.27,.16,.11,.27,.11Z"/></g></svg>