<?xml version="1.0" encoding="UTF-8"?><svg id="Layer_1" xmlns="http://www.w3.org/2000/svg" viewBox="0 0 120.92 49.54"><defs><style>.cls-1{font-size:5.49px;}.cls-1,.cls-2{font-family:AtkinsonHyperlegible-Bold, 'Atkinson Hyperlegible';font-weight:700;}.cls-3{letter-spacing:.02em;}.cls-4{fill:#ff8f15;}.cls-5{letter-spacing:0em;}.cls-6{letter-spacing:0em;}.cls-7{letter-spacing:0em;}.cls-2{font-size:3.95px;}.cls-8{letter-spacing:.02em;}.cls-9{letter-spacing:0em;}.cls-10{letter-spacing:0em;}.cls-11{letter-spacing:0em;}</style></defs><g><rect class="cls-4" x="16.53" y="6.44" width="40.23" height="37.48"/><rect class="cls-4" x="72.4" y="36.77" width="40.23" height="7.16"/><polyline points="8.7 44.4 120.45 44.4 120.45 43.46 8.7 43.46"/><polyline points="9.17 43.93 9.17 42.88 8.23 42.88 8.23 43.93"/><polyline points="65.05 43.93 65.05 42.88 64.11 42.88 64.11 43.93"/><polyline points="120.92 43.93 120.92 42.88 119.98 42.88 119.98 43.93"/><text class="cls-2" transform="translate(4.38 45.41)"><tspan x="0" y="0">0</tspan></text><text class="cls-2" transform="translate(2.05 36.99)"><tspan class="cls-10" x="0" y="0">2</tspan><tspan x="2.33" y="0">0</tspan></text><text class="cls-2" transform="translate(1.89 28.56)"><tspan class="cls-10" x="0" y="0">4</tspan><tspan x="2.49" y="0">0</tspan></text><text class="cls-2" transform="translate(1.87 20.14)"><tspan class="cls-10" x="0" y="0">6</tspan><tspan class="cls-9" x="2.52" y="0">0</tspan></text><text class="cls-2" transform="translate(1.9 11.72)"><tspan class="cls-10" x="0" y="0">8</tspan><tspan x="2.49" y="0">0</tspan></text><text class="cls-2" transform="translate(0 3.29)"><tspan class="cls-10" x="0" y="0">10</tspan><tspan x="4.38" y="0">0</tspan></text><polyline points="9.17 44.4 9.17 1.81 8.23 1.81 8.23 44.4"/><polyline points="8.7 44.4 11.5 44.4 11.5 43.46 8.7 43.46"/><polyline points="8.7 35.98 11.5 35.98 11.5 35.04 8.7 35.04"/><polyline points="8.7 27.55 11.5 27.55 11.5 26.61 8.7 26.61"/><polyline points="8.7 19.13 11.5 19.13 11.5 18.19 8.7 18.19"/><polyline points="8.7 10.71 11.5 10.71 11.5 9.77 8.7 9.77"/><polyline points="8.23 2.28 11.5 2.28 11.5 1.34 8.23 1.34"/><text class="cls-2" transform="translate(85.4 48.55)"><tspan class="cls-10" x="0" y="0">Po</tspan><tspan class="cls-8" x="4.77" y="0">r</tspan><tspan class="cls-10" x="6.32" y="0">t</tspan><tspan class="cls-6" x="7.84" y="0">r</tspan><tspan class="cls-7" x="9.28" y="0">ai</tspan><tspan x="12.75" y="0">t</tspan></text><text class="cls-2" transform="translate(26.63 48.55)"><tspan class="cls-3" x="0" y="0">L</tspan><tspan class="cls-7" x="2.18" y="0">a</tspan><tspan class="cls-5" x="4.39" y="0">n</tspan><tspan class="cls-11" x="6.63" y="0">dscap</tspan><tspan class="cls-9" x="17.78" y="0">e</tspan></text></g><text class="cls-1" transform="translate(33.38 5.24)"><tspan x="0" y="0">88</tspan></text><text class="cls-1" transform="translate(89.57 35.74)"><tspan x="0" y="0">18</tspan></text></svg>