<?xml version="1.0" encoding="UTF-8"?><svg id="Layer_1" xmlns="http://www.w3.org/2000/svg" viewBox="0 0 190.62 36.03"><defs><style>.cls-1{fill:#fff;}.cls-2{fill:#ff8f15;}</style></defs><rect class="cls-2" width="190.62" height="36.03" rx="12" ry="12"/><g><path class="cls-1" d="M19.25,16.71c-.21,0-.38-.07-.51-.21-.13-.14-.19-.3-.19-.48,0-.13,.04-.25,.11-.36l.97-1.62h.65l-.81,1.34c.31,.11,.46,.33,.46,.65,0,.2-.07,.36-.2,.49-.13,.13-.29,.19-.48,.19Zm1.68,0c-.21,0-.39-.07-.51-.21-.13-.14-.19-.3-.19-.48,0-.13,.04-.25,.11-.36l.97-1.62h.65l-.81,1.34c.31,.11,.46,.33,.46,.65,0,.2-.07,.36-.2,.49-.13,.13-.29,.19-.48,.19Z"/><path class="cls-1" d="M23.61,21.19l1.33-6.28h-2.35l.18-.87h5.76l-.18,.87h-2.38l-1.32,6.28h-1.04Z"/><path class="cls-1" d="M27.9,21.19l1.52-7.15h.92l-.55,2.58c.18-.23,.41-.42,.69-.58,.28-.16,.66-.24,1.14-.24,.45,0,.8,.12,1.05,.36,.25,.24,.38,.61,.38,1.12,0,.24-.03,.52-.1,.83l-.66,3.08h-.91l.63-3c.06-.31,.1-.57,.1-.77,0-.31-.07-.52-.21-.65-.14-.12-.37-.19-.67-.19-.26,0-.51,.06-.75,.17s-.46,.31-.65,.58c-.19,.27-.33,.64-.43,1.1l-.58,2.75h-.92Z"/><path class="cls-1" d="M34.24,21.19l.97-4.58h-.86l.15-.73h1.78l-1.12,5.31h-.92Zm1.96-6.33c-.18,0-.33-.07-.47-.2-.13-.13-.2-.29-.2-.47s.07-.34,.2-.48c.13-.13,.29-.2,.47-.2s.34,.07,.48,.2c.13,.13,.2,.29,.2,.48s-.07,.33-.2,.47c-.13,.13-.29,.2-.48,.2Z"/><path class="cls-1" d="M38.97,21.32c-.54,0-.98-.1-1.35-.31-.36-.21-.64-.55-.82-1.03l.92-.31c.06,.31,.21,.55,.47,.7,.26,.15,.53,.22,.81,.22s.56-.07,.8-.22c.24-.15,.36-.36,.36-.64,0-.2-.07-.35-.21-.46s-.33-.2-.55-.27-.46-.14-.71-.21c-.25-.07-.49-.16-.71-.27-.22-.11-.41-.26-.55-.46-.14-.19-.21-.45-.21-.77s.1-.61,.3-.83,.45-.38,.77-.49,.64-.17,.98-.17c.29,0,.58,.04,.86,.12s.52,.2,.74,.36c.21,.16,.36,.36,.45,.6l-.86,.3c-.07-.21-.23-.38-.48-.49-.25-.11-.51-.17-.78-.17s-.52,.06-.73,.17c-.22,.11-.33,.29-.33,.52,0,.19,.07,.34,.21,.46,.14,.11,.33,.2,.56,.27s.47,.14,.72,.21c.25,.07,.49,.16,.72,.27,.23,.11,.41,.27,.56,.46,.14,.19,.21,.44,.21,.77,0,.36-.1,.67-.29,.92s-.45,.43-.77,.56c-.32,.12-.68,.19-1.08,.19Z"/><path class="cls-1" d="M44.64,22.92l1.5-7.04h.67l.05,.71c.14-.21,.34-.39,.6-.55,.26-.16,.59-.24,.99-.24,.44,0,.79,.1,1.08,.31,.28,.2,.49,.48,.63,.82s.21,.72,.21,1.13c0,.38-.05,.76-.16,1.14-.11,.38-.27,.73-.48,1.05-.21,.32-.48,.58-.8,.78-.32,.2-.7,.29-1.14,.29s-.77-.1-1.05-.3c-.28-.2-.48-.47-.6-.82l-.58,2.73h-.92Zm3.06-2.37c.28,0,.52-.07,.73-.22,.21-.15,.39-.35,.54-.59s.26-.52,.33-.82c.07-.3,.11-.6,.11-.9,0-.45-.11-.8-.32-1.06s-.51-.39-.89-.39-.69,.12-.96,.36c-.27,.24-.47,.54-.62,.91-.15,.36-.22,.74-.22,1.12,0,.44,.11,.82,.34,1.13,.23,.31,.55,.47,.95,.47Z"/><path class="cls-1" d="M51.01,21.19l1.12-5.31h.67l.09,1c.22-.31,.48-.57,.78-.78,.3-.2,.71-.31,1.24-.31h.12l-.2,.95c-.2,0-.39,0-.56,.03-.54,.09-.96,.33-1.25,.72-.29,.4-.5,.89-.63,1.49l-.46,2.19h-.92Z"/><path class="cls-1" d="M57.3,21.32c-.7,0-1.25-.2-1.65-.61-.4-.41-.6-.96-.6-1.65,0-.62,.12-1.18,.37-1.67s.6-.88,1.05-1.17c.45-.29,.99-.43,1.6-.43,.48,0,.87,.1,1.19,.29,.31,.19,.55,.46,.71,.79,.16,.33,.24,.7,.24,1.11,0,.26-.03,.52-.1,.8h-4.11s-.01,.1-.01,.15v.15c0,.36,.07,.65,.21,.86,.14,.21,.32,.36,.54,.45,.22,.09,.45,.13,.67,.13,.3,0,.56-.05,.77-.14,.21-.1,.4-.22,.55-.38l.83,.26c-.24,.31-.55,.57-.93,.77-.38,.2-.82,.29-1.33,.29Zm-1.18-3.26h3.14s.01-.07,.01-.1v-.09c0-.21-.04-.42-.13-.62-.09-.2-.23-.36-.43-.49-.2-.13-.45-.19-.78-.19-.26,0-.52,.06-.77,.17-.25,.11-.47,.28-.65,.5-.19,.22-.31,.49-.39,.81Z"/><path class="cls-1" d="M62.89,21.32c-.54,0-.98-.1-1.35-.31-.36-.21-.64-.55-.82-1.03l.92-.31c.06,.31,.21,.55,.47,.7,.26,.15,.53,.22,.81,.22s.56-.07,.8-.22c.24-.15,.36-.36,.36-.64,0-.2-.07-.35-.21-.46-.14-.11-.33-.2-.55-.27s-.46-.14-.71-.21c-.25-.07-.49-.16-.71-.27-.23-.11-.41-.26-.55-.46-.14-.19-.21-.45-.21-.77s.1-.61,.3-.83c.2-.22,.45-.38,.76-.49,.31-.11,.64-.17,.98-.17,.29,0,.58,.04,.86,.12s.52,.2,.74,.36c.21,.16,.36,.36,.45,.6l-.86,.3c-.07-.21-.23-.38-.48-.49-.25-.11-.51-.17-.78-.17s-.52,.06-.73,.17c-.22,.11-.33,.29-.33,.52,0,.19,.07,.34,.21,.46,.14,.11,.33,.2,.56,.27,.23,.07,.47,.14,.72,.21,.25,.07,.49,.16,.72,.27s.41,.27,.56,.46c.14,.19,.21,.44,.21,.77,0,.36-.1,.67-.29,.92-.19,.25-.45,.43-.77,.56-.32,.12-.68,.19-1.08,.19Z"/><path class="cls-1" d="M68.34,21.32c-.7,0-1.25-.2-1.65-.61-.4-.41-.6-.96-.6-1.65,0-.62,.12-1.18,.37-1.67s.6-.88,1.05-1.17c.45-.29,.99-.43,1.6-.43,.48,0,.87,.1,1.19,.29s.55,.46,.71,.79c.16,.33,.24,.7,.24,1.11,0,.26-.03,.52-.1,.8h-4.11s-.01,.1-.01,.15v.15c0,.36,.07,.65,.21,.86,.14,.21,.32,.36,.54,.45,.22,.09,.45,.13,.67,.13,.3,0,.56-.05,.77-.14,.21-.1,.4-.22,.55-.38l.83,.26c-.24,.31-.55,.57-.93,.77-.37,.2-.82,.29-1.33,.29Zm-1.18-3.26h3.14s.01-.07,.01-.1v-.09c0-.21-.04-.42-.13-.62-.09-.2-.23-.36-.43-.49-.2-.13-.46-.19-.78-.19-.26,0-.52,.06-.77,.17-.25,.11-.47,.28-.65,.5-.19,.22-.31,.49-.39,.81Z"/><path class="cls-1" d="M71.73,21.19l1.12-5.31h.68l.06,.74c.18-.23,.41-.42,.7-.58,.29-.16,.67-.24,1.15-.24,.45,0,.8,.12,1.05,.36s.38,.62,.38,1.12c0,.24-.03,.52-.1,.83l-.66,3.07h-.91l.63-2.99c.06-.31,.1-.57,.1-.77,0-.31-.07-.53-.21-.66s-.37-.19-.67-.19c-.26,0-.51,.06-.75,.17-.24,.11-.46,.31-.65,.58-.19,.27-.33,.64-.43,1.1l-.58,2.75h-.92Z"/><path class="cls-1" d="M79.16,21.19c-.41,0-.7-.06-.85-.18-.15-.12-.23-.3-.23-.54,0-.16,.04-.4,.11-.73l.67-3.14h-.89l.15-.73h.89l.29-1.33h.92l-.29,1.33h1.02l-.15,.73h-1.02l-.62,2.88c-.03,.13-.05,.25-.07,.35-.02,.1-.03,.18-.03,.24,0,.11,.03,.19,.1,.24,.06,.05,.19,.07,.36,.07h.47l-.17,.8h-.66Z"/><path class="cls-1" d="M82.62,21.32c-.46,0-.84-.12-1.14-.38-.3-.25-.46-.58-.46-1.01,0-.36,.09-.65,.28-.89s.44-.42,.74-.57c.3-.14,.63-.25,.98-.33s.7-.13,1.03-.17c.33-.04,.62-.07,.87-.1,.02-.1,.04-.19,.05-.28,.01-.08,.02-.17,.02-.25,0-.56-.33-.85-.98-.85-.33,0-.61,.07-.83,.22s-.4,.35-.52,.6l-.8-.25c.19-.4,.46-.72,.81-.95,.36-.24,.79-.35,1.31-.35,.62,0,1.1,.12,1.43,.38,.33,.25,.5,.63,.5,1.16,0,.12,0,.24-.03,.36-.02,.12-.05,.29-.1,.51-.05,.22-.12,.55-.21,.97-.09,.44-.16,.83-.19,1.15-.03,.32-.05,.61-.06,.86h-.85l-.04-.67c-.24,.26-.49,.46-.78,.6-.28,.14-.63,.2-1.05,.2Zm.29-.74c.49,0,.9-.16,1.25-.49,.35-.33,.57-.76,.66-1.3l.03-.18c-.59,.06-1.1,.12-1.52,.2-.42,.08-.74,.19-.96,.35-.22,.16-.33,.39-.33,.7,0,.24,.09,.42,.26,.55,.17,.12,.38,.18,.62,.18Z"/><path class="cls-1" d="M88.31,21.19c-.41,0-.7-.06-.85-.18-.15-.12-.23-.3-.23-.54,0-.16,.04-.4,.11-.73l.67-3.14h-.89l.15-.73h.89l.29-1.33h.92l-.29,1.33h1.02l-.15,.73h-1.02l-.62,2.88c-.03,.13-.05,.25-.07,.35s-.03,.18-.03,.24c0,.11,.03,.19,.1,.24,.06,.05,.19,.07,.36,.07h.47l-.17,.8h-.66Z"/><path class="cls-1" d="M90.61,21.19l.97-4.58h-.86l.15-.73h1.78l-1.12,5.31h-.92Zm1.96-6.33c-.18,0-.33-.07-.47-.2s-.2-.29-.2-.47,.07-.34,.2-.48c.13-.13,.29-.2,.47-.2s.34,.07,.48,.2c.13,.13,.2,.29,.2,.48s-.07,.33-.2,.47-.29,.2-.48,.2Z"/><path class="cls-1" d="M95.52,21.32c-.71,0-1.25-.21-1.62-.63s-.55-.96-.55-1.63c0-.62,.12-1.18,.37-1.67,.25-.49,.6-.88,1.04-1.17,.45-.29,.96-.43,1.54-.43,.36,0,.71,.08,1.03,.24,.33,.16,.59,.4,.79,.72,.2,.33,.31,.74,.31,1.25,0,.45-.07,.87-.21,1.27-.14,.4-.34,.75-.6,1.06s-.56,.55-.92,.72c-.36,.17-.75,.26-1.18,.26Zm.07-.79c.41,0,.76-.12,1.04-.37,.28-.25,.49-.57,.63-.96s.21-.8,.21-1.23c0-.52-.13-.88-.38-1.08-.25-.2-.57-.3-.94-.3-.42,0-.77,.12-1.05,.36s-.49,.55-.62,.93c-.14,.38-.2,.77-.2,1.19,0,.44,.11,.79,.33,1.05,.22,.27,.55,.4,.97,.4Z"/><path class="cls-1" d="M99.06,21.19l1.12-5.31h.69l.06,.74c.18-.23,.41-.42,.7-.58,.29-.16,.67-.24,1.15-.24,.45,0,.8,.12,1.05,.36,.25,.24,.38,.62,.38,1.12,0,.24-.03,.52-.1,.83l-.66,3.07h-.91l.63-2.99c.06-.31,.1-.57,.1-.77,0-.31-.07-.53-.21-.66s-.37-.19-.67-.19c-.26,0-.51,.06-.75,.17s-.46,.31-.65,.58c-.19,.27-.33,.64-.43,1.1l-.58,2.75h-.92Z"/><path class="cls-1" d="M110.34,21.32c-.66,0-1.18-.2-1.55-.59-.37-.39-.55-.92-.55-1.59,0-.61,.12-1.16,.36-1.67,.24-.5,.58-.91,1.02-1.21,.44-.31,.95-.46,1.54-.46,.48,0,.89,.1,1.22,.31,.33,.2,.58,.5,.76,.88l-.89,.31c-.07-.21-.21-.39-.42-.51-.21-.13-.45-.19-.72-.19-.41,0-.75,.12-1.03,.35s-.49,.54-.64,.92c-.15,.38-.22,.79-.22,1.22,0,.41,.1,.75,.29,1.03,.2,.28,.54,.42,1.02,.42,.29,0,.55-.06,.77-.19,.22-.12,.4-.29,.56-.51l.76,.3c-.24,.39-.57,.69-.97,.89-.4,.2-.84,.3-1.32,.3Z"/><path class="cls-1" d="M115.86,21.32c-.7,0-1.25-.2-1.65-.61-.4-.41-.6-.96-.6-1.65,0-.62,.12-1.18,.37-1.67s.6-.88,1.05-1.17c.45-.29,.99-.43,1.6-.43,.48,0,.87,.1,1.19,.29,.31,.19,.55,.46,.71,.79,.16,.33,.24,.7,.24,1.11,0,.26-.03,.52-.1,.8h-4.11s-.01,.1-.01,.15v.15c0,.36,.07,.65,.21,.86,.14,.21,.32,.36,.54,.45,.22,.09,.45,.13,.67,.13,.3,0,.56-.05,.77-.14,.21-.1,.4-.22,.55-.38l.83,.26c-.24,.31-.55,.57-.93,.77-.38,.2-.82,.29-1.33,.29Zm-1.18-3.26h3.14s.01-.07,.01-.1v-.09c0-.21-.04-.42-.13-.62-.09-.2-.23-.36-.43-.49-.2-.13-.45-.19-.78-.19-.26,0-.52,.06-.77,.17-.25,.11-.47,.28-.65,.5-.19,.22-.31,.49-.39,.81Z"/><path class="cls-1" d="M119.25,21.19l1.12-5.31h.67l.09,1c.22-.31,.48-.57,.78-.78,.3-.2,.71-.31,1.24-.31h.12l-.2,.95c-.2,0-.39,0-.56,.03-.54,.09-.96,.33-1.25,.72-.29,.4-.5,.89-.63,1.49l-.46,2.19h-.92Z"/><path class="cls-1" d="M124.88,21.19c-.41,0-.7-.06-.85-.18-.15-.12-.23-.3-.23-.54,0-.16,.04-.4,.11-.73l.67-3.14h-.89l.15-.73h.89l.29-1.33h.92l-.29,1.33h1.02l-.15,.73h-1.02l-.62,2.88c-.03,.13-.05,.25-.07,.35-.02,.1-.03,.18-.03,.24,0,.11,.03,.19,.1,.24,.06,.05,.19,.07,.36,.07h.47l-.17,.8h-.66Z"/><path class="cls-1" d="M127.18,21.19l.97-4.58h-.86l.15-.73h1.78l-1.12,5.31h-.92Zm1.96-6.33c-.18,0-.33-.07-.47-.2-.13-.13-.2-.29-.2-.47s.07-.34,.2-.48c.13-.13,.29-.2,.47-.2s.34,.07,.48,.2c.13,.13,.2,.29,.2,.48s-.07,.33-.2,.47c-.13,.13-.29,.2-.48,.2Z"/><path class="cls-1" d="M130.03,21.19l.97-4.58h-.9l.16-.73h.89l.13-.57c.09-.36,.17-.66,.27-.88,.09-.22,.2-.39,.33-.5,.13-.11,.29-.19,.48-.23,.19-.04,.44-.06,.73-.07h.55l-.16,.76h-.26c-.17,0-.32,.01-.45,.04-.13,.03-.24,.1-.32,.2-.09,.11-.16,.28-.21,.52l-.16,.72h1.09l-.16,.73h-1.08l-.97,4.58h-.92Z"/><path class="cls-1" d="M133.61,21.19l.97-4.58h-.86l.15-.73h1.78l-1.12,5.31h-.92Zm1.96-6.33c-.18,0-.33-.07-.47-.2s-.2-.29-.2-.47,.07-.34,.2-.48c.13-.13,.29-.2,.47-.2s.34,.07,.48,.2c.13,.13,.2,.29,.2,.48s-.07,.33-.2,.47-.29,.2-.48,.2Z"/><path class="cls-1" d="M138.6,21.32c-.7,0-1.25-.2-1.65-.61-.4-.41-.6-.96-.6-1.65,0-.62,.12-1.18,.37-1.67s.6-.88,1.05-1.17c.45-.29,.99-.43,1.6-.43,.48,0,.87,.1,1.19,.29s.55,.46,.71,.79c.16,.33,.24,.7,.24,1.11,0,.26-.03,.52-.1,.8h-4.11s-.01,.1-.01,.15v.15c0,.36,.07,.65,.21,.86,.14,.21,.32,.36,.54,.45,.22,.09,.45,.13,.67,.13,.3,0,.56-.05,.77-.14,.21-.1,.4-.22,.55-.38l.83,.26c-.24,.31-.55,.57-.93,.77s-.82,.29-1.33,.29Zm-1.18-3.26h3.14s.01-.07,.01-.1v-.09c0-.21-.04-.42-.13-.62-.09-.2-.23-.36-.43-.49-.2-.13-.46-.19-.78-.19-.26,0-.52,.06-.77,.17s-.47,.28-.65,.5c-.19,.22-.31,.49-.39,.81Z"/><path class="cls-1" d="M144.19,21.32c-.54,0-.98-.1-1.35-.31s-.64-.55-.82-1.03l.92-.31c.06,.31,.21,.55,.47,.7,.26,.15,.53,.22,.81,.22s.56-.07,.8-.22c.24-.15,.36-.36,.36-.64,0-.2-.07-.35-.21-.46-.14-.11-.33-.2-.55-.27-.22-.07-.46-.14-.71-.21-.25-.07-.49-.16-.71-.27-.23-.11-.41-.26-.55-.46-.14-.19-.21-.45-.21-.77s.1-.61,.3-.83c.2-.22,.46-.38,.77-.49,.31-.11,.64-.17,.98-.17,.29,0,.58,.04,.86,.12s.52,.2,.74,.36c.21,.16,.36,.36,.45,.6l-.86,.3c-.07-.21-.23-.38-.48-.49-.25-.11-.51-.17-.78-.17s-.52,.06-.73,.17-.33,.29-.33,.52c0,.19,.07,.34,.21,.46,.14,.11,.33,.2,.56,.27,.23,.07,.47,.14,.72,.21,.25,.07,.49,.16,.72,.27,.23,.11,.41,.27,.56,.46,.14,.19,.21,.44,.21,.77,0,.36-.1,.67-.29,.92s-.45,.43-.77,.56c-.32,.12-.68,.19-1.08,.19Z"/><path class="cls-1" d="M151.85,21.19c-.41,0-.7-.06-.85-.18-.15-.12-.23-.3-.23-.54,0-.16,.04-.4,.11-.73l.67-3.14h-.89l.15-.73h.89l.29-1.33h.92l-.29,1.33h1.02l-.15,.73h-1.02l-.62,2.88c-.03,.13-.05,.25-.07,.35-.02,.1-.03,.18-.03,.24,0,.11,.03,.19,.1,.24,.06,.05,.19,.07,.36,.07h.47l-.17,.8h-.66Z"/><path class="cls-1" d="M153.74,21.19l1.52-7.15h.92l-.55,2.58c.18-.23,.41-.42,.69-.58,.28-.16,.66-.24,1.14-.24,.45,0,.8,.12,1.05,.36,.25,.24,.38,.61,.38,1.12,0,.24-.03,.52-.1,.83l-.66,3.08h-.91l.63-3c.06-.31,.1-.57,.1-.77,0-.31-.07-.52-.21-.65-.14-.12-.37-.19-.67-.19-.26,0-.51,.06-.75,.17-.24,.11-.46,.31-.65,.58-.19,.27-.33,.64-.43,1.1l-.58,2.75h-.92Z"/><path class="cls-1" d="M161.23,21.32c-.46,0-.84-.12-1.14-.38s-.46-.58-.46-1.01c0-.36,.09-.65,.28-.89,.19-.24,.43-.42,.74-.57,.3-.14,.63-.25,.98-.33,.35-.08,.7-.13,1.03-.17,.33-.04,.62-.07,.87-.1,.02-.1,.04-.19,.05-.28,.01-.08,.02-.17,.02-.25,0-.56-.33-.85-.98-.85-.33,0-.61,.07-.83,.22s-.4,.35-.52,.6l-.8-.25c.19-.4,.46-.72,.81-.95,.36-.24,.79-.35,1.31-.35,.62,0,1.1,.12,1.43,.38,.33,.25,.5,.63,.5,1.16,0,.12,0,.24-.03,.36s-.05,.29-.1,.51c-.05,.22-.12,.55-.21,.97-.09,.44-.16,.83-.19,1.15-.03,.32-.05,.61-.06,.86h-.85l-.04-.67c-.24,.26-.49,.46-.78,.6-.28,.14-.63,.2-1.05,.2Zm.29-.74c.49,0,.9-.16,1.25-.49,.35-.33,.57-.76,.66-1.3l.03-.18c-.59,.06-1.1,.12-1.52,.2-.42,.08-.74,.19-.96,.35-.22,.16-.33,.39-.33,.7,0,.24,.09,.42,.26,.55s.38,.18,.62,.18Z"/><path class="cls-1" d="M166.92,21.19c-.41,0-.7-.06-.85-.18-.15-.12-.23-.3-.23-.54,0-.16,.04-.4,.11-.73l.67-3.14h-.89l.15-.73h.89l.29-1.33h.92l-.29,1.33h1.02l-.15,.73h-1.02l-.62,2.88c-.03,.13-.05,.25-.07,.35s-.03,.18-.03,.24c0,.11,.03,.19,.1,.24,.06,.05,.19,.07,.36,.07h.47l-.17,.8h-.66Z"/><path class="cls-1" d="M169.69,16.6l.81-1.34c-.31-.11-.46-.33-.46-.65,0-.2,.07-.36,.2-.49,.14-.13,.29-.19,.47-.19,.21,0,.39,.07,.51,.21,.13,.14,.19,.3,.19,.48,0,.13-.04,.25-.11,.36l-.97,1.62h-.65Zm1.68,0l.81-1.34c-.31-.11-.46-.33-.46-.65,0-.2,.07-.36,.2-.49,.14-.13,.29-.19,.47-.19,.21,0,.39,.07,.51,.21,.13,.14,.19,.3,.19,.48,0,.13-.04,.25-.11,.36l-.97,1.62h-.65Z"/></g></svg>