<?xml version="1.0" encoding="UTF-8"?><svg id="Layer_1" xmlns="http://www.w3.org/2000/svg" viewBox="0 0 96.01 36.03"><defs><style>.cls-1{fill:#fff;}.cls-2{fill:#ff8f15;}</style></defs><rect class="cls-2" width="96.01" height="36.03" rx="12" ry="12"/><g><path class="cls-1" d="M18.32,21.19l1.52-7.15h1.67l.66,5.8,3.12-5.8h1.73l-1.52,7.15h-1.03l1.27-5.98-3.31,5.98h-1.02l-.77-6.15-1.32,6.15h-1.03Z"/><path class="cls-1" d="M29.59,21.32c-.7,0-1.25-.2-1.65-.61-.4-.41-.6-.96-.6-1.65,0-.62,.12-1.18,.37-1.67s.6-.88,1.05-1.17c.45-.29,.99-.43,1.6-.43,.48,0,.87,.1,1.19,.29,.31,.19,.55,.46,.71,.79,.16,.33,.24,.7,.24,1.11,0,.26-.03,.52-.1,.8h-4.11s-.01,.1-.01,.15v.15c0,.36,.07,.65,.21,.86,.14,.21,.32,.36,.54,.45,.22,.09,.45,.13,.67,.13,.3,0,.56-.05,.77-.14,.21-.1,.4-.22,.55-.38l.83,.26c-.24,.31-.55,.57-.93,.77s-.82,.29-1.33,.29Zm-1.18-3.26h3.14s.01-.07,.01-.1v-.09c0-.21-.04-.42-.13-.62-.09-.2-.23-.36-.43-.49-.2-.13-.45-.19-.78-.19-.26,0-.52,.06-.77,.17s-.47,.28-.65,.5c-.19,.22-.31,.49-.39,.81Z"/><path class="cls-1" d="M32.99,21.19l1.12-5.31h.69l.06,.74c.21-.25,.44-.45,.7-.6,.26-.15,.59-.22,.99-.22,.42,0,.74,.08,.96,.25,.22,.17,.38,.4,.48,.69,.26-.35,.55-.59,.86-.73,.31-.14,.65-.21,1.02-.21,.09,0,.22,.01,.38,.03s.32,.08,.49,.16c.17,.09,.31,.23,.42,.42s.17,.46,.17,.8c0,.21-.03,.47-.1,.77l-.67,3.21h-.92l.65-3.09c.06-.29,.1-.54,.1-.75,0-.25-.06-.44-.18-.57-.12-.13-.33-.2-.63-.2-.45,0-.82,.15-1.12,.46-.3,.3-.5,.73-.63,1.27l-.61,2.89h-.92l.65-3.09c.06-.28,.1-.52,.1-.73,0-.26-.06-.46-.19-.59s-.33-.2-.63-.2c-.39,0-.75,.14-1.06,.42-.32,.28-.54,.71-.67,1.31l-.61,2.89h-.92Z"/><path class="cls-1" d="M44.86,21.32c-.4,0-.73-.09-1-.27s-.48-.43-.65-.73l-.44,.88h-.69l1.52-7.15h.92l-.55,2.55c.24-.31,.5-.52,.76-.63,.26-.11,.51-.16,.74-.16,.51,0,.9,.11,1.19,.33,.29,.22,.49,.5,.61,.85,.12,.35,.18,.71,.18,1.08s-.06,.77-.17,1.15c-.11,.38-.27,.73-.49,1.05-.22,.32-.49,.58-.81,.77-.33,.19-.7,.29-1.13,.29Zm-.1-.77c.31,0,.57-.08,.79-.24,.22-.16,.4-.37,.54-.62,.14-.25,.24-.52,.31-.8,.07-.29,.1-.56,.1-.81,0-.44-.1-.8-.29-1.09-.19-.28-.5-.42-.91-.42-.29,0-.55,.07-.78,.22-.22,.15-.41,.34-.57,.57-.15,.24-.27,.49-.35,.77-.08,.28-.12,.55-.12,.8,0,.28,.05,.54,.14,.79s.23,.45,.42,.6c.19,.15,.43,.23,.71,.23Z"/><path class="cls-1" d="M50.55,21.32c-.7,0-1.25-.2-1.65-.61-.4-.41-.6-.96-.6-1.65,0-.62,.12-1.18,.37-1.67s.6-.88,1.05-1.17c.45-.29,.99-.43,1.6-.43,.48,0,.87,.1,1.19,.29,.31,.19,.55,.46,.71,.79,.16,.33,.24,.7,.24,1.11,0,.26-.03,.52-.1,.8h-4.11s-.01,.1-.01,.15v.15c0,.36,.07,.65,.21,.86,.14,.21,.32,.36,.54,.45,.22,.09,.45,.13,.67,.13,.3,0,.56-.05,.77-.14,.21-.1,.4-.22,.55-.38l.83,.26c-.24,.31-.55,.57-.93,.77-.38,.2-.82,.29-1.33,.29Zm-1.18-3.26h3.14s.01-.07,.01-.1v-.09c0-.21-.04-.42-.13-.62-.09-.2-.23-.36-.43-.49-.2-.13-.45-.19-.78-.19-.26,0-.52,.06-.77,.17-.25,.11-.47,.28-.65,.5-.19,.22-.31,.49-.39,.81Z"/><path class="cls-1" d="M53.94,21.19l1.12-5.31h.67l.09,1c.22-.31,.48-.57,.78-.78,.3-.2,.71-.31,1.24-.31h.12l-.2,.95c-.2,0-.39,0-.56,.03-.54,.09-.96,.33-1.25,.72-.29,.4-.5,.89-.63,1.49l-.46,2.19h-.92Z"/><path class="cls-1" d="M59.97,21.32c-.54,0-.98-.1-1.35-.31-.36-.21-.64-.55-.82-1.03l.92-.31c.06,.31,.21,.55,.47,.7,.26,.15,.53,.22,.81,.22s.56-.07,.8-.22c.24-.15,.36-.36,.36-.64,0-.2-.07-.35-.21-.46s-.33-.2-.55-.27-.46-.14-.71-.21c-.25-.07-.49-.16-.71-.27-.22-.11-.41-.26-.55-.46-.14-.19-.21-.45-.21-.77s.1-.61,.3-.83,.45-.38,.77-.49,.64-.17,.98-.17c.29,0,.58,.04,.86,.12s.52,.2,.74,.36c.21,.16,.36,.36,.45,.6l-.86,.3c-.07-.21-.23-.38-.48-.49-.25-.11-.51-.17-.78-.17s-.52,.06-.73,.17c-.22,.11-.33,.29-.33,.52,0,.19,.07,.34,.21,.46,.14,.11,.33,.2,.56,.27s.47,.14,.72,.21c.25,.07,.49,.16,.72,.27,.23,.11,.41,.27,.56,.46,.14,.19,.21,.44,.21,.77,0,.36-.1,.67-.29,.92s-.45,.43-.77,.56c-.32,.12-.68,.19-1.08,.19Z"/><path class="cls-1" d="M62.94,21.19l1.52-7.15h.92l-.55,2.58c.18-.23,.41-.42,.69-.58,.28-.16,.66-.24,1.14-.24,.45,0,.8,.12,1.05,.36,.25,.24,.38,.61,.38,1.12,0,.24-.03,.52-.1,.83l-.66,3.08h-.91l.63-3c.06-.31,.1-.57,.1-.77,0-.31-.07-.52-.21-.65-.14-.12-.37-.19-.67-.19-.26,0-.51,.06-.75,.17s-.46,.31-.65,.58c-.19,.27-.33,.64-.43,1.1l-.58,2.75h-.92Z"/><path class="cls-1" d="M69.28,21.19l.97-4.58h-.86l.15-.73h1.78l-1.12,5.31h-.92Zm1.96-6.33c-.18,0-.33-.07-.47-.2s-.2-.29-.2-.47,.07-.34,.2-.48c.13-.13,.29-.2,.47-.2s.34,.07,.48,.2c.13,.13,.2,.29,.2,.48s-.07,.33-.2,.47-.29,.2-.48,.2Z"/><path class="cls-1" d="M71.45,22.92l1.5-7.04h.67l.05,.71c.14-.21,.34-.39,.6-.55,.26-.16,.59-.24,.99-.24,.44,0,.79,.1,1.08,.31,.28,.2,.49,.48,.63,.82,.14,.34,.21,.72,.21,1.13,0,.38-.05,.76-.16,1.14-.11,.38-.27,.73-.48,1.05-.21,.32-.48,.58-.8,.78-.32,.2-.71,.29-1.14,.29s-.77-.1-1.05-.3c-.28-.2-.48-.47-.6-.82l-.58,2.73h-.92Zm3.06-2.37c.28,0,.52-.07,.73-.22,.21-.15,.39-.35,.54-.59,.15-.25,.26-.52,.33-.82,.07-.3,.11-.6,.11-.9,0-.45-.11-.8-.32-1.06s-.51-.39-.89-.39-.69,.12-.96,.36c-.27,.24-.47,.54-.62,.91-.15,.36-.22,.74-.22,1.12,0,.44,.11,.82,.34,1.13,.23,.31,.55,.47,.95,.47Z"/></g></svg>