<?xml version="1.0" encoding="UTF-8"?><svg id="Layer_1" xmlns="http://www.w3.org/2000/svg" viewBox="0 0 203.11 36.03"><defs><style>.cls-1{fill:#fff;}.cls-2{fill:#ff8f15;}</style></defs><rect class="cls-2" x="0" width="203.11" height="36.03" rx="12" ry="12"/><g><path class="cls-1" d="M15.66,21.28l1.39-6.57h-2.46l.19-.91h6.02l-.19,.91h-2.49l-1.38,6.57h-1.09Z"/><path class="cls-1" d="M20.15,21.28l1.59-7.48h.96l-.57,2.7c.19-.24,.43-.44,.72-.61s.69-.25,1.19-.25c.47,0,.84,.12,1.1,.38s.4,.64,.4,1.17c0,.25-.03,.54-.1,.87l-.69,3.22h-.95l.66-3.14c.07-.33,.1-.6,.1-.81,0-.32-.07-.55-.22-.68s-.38-.2-.71-.2c-.27,0-.53,.06-.78,.18s-.48,.32-.68,.6c-.2,.28-.35,.67-.45,1.15l-.6,2.88h-.96Z"/><path class="cls-1" d="M28.93,21.42c-.73,0-1.31-.21-1.73-.64-.42-.43-.63-1-.63-1.72,0-.65,.13-1.23,.39-1.75,.26-.51,.62-.92,1.1-1.22,.47-.3,1.03-.45,1.67-.45,.5,0,.91,.1,1.24,.3,.33,.2,.58,.48,.75,.82,.17,.35,.25,.73,.25,1.16,0,.27-.03,.55-.1,.84h-4.3c0,.05-.01,.1-.01,.16v.16c0,.38,.07,.68,.22,.9,.15,.22,.33,.38,.57,.47,.23,.09,.47,.14,.71,.14,.31,0,.58-.05,.81-.15s.41-.23,.57-.4l.87,.27c-.25,.33-.58,.6-.97,.8-.39,.21-.86,.31-1.39,.31Zm-1.23-3.42h3.28s.01-.07,.01-.1v-.09c0-.22-.05-.44-.14-.65-.09-.21-.24-.38-.45-.51-.21-.13-.48-.2-.81-.2-.28,0-.54,.06-.81,.18-.26,.12-.49,.29-.68,.53-.19,.23-.33,.51-.4,.85Z"/><path class="cls-1" d="M39.08,21.42c-.6,0-1.12-.14-1.55-.41-.43-.27-.76-.65-.99-1.12-.23-.47-.34-1.01-.34-1.61,0-.65,.1-1.25,.3-1.81,.2-.56,.49-1.04,.86-1.47,.37-.42,.82-.75,1.34-.99s1.1-.35,1.74-.35,1.13,.14,1.56,.41c.43,.28,.76,.65,.99,1.12,.23,.47,.34,1,.34,1.59,0,.64-.1,1.24-.31,1.8-.21,.56-.5,1.05-.87,1.47s-.83,.75-1.34,.99c-.52,.24-1.09,.36-1.72,.36Zm.15-.88c.47,0,.89-.1,1.27-.31,.38-.21,.7-.48,.96-.83,.26-.35,.46-.75,.6-1.19,.14-.44,.21-.91,.21-1.38s-.09-.9-.26-1.23c-.18-.34-.41-.59-.71-.76-.3-.17-.63-.26-1-.26-.47,0-.89,.1-1.27,.3-.37,.2-.69,.47-.95,.82-.26,.34-.46,.74-.6,1.18-.14,.44-.21,.91-.21,1.41s.09,.9,.26,1.24c.17,.34,.41,.59,.71,.77s.62,.26,.99,.26Z"/><path class="cls-1" d="M43.87,21.28l1.59-7.48h.96l-.92,4.29,2.63-2.36h1.25l-2.62,2.32,1.67,3.24h-1.05l-1.33-2.6-.83,.74-.39,1.86h-.96Z"/><path class="cls-1" d="M50.71,21.28c-.43,0-.73-.06-.88-.18s-.23-.31-.23-.57c0-.2,.03-.42,.08-.65l1.29-6.08h.96l-1.25,5.91c-.01,.08-.03,.16-.04,.22s-.02,.13-.02,.18c0,.11,.03,.19,.1,.25,.07,.05,.19,.08,.38,.08h.41l-.18,.84h-.63Z"/><path class="cls-1" d="M53.98,21.42c-.48,0-.88-.13-1.19-.39-.32-.26-.48-.61-.48-1.05,0-.37,.1-.68,.3-.93,.2-.25,.46-.44,.77-.59,.32-.15,.66-.26,1.03-.34,.37-.08,.73-.14,1.08-.17,.35-.04,.65-.07,.91-.1,.02-.1,.04-.2,.06-.29,.01-.09,.02-.17,.02-.26,0-.59-.34-.88-1.03-.88-.34,0-.63,.08-.87,.23-.24,.15-.42,.36-.55,.63l-.84-.26c.19-.42,.48-.75,.85-1,.37-.25,.83-.37,1.37-.37,.65,0,1.15,.13,1.5,.39,.35,.26,.53,.67,.53,1.21,0,.13,0,.25-.03,.38-.02,.13-.05,.31-.1,.54-.05,.23-.12,.57-.22,1.02-.1,.46-.16,.86-.2,1.2s-.05,.64-.06,.9h-.88l-.04-.71c-.25,.28-.52,.49-.81,.63s-.66,.21-1.1,.21Zm.3-.77c.51,0,.94-.17,1.3-.51,.36-.34,.59-.79,.69-1.36l.03-.19c-.62,.06-1.15,.13-1.59,.21-.44,.08-.78,.2-1.01,.36-.23,.17-.35,.41-.35,.73,0,.25,.09,.44,.27,.57,.18,.13,.4,.19,.65,.19Z"/><path class="cls-1" d="M58.23,21.28l1.59-7.48h.96l-.57,2.7c.19-.24,.43-.44,.72-.61,.29-.17,.69-.25,1.19-.25,.47,0,.84,.12,1.1,.38,.27,.25,.4,.64,.4,1.17,0,.25-.03,.54-.1,.87l-.69,3.22h-.95l.66-3.14c.07-.33,.1-.6,.1-.81,0-.32-.07-.55-.22-.68s-.38-.2-.71-.2c-.27,0-.53,.06-.78,.18s-.48,.32-.68,.6c-.2,.28-.35,.67-.45,1.15l-.6,2.88h-.96Z"/><path class="cls-1" d="M66.92,21.42c-.75,0-1.31-.22-1.7-.66s-.58-1.01-.58-1.7c0-.65,.13-1.23,.39-1.75,.26-.51,.62-.92,1.09-1.22,.47-.3,1-.45,1.61-.45,.38,0,.74,.08,1.08,.25s.62,.42,.83,.76c.21,.34,.32,.77,.32,1.3,0,.47-.07,.91-.22,1.33-.15,.42-.36,.79-.63,1.11-.27,.32-.59,.57-.96,.76-.37,.18-.78,.27-1.23,.27Zm.08-.83c.43,0,.8-.13,1.09-.39,.29-.26,.51-.6,.66-1,.15-.41,.22-.83,.22-1.28,0-.54-.13-.92-.4-1.13-.27-.21-.59-.31-.98-.31-.44,0-.81,.13-1.1,.38-.29,.25-.51,.58-.65,.97s-.21,.81-.21,1.24c0,.46,.12,.82,.35,1.1s.57,.42,1.02,.42Z"/><path class="cls-1" d="M70.61,21.28l1.18-5.55h.72l.07,.77c.22-.26,.46-.47,.73-.63,.27-.16,.62-.24,1.04-.24,.44,0,.77,.09,1,.26,.23,.18,.39,.42,.5,.72,.28-.37,.58-.62,.9-.77,.33-.15,.68-.22,1.07-.22,.1,0,.23,.01,.4,.03s.34,.08,.52,.17c.17,.09,.32,.24,.44,.44,.12,.2,.18,.48,.18,.84,0,.22-.03,.49-.1,.81l-.71,3.36h-.96l.68-3.24c.07-.31,.1-.57,.1-.78,0-.26-.06-.46-.18-.6-.12-.14-.34-.21-.66-.21-.47,0-.86,.16-1.17,.48-.31,.32-.53,.76-.66,1.33l-.64,3.02h-.96l.68-3.24c.07-.29,.1-.54,.1-.76,0-.28-.07-.48-.2-.62-.13-.14-.35-.21-.65-.21-.41,0-.78,.15-1.11,.44-.33,.29-.57,.75-.7,1.37l-.64,3.02h-.96Z"/><path class="cls-1" d="M81.77,21.42c-.48,0-.88-.13-1.19-.39-.32-.26-.48-.61-.48-1.05,0-.37,.1-.68,.3-.93,.2-.25,.46-.44,.77-.59s.66-.26,1.03-.34c.37-.08,.73-.14,1.08-.17,.35-.04,.65-.07,.91-.1,.02-.1,.04-.2,.06-.29s.02-.17,.02-.26c0-.59-.34-.88-1.03-.88-.34,0-.63,.08-.87,.23-.24,.15-.42,.36-.55,.63l-.84-.26c.19-.42,.48-.75,.85-1,.37-.25,.83-.37,1.37-.37,.65,0,1.15,.13,1.5,.39,.35,.26,.53,.67,.53,1.21,0,.13,0,.25-.03,.38-.02,.13-.05,.31-.1,.54-.05,.23-.12,.57-.22,1.02-.1,.46-.16,.86-.2,1.2-.03,.34-.05,.64-.06,.9h-.88l-.04-.71c-.25,.28-.52,.49-.81,.63s-.66,.21-1.1,.21Zm.3-.77c.51,0,.94-.17,1.3-.51,.36-.34,.59-.79,.69-1.36l.03-.19c-.62,.06-1.15,.13-1.59,.21-.44,.08-.78,.2-1.01,.36-.23,.17-.35,.41-.35,.73,0,.25,.09,.44,.27,.57,.18,.13,.4,.19,.65,.19Z"/><path class="cls-1" d="M92.32,21.42c-.4,0-.78-.06-1.15-.19-.37-.13-.7-.32-.99-.59-.29-.27-.5-.6-.64-1l1.02-.28c.14,.4,.39,.7,.75,.89,.35,.19,.73,.29,1.11,.29,.29,0,.57-.05,.83-.15,.26-.1,.47-.25,.64-.45,.16-.2,.25-.43,.25-.71s-.07-.48-.22-.64-.34-.29-.58-.4c-.24-.1-.5-.2-.78-.28-.28-.08-.57-.17-.86-.27s-.55-.22-.79-.37c-.24-.15-.43-.34-.58-.59-.15-.24-.22-.55-.22-.94,0-.46,.13-.85,.39-1.15,.26-.31,.59-.54,.99-.69s.83-.23,1.28-.23c.37,0,.72,.05,1.08,.16,.35,.1,.67,.26,.95,.46,.28,.21,.49,.46,.63,.78l-1.03,.29c-.13-.26-.36-.46-.68-.6-.32-.14-.65-.21-.99-.21-.27,0-.52,.04-.76,.12-.23,.08-.43,.21-.57,.38s-.22,.39-.22,.65c0,.25,.07,.45,.22,.6,.15,.16,.34,.29,.58,.39,.24,.1,.51,.19,.79,.27,.29,.08,.57,.17,.86,.27,.29,.1,.55,.23,.79,.38,.24,.15,.44,.34,.58,.57s.22,.53,.22,.88-.08,.71-.25,1c-.16,.29-.38,.54-.66,.73-.28,.2-.59,.35-.93,.45-.34,.1-.7,.16-1.06,.16Z"/><path class="cls-1" d="M98.49,21.42c-.69,0-1.23-.21-1.62-.62-.38-.41-.58-.97-.58-1.67,0-.63,.12-1.21,.38-1.74,.25-.53,.6-.95,1.06-1.27s.99-.48,1.61-.48c.51,0,.93,.11,1.28,.32s.61,.52,.79,.92l-.93,.32c-.07-.22-.22-.4-.44-.54-.22-.13-.47-.2-.75-.2-.43,0-.78,.12-1.07,.37-.29,.25-.51,.57-.67,.96-.15,.4-.23,.82-.23,1.28,0,.43,.1,.78,.31,1.08,.21,.29,.56,.44,1.07,.44,.31,0,.57-.07,.8-.2,.23-.13,.42-.31,.59-.53l.8,.31c-.25,.41-.59,.72-1.01,.93-.42,.21-.88,.31-1.38,.31Z"/><path class="cls-1" d="M102.12,21.28l1.02-4.79h-.9l.16-.76h1.86l-1.18,5.55h-.96Zm2.05-6.62c-.19,0-.35-.07-.49-.21-.14-.14-.21-.3-.21-.49s.07-.36,.21-.5c.14-.14,.3-.21,.49-.21s.36,.07,.5,.21c.14,.14,.21,.3,.21,.5s-.07,.35-.21,.49c-.14,.14-.3,.21-.5,.21Z"/><path class="cls-1" d="M107.35,21.42c-.73,0-1.31-.21-1.73-.64s-.63-1-.63-1.72c0-.65,.13-1.23,.39-1.75,.26-.51,.62-.92,1.1-1.22,.47-.3,1.03-.45,1.67-.45,.5,0,.91,.1,1.24,.3,.33,.2,.58,.48,.74,.82,.17,.35,.25,.73,.25,1.16,0,.27-.03,.55-.1,.84h-4.3c0,.05-.01,.1-.01,.16v.16c0,.38,.07,.68,.22,.9,.15,.22,.33,.38,.57,.47,.23,.09,.47,.14,.71,.14,.31,0,.58-.05,.81-.15,.22-.1,.41-.23,.57-.4l.87,.27c-.25,.33-.58,.6-.97,.8s-.86,.31-1.39,.31Zm-1.23-3.42h3.28s.01-.07,.01-.1v-.09c0-.22-.05-.44-.14-.65-.09-.21-.24-.38-.45-.51-.21-.13-.48-.2-.81-.2-.28,0-.54,.06-.81,.18-.26,.12-.49,.29-.68,.53-.19,.23-.33,.51-.4,.85Z"/><path class="cls-1" d="M110.9,21.28l1.18-5.55h.72l.07,.77c.19-.24,.43-.44,.73-.61,.3-.17,.7-.25,1.2-.25,.47,0,.84,.13,1.1,.38,.27,.25,.4,.65,.4,1.18,0,.25-.03,.54-.1,.87l-.69,3.21h-.95l.66-3.12c.07-.33,.1-.6,.1-.81,0-.33-.07-.56-.22-.69s-.38-.2-.71-.2c-.27,0-.53,.06-.78,.18s-.48,.32-.68,.6c-.2,.28-.35,.67-.45,1.15l-.6,2.88h-.96Z"/><path class="cls-1" d="M119.51,21.42c-.69,0-1.23-.21-1.62-.62-.38-.41-.58-.97-.58-1.67,0-.63,.12-1.21,.38-1.74s.6-.95,1.06-1.27c.46-.32,1-.48,1.61-.48,.51,0,.93,.11,1.28,.32,.34,.21,.61,.52,.79,.92l-.93,.32c-.07-.22-.22-.4-.44-.54-.22-.13-.47-.2-.75-.2-.43,0-.78,.12-1.08,.37s-.51,.57-.67,.96c-.15,.4-.23,.82-.23,1.28,0,.43,.1,.78,.31,1.08s.56,.44,1.07,.44c.31,0,.57-.07,.8-.2,.23-.13,.42-.31,.59-.53l.79,.31c-.25,.41-.59,.72-1.01,.93-.42,.21-.88,.31-1.38,.31Z"/><path class="cls-1" d="M125.29,21.42c-.73,0-1.31-.21-1.73-.64s-.63-1-.63-1.72c0-.65,.13-1.23,.39-1.75,.26-.51,.62-.92,1.1-1.22,.47-.3,1.03-.45,1.67-.45,.5,0,.91,.1,1.24,.3,.33,.2,.58,.48,.74,.82,.17,.35,.25,.73,.25,1.16,0,.27-.03,.55-.1,.84h-4.3c0,.05-.01,.1-.01,.16v.16c0,.38,.07,.68,.22,.9,.15,.22,.33,.38,.57,.47,.23,.09,.47,.14,.71,.14,.31,0,.58-.05,.81-.15,.22-.1,.41-.23,.57-.4l.87,.27c-.25,.33-.58,.6-.97,.8s-.86,.31-1.39,.31Zm-1.23-3.42h3.28s.01-.07,.01-.1v-.09c0-.22-.05-.44-.14-.65-.09-.21-.24-.38-.45-.51-.21-.13-.48-.2-.81-.2-.28,0-.54,.06-.81,.18-.26,.12-.49,.29-.68,.53-.19,.23-.33,.51-.4,.85Z"/><path class="cls-1" d="M131.36,21.28l4.39-7.48h1.3l1.22,7.48h-1.15l-.23-1.63h-3.38l-.93,1.63h-1.21Zm2.64-2.53h2.75l-.55-3.89-2.21,3.89Z"/><path class="cls-1" d="M141.4,21.42c-.56,0-1.03-.11-1.41-.33-.38-.22-.67-.57-.86-1.08l.96-.32c.06,.33,.22,.57,.49,.73,.27,.16,.55,.24,.85,.24s.59-.08,.84-.24c.25-.16,.38-.38,.38-.67,0-.21-.07-.37-.22-.49-.15-.12-.34-.21-.58-.29s-.48-.15-.74-.22c-.26-.07-.51-.16-.74-.28-.23-.12-.43-.27-.58-.48-.15-.2-.22-.47-.22-.81s.1-.64,.31-.87c.21-.23,.48-.4,.8-.51,.32-.12,.67-.17,1.02-.17,.31,0,.6,.04,.9,.13s.55,.21,.77,.38c.22,.17,.38,.38,.47,.63l-.9,.31c-.07-.22-.24-.39-.5-.51-.26-.12-.53-.17-.82-.17s-.54,.06-.77,.18c-.23,.12-.34,.3-.34,.55,0,.2,.07,.36,.22,.48,.15,.12,.34,.21,.58,.29,.24,.08,.49,.15,.76,.22,.26,.07,.52,.17,.76,.29,.24,.12,.43,.28,.58,.48,.15,.2,.22,.46,.22,.8,0,.38-.1,.7-.3,.96-.2,.26-.47,.45-.81,.58s-.71,.2-1.13,.2Z"/><path class="cls-1" d="M146.82,21.42c-.56,0-1.03-.11-1.41-.33s-.67-.57-.86-1.08l.96-.32c.06,.33,.22,.57,.49,.73,.27,.16,.55,.24,.85,.24s.59-.08,.84-.24c.25-.16,.38-.38,.38-.67,0-.21-.07-.37-.22-.49-.15-.12-.34-.21-.58-.29-.23-.07-.48-.15-.74-.22-.26-.07-.51-.16-.75-.28-.23-.12-.43-.27-.58-.48-.15-.2-.22-.47-.22-.81s.1-.64,.31-.87c.21-.23,.48-.4,.8-.51,.33-.12,.67-.17,1.02-.17,.31,0,.6,.04,.9,.13s.55,.21,.77,.38,.38,.38,.47,.63l-.9,.31c-.07-.22-.24-.39-.5-.51-.26-.12-.53-.17-.82-.17s-.54,.06-.77,.18c-.23,.12-.34,.3-.34,.55,0,.2,.07,.36,.22,.48,.15,.12,.34,.21,.58,.29,.24,.08,.49,.15,.76,.22,.27,.07,.52,.17,.76,.29s.43,.28,.58,.48c.15,.2,.22,.46,.22,.8,0,.38-.1,.7-.3,.96-.2,.26-.47,.45-.81,.58s-.71,.2-1.13,.2Z"/><path class="cls-1" d="M152.43,21.42c-.75,0-1.31-.22-1.7-.66-.38-.44-.58-1.01-.58-1.7,0-.65,.13-1.23,.39-1.75,.26-.51,.62-.92,1.09-1.22,.47-.3,1-.45,1.61-.45,.38,0,.74,.08,1.08,.25s.62,.42,.83,.76c.21,.34,.32,.77,.32,1.3,0,.47-.07,.91-.22,1.33-.15,.42-.36,.79-.63,1.11-.27,.32-.59,.57-.96,.76-.37,.18-.78,.27-1.23,.27Zm.08-.83c.43,0,.79-.13,1.09-.39,.29-.26,.51-.6,.66-1,.15-.41,.22-.83,.22-1.28,0-.54-.13-.92-.4-1.13-.27-.21-.59-.31-.98-.31-.44,0-.81,.13-1.1,.38s-.51,.58-.65,.97c-.14,.4-.21,.81-.21,1.24,0,.46,.12,.82,.35,1.1s.57,.42,1.02,.42Z"/><path class="cls-1" d="M158.52,21.42c-.69,0-1.23-.21-1.62-.62-.38-.41-.58-.97-.58-1.67,0-.63,.12-1.21,.38-1.74s.6-.95,1.06-1.27c.46-.32,1-.48,1.61-.48,.51,0,.93,.11,1.28,.32,.34,.21,.61,.52,.79,.92l-.93,.32c-.07-.22-.22-.4-.44-.54-.22-.13-.47-.2-.75-.2-.43,0-.78,.12-1.08,.37s-.51,.57-.67,.96c-.15,.4-.23,.82-.23,1.28,0,.43,.1,.78,.31,1.08s.56,.44,1.07,.44c.31,0,.57-.07,.8-.2,.23-.13,.42-.31,.59-.53l.79,.31c-.25,.41-.59,.72-1.01,.93-.42,.21-.88,.31-1.38,.31Z"/><path class="cls-1" d="M162.15,21.28l1.02-4.79h-.9l.16-.76h1.86l-1.18,5.55h-.96Zm2.05-6.62c-.19,0-.35-.07-.49-.21-.14-.14-.21-.3-.21-.49s.07-.36,.21-.5c.14-.14,.3-.21,.49-.21s.36,.07,.5,.21c.14,.14,.21,.3,.21,.5s-.07,.35-.21,.49c-.14,.14-.3,.21-.5,.21Z"/><path class="cls-1" d="M166.44,21.42c-.48,0-.88-.13-1.19-.39-.32-.26-.48-.61-.48-1.05,0-.37,.1-.68,.3-.93,.2-.25,.46-.44,.77-.59,.32-.15,.66-.26,1.03-.34,.37-.08,.73-.14,1.08-.17,.35-.04,.65-.07,.91-.1,.02-.1,.04-.2,.06-.29,.01-.09,.02-.17,.02-.26,0-.59-.34-.88-1.03-.88-.34,0-.63,.08-.87,.23-.24,.15-.42,.36-.55,.63l-.84-.26c.19-.42,.48-.75,.85-1,.37-.25,.83-.37,1.37-.37,.65,0,1.15,.13,1.5,.39,.35,.26,.53,.67,.53,1.21,0,.13,0,.25-.03,.38-.02,.13-.05,.31-.1,.54-.05,.23-.12,.57-.22,1.02-.1,.46-.16,.86-.2,1.2s-.05,.64-.06,.9h-.88l-.04-.71c-.25,.28-.52,.49-.81,.63s-.66,.21-1.1,.21Zm.3-.77c.51,0,.94-.17,1.3-.51,.36-.34,.59-.79,.69-1.36l.03-.19c-.62,.06-1.15,.13-1.59,.21-.44,.08-.78,.2-1.01,.36-.23,.17-.35,.41-.35,.73,0,.25,.09,.44,.27,.57,.18,.13,.4,.19,.65,.19Z"/><path class="cls-1" d="M172.4,21.28c-.43,0-.73-.06-.89-.18s-.24-.31-.24-.57c0-.16,.04-.42,.11-.76l.71-3.28h-.93l.16-.76h.93l.3-1.39h.96l-.3,1.39h1.06l-.16,.76h-1.06l-.65,3.01c-.03,.13-.05,.26-.07,.36-.02,.11-.03,.19-.03,.25,0,.12,.03,.2,.1,.25,.07,.05,.19,.07,.38,.07h.49l-.18,.84h-.69Z"/><path class="cls-1" d="M174.8,21.28l1.02-4.79h-.9l.16-.76h1.86l-1.18,5.55h-.96Zm2.05-6.62c-.19,0-.35-.07-.49-.21-.14-.14-.21-.3-.21-.49s.07-.36,.21-.5,.3-.21,.49-.21,.36,.07,.5,.21c.14,.14,.21,.3,.21,.5s-.07,.35-.21,.49-.3,.21-.5,.21Z"/><path class="cls-1" d="M179.94,21.42c-.75,0-1.31-.22-1.7-.66s-.58-1.01-.58-1.7c0-.65,.13-1.23,.39-1.75,.26-.51,.62-.92,1.09-1.22,.47-.3,1-.45,1.61-.45,.38,0,.74,.08,1.08,.25s.62,.42,.83,.76c.21,.34,.32,.77,.32,1.3,0,.47-.07,.91-.22,1.33-.15,.42-.36,.79-.63,1.11-.27,.32-.59,.57-.96,.76-.37,.18-.78,.27-1.23,.27Zm.08-.83c.43,0,.8-.13,1.09-.39,.29-.26,.51-.6,.66-1,.15-.41,.22-.83,.22-1.28,0-.54-.13-.92-.4-1.13-.27-.21-.59-.31-.98-.31-.44,0-.81,.13-1.1,.38-.29,.25-.51,.58-.65,.97s-.21,.81-.21,1.24c0,.46,.12,.82,.35,1.1s.57,.42,1.02,.42Z"/><path class="cls-1" d="M183.64,21.28l1.18-5.55h.72l.07,.77c.19-.24,.43-.44,.73-.61,.3-.17,.7-.25,1.2-.25,.47,0,.84,.13,1.1,.38,.26,.25,.4,.65,.4,1.18,0,.25-.03,.54-.1,.87l-.69,3.21h-.95l.66-3.12c.07-.33,.1-.6,.1-.81,0-.33-.07-.56-.22-.69-.15-.13-.38-.2-.71-.2-.27,0-.53,.06-.78,.18-.25,.12-.48,.32-.68,.6-.2,.28-.35,.67-.45,1.15l-.6,2.88h-.96Z"/></g></svg>