<?xml version="1.0" encoding="UTF-8"?><svg id="Layer_2" xmlns="http://www.w3.org/2000/svg" xmlns:xlink="http://www.w3.org/1999/xlink" viewBox="0 0 99 99"><defs><style>.cls-1{fill:#fff;filter:url(#drop-shadow-1);}</style><filter id="drop-shadow-1" filterUnits="userSpaceOnUse"><feOffset dx="0" dy="0"/><feGaussianBlur result="blur" stdDeviation="1.44"/><feFlood flood-color="#000" flood-opacity=".75"/><feComposite in2="blur" operator="in"/><feComposite in="SourceGraphic"/></filter></defs><g id="Layer_1-2"><circle class="cls-1" cx="49.19" cy="49.16" r="44.47"/><g><path d="M75.92,22.42c-7.14-7.14-16.64-11.07-26.74-11.07s-19.59,3.93-26.73,11.07c-7.14,7.14-11.07,16.64-11.07,26.73s3.93,19.59,11.07,26.74c7.14,7.14,16.64,11.07,26.74,11.07s19.59-3.93,26.74-11.07c7.14-7.14,11.07-16.64,11.07-26.74s-3.93-19.59-11.07-26.73Zm-1.06,52.41c-6.86,6.86-15.98,10.63-25.67,10.63s-18.82-3.78-25.67-10.63c-6.86-6.86-10.63-15.98-10.63-25.67s3.78-18.82,10.63-25.67c6.86-6.86,15.98-10.63,25.67-10.63s18.82,3.78,25.67,10.63c6.86,6.86,10.63,15.98,10.63,25.67s-3.78,18.82-10.63,25.67Z"/><path d="M80.71,51.96l3.61,.32c.03-.46,.07-.92,.1-1.38l-3.62-.18c-.02,.41-.06,.83-.09,1.24Z"/><path d="M80.34,54.73l3.57,.63c.08-.46,.17-.91,.22-1.37l-3.59-.49c-.04,.41-.12,.82-.2,1.23Z"/><path d="M79.73,57.47l3.5,.95c.14-.44,.23-.9,.33-1.35l-3.53-.81c-.1,.4-.18,.81-.3,1.21Z"/><path d="M78.89,60.13l3.4,1.26c.16-.43,.3-.88,.45-1.31l-3.44-1.12c-.14,.39-.26,.79-.4,1.18Z"/><polygon points="77.8 62.71 81.07 64.26 81.64 63 78.31 61.58 77.8 62.71"/><path d="M76.48,65.18l3.12,1.84c.23-.4,.47-.8,.68-1.21l-3.19-1.71c-.19,.37-.41,.72-.61,1.08Z"/><path d="M74.96,67.53l2.95,2.1c.27-.38,.54-.75,.79-1.14l-3.03-1.99c-.22,.35-.47,.69-.71,1.03Z"/><path d="M73.23,69.74l2.75,2.36c.31-.34,.6-.7,.88-1.07l-2.84-2.25c-.25,.33-.51,.65-.79,.96Z"/><path d="M71.32,71.78l2.53,2.59c.34-.31,.65-.66,.97-.99l-2.63-2.49c-.29,.3-.56,.61-.87,.89Z"/><path d="M69.23,73.65l2.3,2.8c.36-.29,.7-.6,1.05-.9l-2.4-2.71c-.32,.27-.62,.55-.94,.81Z"/><polygon points="66.99 75.33 69.03 78.32 70.16 77.52 68 74.61 66.99 75.33"/><path d="M64.61,76.8l1.77,3.16c.4-.23,.8-.46,1.2-.7l-1.89-3.09c-.35,.21-.72,.42-1.08,.62Z"/><path d="M62.1,78.06l1.48,3.31c.42-.19,.85-.37,1.26-.59l-1.61-3.24c-.36,.2-.75,.35-1.13,.53Z"/><path d="M59.5,79.08l1.18,3.42c.44-.14,.87-.3,1.3-.48l-1.31-3.37c-.38,.16-.77,.3-1.17,.43Z"/><path d="M56.82,79.88l.87,3.52c.45-.1,.89-.24,1.34-.36l-1.01-3.48c-.4,.11-.79,.24-1.2,.33Z"/><polygon points="54.07 80.44 54.63 84.01 55.99 83.77 55.3 80.22 54.07 80.44"/><path d="M51.29,80.73l.24,3.61c.46-.04,.92-.06,1.38-.11l-.38-3.6c-.41,.04-.83,.07-1.24,.1Z"/><path d="M48.49,80.79l-.08,3.62c.46,.02,.92,.02,1.39,0l-.06-3.62c-.42,.02-.83,.01-1.25,0Z"/><path d="M45.3,84.21c.46,.06,.92,.08,1.38,.12l.25-3.61c-.41-.04-.83-.05-1.24-.11l-.4,3.6Z"/><polygon points="42.21 83.74 43.58 83.98 44.15 80.41 42.93 80.19 42.21 83.74"/><path d="M39.18,82.98c.45,.12,.89,.26,1.34,.37l.89-3.51c-.4-.1-.8-.22-1.2-.33l-1.03,3.47Z"/><path d="M36.23,81.97c.43,.17,.86,.35,1.3,.49l1.2-3.42c-.4-.12-.78-.28-1.17-.44l-1.33,3.37Z"/><path d="M33.38,80.69c.41,.22,.83,.41,1.25,.6l1.5-3.3c-.38-.17-.76-.34-1.12-.54l-1.62,3.24Z"/><path d="M32.56,76.09l-1.91,3.08c.39,.25,.8,.47,1.2,.7l1.78-3.15c-.36-.21-.73-.4-1.07-.63Z"/><polygon points="30.25 74.52 28.08 77.42 29.21 78.22 31.26 75.24 30.25 74.52"/><polygon points="28.08 72.74 25.67 75.44 26.72 76.35 29.02 73.56 28.08 72.74"/><path d="M26.08,70.78l-2.64,2.47c.32,.33,.63,.68,.96,1l2.54-2.58c-.3-.29-.58-.6-.87-.89Z"/><path d="M24.26,68.65l-2.85,2.23c.29,.36,.57,.73,.88,1.08l2.76-2.34c-.28-.31-.53-.64-.79-.97Z"/><path d="M22.63,66.37l-3.04,1.97c.24,.39,.51,.77,.78,1.15l2.96-2.09c-.24-.34-.48-.68-.7-1.03Z"/><path d="M21.21,63.96l-3.2,1.7c.2,.42,.45,.81,.68,1.21l3.13-1.82c-.2-.36-.43-.71-.61-1.09Z"/><path d="M20.01,61.44l-3.34,1.41c.19,.42,.38,.84,.57,1.27l3.28-1.54-.51-1.13Z"/><polygon points="19.04 58.81 15.59 59.91 16.04 61.23 19.44 59.99 19.04 58.81"/><path d="M18.31,56.11l-3.53,.79c.11,.45,.2,.9,.33,1.35l3.5-.93c-.12-.4-.19-.81-.29-1.21Z"/><path d="M17.82,53.35l-3.59,.48c.05,.46,.12,.92,.21,1.37l3.57-.62c-.08-.41-.14-.82-.19-1.23Z"/><path d="M17.57,50.56l-3.62,.16c0,.46,.06,.92,.09,1.38l3.61-.3c-.03-.41-.08-.83-.08-1.24Z"/><polygon points="17.57 47.76 13.96 47.6 13.92 48.99 17.54 49 17.57 47.76"/><path d="M17.82,44.97l-3.59-.47c-.05,.46-.13,.92-.16,1.38l3.61,.33c.02-.41,.1-.82,.14-1.24Z"/><path d="M18.31,42.21l-3.53-.79c-.11,.45-.2,.9-.28,1.36l3.56,.65c.07-.41,.15-.82,.25-1.22Z"/><path d="M19.04,39.51l-3.45-1.1c-.15,.44-.26,.89-.39,1.33l3.49,.97c.12-.4,.21-.8,.35-1.19Z"/><polygon points="20.01 36.88 16.67 35.48 16.16 36.77 19.55 38.04 20.01 36.88"/><polygon points="21.21 34.36 18.01 32.66 17.38 33.9 20.65 35.46 21.21 34.36"/><path d="M22.63,31.94l-3.04-1.97c-.24,.39-.51,.77-.74,1.18l3.11,1.85c.2-.36,.44-.7,.66-1.06Z"/><path d="M24.26,29.67l-2.85-2.23c-.29,.36-.57,.73-.83,1.11l2.94,2.12c.23-.34,.49-.67,.75-.99Z"/><path d="M26.08,27.54l-2.64-2.47c-.33,.33-.62,.68-.93,1.03l2.74,2.37c.27-.31,.54-.63,.83-.93Z"/><path d="M28.08,25.58l-2.42-2.7c-.35,.3-.67,.63-1.01,.95l2.52,2.6c.3-.28,.59-.58,.91-.85Z"/><polygon points="30.25 23.8 28.08 20.9 26.99 21.76 29.27 24.57 30.25 23.8"/><polygon points="32.56 22.23 30.66 19.15 29.49 19.9 31.52 22.9 32.56 22.23"/><path d="M35.01,20.86l-1.62-3.24c-.41,.22-.83,.41-1.23,.64l1.75,3.17c.36-.21,.74-.38,1.1-.58Z"/><path d="M37.56,19.72l-1.33-3.37c-.43,.17-.86,.34-1.28,.53l1.46,3.31c.37-.18,.76-.33,1.15-.48Z"/><path d="M40.21,18.81l-1.03-3.47c-.45,.12-.88,.27-1.32,.42l1.16,3.43c.39-.13,.78-.27,1.19-.38Z"/><path d="M42.93,18.13l-.71-3.55c-.45,.09-.9,.2-1.35,.31l.85,3.52c.4-.09,.81-.19,1.21-.27Z"/><polygon points="45.69 17.7 45.3 14.1 43.92 14.28 44.46 17.86 45.69 17.7"/><path d="M48.49,17.53l-.08-3.62c-.46,.02-.92,0-1.39,.05l.22,3.61c.41-.04,.83-.03,1.24-.05Z"/><path d="M51.53,13.97c-.46-.04-.92-.05-1.38-.06l-.1,3.62c.42,.01,.83,.01,1.24,.06l.24-3.61Z"/><path d="M54.63,14.3c-.46-.07-.92-.12-1.38-.18l-.41,3.6c.41,.05,.82,.1,1.23,.16l.55-3.58Z"/><polygon points="57.69 14.92 56.34 14.61 55.61 18.16 56.82 18.44 57.69 14.92"/><path d="M60.68,15.81c-.44-.14-.87-.31-1.32-.43l-1.04,3.47c.4,.1,.79,.26,1.18,.39l1.18-3.42Z"/><path d="M63.58,16.96c-.42-.2-.84-.38-1.28-.54l-1.35,3.36c.39,.15,.77,.31,1.15,.49l1.48-3.31Z"/><path d="M64.61,21.52l1.77-3.16c-.4-.24-.82-.44-1.23-.65l-1.64,3.23c.37,.19,.74,.37,1.1,.58Z"/><path d="M66.99,22.99l2.04-2.99c-.38-.26-.78-.5-1.16-.75l-1.92,3.07c.35,.23,.7,.44,1.04,.68Z"/><polygon points="69.23 24.66 71.53 21.86 70.44 21.01 68.25 23.9 69.23 24.66"/><path d="M71.32,26.54l2.53-2.59c-.34-.32-.67-.64-1.01-.95l-2.43,2.69c.31,.28,.6,.57,.9,.86Z"/><path d="M73.23,28.58l2.75-2.36c-.31-.34-.59-.71-.92-1.04l-2.66,2.46c.29,.29,.55,.62,.83,.93Z"/><path d="M74.96,30.79l2.95-2.1c-.26-.38-.54-.75-.83-1.11l-2.86,2.22c.26,.32,.51,.66,.74,1Z"/><path d="M76.48,33.13l3.12-1.84c-.22-.41-.48-.79-.73-1.18l-3.05,1.96c.22,.35,.45,.69,.65,1.06Z"/><path d="M77.8,35.61l3.27-1.55c-.19-.42-.42-.83-.62-1.24l-3.21,1.68c.19,.37,.39,.73,.56,1.11Z"/><polygon points="78.89 38.19 82.28 36.93 81.77 35.64 78.43 37.03 78.89 38.19"/><path d="M79.73,40.85l3.49-.95c-.13-.44-.25-.89-.38-1.33l-3.45,1.09c.12,.4,.23,.8,.34,1.2Z"/><path d="M80.34,43.58l3.57-.63c-.08-.45-.15-.91-.27-1.36l-3.54,.77c.1,.4,.16,.81,.24,1.22Z"/><path d="M80.71,46.36l3.61-.32c-.03-.46-.09-.92-.15-1.38l-3.59,.46c.05,.41,.11,.82,.14,1.24Z"/><polygon points="80.84 49.16 84.46 49.16 84.43 47.77 80.81 47.91 80.84 49.16"/><path d="M27.96,63.33c1.55-.84,1.8-2.31,1.22-3.4-.59-1.09-1.99-1.65-3.51-.84-1.55,.85-1.8,2.31-1.22,3.39,.59,1.08,1.99,1.66,3.51,.84Zm-1.73-3.2c1.05-.57,2.09-.71,2.5,.05,.41,.76-.28,1.56-1.33,2.12-1.05,.57-2.1,.71-2.51-.05-.41-.76,.29-1.56,1.33-2.12Z"/><path d="M27.27,57.36l.23,.43,.02,.04,.34-.1h.05s-.59-1.99-.59-1.99l-.34,.1h-.04s.06,.53,.06,.53c-.3,.1-.64,.2-.94,.29l-.41-.23,1.45-1.47-.38-1.25v-.03s.02,0,.02,0h.05s-.08-.51-.08-.51h0l-.08-.54-.15-1-.35,.05h-.04s-.02,.53-.02,.53c-.38,.07-.75,.13-1.13,.19l-2.79,.43-1.06,.13h-.03s-.06,.15-.06,.15v.04l.56,1.35h.04s.29-.05,.29-.05h.04s0-.56,0-.56l3.17-.48c.38-.06,.75-.11,1.13-.16l.16,.45v.04s.18-.02,.18-.02l-.2,.06h-.04s.04,.54,.04,.54l-1.58,1.65-.89-.49-.29-.62-.02-.04-.34,.1h-.05s.54,1.8,.54,1.8l.35-.11h.04s-.04-.51-.04-.51l1.4,.74-2.27,.68-1.03,.28h-.03s-.04,.16-.04,.16v.04s.75,1.25,.75,1.25h.04s.28-.1,.28-.1h.04s-.08-.56-.08-.56l3.07-.93c.32-.1,.73-.22,1.09-.32Z"/><path d="M23.82,49.42h.18c.07,.24,.15,.49,.21,.68,.38,1.09,.77,1.38,1.27,1.36,.65-.02,1-.49,.98-1.08,0-.47-.22-.73-.57-1.07,.33-.12,.53-.39,.51-.78,0-.37-.16-.63-.53-.81l-.03-.02-.17,.21-.03,.04,.04,.03c.11,.08,.15,.14,.15,.22,0,.11-.05,.17-.29,.18l-1.65,.04c-1,.03-1.41,.45-1.39,1.34,.02,.94,.44,1.55,1.07,1.63,.26-.04,.4-.23,.39-.49,0-.27-.2-.48-.58-.51l-.38-.07c-.02-.1-.03-.19-.03-.28,0-.47,.13-.6,.83-.63Zm.59-.01l1.1-.03c.23,.3,.3,.43,.3,.6,0,.28-.13,.48-.5,.49-.27,0-.52-.12-.73-.61-.05-.11-.11-.28-.17-.46Z"/><path d="M21.06,45.4h-.03s-.1,.12-.1,.12v.04s.12,1.43,.12,1.43l.33,.05h.04s.16-.52,.16-.52l3.17,.49c.31,.05,.76,.12,1.13,.19l.02,.46v.04s.35,.05,.35,.05h.05s.07-.47,.07-.47h0l.15-1v-.05h0l.07-.43-.35-.05h-.04s-.16,.42-.16,.42c-.37-.05-.82-.12-1.14-.17l-1.04-.16c-.22-.34-.32-.62-.28-.88,.06-.35,.21-.43,.8-.35l.71,.11c.32,.05,.77,.12,1.13,.18l.02,.45v.04s.35,.05,.35,.05h.05s.3-1.94,.3-1.94l-.36-.05h-.04s-.16,.43-.16,.43c-.36-.05-.81-.11-1.13-.16l-.78-.12c-.94-.14-1.44,.18-1.55,.86-.07,.44,.07,.89,.41,1.32l-1.22-.19-1.05-.19Z"/><path d="M24.03,40.27c-.33,.95,.07,2.01,1.23,2.42,1.16,.41,2.13-.12,2.48-1.12,.34-.98-.06-2.01-1.23-2.43-1.17-.41-2.15,.18-2.48,1.12Zm3.27,1.15c-.17,.48-.68,.59-1.67,.25-.98-.35-1.33-.77-1.16-1.25,.17-.47,.7-.58,1.68-.24,.98,.35,1.31,.77,1.15,1.24Z"/><path d="M25.84,36.32l-.15,.07-.03,.04-.29,1.36,.27,.17,.04,.02,.35-.41c.24,.14,.41,.24,.74,.45l.33,.21c.27,.17,.65,.42,.96,.63l-.17,.42-.02,.04,.29,.19,.04,.03,.26-.4h0l.55-.85v-.02s.26-.39,.26-.39l-.3-.19-.03-.02-.32,.33c-.32-.19-.7-.44-.97-.61l-.93-.6c-.05-.34-.02-.62,.12-.84,.2-.3,.39-.31,.91,.01l.58,.37c.28,.18,.65,.42,.96,.63l-.16,.42-.02,.04,.29,.19,.04,.03,.57-.88,.23-.35,.03-.04h0l.23-.37-.3-.19-.03-.02-.32,.33c-.31-.19-.69-.43-.97-.61l-.67-.43c-.09-.06-.18-.09-.26-.13-.06-.37-.03-.65,.12-.88,.2-.29,.36-.33,.9,0l.58,.37c.28,.18,.65,.42,.96,.63l-.16,.41-.02,.04,.29,.19,.04,.03,.24-.38h0l.2-.31,.61-.95-.3-.19-.03-.02-.33,.33c-.31-.19-.69-.43-.97-.61l-.68-.44c-.78-.5-1.36-.43-1.74,.17-.25,.38-.31,.86-.13,1.45-.45-.11-.82,.03-1.08,.44-.24,.38-.27,.85-.15,1.35l-.43-.22h-.02Z"/><path d="M33.6,31.38l-1.16-1.18c-.7-.71-1.29-.72-1.93-.1-.67,.66-.83,1.38-.45,1.9,.21,.16,.44,.13,.62-.05,.2-.19,.21-.48-.03-.77l-.21-.33c.06-.08,.12-.15,.18-.21,.35-.32,.53-.32,1.03,.18l.12,.13c-.13,.22-.26,.45-.35,.62-.54,1.02-.48,1.5-.12,1.86,.46,.46,1.04,.39,1.46-.02,.34-.33,.39-.66,.39-1.15,.31,.16,.64,.12,.92-.16,.27-.26,.36-.55,.23-.94v-.04s-.28,.02-.28,.02h-.05s0,.06,0,.06c.01,.14,0,.2-.06,.26-.08,.07-.16,.08-.33-.08Zm-.76,.65c-.07,.37-.11,.51-.23,.63-.21,.19-.44,.23-.7-.03-.19-.19-.27-.46-.05-.95,.05-.11,.12-.27,.22-.44l.77,.78Z"/><path d="M35.17,25.4c.17-.1,.32-.15,.5-.17l.59,.68,.53-.32,.04-.03-.5-.94v-.03s-.04,0-.04,0c-.43-.03-.92,.08-1.37,.36-.92,.55-1.29,1.43-.82,2.22,.43,.71,1.14,.83,2.04,.7l.33-.04c.6-.09,.87-.05,1.09,.31,.24,.4,.1,.83-.43,1.15-.25,.15-.46,.21-.7,.24l-.61-.71-.54,.32-.04,.03,.55,1v.03s.04,0,.04,0c.47,0,1.07-.17,1.57-.47,1.01-.61,1.35-1.52,.87-2.31-.39-.65-.98-.83-2.04-.67l-.35,.05c-.53,.08-.86,.01-1.07-.34-.24-.39-.06-.8,.36-1.06Z"/><path d="M39.85,24.65c.07-.03,.15-.04,.23-.06l.23,.35c.18,.33,.44,.45,.71,.33,.23-.09,.34-.27,.3-.52-.31-.56-1.03-.78-1.73-.5-.97,.39-1.53,1.4-1.08,2.55,.46,1.15,1.45,1.53,2.43,1.14,.68-.27,1.06-.78,1.06-1.47v-.04s-.31-.08-.31-.08h-.05s0,.04,0,.04c-.09,.36-.31,.64-.67,.79-.6,.23-1.18-.04-1.51-.87-.36-.92-.1-1.47,.38-1.66Z"/><path d="M42.24,21.55c-.33,.08-.54,.39-.46,.72,.09,.33,.42,.5,.75,.42,.33-.08,.54-.39,.46-.73-.09-.34-.42-.5-.75-.42Z"/><path d="M41.85,24.32v.04s.56-.07,.56-.07c.08,.27,.15,.49,.24,.88l.09,.35c.08,.31,.19,.75,.27,1.11l-.42,.2-.04,.02,.09,.34v.05s1.02-.25,1.02-.25l.43-.11h.01s.47-.12,.47-.12l-.09-.35v-.04s-.48,.02-.48,.02c-.1-.36-.21-.8-.29-1.11l-.24-.97-.23-1.03v-.03s-.17-.06-.17-.06h-.04s-1.24,.82-1.24,.82l.08,.31Z"/><path d="M44.58,24.84c.14,1.2,.97,1.85,2.04,1.72,.72-.08,1.22-.47,1.45-1.08v-.04s-.26-.19-.26-.19l-.04-.03-.03,.04c-.21,.3-.46,.51-.89,.56-.59,.06-1.04-.28-1.19-1.07l2.26-.26v-.04c.02-.12,.02-.26,0-.43-.11-.93-.79-1.49-1.71-1.39-.98,.12-1.79,.96-1.65,2.19Zm1.64-1.72c.34-.04,.65,.22,.7,.66,.02,.27,0,.37-.35,.42l-.97,.11c-.03-.84,.3-1.16,.62-1.19Z"/><path d="M49.06,24.62c-.02,.32-.05,.77-.08,1.14l-.45,.06h-.04s-.02,.35-.02,.35v.05s.47,.03,.47,.03h0s1.01,.06,1.01,.06h.05s.44,.03,.44,.03l.02-.36v-.04s-.44-.12-.44-.12c.02-.37,.04-.83,.06-1.15l.07-1.1c.3-.22,.57-.32,.82-.31,.35,.03,.46,.18,.43,.77l-.04,.71c-.02,.33-.05,.78-.08,1.14l-.44,.06h-.04s-.02,.35-.02,.35v.05s.46,.03,.46,.03h0s1.01,.06,1.01,.06h.05s.45,.03,.45,.03l.02-.36v-.04s-.45-.12-.45-.12c.02-.37,.04-.82,.06-1.14l.05-.79c.05-.94-.31-1.42-.99-1.46-.44-.03-.88,.16-1.28,.53l-.02-.48v-.02l-.14-.1h-.04s-1.33,.41-1.33,.41l-.02,.31v.04s.53,.1,.53,.1c0,.28,0,.48-.03,.87l-.03,.4Z"/><path d="M53.33,24.75c-.29,1.21,.31,2.08,1.33,2.33,.71,.17,1.31-.03,1.71-.59l.02-.03-.21-.24-.04-.04-.04,.03c-.28,.25-.62,.35-1,.26-.62-.15-.94-.7-.74-1.58,.23-.96,.76-1.26,1.26-1.15,.08,.02,.15,.05,.23,.08v.42c-.06,.37,.09,.62,.38,.68,.24,.06,.44-.03,.55-.25,.07-.63-.39-1.23-1.13-1.4-1.01-.24-2.06,.27-2.35,1.47Z"/><path d="M60.45,26.64c.36-.87,.04-1.69-.81-2.04-.91-.38-2.03-.04-2.51,1.11-.47,1.12-.06,2.08,.94,2.5,.67,.28,1.29,.18,1.79-.24l.03-.02-.15-.3-.02-.04-.05,.02c-.33,.16-.65,.22-1.05,.05-.54-.23-.77-.75-.52-1.51l2.1,.88,.02-.03c.08-.1,.14-.22,.21-.38Zm-.75-.72c-.11,.24-.19,.32-.52,.2l-.9-.38c.39-.75,.82-.86,1.13-.74,.32,.13,.46,.51,.29,.92Z"/><path d="M61.49,29.79l1.03,.8,.25-.32,.03-.03-.45-.47,.88-.59,1.25,.96-.36,1.02-.53-.31-.04-.02-.24,.31-.03,.04,.04,.03,.65,.5,.79,.61,.05,.04h0s.29,.22,.29,.22l.24-.31,.03-.04-.38-.38,1.58-4.64-.52-.4-.03-.02-4.06,2.68-.53-.3-.04-.02-.24,.32-.03,.04,.04,.03,.32,.25h0s.03,.02,.03,.02Zm2.16-.91l1.65-1.11-.67,1.88-.99-.76Z"/><path d="M66.25,33.41c-.14-.15-.22-.31-.28-.48l.41-.54,.02-.03-.37-.41-.03-.04-.68,.63-.02,.02v.03c.11,.43,.29,.79,.6,1.14,.69,.76,1.47,.87,2,.39,.4-.36,.49-.86,.17-1.58l-.13-.29c-.21-.5-.21-.66-.03-.83,.2-.18,.44-.14,.71,.15,.11,.12,.18,.24,.22,.37l-.36,.5-.02,.03,.36,.4,.04,.04,.65-.54,.02-.02v-.03c-.1-.4-.25-.74-.55-1.06-.64-.7-1.4-.74-1.89-.3-.42,.38-.44,.9-.19,1.46l.16,.36c.21,.47,.2,.68,.02,.84-.22,.19-.48,.15-.82-.22Z"/><path d="M71.29,34.21c-.54-.78-1.29-.92-1.83-.56-.47,.32-.56,.83-.39,1.42l.11,.38c.14,.49,.11,.7-.1,.84-.24,.16-.5,.08-.78-.33-.12-.17-.18-.34-.22-.51l.48-.48,.03-.03-.31-.45-.03-.04-.76,.53-.02,.02v.03c.05,.44,.17,.82,.44,1.21,.58,.85,1.34,1.07,1.93,.66,.45-.3,.6-.79,.38-1.54l-.09-.3c-.15-.53-.12-.68,.08-.82,.22-.15,.45-.07,.68,.25,.09,.14,.14,.26,.17,.4l-.42,.45-.03,.03,.3,.44,.03,.04,.72-.44,.03-.02v-.03c-.04-.41-.15-.77-.39-1.13Z"/><path d="M70.74,36.91c-1.11,.53-1.42,1.59-.98,2.54,.45,.94,1.46,1.38,2.58,.86,1.12-.53,1.4-1.64,.98-2.54-.43-.91-1.47-1.38-2.58-.85Zm1.13,2.41c-.95,.44-1.47,.38-1.69-.07-.22-.46,.07-.9,1.01-1.35,.94-.44,1.48-.39,1.7,.07,.21,.45-.09,.91-1.03,1.36Z"/><path d="M72.54,40.9c-1.19,.33-1.68,1.28-1.4,2.3,.19,.7,.66,1.13,1.35,1.21h.04s.11-.29,.11-.29l.02-.05-.05-.02c-.35-.13-.61-.38-.71-.75-.17-.62,.16-1.16,1.02-1.41,.95-.26,1.48,.06,1.61,.55,.02,.08,.03,.16,.04,.24l-.37,.19c-.35,.14-.49,.39-.41,.68,.06,.24,.24,.37,.49,.36,.59-.24,.88-.94,.68-1.67-.28-1-1.23-1.67-2.43-1.34Z"/><path d="M77.37,45.11c-.05-.34-.33-.58-.67-.53-.34,.05-.54,.36-.5,.7,.05,.34,.33,.58,.67,.53,.35-.05,.54-.36,.5-.7Z"/><path d="M74.96,44.38l-.31,.04h-.04s0,.56,0,.56c-.28,.05-.51,.09-.9,.15l-.35,.05c-.31,.05-.77,.11-1.13,.15l-.15-.44v-.04s-.36,.05-.36,.05h-.05s.07,.48,.07,.48h0l.14,.99v.05h0l.06,.44,.36-.05h.04s.03-.47,.03-.47c.37-.06,.82-.13,1.13-.17l.99-.14,1.05-.13h.03s.07-.16,.07-.16v-.04s-.69-1.32-.69-1.32Z"/><path d="M72.81,50.19l1.65-.02c1-.01,1.41-.43,1.4-1.32,0-.94-.42-1.55-1.06-1.64-.26,.04-.4,.23-.39,.48,0,.27,.2,.48,.58,.52l.38,.07c.02,.1,.02,.19,.03,.28,0,.47-.14,.6-.84,.62h-.18c-.07-.25-.14-.5-.21-.68-.36-1.09-.75-1.38-1.26-1.38-.65,0-1,.48-.99,1.07,0,.47,.21,.74,.56,1.07-.33,.11-.53,.38-.52,.77,0,.37,.15,.64,.52,.82l.04,.02,.17-.21,.03-.04-.04-.03c-.11-.08-.15-.14-.15-.22,0-.11,.05-.17,.29-.18Zm.99-1.47c.05,.11,.11,.28,.17,.46h-1.1c-.22-.29-.29-.42-.29-.59,0-.28,.13-.48,.5-.49,.27,0,.52,.12,.72,.62Z"/><path d="M75.41,53.65l.11-.9,1.03,.16,.08-.65v-.04s-.99-.42-.99-.42v-.58s0-.04,0-.04l-.43-.05h-.05s-.07,.55-.07,.55l-1.56-.19c-.29-.04-.47-.07-.69-.09-.68-.08-1.05,.28-1.12,.89-.06,.47,.09,.85,.39,1.09l.03,.02,.25-.18v-.07c-.09-.18-.13-.31-.11-.45,.03-.21,.17-.33,.53-.29l2.17,.27-.11,.91,.5,.06h.05Z"/><path d="M76.21,56.06c.34,.08,.64-.14,.71-.47,.08-.33-.1-.66-.44-.74-.34-.07-.64,.14-.71,.47s.1,.66,.44,.74Z"/><path d="M74.97,55.68l.12-.12v-.04s-.15-1.48-.15-1.48l-.31-.07h-.04s-.19,.51-.19,.51c-.28-.05-.51-.09-.89-.18l-.35-.08c-.31-.07-.75-.18-1.11-.27v-.46s.02-.04,.02-.04l-.34-.08h-.05s-.11,.46-.11,.46h0s-.16,.69-.16,.69l-.18,.77,.35,.08h.04s.19-.42,.19-.42c.36,.07,.81,.17,1.12,.24l.98,.22,1.03,.26h.03Z"/><path d="M74.13,58.66c.35-.94-.02-2.01-1.17-2.45-1.15-.44-2.13,.07-2.51,1.05-.37,.97,.01,2.01,1.17,2.45,1.16,.44,2.15-.13,2.51-1.05Zm-3.24-1.23c.18-.47,.7-.58,1.68-.21,.97,.38,1.31,.8,1.13,1.27-.18,.46-.71,.57-1.69,.2-.98-.38-1.29-.8-1.12-1.27Z"/><path d="M72.21,62.48l.15-.07,.03-.04,.26-1.36-.27-.17-.04-.02-.34,.42c-.24-.13-.42-.23-.75-.44l-.34-.21c-.27-.17-.66-.41-.97-.61l.16-.43v-.04s-.28-.18-.28-.18l-.04-.03-.25,.41h0s-.37,.6-.37,.6l-.41,.67,.31,.19,.04,.02,.31-.33c.32,.19,.71,.42,.98,.59l.92,.56c.05,.37,.03,.67-.1,.88-.19,.29-.37,.32-.88,.02l-.61-.38c-.28-.17-.66-.41-.97-.61l.15-.42,.02-.04-.3-.18-.04-.03-.24,.4h0s-.53,.86-.53,.86l-.03,.04h0s-.23,.38-.23,.38l.31,.19,.03,.02,.32-.34c.32,.19,.7,.42,.98,.59l.67,.41c.81,.49,1.4,.39,1.76-.19,.23-.38,.28-.85,.14-1.38l.43,.21h.02Z"/><path d="M41.3,74l.93-2.34,.51-1.17-.08-.13-2.26-.37-.19,.48,.84,.25-1.09,2.74c-.15,.36-.31,.74-.46,1.11l-1.09-.17-.16,.39,2.13,.85,.26,.11h0l.95,.38,.16-.39-.86-.61c.14-.38,.28-.76,.43-1.12Z"/><path d="M46.19,71.21c-1.14-.18-2.2,.31-2.39,1.55-.17,1.09,.48,1.82,1.5,1.97,.41,.06,.76,0,1.05-.15-.4,1.07-1.16,1.59-2.55,1.83l.02,.47c2.26-.01,3.91-1.12,4.19-2.95,.23-1.49-.4-2.51-1.81-2.73Zm-.3,3.03c-.53-.08-.81-.57-.68-1.38,.14-.93,.54-1.25,.93-1.19,.45,.07,.68,.51,.46,1.92-.03,.2-.07,.38-.11,.55-.19,.09-.37,.13-.6,.1Z"/><polygon points="52.65 71.39 48.64 71.67 48.72 72.77 51.82 72.55 49.53 77.19 49.63 77.27 50.95 77.18 52.7 72.07 52.65 71.39"/><path d="M58.15,73.84c-.34-1.11-1.33-1.45-2.64-1.04-.29,.09-.55,.21-.8,.35l-.26-1.12,2.66-.82-.33-1.06-3.14,.97,.63,2.67,.29,.1c.26-.15,.5-.26,.78-.34,.65-.2,1.17,.1,1.42,.9,.23,.74-.07,1.31-.7,1.51-.13,.04-.23,.06-.34,.06l-.25-.56c-.23-.51-.49-.64-.84-.53-.23,.07-.42,.27-.43,.55,.32,.85,1.13,1.2,2.23,.86,1.3-.4,2.08-1.31,1.72-2.48Z"/><polygon points="32.63 70.5 33.57 69.18 35.18 69.2 34.22 67.91 34.73 66.38 33.2 66.9 31.91 65.93 31.93 67.55 30.61 68.48 32.15 68.96 32.63 70.5"/><polygon points="64.22 69.4 64.88 70.88 65.65 69.45 67.26 69.28 66.14 68.11 66.47 66.53 65.01 67.23 63.6 66.43 63.82 68.03 62.62 69.12 64.22 69.4"/><path d="M50.74,55.94c-1.95-.58-3.61-1.77-5.06-3.16l.03-.22c.05-.39,.09-.79,.12-1.19,.01-.19,.03-.39,.03-.58,0-.28,0-.55,0-.82,0-.29-.02-.58-.04-.87-.01-.19-.03-.37-.05-.56-.01-.12-.04-.24-.04-.36,0-.12-.04-.24-.06-.36-.03-.17-.06-.35-.1-.52-.07-.34-.16-.69-.26-1.02-.2-.67-.47-1.31-.8-1.92-.11-.2-.41-.03-.31,.16,.15,.28,.29,.56,.41,.84-.46,.1-.92,.23-1.37,.39-.21,.07-.13,.41,.08,.34,.47-.16,.94-.3,1.42-.41,.08,.21,.15,.42,.22,.63-1.01,.45-2.01,.91-3.02,1.36l-.07-.26c-.05-.22-.39-.14-.34,.08,.51,2.09,2.1,3.75,3.58,5.22l.19,.18c-.04,.32-.08,.64-.13,.96-.04,.3-.08,.6-.11,.91-.05,.46-.08,.92-.08,1.38,0,.46,.02,.92,.08,1.38,.06,.44,.16,.88,.32,1.31,.08,.21,.16,.41,.27,.6,.05,.1,.11,.19,.16,.28,.06,.09,.11,.2,.19,.28l.12,.15c.33,.4,.73,.72,1.17,.97,.2,.11,.38-.18,.19-.29-.14-.08-.27-.16-.39-.25,.57-.53,.94-1.28,1.33-1.93,.51-.86,.99-1.74,1.45-2.64,.15,.06,.31,.11,.46,.17-.23,.78-.51,1.54-.83,2.28-.09,.21,.24,.31,.33,.1,.32-.74,.6-1.5,.83-2.28,.2,.04,.3-.27,.09-.33Zm-4.2-1.93l-.02,.02c-.33,.33-.7,.61-1.12,.83,.02-.2,.04-.39,.07-.59,.18-.13,.56-.39,.75-.52,.11,.09,.21,.18,.32,.27Zm-.92-.81c.11,.1,.22,.2,.33,.3l-.04,.03c-.12,.09-.25,.19-.37,.28,.03-.21,.06-.41,.09-.61Zm-3.57-5.2h.01c1-.45,2-.9,3-1.35,.03,.12,.07,.25,.09,.37h-.01c-1,.41-2,.82-3,1.23l-.09-.25Zm.23,.57c.98-.4,1.97-.81,2.95-1.21,.05,.24,.09,.47,.12,.71-.93,.19-1.94,.61-2.77,1.07-.11-.19-.21-.38-.3-.57Zm.97,1.57c-.15-.21-.3-.42-.44-.63,.79-.44,1.74-.91,2.59-1.09,.04,.31,.06,.62,.07,.94-.7,.18-1.53,.5-2.2,.77h-.03Zm.22,.3c.62-.25,1.38-.54,2.02-.71,0,.19,0,.38,0,.57-.43,.24-1.09,.5-1.57,.67-.15-.17-.3-.35-.45-.53Zm.71,.83c.45-.16,.88-.35,1.3-.57,0,.2-.02,.39-.03,.59-.25,.18-.52,.34-.79,.48-.16-.16-.32-.33-.47-.5Zm.73,.76c.17-.09,.34-.2,.51-.3-.02,.25-.04,.5-.07,.75-.15-.15-.29-.29-.44-.44Zm.45,3.37c.45-.24,1.11-.78,1.48-1.14,.16,.12,.48,.35,.48,.36,0,0-1.32,1.54-1.99,2.2-.02-.47,0-.94,.03-1.42Zm.24,3.07c-.11-.37-.19-.76-.23-1.16,.72-.72,1.64-1.72,2.23-2.5,.12,.08,.24,.16,.37,.24-.58,1.22-1.7,2.25-2.37,3.42Zm.12,.35h0c.68-1.22,1.96-2.35,2.55-3.59,.09,.05,.24,.12,.35,.18-.4,1.53-1.51,2.98-2.5,4.18-.16-.24-.29-.5-.4-.76Zm2.51-.55c-.41,.7-.81,1.54-1.42,2.09-.18-.15-.34-.32-.48-.49,1.04-1.26,2.2-2.66,2.61-4.28,.2,.1,.4,.2,.6,.28-.41,.81-.85,1.61-1.31,2.4Z"/><path d="M49.61,38.36c.07,0,.15-.05,.16-.15,.03-.41,.05-.81,.05-1.22,0-.32-.01-.65-.03-.97,0-.11-.1-.17-.18-.17-.07,0-.14,.05-.14,.14h0c.02,.33,.03,.66,.03,.98,0,.4-.02,.81-.05,1.21h0c0,.12,.08,.17,.16,.17Z"/><path d="M47.93,41.78c.09-.05,.14-.14,.14-.23v-.05c-.02-.09-.09-.17-.17-.2h-.06s-.2,.08-.2,.08l-.07,.19,.06,.16,.18,.08,.12-.03Zm-.09-.21h-.01s-.02-.01-.02-.01h.03s0,0,0,0h0Zm.01-.23l-.06,.02,.05-.02h.01Z"/><path d="M48.92,41.28h0s-.11,.02-.11,.02h0s-.11,.06-.11,.06h0s-.05,.05-.05,.05h0s-.06,.18-.06,.18c0,.11,.05,.22,.13,.29,.08,.07,.19,.11,.3,.12l.18-.05c.09-.05,.13-.15,.13-.25l-.06-.21c-.07-.12-.2-.2-.35-.2Zm.13,.42l-.02,.02-.15-.04v-.13s.11,0,.11,0l.06,.1v.05Z"/><path d="M50.22,40.76h-.04c-.15,0-.26,.1-.33,.22l-.03,.07h0s-.02,.1-.02,.1l.03,.19c.04,.13,.17,.21,.31,.21h.03c.19-.02,.35-.18,.36-.37v-.03c0-.19-.13-.37-.32-.39Zm.01,.51l-.09,.05h-.07s-.05-.09-.05-.09l.02-.08,.12-.12h0l.11,.12-.05,.14Zm-.39-.13v.03s0-.02,0-.02h0Z"/><path d="M48.66,40.68h.07c.15,0,.31-.08,.34-.24v-.08c0-.23-.22-.41-.43-.41-.12,0-.24,.07-.29,.23l-.02,.15,.05,.19c.06,.09,.17,.14,.27,.16Zm-.07-.33l.03-.13,.05-.03,.16,.17h0s-.1,.07-.1,.07l-.13-.08Zm.08,.09s-.05-.02-.07-.05l.07,.05Zm.15-.04s-.03,.04-.06,.05l.06-.05Z"/><path d="M50.03,41.7c-.09,0-.18,.04-.25,.09h0s-.11,.14-.11,.14h0s0,0,0,0l-.03,.16,.02,.12,.19,.17,.12,.02c.13,0,.26-.06,.33-.17l.06-.2c0-.1-.04-.2-.12-.27l-.21-.08Zm.07,.39l-.13,.08-.08-.05,.02-.11,.09-.05,.1,.09v.04Zm.01-.07l-.08-.08s.07,.04,.08,.08Zm-.44,.04v.07s0-.03,0-.03v-.04Z"/><path d="M50.37,39.95h-.03s0,0,0,0l-.17,.09h0s-.07,.14-.07,.14h0s.07,.19,.07,.19h0s0,0,0,0l.15,.05,.15-.04c.08-.05,.13-.13,.13-.22v-.05c-.03-.11-.13-.17-.23-.17Zm-.05,.28v-.03s0,0,0,0l.04,.03h-.03Zm-.09,.15h.16s-.08,.03-.08,.03l-.08-.03Z"/><path d="M51.16,41.45v.02s0-.02,0-.02h-.03s-.02,0-.02,0l-.24,.07c-.07,.05-.14,.11-.15,.21h0s.03,.2,.03,.2h0s0,0,0,0c.06,.15,.2,.26,.36,.26l.11-.02c.16-.06,.25-.21,.25-.37v-.04c-.02-.17-.13-.3-.3-.32Zm-.19,.35v-.03s.09-.09,.09-.09h.04s.06,.03,.06,.03v.18s-.13,.02-.13,.02l-.04-.07-.02-.05Z"/><path d="M48.16,41.89v.02s0-.02,0-.02h-.15s0,0,0,0l-.06,.02h0s-.07,.05-.07,.05h0c-.08,.07-.12,.17-.12,.27v.03c.01,.1,.08,.2,.16,.25l.2,.06c.09,0,.18-.03,.25-.09,.07-.06,.11-.16,.11-.25l-.06-.2c-.06-.08-.15-.13-.25-.13Zm.03,.38l-.1,.03-.09-.1,.03-.07,.02-.02h.05s.05,0,.05,0l.02,.02,.02,.13Z"/><path d="M47.76,40.99l.14,.04c.1,0,.2-.05,.26-.14l.07-.21-.07-.2-.21-.1h-.01c-.1,0-.19,.08-.25,.15l-.07,.2v.07s.15,.18,.15,.18Zm.2-.33v.08s-.08,.02-.08,.02l-.03-.07,.06-.04,.04,.02Zm-.07,.33s0,0,0,0h0s0,0,0,0Zm-.24-.28v.04s-.01-.01-.01-.01v-.03Z"/><path d="M49.67,40.57c-.04-.1-.13-.19-.24-.21h-.05c-.1,0-.19,.06-.25,.13h0s-.07,.12-.07,.12l-.04,.16,.05,.19c.06,.1,.17,.15,.28,.15l.18-.05c.12-.07,.17-.19,.17-.31l-.04-.18Zm-.28,.28h-.03s-.06-.09-.06-.09v-.06s.04-.06,.04-.06v-.02s.01,0,.01,0l.09,.06,.02,.03v.03s-.02,.04-.02,.04l-.04,.06Zm-.05,.02s-.05-.04-.05-.07l.05,.07Zm-.11,.17s-.01-.01-.02-.02c0,0,.01,.01,.02,.02Zm.41-.14s-.02,.03-.03,.04c0-.01,.02-.02,.03-.04Z"/><path d="M50.86,41.27l.15,.04,.18-.07c.07-.07,.1-.16,.1-.25l-.06-.2c-.06-.08-.16-.13-.26-.13h-.01c-.12,0-.21,.08-.26,.19h0s-.03,.1-.03,.1h0s0,0,0,0h0c0,.14,.1,.26,.2,.32Zm.04-.29l.11-.05,.02,.09h0s-.08,.02-.08,.02h-.02s-.02-.06-.02-.06Z"/><path d="M47.27,41.69l-.18,.06h0s-.04,.04-.04,.04h0s-.06,.17-.06,.17c0,.14,.09,.27,.24,.31h.07c.12,0,.23-.07,.28-.18h0s.02-.11,.02-.11h0c0-.18-.16-.29-.32-.29Z"/><path d="M51.73,49.06l.18-.22c.11-.2,.16-.43,.13-.65-.01-.11-.03-.22-.08-.32-.06-.11-.15-.21-.24-.29-.3-.26-.78-.23-1.05,.06-.32,.33-.35,.89-.08,1.26,.26,.36,.8,.46,1.15,.16Zm-.93-1.04l.2-.22,.26-.08c.43,.02,.53,.58,.38,.9-.14,.3-.51,.38-.75,.13-.18-.19-.2-.5-.09-.73Z"/><path d="M51.73,51.81c.09-.1,.17-.21,.25-.32l.07,.04c.48,.26,1.13,.57,1.7,.39,.55-.18,.75-.75,.72-1.28-.03-.57-.19-1.11-.44-1.62l.04-.03c.48-.36,1.15-.9,1.3-1.52,.12-.49-.11-.81-.5-1l-.02-.19-.02-.06c-.07-.19-.22-.34-.41-.41-.1-.03-.2-.04-.3-.03-.11,0-.2,.07-.28,.15l-.11,.13-.07,.13h-.11s0-.27,0-.27c0-.5-.1-1.01-.45-1.39l-.05-.05c-.88-.6-1.82,.13-2.42,.88l-.24-.14c-.53-.29-1.33-.66-1.92-.3-.39,.23-.51,.62-.48,1.04-.13,.06-.24,.16-.32,.31-.15,.29,0,.64,.28,.78,.11,.05,.22,.07,.34,.06,.04,.1,.09,.21,.14,.31-.15,.08-.3,.17-.44,.26-.51,.32-1.1,.76-1.05,1.44,.04,.5,.47,.78,.9,.94,.39,.14,.84,.18,1.27,.19,0,.11,0,.22,.02,.33,.06,.75,.66,2.58,1.72,1.98l.06,.05c.22,.16,.57,.16,.75-.06,.19-.22,.18-.51,.05-.74Zm.13-.78c-.37-.24-.72-.52-1.04-.84,.44-.04,.87-.12,1.3-.22,.11-.03,.22-.07,.33-.1-.08,.22-.18,.43-.29,.64-.07,.13-.17,.32-.3,.53Zm-2.27-2.32c.05-.26,.11-.52,.19-.78,.09-.3,.19-.6,.31-.9,.53-.19,1.08-.34,1.64-.44,.46,.43,.87,.9,1.22,1.38-.02,.12-.05,.24-.07,.35-.08,.38-.17,.76-.3,1.12-.17,.07-.35,.13-.53,.18-.5,.12-1.02,.21-1.54,.25-.34-.37-.65-.77-.93-1.18Zm.51,1.2c-.21,0-.43,0-.64,0,0-.24,.03-.49,.06-.73,.18,.25,.38,.5,.58,.73Zm2.01-3.37c.36-.05,.72-.07,1.07-.06-.04,.35-.09,.7-.15,1.05-.24-.29-.5-.56-.75-.82l-.18-.18Zm1.97,3.74c.1,.51,.08,1.26-.57,1.35-.38,.06-.8-.14-1.13-.31l-.21-.11c.29-.47,.52-.99,.7-1.51,.3-.13,.59-.29,.87-.48,.16,.33,.28,.69,.34,1.05Zm.01-4.12l.03-.02c.1-.05,.24-.01,.32,.06,.09,.09,.11,.21,.09,.33l-.12,.23c-.08,.07-.22,.11-.31,.04-.11-.08-.15-.24-.14-.37,.01-.09,.04-.21,.12-.27Zm-.55,.35h.07s.02,.14,.02,.14c.08,.35,.44,.64,.79,.5,.14-.06,.25-.16,.33-.29,.22,.17,.33,.42,.17,.8-.13,.32-.52,.62-.78,.84-.09,.08-.19,.15-.28,.23-.16-.28-.34-.56-.54-.82,.1-.46,.17-.94,.21-1.4Zm.04,2.42c-.19,.13-.38,.24-.58,.34,.05-.16,.09-.33,.13-.48,.03-.14,.07-.28,.1-.43,.13,.18,.24,.37,.35,.57Zm-.73-4.18c.35,.38,.4,.92,.36,1.42-.41,0-.77,.02-.99,.04-.14,.01-.27,.03-.41,.05-.28-.26-.58-.51-.9-.72,.44-.56,1.26-1.24,1.93-.79Zm-2.12,1.06c.24,.16,.47,.33,.7,.52-.39,.07-.78,.17-1.16,.29,.14-.28,.29-.56,.46-.82Zm-1.08-.54c.27,.1,.54,.22,.79,.37-.07,.1-.13,.2-.18,.29-.16,.27-.3,.56-.43,.85-.37,.14-.73,.3-1.09,.48-.04-.09-.08-.19-.11-.28l.13-.13c.12-.16,.16-.38,.12-.57-.05-.22-.21-.37-.43-.41h-.12s0-.12,0-.12c.11-.72,.8-.67,1.32-.49Zm-1.26,1.44c-.1,.06-.26,.09-.35,0-.09-.08-.11-.22-.05-.32,.06-.1,.19-.17,.3-.18,.1-.01,.21,.03,.25,.12v.09s-.05,.18-.05,.18l-.11,.1Zm.72,3.2c-.23-.02-.47-.04-.7-.07-.65-.1-1.52-.58-.92-1.33,.26-.33,.66-.59,1.08-.8,.09,.18,.18,.33,.25,.46,.13,.21,.26,.42,.4,.63-.07,.38-.1,.75-.11,1.13Zm.02-1.89c-.09-.15-.17-.31-.25-.47,.22-.1,.45-.2,.65-.28l.13-.05c-.14,.36-.25,.73-.34,1.11-.06-.1-.13-.2-.19-.3Zm1.59,3.63l-.1,.2c-.02,.13,0,.28,.04,.4-.16,.05-.32,.04-.47-.04-.59-.33-.72-1.31-.74-1.91v-.05s.11,0,.11,0c.27,0,.55,0,.82-.02,.39,.41,.82,.78,1.29,1.08l-.18,.24-.23-.11h-.26c-.1,.04-.21,.1-.28,.19Zm.68,.74l-.04,.02h-.13c-.16-.03-.26-.21-.28-.36l.02-.16c.1-.19,.36-.11,.46,.03,.1,.13,.11,.36-.03,.47Z"/><path d="M60.54,42.83h-1.95l.08-.12c-.02-.08-.04-.19-.07-.29-.02-.08-.04-.16-.05-.23,.11-.02,.22-.06,.33-.1,.12,.14,.22,.31,.26,.49l.19,.11,.11-.2c-.05-.21-.16-.39-.29-.56,.14-.09,.27-.21,.38-.37,.15,.06,.33,.15,.44,.24l.22-.02-.02-.23c-.13-.1-.31-.2-.48-.27,.07-.16,.11-.32,.12-.48,.2,0,.42-.03,.48-.04l.12-.19-.19-.13c-.15,.03-.34,.05-.45,.03-.03-.13-.08-.25-.16-.37l.43-.11,.12-.2-.19-.12-.61,.16c-.09-.08-.18-.14-.29-.2,.08-.11,.23-.26,.33-.3l.08-.21-.21-.08c-.18,.08-.39,.31-.48,.44h0c-.12-.03-.25-.06-.39-.08,.02-.05,.04-.11,.05-.16l.09-.21-.03-.23-.22,.03c-.08,.1-.11,.22-.14,.32l-.09,.21v.02c-.1,0-.2,0-.29,.02-.12,.02-.23,.06-.34,.09,0-.05,0-.11,0-.16,0-.11-.01-.21,0-.32l-.14-.18-.17,.14c-.01,.14,0,.26,0,.37,0,.08,0,.15,0,.23,0,0-.01,0-.02,0-.19,.06-.39,.12-.58,.17-.11,.03-.24,.03-.37,.04,.01-.12,0-.24-.02-.34l-.02-.12-.18-.14-.14,.18,.03,.14c.02,.11,.04,.21,.01,.29-.11,0-.22,0-.34,0-.12,0-.24,0-.35,0,.01-.12,.02-.25,0-.37l-.19-.13-.12,.19c.02,.11,0,.21,0,.32-.22,.01-.43,.05-.61,.12l-.12-.12-.19-.19-.22,.03-.02,.15,.05,.08,.15,.15,.06,.06c-.12,.1-.21,.24-.26,.43-.02,.06-.02,.13-.02,.19-.05,0-.1,0-.14,0-.08,0-.16,0-.27,0l-.16,.16v.05s.16,.11,.16,.11c.11,0,.2,0,.28,0,.06,0,.14,0,.22,0,.06,.12,.14,.24,.25,.34l-.49,.3-.07,.19v.03s.23,.06,.23,.06l.61-.36c.13,.08,.26,.15,.39,.19,.02,0,.04,0,.06,0l-.07,.06-.44,.52-.05,.17,.03,.05,.22,.02,.45-.53,.23-.22v-.03s.02,0,.02,0c.25,.01,.49,.04,.74,.07l-.3,.62v.14s.08,.11,.08,.11c.09,.05,.2,0,.25-.09l.32-.68s0-.03,0-.04c.1,.02,.19,.03,.29,.05,.06,.01,.14,.03,.21,.05-.04,.18-.06,.52-.03,.62h0s.19,.12,.19,.12l.12-.19,.04-.49c.16,.03,.33,.05,.51,.07,0,.17,0,.31,.03,.45v.12s.02,.03,.02,.03h.01s-5.96,0-5.96,0c.1-.05,.19-.11,.28-.18,.25-.21,.34-.47,.34-.75,0-.29-.1-.59-.23-.85-.4-.8-1.03-1.47-1.44-2.25-.22-.41-.23-.78-.27-1.24-.05-.59-.11-1.18-.11-1.77v-.17c.14-.02,.27-.06,.35-.15,.1-.09,.14-.21,.14-.33,0-.13-.05-.27-.15-.37-.18-.18-.45-.2-.7-.2h-.22s-.06,0-.06,0c-.14,0-.32-.02-.51-.02-.37,0-.76,.06-.89,.41l-.03,.18c0,.28,.29,.4,.58,.45-.04,.48-.08,.95-.12,1.43-.05,.59-.1,1.2-.39,1.73-.18,.32-.42,.6-.59,.93-.16,.3-.31,.61-.46,.92-.19,.38-.47,.9-.47,1.38,0,.12,.02,.25,.06,.36,.09,.23,.27,.38,.48,.49h-4.45c.36-.08,.69-.24,.96-.5,.29-.28,.47-.65,.55-1.04,.57-.3,1.13-.64,1.56-.98,.43-.35,.73-.69,.73-1.03,0-.15-.06-.29-.18-.41-.16-.16-.39-.2-.61-.2-.22,0-.45,.04-.62,.07-.54,.09-1.07,.26-1.58,.45-.25-.2-.54-.35-.85-.44-.17-.04-.33-.07-.51-.08h-.13c-.12,0-.25,0-.37,.04-.17,.05-.33,.11-.48,.2-.17,.1-.32,.22-.46,.36-.24,.24-.42,.55-.49,.89h0s-.03,.17-.03,.17c-.63,.27-1.2,.67-1.71,1.13-.18,.17-.46,.48-.47,.79,0,.13,.05,.25,.18,.35,.24,.18,.6,.23,.94,.23h-1.33c-.11,0-.21,.06-.26,.16-.05,.1-.04,.22,.03,.3l2.45,3.33c-.03,.6-.22,3.94-.22,6.99,0,1.12,.02,2.21,.09,3.11,.07,.9,.17,1.6,.37,2.04,.14,.28,.37,.54,.68,.81,1.07,.93,3.07,1.96,4.82,2.78,1.75,.82,3.23,1.41,3.24,1.42h.22s1.95-.78,4-1.78c1.03-.5,2.08-1.06,2.94-1.6,.43-.27,.81-.55,1.12-.81,.31-.27,.54-.53,.68-.81,.2-.43,.3-1.13,.37-2.03,.07-.9,.09-1.98,.09-3.11,0-3.05-.18-6.37-.22-6.99l2.56-3.33c.07-.09,.08-.21,.03-.31s-.15-.16-.26-.16Zm-5.46-1.31h-.04c-.12,0-.24-.01-.35-.04-.37-.11-.86-.51-.76-.86,.13-.47,.69-.5,1.54-.48,.38,0,.77,.01,1.1-.06,.21-.05,.41-.11,.6-.17,.22-.07,.43-.14,.64-.18,.55-.11,1.22,.13,1.52,.55l.12,.23c.08,.24,.04,.51-.11,.79-.48,.85-1.76,.68-2.82,.43-.47-.11-.96-.17-1.44-.2Zm2.74,1.11c-.02-.14-.03-.25-.03-.39,.14,0,.28,0,.42-.01,.02,.08,.04,.17,.06,.26,.03,.1,.05,.21,.07,.28v.02s.07,.04,.07,.04h-.65l.06-.08v-.12Zm-6.05-.38c-.25,.44-.96,.54-1.63,.54-.43,0-.85-.04-1.1-.04h-.02c-.19,0-.45,.02-.72,.02-.56,0-1.16-.08-1.34-.56-.03-.08-.05-.17-.05-.27,0-.52,.42-1.17,.63-1.57,.16-.32,.31-.63,.51-.93v-.02c.29,.23,.89,.23,1.14,.24h.05c.29,0,.95-.05,1.22-.3l.06,.09c.41,.58,.84,1.17,1.15,1.81,.09,.19,.18,.42,.18,.63v.13c-.02,.07-.05,.13-.08,.19,0,.01,0,.02-.01,.03Zm-2.81-6.63h.1s.16,0,.16,0h.02c.15,0,.35,.02,.56,.02v.16c0,.33,.01,.66,.04,.98,.04,.5,.03,1.04,.13,1.54,.03,.15,.08,.28,.14,.42-.26-.06-.57-.06-.7-.06h-.2c-.21,0-.49,.01-.72,.07,.06-.12,.11-.24,.15-.37,.27-.87,.27-1.85,.33-2.76Zm-.48-.5h0s.04-.14,.04-.14l.14-.08c.09-.02,.18-.03,.28-.03h.15c.13,.01,.25,.03,.39,.03h.13s.25-.01,.25-.01h.07c.09,0,.19,.02,.27,.07l.06,.05v.05s-.04,.18-.04,.18l-.15,.05h-.22s-.11,0-.11,0h-.06c-.14,0-.28,0-.42,0-.12,0-.24,.02-.35,.02l-.26-.02v.02s0-.02,0-.02l-.15-.17Zm1.24,4.18c-.13,.03-.26,.03-.39,.03h-.1c-.13,0-.79-.02-.93-.14,.12-.14,.58-.2,1.03-.2,.24,0,.47,.02,.64,.04l.2,.05,.06,.05-.5,.16Zm-8.91,.26l.18-.18,.1-.07,.08-.06c.13-.09,.28-.16,.43-.21,.15-.05,.29-.08,.45-.08h.04c.16,0,.32,.03,.48,.07,.29,.08,.57,.23,.8,.43h.01s.12,.13,.12,.13c.22,.24,.36,.54,.42,.86-.12,.06-.25,.13-.37,.19-.77,.38-1.56,.72-2.39,.97-.15,.04-.29,.08-.44,.11-.15-.25-.25-.54-.28-.83v-.23c-.01-.4,.1-.8,.36-1.1Zm-.98,2.28l-.32-.02-.03-.05,.19-.21c.17-.13,.36-.24,.55-.34,.05,.19,.12,.38,.21,.55-.2,.03-.4,.06-.6,.06Zm4.71-2.14c.07-.01,.22-.04,.33-.04h.09s0,.01,0,.01l-.04,.07c-.21,.23-.47,.41-.74,.57-.04-.16-.08-.31-.15-.46v-.02c.16-.05,.34-.09,.51-.13Zm-4.38,1.23c-.31,.14-.71,.34-.92,.65l-.07,.22c0,.18,.16,.29,.34,.31,.13,.02,.27,.03,.41,.03,.24,0,.49-.03,.72-.09,.18-.04,.35-.08,.53-.13,.18-.05,.36-.11,.53-.18,.17-.06,.34-.12,.5-.19,.43-.17,.84-.35,1.25-.55,.17-.08,.35-.16,.52-.25l.13-.06c.11-.06,.22-.12,.32-.19,.08-.06,.29-.18,.48-.33,.19-.15,.37-.32,.37-.51l-.03-.13c-.07-.13-.22-.16-.35-.16-.1,0-.19,.02-.26,.02-.27,.04-.53,.11-.78,.18-.04-.06-.09-.11-.13-.16,.59-.22,1.25-.45,1.86-.45h.21c.28,.04,.35,.16,.36,.31,0,.16-.1,.36-.25,.52-.28,.3-.64,.53-1,.75-.13,.08-.27,.16-.4,.24l-.25,.14-.12,.07h0l-.17,.09-.16,.08-.25,.13c-.17,.08-.34,.17-.51,.25-.17,.08-.34,.16-.52,.23-.12,.05-.25,.1-.38,.15-.17,.07-.35,.13-.53,.19l-.27,.08-.24,.07h0s-.04,0-.04,0c-.24,.05-.47,.11-.71,.15-.36,.06-.73,.1-1.09,.1h-.01c-.25,0-.5-.02-.73-.09-.16-.05-.23-.1-.23-.21l.02-.11c.04-.13,.14-.25,.25-.36,.44-.45,1-.83,1.58-1.09h0c0,.09,0,.18,.02,.27Zm1.69,1.41c.23-.08,1.07-.42,1.98-.87-.03,.09-.06,.19-.11,.27-.31,.55-.9,.85-1.51,.85-.11,0-.22-.01-.34-.03-.13-.02-.24-.08-.35-.13,.11-.03,.22-.06,.33-.1Zm-2.01,.44c.42-.05,.84-.12,1.25-.23l.14,.09h0c.15,.08,.32,.14,.49,.18h-2.52c.23,0,.46-.02,.63-.04Zm17.87,13.89c-.06,.87-.18,1.56-.31,1.83-.07,.16-.26,.38-.53,.62-.97,.84-2.96,1.89-4.68,2.69-.86,.41-1.67,.76-2.25,1.01-.41,.17-.7,.29-.85,.35-.18-.07-.57-.23-1.11-.47-1.1-.48-2.78-1.23-4.25-2.03-.73-.4-1.42-.81-1.95-1.19-.53-.38-.9-.75-1.01-.99-.13-.27-.25-.96-.31-1.83-.07-.88-.09-1.95-.09-3.06,0-1.67,.06-3.44,.11-4.78,.06-1.35,.11-2.27,.11-2.27l-.06-.19-2.17-2.95h21.54l-2.27,2.94-.06,.2s.06,.93,.11,2.27c.06,1.35,.11,3.11,.11,4.79,0,1.11-.02,2.19-.09,3.06Z"/><path d="M53.22,52.71c-.7,.21-1.2,.62-1.49,1.2-.4,.8-.36,1.95,.08,3.15,.13,.34,.04,.7-.05,1.09-.06,.24-.12,.49-.13,.74-.02,.59,.31,1.1,.82,1.28h0c.55,.19,1.16-.18,1.49-.61,.16-.21,.29-.46,.42-.69,.1-.19,.2-.38,.32-.55,.22-.32,.54-.55,.88-.8l.24-.18c.25-.19,.53-.42,.75-.74,.49-.74,.53-1.64,.09-2.45-.66-1.24-2.1-1.84-3.42-1.44Zm.84,5.99c-.12,.23-.24,.46-.38,.64-.26,.34-.73,.62-1.1,.49h0c-.36-.13-.6-.5-.58-.93,0-.22,.06-.43,.12-.67,.03-.11,.05-.22,.07-.33,.26,.18,.55,.33,.86,.44,.36,.13,.74,.2,1.1,.2l-.08,.16Zm-.64-2.37l.13,.16c.16,.12,.35,.1,.5,.04l.15,.15c-.3,.42-.51,.91-.61,1.42v.02c-.25-.05-.5-.14-.74-.24,.19-.23,.24-.53,.27-.75l.12-.73,.17-.07Zm-.12-.34v-.05s0,.04,0,.04h0s0,0,0,0Zm2.96,.41c-.18,.27-.43,.48-.66,.65l-.23,.17c-.34,.25-.7,.51-.96,.88l-.05,.08h0c-.13,0-.27,0-.41,0h0c.1-.55,.34-1.05,.69-1.47,.19-.05,.37-.13,.53-.24,.18-.12,.19-.25,.18-.32-.03-.15-.17-.24-.33-.22-.11,.02-.19,.08-.23,.12-.12,.1-.24,.22-.34,.34h-.05s-.02-.02-.02-.02c.13-.09,.3-.23,.31-.46,0-.1-.03-.16-.06-.2l-.2-.08c-.11,0-.21,.1-.26,.18-.07,.11-.14,.22-.16,.36-.14,.07-.2,.05-.23,.03l-.06-.11c.07-.08,.12-.17,.18-.28,.08-.17,.05-.33-.07-.41-.08-.05-.2-.05-.3,0-.09,.05-.21,.16-.21,.4-.02-.13-.06-.25-.16-.36l-.08-.04c-.12-.03-.26,0-.37,.07-.12,.08-.19,.22-.21,.35-.02,.24,.15,.48,.4,.56h0s-.11,.68-.11,.68c-.04,.25-.08,.47-.22,.61l-.02,.03c-.11-.07-.21-.14-.3-.22,0-.19-.01-.37-.08-.56-.41-1.11-.45-2.15-.1-2.87,.24-.49,.67-.84,1.27-1.02,.52-.16,1.07-.13,1.56,.04,.6,.21,1.13,.64,1.44,1.23,.37,.7,.34,1.46-.08,2.09Zm-3.31-.37l-.11-.18,.06-.09h.03c.04,.06,.04,.16,.02,.27Z"/><path d="M52.12,58.41c-.04,.09,0,.19,.1,.23,.09,.04,.18,.07,.28,.1,.4,.14,.81,.24,1.22,.31,.1,.02,.19-.05,.2-.15,.02-.1-.05-.19-.15-.2-.49-.08-.96-.21-1.42-.39-.09-.04-.19,0-.23,.1Z"/><path d="M53.39,59.18c-.38-.03-.74-.13-1.09-.28-.09-.04-.19,0-.23,.09l.09,.23,.26,.1c.3,.11,.62,.17,.94,.2,.1,0,.18-.06,.19-.16,0-.1-.06-.18-.16-.19Z"/><path d="M47.24,68.54l.15,.38,.21-.35,.41-.03-.27-.31,.1-.4-.37,.16c-.11-.07-.22-.15-.33-.22l.02,.41-.32,.25,.4,.11Z"/><path d="M45.22,67.66l-.3-.26-.02,.41-.35,.22,.38,.15,.1,.4,.25-.32c.14,.01,.27,0,.41,.02l-.23-.33,.14-.39c-.13,.05-.25,.08-.38,.11Z"/><path d="M43.01,67.05c-.09-.1-.18-.19-.27-.3l-.07,.4-.37,.16c.12,.07,.24,.14,.36,.2l.05,.4,.29-.29,.4,.07-.19-.36,.19-.36-.39,.07Z"/><path d="M40.9,66.18l-.23-.33-.12,.39-.39,.12,.34,.24v.41s.32-.25,.32-.25c.13,.04,.26,.08,.4,.11l-.15-.38,.23-.34c-.13,.01-.27,.02-.4,.02Z"/><path d="M38.92,65.05c-.06-.12-.13-.23-.19-.35l-.17,.37-.4,.07c.1,.09,.2,.19,.3,.28l-.05,.41,.35-.21,.37,.17-.1-.4,.27-.31-.4-.03Z"/><path d="M37.08,63.69l-.14-.38-.21,.35-.41,.03,.27,.31-.1,.4,.37-.16,.36,.2-.05-.4,.31-.27c-.13-.02-.26-.05-.39-.08Z"/><path d="M35.46,62.48l.34-.23-.38-.12-.1-.38-.25,.32c-.14,0-.27-.02-.41-.03,.07,.12,.15,.23,.23,.34l-.14,.38,.39-.12,.32,.25v-.41Z"/><path d="M33.61,60.85l.3,.28,.05-.4,.36-.19c-.12-.05-.25-.11-.37-.16l-.05-.4-.29,.29-.4-.07,.19,.37-.19,.37c.13-.02,.27-.05,.41-.07Z"/><path d="M32.31,58.89c.09,.11,.16,.22,.26,.32,.03-.13,.06-.27,.1-.4l.38-.15-.34-.21v-.4s-.33,.25-.33,.25c-.13-.04-.26-.08-.39-.12,.04,.13,.09,.26,.14,.38l-.23,.34,.41-.02Z"/><polygon points="31.26 56.78 31.48 57.13 31.62 56.75 32.02 56.65 31.7 56.4 31.75 56 31.4 56.22 31.03 56.05 31.12 56.45 30.84 56.76 31.26 56.78"/><path d="M30.64,54.94c.06-.12,.12-.24,.19-.36l.41-.05-.28-.29,.09-.39-.37,.17c-.12-.07-.24-.14-.35-.21,0,.14,.03,.27,.05,.41l-.31,.27,.4,.08c.06,.12,.11,.25,.17,.37Z"/><path d="M30.09,52.66l.23-.34h.41s-.25-.32-.25-.32c.04-.13,.1-.25,.14-.38l-.39,.12-.32-.25v.41c-.12,.08-.24,.16-.35,.23l.39,.12,.13,.39Z"/><path d="M29.81,50.33c.09-.1,.17-.2,.27-.31l.41,.05-.2-.34,.18-.36-.4,.07-.29-.29-.05,.41-.36,.19,.37,.17c.02,.14,.05,.27,.08,.4Z"/><path d="M30.16,47.14l-.25-.32-.11,.4-.38,.15,.35,.21,.03,.41,.31-.27,.4,.1-.16-.37c.07-.11,.15-.22,.22-.33l-.41,.02Z"/><path d="M30.54,44.86l-.21-.35-.15,.38-.4,.1,.32,.25c-.01,.14-.01,.27-.02,.41l.33-.23,.39,.14c-.05-.13-.08-.25-.11-.38l.26-.3-.41-.02Z"/><path d="M31.37,43.38l-.07-.39c.1-.09,.19-.18,.3-.27l-.4-.07-.16-.37c-.07,.12-.14,.24-.2,.36l-.4,.05,.29,.29-.07,.4,.36-.19,.36,.19Z"/><path d="M32.11,40.52l-.12-.39-.24,.34h-.41s.25,.32,.25,.32c-.04,.13-.08,.26-.11,.4l.38-.15,.34,.23c-.01-.13-.02-.27-.02-.4l.33-.23-.39-.12Z"/><path d="M32.96,39.01l.31,.27,.03-.4c.12-.06,.23-.13,.35-.19l-.37-.17-.07-.4c-.09,.1-.19,.2-.28,.3l-.41-.05,.21,.35-.17,.37,.4-.1Z"/><path d="M34.31,37.13l.27,.31c.02-.13,.05-.26,.08-.39l.38-.14-.35-.21-.03-.41-.31,.27-.4-.1,.16,.37-.2,.36,.4-.05Z"/><path d="M35.87,35.43l.23,.34,.12-.38,.38-.1-.32-.25c0-.14,.02-.27,.03-.41-.12,.07-.23,.15-.34,.23l-.38-.14,.12,.39-.25,.32h.41Z"/><path d="M37.62,33.92l.19,.36c.05-.12,.11-.25,.16-.37l.4-.05-.29-.29,.07-.4-.37,.19-.37-.19c.02,.13,.05,.27,.07,.41l-.28,.3,.41,.05Z"/><path d="M39.54,32.63l.15,.38,.21-.34h.4s-.25-.33-.25-.33c.04-.13,.08-.26,.12-.39-.13,.04-.26,.09-.38,.14l-.34-.23,.02,.41c-.11,.09-.22,.16-.32,.26,.13,.03,.27,.06,.4,.1Z"/><polygon points="41.9 31.09 41.59 30.81 41.56 31.23 41.22 31.45 41.6 31.59 41.7 31.99 41.94 31.67 42.34 31.72 42.13 31.37 42.3 31 41.9 31.09"/><path d="M44.13,30.34l-.27-.31-.08,.4c-.12,.06-.25,.11-.37,.17,.12,.06,.24,.12,.36,.19l.05,.41,.29-.28,.39,.09-.17-.37c.07-.12,.14-.24,.21-.35-.14,0-.27,.03-.41,.05Z"/><path d="M46.44,29.87c-.08-.11-.16-.23-.23-.34l-.12,.39-.39,.13,.34,.23v.41l.32-.25c.13,.04,.25,.1,.38,.14l-.12-.39,.25-.32h-.41Z"/><path d="M48.78,29.69l-.19-.36-.17,.37c-.13,.02-.27,.05-.4,.08,.1,.09,.2,.17,.31,.27l-.05,.41,.34-.2,.36,.18-.07-.4,.29-.29-.41-.05Z"/><path d="M51.13,29.78l-.15-.38-.21,.35-.41,.03,.27,.31-.1,.4,.37-.16c.11,.07,.22,.15,.33,.22l-.02-.41,.32-.25-.4-.11Z"/><path d="M53.16,30.66l.3,.26,.02-.41,.35-.22-.38-.15-.1-.4-.25,.32c-.14-.01-.27,0-.41-.02l.23,.33-.14,.39c.13-.05,.25-.08,.38-.11Z"/><path d="M55.36,31.27c.09,.1,.18,.19,.27,.3l.08-.4,.37-.16c-.12-.07-.24-.14-.36-.2l-.05-.4-.29,.29-.4-.07,.19,.36-.19,.36,.39-.07Z"/><path d="M57.47,32.14l.23,.33,.12-.39,.39-.12-.34-.24v-.41s-.32,.25-.32,.25c-.13-.04-.26-.08-.4-.11l.15,.38-.23,.34c.13-.01,.27-.02,.4-.02Z"/><path d="M59.46,33.27c.06,.12,.13,.23,.19,.35l.17-.37,.4-.07c-.1-.09-.2-.19-.3-.28l.05-.41-.35,.21-.37-.17,.1,.4-.27,.31,.4,.03Z"/><path d="M61.44,35l.21-.35,.41-.03-.27-.31,.1-.4-.37,.16-.36-.2,.05,.4-.31,.27c.13,.02,.26,.05,.39,.08l.14,.38Z"/><path d="M63.24,35.68l-.32-.25v.41s-.34,.23-.34,.23l.38,.12,.1,.38,.25-.32c.14,0,.27,.02,.41,.03-.07-.12-.15-.23-.23-.34l.14-.38-.39,.12Z"/><path d="M64.77,37.47l-.3-.28-.05,.4-.36,.19c.12,.05,.25,.11,.37,.16l.05,.4,.29-.29,.4,.07-.19-.37,.19-.37c-.13,.02-.27,.05-.41,.07Z"/><path d="M66.07,39.43c-.09-.11-.16-.22-.26-.32-.03,.13-.06,.27-.1,.4l-.38,.15,.34,.21v.4s.33-.25,.33-.25c.13,.04,.26,.08,.39,.12-.04-.13-.09-.26-.14-.38l.23-.34-.41,.02Z"/><polygon points="66.98 42.1 67.35 42.27 67.26 41.87 67.53 41.56 67.12 41.53 66.9 41.19 66.76 41.57 66.36 41.67 66.68 41.91 66.63 42.31 66.98 42.1"/><path d="M67.7,44.3c.12,.07,.24,.14,.35,.21,0-.14-.03-.27-.05-.41l.31-.27-.4-.08c-.06-.12-.11-.25-.17-.37-.06,.12-.12,.24-.19,.36l-.41,.05,.28,.29-.09,.39,.37-.17Z"/><path d="M68.15,46.57l.32,.25v-.41c.12-.08,.24-.16,.35-.23l-.39-.12-.13-.39-.23,.34h-.41s.25,.32,.25,.32c-.04,.13-.1,.25-.14,.38l.39-.12Z"/><path d="M68.65,48.39c-.02-.14-.05-.27-.08-.4-.09,.1-.17,.2-.27,.31l-.41-.05,.2,.34-.18,.36,.4-.07,.29,.29,.05-.41,.36-.19-.37-.17Z"/><path d="M68.6,50.74l-.03-.41-.31,.27-.4-.1,.16,.37c-.07,.11-.15,.22-.22,.33l.41-.02,.25,.32,.11-.4,.38-.15-.35-.21Z"/><path d="M67.84,53.46l.21,.35,.15-.38,.4-.1-.32-.25c.01-.14,0-.27,.02-.41l-.33,.23-.39-.14c.05,.13,.08,.25,.11,.38l-.26,.3,.41,.02Z"/><path d="M67.55,55.69l.41-.05-.29-.29,.07-.4-.36,.19-.36-.19,.07,.39c-.1,.09-.19,.18-.3,.27l.4,.07,.16,.37c.07-.12,.14-.24,.2-.36Z"/><path d="M66.52,57.28l-.34-.23c.01,.13,.02,.27,.02,.4l-.33,.23,.39,.12,.12,.39,.24-.34h.41s-.25-.32-.25-.32c.04-.13,.08-.26,.11-.4l-.38,.15Z"/><path d="M65.41,59.3l-.31-.27-.03,.4c-.12,.06-.23,.13-.35,.19l.37,.17,.07,.4c.09-.1,.19-.2,.28-.3l.41,.05-.21-.35,.17-.37-.4,.1Z"/><path d="M63.72,62.03l.31-.27,.4,.1-.16-.37,.2-.36-.4,.05-.27-.31c-.02,.13-.05,.26-.08,.39l-.38,.14,.35,.21,.03,.41Z"/><path d="M62.41,63.46l.38,.14-.12-.39,.25-.32h-.41s-.23-.34-.23-.34l-.12,.38-.38,.1,.32,.25c0,.14-.02,.27-.03,.41,.12-.07,.23-.15,.34-.23Z"/><path d="M60.76,64.4l-.19-.36c-.05,.12-.11,.25-.16,.37l-.4,.05,.29,.29-.07,.4,.37-.19,.37,.19c-.02-.13-.05-.27-.07-.41l.28-.3-.4-.05Z"/><path d="M58.69,65.3l-.21,.34h-.4s.25,.33,.25,.33c-.04,.13-.08,.26-.12,.39,.13-.04,.26-.09,.38-.14l.34,.23-.02-.41c.11-.09,.22-.16,.32-.26-.13-.03-.27-.06-.4-.1l-.15-.38Z"/><polygon points="56.48 67.23 56.79 67.5 56.81 67.09 57.16 66.87 56.78 66.73 56.68 66.33 56.43 66.65 56.03 66.6 56.25 66.95 56.08 67.32 56.48 67.23"/><path d="M54.25,67.97l.27,.31,.08-.4c.12-.06,.25-.11,.37-.17-.12-.06-.24-.12-.36-.19l-.05-.41-.29,.28-.39-.09,.17,.37c-.07,.12-.14,.24-.21,.35,.14,0,.27-.03,.41-.05Z"/><path d="M51.94,68.44c.08,.11,.16,.23,.23,.34l.12-.39,.39-.13-.34-.23v-.41s-.32,.25-.32,.25c-.13-.04-.25-.1-.38-.14l.12,.39-.25,.32h.41Z"/><path d="M49.6,68.63l.19,.36,.17-.37c.13-.02,.27-.05,.4-.08-.1-.09-.2-.17-.31-.27l.05-.41-.34,.2-.36-.18,.07,.4-.29,.29,.41,.05Z"/><path d="M66.16,49.16c0-9.37-7.6-16.97-16.97-16.97s-16.97,7.6-16.97,16.97c0,9.37,7.6,16.97,16.97,16.97s16.97-7.6,16.97-16.97Zm-16.97,16.47c-4.55,0-8.67-1.84-11.65-4.82-2.98-2.98-4.82-7.1-4.82-11.65,0-4.55,1.84-8.67,4.82-11.65,2.98-2.98,7.1-4.82,11.65-4.82s8.67,1.84,11.65,4.82c2.98,2.98,4.82,7.1,4.82,11.65,0,4.55-1.84,8.67-4.82,11.65-2.98,2.98-7.1,4.82-11.65,4.82Z"/></g></g></svg>