<?xml version="1.0" encoding="UTF-8"?><svg id="Layer_1" xmlns="http://www.w3.org/2000/svg" viewBox="0 0 115.09 36.03"><defs><style>.cls-1{fill:#fff;}.cls-2{fill:#ff8f15;}</style></defs><rect class="cls-2" width="115.09" height="36.03" rx="12" ry="12"/><g><path class="cls-1" d="M18.66,21.32c-.63,0-1.11-.2-1.43-.59-.33-.4-.46-.92-.39-1.57l.96-.26c-.01,.09-.03,.18-.04,.27-.01,.08-.02,.17-.02,.25,0,.35,.09,.62,.26,.8,.17,.19,.43,.28,.78,.28,.23,0,.44-.04,.64-.13,.2-.09,.38-.24,.54-.47,.16-.23,.28-.56,.37-.98l1.04-4.87h1.03l-1.04,4.88c-.12,.58-.29,1.03-.5,1.36-.21,.33-.45,.57-.71,.71-.26,.15-.52,.24-.78,.27-.26,.04-.5,.05-.72,.05Z"/><path class="cls-1" d="M24.07,21.32c-.46,0-.84-.12-1.14-.38s-.46-.58-.46-1.01c0-.36,.09-.65,.28-.89,.19-.24,.43-.42,.74-.57,.3-.14,.63-.25,.98-.33,.35-.08,.7-.13,1.03-.17,.33-.04,.62-.07,.87-.1,.02-.1,.04-.19,.05-.28,.01-.08,.02-.17,.02-.25,0-.56-.33-.85-.98-.85-.33,0-.61,.07-.83,.22s-.4,.35-.52,.6l-.8-.25c.19-.4,.46-.72,.81-.95,.36-.24,.79-.35,1.31-.35,.62,0,1.1,.12,1.43,.38,.33,.25,.5,.63,.5,1.16,0,.12,0,.24-.03,.36s-.05,.29-.1,.51c-.05,.22-.12,.55-.21,.97-.09,.44-.16,.83-.19,1.15-.03,.32-.05,.61-.06,.86h-.85l-.04-.67c-.24,.26-.49,.46-.78,.6-.28,.14-.63,.2-1.05,.2Zm.29-.74c.49,0,.9-.16,1.25-.49,.35-.33,.57-.76,.66-1.3l.03-.18c-.59,.06-1.1,.12-1.52,.2-.42,.08-.74,.19-.96,.35-.22,.16-.33,.39-.33,.7,0,.24,.09,.42,.26,.55s.38,.18,.62,.18Z"/><path class="cls-1" d="M28.13,21.19l1.12-5.31h.69l.06,.74c.18-.23,.41-.42,.7-.58,.29-.16,.67-.24,1.15-.24,.45,0,.8,.12,1.05,.36,.25,.24,.38,.62,.38,1.12,0,.24-.03,.52-.1,.83l-.66,3.07h-.91l.63-2.99c.06-.31,.1-.57,.1-.77,0-.31-.07-.53-.21-.66s-.37-.19-.67-.19c-.26,0-.51,.06-.75,.17s-.46,.31-.65,.58c-.19,.27-.33,.64-.43,1.1l-.58,2.75h-.92Z"/><path class="cls-1" d="M35.84,21.31c-.52,0-.89-.14-1.1-.43-.21-.29-.32-.64-.32-1.06,0-.26,.03-.52,.1-.8l.66-3.14h.92l-.66,3.11c-.03,.13-.05,.26-.07,.38-.02,.12-.03,.24-.03,.35,0,.24,.06,.43,.18,.58,.12,.15,.33,.22,.65,.22,.42,0,.79-.14,1.11-.43,.32-.29,.55-.77,.7-1.43l.6-2.78h.91l-1.12,5.31h-.7l-.06-.75c-.23,.3-.48,.52-.74,.66-.27,.14-.6,.21-1.01,.21Z"/><path class="cls-1" d="M41.47,21.32c-.46,0-.84-.12-1.14-.38s-.45-.58-.45-1.01c0-.36,.09-.65,.28-.89,.19-.24,.44-.42,.74-.57s.63-.25,.98-.33c.35-.08,.7-.13,1.03-.17s.62-.07,.87-.1c.02-.1,.04-.19,.05-.28,.01-.08,.02-.17,.02-.25,0-.56-.33-.85-.98-.85-.33,0-.61,.07-.83,.22-.23,.15-.4,.35-.52,.6l-.8-.25c.19-.4,.46-.72,.81-.95,.36-.24,.79-.35,1.31-.35,.62,0,1.1,.12,1.43,.38s.5,.63,.5,1.16c0,.12,0,.24-.03,.36s-.05,.29-.1,.51c-.05,.22-.12,.55-.21,.97-.09,.44-.16,.83-.19,1.15-.03,.32-.05,.61-.06,.86h-.85l-.04-.67c-.24,.26-.49,.46-.78,.6-.28,.14-.63,.2-1.05,.2Zm.29-.74c.48,0,.9-.16,1.25-.49,.35-.33,.57-.76,.66-1.3l.03-.18c-.59,.06-1.1,.12-1.52,.2-.42,.08-.74,.19-.96,.35-.22,.16-.33,.39-.33,.7,0,.24,.09,.42,.26,.55,.17,.12,.38,.18,.62,.18Z"/><path class="cls-1" d="M45.54,21.19l1.12-5.31h.67l.09,1c.22-.31,.48-.57,.78-.78,.3-.2,.71-.31,1.24-.31h.12l-.2,.95c-.2,0-.39,0-.56,.03-.54,.09-.96,.33-1.25,.72-.29,.4-.5,.89-.63,1.49l-.46,2.19h-.92Z"/><path class="cls-1" d="M48.9,22.91l.17-.8h.36c.29,0,.51-.02,.66-.06s.27-.13,.37-.26,.21-.33,.34-.59l-.78-5.31h.95l.43,4.13,2.2-4.13h1.07l-3.07,5.53c-.18,.33-.34,.59-.47,.79s-.28,.35-.42,.45c-.15,.1-.33,.17-.54,.21-.21,.04-.48,.05-.82,.05h-.46Z"/><path class="cls-1" d="M57.13,21.19l.17-.81c.46-.26,.92-.53,1.38-.81,.46-.28,.91-.57,1.33-.87s.8-.61,1.12-.93,.59-.64,.78-.96,.28-.65,.28-.98c0-.38-.12-.67-.37-.87-.25-.2-.53-.3-.85-.3s-.66,.08-1,.25c-.33,.17-.6,.48-.79,.95l-.83-.26c.51-1.13,1.39-1.69,2.65-1.69,.39,0,.75,.06,1.08,.19,.33,.13,.59,.33,.8,.59s.3,.61,.3,1.03c0,.49-.13,.96-.4,1.4-.27,.44-.62,.85-1.06,1.23s-.92,.74-1.45,1.08c-.52,.33-1.04,.65-1.55,.93h3.72l-.17,.82h-5.15Z"/><path class="cls-1" d="M66.27,21.32c-.47,0-.89-.08-1.26-.23-.37-.15-.66-.37-.87-.65-.21-.28-.32-.63-.32-1.03,0-.53,.14-.97,.43-1.34,.29-.36,.65-.63,1.1-.79-.31-.33-.47-.74-.47-1.22,0-.38,.1-.74,.3-1.07,.2-.33,.46-.59,.79-.79,.33-.2,.68-.29,1.06-.29,.33,0,.63,.08,.9,.24,.26,.16,.47,.37,.62,.63s.22,.56,.22,.89-.07,.61-.21,.89-.33,.52-.56,.72c.34,.13,.62,.34,.82,.62s.31,.62,.31,1.02c0,.51-.13,.95-.4,1.31-.26,.36-.61,.63-1.04,.81-.43,.18-.91,.28-1.43,.28Zm.09-.8c.54,0,.97-.13,1.31-.4s.51-.63,.51-1.1c0-.38-.14-.68-.41-.89s-.65-.33-1.14-.33c-.53,0-.96,.14-1.31,.42-.34,.28-.51,.65-.51,1.11,0,.37,.14,.66,.42,.87,.28,.21,.66,.32,1.13,.32Zm.35-3.51c.23,0,.44-.06,.63-.17,.19-.11,.35-.27,.47-.46,.12-.19,.18-.4,.18-.63,0-.29-.1-.54-.3-.73-.2-.2-.45-.29-.75-.29-.22,0-.43,.06-.62,.17s-.35,.27-.47,.45c-.12,.19-.18,.4-.18,.64,0,.29,.1,.53,.29,.73,.2,.2,.44,.3,.73,.3Z"/><path class="cls-1" d="M69.61,22.62l.81-1.34c-.31-.11-.46-.33-.46-.65,0-.2,.07-.36,.2-.49,.14-.13,.29-.19,.47-.19,.21,0,.39,.07,.51,.21,.13,.14,.19,.3,.19,.48,0,.09-.01,.16-.04,.23-.03,.07-.07,.15-.13,.24l-.91,1.51h-.65Z"/><path class="cls-1" d="M77.11,21.19l1.15-5.38h-1.91l.15-.73c.51,0,.92-.04,1.24-.13,.32-.08,.57-.21,.75-.36s.33-.34,.43-.55h.62l-1.52,7.15h-.91Z"/><path class="cls-1" d="M81.4,21.19l1.97-2.26c-.06,0-.12,.01-.18,.02-.06,0-.12,0-.18,0-.48,0-.88-.1-1.22-.3s-.59-.47-.77-.81-.26-.7-.26-1.1c0-.52,.13-.99,.38-1.42,.25-.42,.6-.76,1.03-1.02s.92-.39,1.45-.39c.45,0,.85,.1,1.19,.31,.35,.2,.62,.48,.81,.82s.29,.72,.29,1.15c0,.22-.04,.45-.11,.7-.07,.24-.19,.49-.35,.73-.21,.31-.45,.66-.73,1.02-.28,.37-.56,.72-.85,1.07-.28,.35-.54,.65-.76,.92-.22,.26-.39,.46-.49,.58h-1.24Zm1.72-3.08c.35,0,.67-.09,.95-.28s.51-.42,.67-.72c.17-.29,.25-.6,.25-.92,0-.22-.05-.44-.15-.65-.1-.21-.25-.39-.47-.52-.21-.14-.48-.21-.82-.21s-.62,.08-.91,.23c-.29,.15-.52,.37-.69,.65s-.26,.6-.26,.97c0,.41,.13,.76,.4,1.03,.27,.27,.61,.41,1.02,.41Z"/><path class="cls-1" d="M86.4,21.19l4.43-6.28h-3.93l.19-.87h5.04l-.18,.87-4.4,6.28h-1.16Z"/><path class="cls-1" d="M94.57,21.32c-.71,0-1.26-.17-1.65-.51s-.65-.76-.78-1.27l.89-.25c.11,.42,.29,.73,.54,.93,.25,.2,.54,.31,.89,.32,.55,.01,.99-.15,1.31-.5s.49-.82,.49-1.4c0-.51-.13-.89-.4-1.13-.27-.24-.62-.36-1.05-.36-.35,0-.64,.08-.88,.23-.24,.15-.42,.33-.54,.54l-.83-.26,1.21-3.63h4.12l-.19,.87h-3.36l-.67,2c.39-.36,.87-.54,1.44-.54,.36,0,.71,.08,1.03,.25s.59,.41,.8,.73c.21,.32,.31,.72,.31,1.19,0,.55-.11,1.03-.34,1.45-.23,.42-.54,.74-.94,.97-.4,.23-.86,.35-1.38,.35Z"/></g></svg>