<?xml version="1.0" encoding="UTF-8"?><svg id="Layer_1" xmlns="http://www.w3.org/2000/svg" xmlns:xlink="http://www.w3.org/1999/xlink" viewBox="0 0 146 85"><defs><style>.cls-1{fill:#fff;}.cls-2{fill:#ea3a24;filter:url(#drop-shadow-1);}</style><filter id="drop-shadow-1" filterUnits="userSpaceOnUse"><feOffset dx="0" dy="0"/><feGaussianBlur result="blur" stdDeviation="3.95"/><feFlood flood-color="#ff1800" flood-opacity=".75"/><feComposite in2="blur" operator="in"/><feComposite in="SourceGraphic"/></filter></defs><rect class="cls-2" x="12.64" y="12.39" width="120.85" height="60.24" rx="8.42" ry="8.42"/><g><path class="cls-1" d="M22.13,53.98c-.12,0-.23-.04-.32-.13-.1-.08-.14-.18-.14-.3,0-.05,0-.1,.01-.14,0-.04,.02-.08,.04-.13l.42-1.1h.4l-.34,.88c.11,.02,.2,.07,.28,.16s.11,.19,.11,.3c0,.13-.05,.24-.14,.33s-.2,.13-.32,.13Zm1.17,0c-.12,0-.23-.04-.32-.13-.1-.08-.14-.18-.14-.3,0-.05,0-.1,.01-.14,0-.04,.02-.08,.04-.13l.42-1.1h.4l-.34,.88c.11,.02,.2,.07,.28,.16,.07,.09,.11,.19,.11,.3,0,.13-.05,.24-.14,.33s-.2,.13-.32,.13Z"/><path class="cls-1" d="M25.65,57.07c-.23,0-.43-.04-.62-.12-.19-.08-.34-.2-.45-.35-.11-.15-.17-.34-.17-.55,0-.28,.1-.51,.3-.67s.48-.29,.84-.38,.79-.16,1.27-.21c0-.3-.05-.53-.18-.7-.13-.16-.34-.24-.63-.24-.22,0-.39,.05-.53,.15-.14,.1-.22,.23-.26,.41l-.58-.17c.1-.27,.27-.49,.51-.64,.25-.15,.53-.23,.85-.23,.49,0,.86,.12,1.08,.35,.23,.23,.34,.6,.34,1.1v.83c0,.3,.01,.55,.04,.77,.02,.22,.05,.41,.09,.58h-.55l-.14-.49c-.11,.18-.26,.32-.45,.42s-.45,.15-.76,.15Zm.13-.48c.19,0,.36-.03,.53-.1,.17-.07,.3-.18,.41-.34,.11-.16,.16-.38,.16-.66v-.22c-.36,.04-.68,.08-.95,.14-.27,.06-.48,.13-.62,.23-.15,.1-.22,.23-.22,.39s.06,.3,.18,.41c.12,.1,.29,.15,.51,.15Z"/><path class="cls-1" d="M28.43,56.99v-3.57h.45l.16,.54c.1-.17,.24-.31,.42-.42,.18-.12,.42-.17,.73-.17,.43,0,.74,.13,.91,.38,.18,.25,.27,.58,.27,.99v2.26h-.6v-2.08c0-.18-.02-.35-.05-.51-.03-.16-.11-.28-.22-.38-.11-.1-.28-.14-.51-.14-.29,0-.52,.1-.69,.3-.17,.2-.25,.49-.25,.87v1.94h-.6Z"/><path class="cls-1" d="M35.86,57.07c-.21,0-.41-.04-.61-.11-.2-.07-.39-.18-.55-.33-.17-.15-.3-.34-.4-.58-.1-.23-.15-.51-.15-.83s.05-.6,.15-.83c.1-.24,.23-.43,.4-.58,.17-.15,.35-.26,.55-.33s.41-.11,.61-.11,.41,.04,.62,.11,.39,.18,.55,.33c.17,.15,.3,.34,.4,.58,.1,.23,.15,.51,.15,.83s-.05,.6-.15,.83c-.1,.24-.23,.43-.4,.58-.17,.15-.35,.26-.55,.33-.2,.07-.41,.11-.62,.11Zm0-.53c.17,0,.34-.05,.5-.14,.16-.09,.3-.24,.4-.43,.11-.19,.16-.45,.16-.75s-.05-.56-.16-.75c-.11-.19-.24-.34-.4-.43-.16-.09-.33-.14-.5-.14s-.33,.05-.5,.14c-.17,.09-.3,.24-.41,.43-.11,.19-.16,.45-.16,.75s.05,.56,.16,.75c.11,.19,.24,.34,.41,.43,.17,.09,.33,.14,.5,.14Z"/><path class="cls-1" d="M38.55,56.99v-3.09h-.6v-.48h.6v-.53c0-.24,.02-.44,.07-.58,.05-.14,.14-.25,.28-.31s.34-.09,.6-.09h.39v.51h-.37c-.15,0-.25,.03-.3,.09-.05,.06-.07,.18-.07,.37v.54h.74v.48h-.74v3.09h-.6Z"/><path class="cls-1" d="M40.79,56.99v-3.09h-.6v-.48h.6v-.53c0-.24,.02-.44,.07-.58,.05-.14,.14-.25,.28-.31s.34-.09,.6-.09h.39v.51h-.37c-.15,0-.25,.03-.3,.09s-.07,.18-.07,.37v.54h.74v.48h-.74v3.09h-.6Z"/><path class="cls-1" d="M43.14,56.99v-3.09h-.5v-.48h1.1v3.57h-.6Zm.3-4.25c-.12,0-.22-.04-.31-.13s-.13-.2-.13-.32,.04-.23,.13-.32,.19-.13,.31-.13,.23,.04,.32,.13,.13,.19,.13,.32-.04,.23-.13,.32-.2,.13-.32,.13Z"/><path class="cls-1" d="M46.25,57.07c-.34,0-.64-.08-.88-.24-.25-.16-.44-.38-.58-.66-.13-.28-.2-.6-.2-.96s.07-.67,.21-.95c.14-.28,.34-.5,.6-.66,.26-.16,.56-.24,.91-.24,.32,0,.6,.08,.83,.24s.4,.35,.52,.57l-.55,.2c-.08-.14-.19-.26-.34-.35-.15-.09-.31-.13-.5-.13s-.35,.05-.5,.14c-.16,.09-.29,.24-.38,.43s-.14,.44-.14,.75,.05,.55,.15,.74c.1,.2,.23,.35,.38,.44,.16,.1,.32,.14,.5,.14,.2,0,.37-.04,.51-.13,.15-.09,.26-.2,.33-.33l.55,.2c-.13,.23-.33,.42-.58,.57-.25,.15-.53,.23-.85,.23Z"/><path class="cls-1" d="M48.74,56.99v-3.09h-.5v-.48h1.1v3.57h-.6Zm.3-4.25c-.12,0-.22-.04-.31-.13s-.13-.2-.13-.32,.04-.23,.13-.32,.19-.13,.31-.13,.23,.04,.32,.13,.13,.19,.13,.32-.04,.23-.13,.32-.2,.13-.32,.13Z"/><path class="cls-1" d="M51.42,57.07c-.23,0-.43-.04-.62-.12-.19-.08-.34-.2-.45-.35-.11-.15-.17-.34-.17-.55,0-.28,.1-.51,.3-.67s.48-.29,.84-.38,.79-.16,1.27-.21c0-.3-.05-.53-.18-.7-.13-.16-.34-.24-.63-.24-.22,0-.39,.05-.53,.15-.14,.1-.22,.23-.26,.41l-.58-.17c.1-.27,.27-.49,.51-.64,.25-.15,.53-.23,.85-.23,.49,0,.86,.12,1.08,.35,.23,.23,.34,.6,.34,1.1v.83c0,.3,.01,.55,.04,.77,.02,.22,.05,.41,.09,.58h-.55l-.14-.49c-.11,.18-.26,.32-.45,.42s-.45,.15-.76,.15Zm.13-.48c.19,0,.36-.03,.53-.1,.17-.07,.3-.18,.41-.34,.11-.16,.16-.38,.16-.66v-.22c-.36,.04-.68,.08-.95,.14-.27,.06-.48,.13-.62,.23-.15,.1-.22,.23-.22,.39s.06,.3,.18,.41c.12,.1,.29,.15,.51,.15Z"/><path class="cls-1" d="M55.05,56.99c-.23,0-.4-.02-.52-.07s-.21-.13-.25-.26-.07-.32-.07-.56v-3.91h.6v3.81c0,.18,.02,.3,.06,.37s.14,.09,.31,.09h.14v.53h-.27Z"/><path class="cls-1" d="M59.24,57.07c-.27,0-.52-.07-.76-.22-.24-.15-.42-.36-.57-.63s-.21-.61-.21-1,.07-.73,.21-1,.33-.49,.57-.63c.23-.15,.49-.22,.76-.22,.28,0,.52,.06,.71,.17s.34,.26,.45,.45v-1.8h.6v3.46c0,.12,0,.3,.01,.53,0,.23,.05,.5,.11,.82h-.57l-.16-.54c-.11,.19-.25,.34-.45,.46-.19,.11-.43,.17-.71,.17Zm.16-.52c.31,0,.55-.12,.74-.35,.18-.24,.28-.56,.28-.99s-.09-.76-.28-.99-.43-.35-.74-.35-.55,.12-.74,.35-.28,.56-.28,.99,.09,.75,.28,.99c.18,.23,.43,.35,.74,.35Z"/><path class="cls-1" d="M63.48,57.07c-.21,0-.41-.04-.61-.11-.2-.07-.39-.18-.55-.33-.17-.15-.3-.34-.4-.58-.1-.23-.15-.51-.15-.83s.05-.6,.15-.83c.1-.24,.23-.43,.4-.58,.17-.15,.35-.26,.55-.33s.41-.11,.61-.11,.41,.04,.62,.11,.39,.18,.55,.33c.17,.15,.3,.34,.4,.58,.1,.23,.15,.51,.15,.83s-.05,.6-.15,.83c-.1,.24-.23,.43-.4,.58-.17,.15-.35,.26-.55,.33-.2,.07-.41,.11-.62,.11Zm0-.53c.17,0,.34-.05,.5-.14,.16-.09,.3-.24,.4-.43,.11-.19,.16-.45,.16-.75s-.05-.56-.16-.75c-.11-.19-.24-.34-.4-.43-.16-.09-.33-.14-.5-.14s-.33,.05-.5,.14c-.17,.09-.3,.24-.41,.43-.11,.19-.16,.45-.16,.75s.05,.56,.16,.75c.11,.19,.24,.34,.41,.43,.17,.09,.33,.14,.5,.14Z"/><path class="cls-1" d="M67.41,57.07c-.34,0-.64-.08-.88-.24-.25-.16-.44-.38-.58-.66s-.2-.6-.2-.96,.07-.67,.21-.95c.14-.28,.34-.5,.6-.66,.26-.16,.56-.24,.91-.24,.32,0,.6,.08,.83,.24s.4,.35,.52,.57l-.55,.2c-.08-.14-.19-.26-.34-.35-.15-.09-.31-.13-.5-.13s-.35,.05-.5,.14c-.16,.09-.29,.24-.38,.43-.1,.19-.14,.44-.14,.75s.05,.55,.15,.74,.23,.35,.38,.44c.16,.1,.32,.14,.5,.14,.2,0,.37-.04,.51-.13,.15-.09,.26-.2,.33-.33l.55,.2c-.13,.23-.33,.42-.58,.57-.25,.15-.53,.23-.85,.23Z"/><path class="cls-1" d="M70.7,57.07c-.28,0-.5-.06-.67-.18-.17-.12-.29-.28-.36-.49-.07-.21-.11-.45-.11-.72v-2.28h.6v2.14c0,.26,.03,.47,.09,.61s.15,.24,.26,.3c.11,.06,.24,.08,.39,.08,.28,0,.5-.1,.67-.3,.16-.2,.24-.49,.24-.87v-1.96h.6v3.58h-.45l-.15-.52c-.1,.17-.24,.32-.41,.43-.17,.12-.41,.17-.71,.17Z"/><path class="cls-1" d="M73.43,56.99v-3.57h.45l.16,.54c.1-.17,.24-.31,.41-.42,.18-.12,.4-.17,.66-.17s.49,.06,.66,.17,.29,.26,.37,.46c.14-.22,.32-.38,.52-.48s.43-.15,.68-.15c.41,0,.71,.13,.89,.38,.18,.25,.27,.58,.27,.99v2.26h-.6v-2.08c0-.18-.02-.35-.05-.51-.04-.16-.11-.28-.22-.38-.11-.1-.27-.14-.49-.14-.26,0-.47,.1-.62,.3-.16,.2-.23,.49-.23,.87v1.94h-.6v-2.08c0-.18-.02-.35-.05-.51-.04-.16-.11-.28-.22-.38-.11-.1-.27-.14-.49-.14-.26,0-.47,.1-.63,.3-.16,.2-.24,.49-.24,.87v1.94h-.6Z"/><path class="cls-1" d="M80.92,57.07c-.37,0-.69-.08-.95-.25s-.46-.39-.59-.67-.21-.6-.21-.95c0-.38,.08-.71,.23-.98,.15-.28,.36-.49,.62-.64,.26-.15,.55-.23,.88-.23,.28,0,.53,.06,.75,.17s.39,.26,.54,.45,.24,.4,.31,.64c.06,.24,.09,.49,.07,.74h-2.75c0,.3,.08,.53,.2,.71s.27,.29,.44,.36c.17,.07,.32,.1,.47,.1,.2,0,.37-.03,.51-.1,.14-.06,.25-.15,.33-.26l.58,.17c-.13,.21-.31,.38-.55,.51s-.53,.2-.86,.2Zm-1.09-2.19h2.1c0-.17-.04-.33-.13-.48s-.2-.28-.35-.38c-.15-.1-.33-.15-.54-.15-.18,0-.35,.03-.5,.1-.16,.07-.29,.18-.39,.32-.1,.15-.16,.34-.18,.58Z"/><path class="cls-1" d="M83.28,56.99v-3.57h.45l.16,.54c.1-.17,.24-.31,.42-.42,.18-.12,.42-.17,.73-.17,.43,0,.74,.13,.91,.38,.18,.25,.27,.58,.27,.99v2.26h-.6v-2.08c0-.18-.02-.35-.05-.51-.03-.16-.11-.28-.22-.38-.11-.1-.28-.14-.51-.14-.29,0-.52,.1-.69,.3-.17,.2-.25,.49-.25,.87v1.94h-.6Z"/><path class="cls-1" d="M88.2,56.99c-.23,0-.4-.02-.52-.07s-.21-.13-.25-.26c-.05-.13-.07-.32-.07-.56v-2.19h-.6v-.48h.6v-.9h.6v.9h.69v.48h-.69v2.09c0,.18,.02,.3,.05,.37s.14,.09,.31,.09h.32v.53h-.45Z"/><path class="cls-1" d="M92.46,57.07c-.23,0-.43-.04-.62-.12s-.34-.2-.45-.35c-.11-.15-.17-.34-.17-.55,0-.28,.1-.51,.3-.67s.48-.29,.84-.38,.79-.16,1.27-.21c0-.3-.05-.53-.18-.7-.13-.16-.34-.24-.63-.24-.22,0-.39,.05-.53,.15-.14,.1-.22,.23-.26,.41l-.58-.17c.1-.27,.27-.49,.51-.64,.25-.15,.53-.23,.85-.23,.49,0,.86,.12,1.08,.35,.23,.23,.34,.6,.34,1.1v.83c0,.3,.01,.55,.04,.77,.02,.22,.05,.41,.09,.58h-.55l-.14-.49c-.11,.18-.26,.32-.45,.42-.2,.1-.45,.15-.76,.15Zm.13-.48c.19,0,.36-.03,.53-.1,.17-.07,.3-.18,.41-.34s.16-.38,.16-.66v-.22c-.36,.04-.68,.08-.95,.14s-.48,.13-.62,.23c-.15,.1-.22,.23-.22,.39s.06,.3,.18,.41c.12,.1,.29,.15,.51,.15Z"/><path class="cls-1" d="M96.33,56.99c-.23,0-.4-.02-.52-.07-.12-.05-.21-.13-.25-.26s-.07-.32-.07-.56v-2.19h-.6v-.48h.6v-.9h.6v.9h.69v.48h-.69v2.09c0,.18,.02,.3,.05,.37,.04,.06,.14,.09,.31,.09h.32v.53h-.45Z"/><path class="cls-1" d="M98.67,56.99c-.23,0-.4-.02-.52-.07-.12-.05-.21-.13-.25-.26-.05-.13-.07-.32-.07-.56v-2.19h-.6v-.48h.6v-.9h.6v.9h.69v.48h-.69v2.09c0,.18,.02,.3,.05,.37s.14,.09,.31,.09h.32v.53h-.45Z"/><path class="cls-1" d="M101.43,57.07c-.37,0-.69-.08-.95-.25s-.46-.39-.59-.67-.21-.6-.21-.95c0-.38,.08-.71,.23-.98,.15-.28,.36-.49,.62-.64,.26-.15,.56-.23,.88-.23,.28,0,.53,.06,.75,.17,.22,.11,.39,.26,.54,.45,.14,.19,.24,.4,.31,.64,.06,.24,.09,.49,.07,.74h-2.75c0,.3,.08,.53,.2,.71s.27,.29,.44,.36c.17,.07,.32,.1,.47,.1,.2,0,.37-.03,.51-.1,.14-.06,.25-.15,.33-.26l.58,.17c-.13,.21-.31,.38-.55,.51s-.53,.2-.86,.2Zm-1.09-2.19h2.1c0-.17-.04-.33-.13-.48s-.2-.28-.35-.38c-.15-.1-.33-.15-.54-.15-.18,0-.35,.03-.5,.1-.16,.07-.29,.18-.39,.32-.1,.15-.16,.34-.18,.58Z"/><path class="cls-1" d="M105.01,57.07c-.21,0-.41-.03-.61-.1-.2-.06-.38-.16-.53-.29-.16-.13-.27-.3-.36-.5l.58-.22c.05,.21,.17,.36,.35,.46,.18,.09,.37,.14,.56,.14,.14,0,.28-.02,.41-.06,.13-.04,.23-.11,.31-.19,.08-.08,.12-.18,.12-.28,0-.2-.08-.34-.23-.42-.16-.08-.34-.14-.56-.19l-.5-.1c-.17-.04-.33-.09-.48-.16-.15-.07-.27-.17-.36-.3-.09-.13-.14-.3-.14-.52s.07-.4,.2-.54c.13-.15,.31-.26,.51-.33,.21-.08,.43-.12,.66-.12,.28,0,.55,.06,.8,.18,.25,.12,.43,.3,.54,.55l-.57,.21c-.06-.14-.17-.25-.33-.32-.16-.07-.32-.1-.49-.1-.18,0-.35,.04-.5,.12s-.22,.2-.22,.35,.06,.27,.19,.33c.13,.07,.28,.12,.47,.16l.47,.09c.19,.04,.37,.09,.55,.17,.17,.07,.31,.18,.42,.32s.17,.34,.17,.59c0,.23-.07,.42-.21,.58-.14,.16-.32,.28-.54,.36-.22,.08-.46,.13-.71,.13Z"/><path class="cls-1" d="M108.27,56.99c-.23,0-.4-.02-.52-.07s-.21-.13-.25-.26c-.05-.13-.07-.32-.07-.56v-2.19h-.6v-.48h.6v-.9h.6v.9h.69v.48h-.69v2.09c0,.18,.02,.3,.05,.37,.04,.06,.14,.09,.31,.09h.32v.53h-.45Z"/><path class="cls-1" d="M109.83,56.99v-3.09h-.5v-.48h1.1v3.57h-.6Zm.3-4.25c-.12,0-.22-.04-.31-.13s-.13-.2-.13-.32,.04-.23,.13-.32,.19-.13,.31-.13,.23,.04,.32,.13,.13,.19,.13,.32-.04,.23-.13,.32-.2,.13-.32,.13Z"/><path class="cls-1" d="M111.51,56.99v-3.57h.45l.16,.54c.1-.17,.24-.31,.42-.42,.18-.12,.42-.17,.73-.17,.43,0,.74,.13,.91,.38,.18,.25,.27,.58,.27,.99v2.26h-.6v-2.08c0-.18-.02-.35-.05-.51-.03-.16-.11-.28-.22-.38-.11-.1-.28-.14-.51-.14-.29,0-.52,.1-.69,.3-.17,.2-.25,.49-.25,.87v1.94h-.6Z"/><path class="cls-1" d="M116.81,58.37c-.19,0-.38-.03-.57-.08s-.36-.15-.5-.27c-.15-.12-.25-.29-.31-.48l.6-.17c.07,.19,.18,.31,.33,.37,.15,.06,.3,.09,.45,.09,.37,0,.62-.09,.75-.27,.13-.18,.2-.44,.2-.78v-.47c-.11,.19-.26,.34-.44,.45-.18,.11-.42,.17-.7,.17-.26,0-.51-.07-.74-.21s-.42-.34-.56-.6c-.14-.27-.21-.59-.21-.97s.07-.71,.21-.97c.14-.26,.33-.47,.56-.6s.48-.21,.74-.21c.28,0,.52,.06,.7,.17,.18,.11,.33,.26,.44,.45l.17-.56h.44v3.23c0,.57-.11,.99-.34,1.28s-.63,.44-1.21,.44Zm-.04-1.95c.18,0,.35-.04,.5-.13,.15-.09,.27-.22,.37-.41,.09-.19,.14-.43,.14-.73s-.05-.55-.14-.73c-.09-.19-.22-.32-.37-.41s-.32-.13-.5-.13c-.29,0-.53,.11-.72,.33s-.28,.53-.28,.94,.09,.72,.28,.94,.43,.33,.72,.33Z"/><path class="cls-1" d="M122.39,57.07c-.23,0-.43-.04-.62-.12-.19-.08-.34-.2-.45-.35-.11-.15-.17-.34-.17-.55,0-.28,.1-.51,.3-.67,.2-.16,.48-.29,.84-.38s.79-.16,1.27-.21c0-.3-.05-.53-.18-.7-.13-.16-.34-.24-.63-.24-.22,0-.39,.05-.53,.15-.14,.1-.22,.23-.26,.41l-.58-.17c.1-.27,.27-.49,.51-.64,.25-.15,.53-.23,.85-.23,.49,0,.85,.12,1.08,.35,.23,.23,.34,.6,.34,1.1v.83c0,.3,.01,.55,.04,.77s.05,.41,.09,.58h-.55l-.14-.49c-.11,.18-.26,.32-.45,.42-.2,.1-.45,.15-.76,.15Zm.13-.48c.19,0,.36-.03,.53-.1,.17-.07,.3-.18,.41-.34,.11-.16,.16-.38,.16-.66v-.22c-.36,.04-.68,.08-.95,.14s-.48,.13-.62,.23c-.15,.1-.22,.23-.22,.39s.06,.3,.18,.41c.12,.1,.29,.15,.51,.15Z"/><path class="cls-1" d="M23.21,63.67c-.34,0-.64-.08-.89-.24-.25-.16-.44-.38-.58-.66s-.2-.6-.2-.96,.07-.67,.21-.95c.14-.28,.34-.5,.6-.66,.26-.16,.56-.24,.91-.24,.32,0,.6,.08,.83,.24,.23,.16,.4,.35,.52,.57l-.55,.2c-.08-.14-.19-.26-.34-.35s-.31-.13-.5-.13-.35,.05-.5,.14c-.16,.09-.29,.24-.38,.43-.1,.19-.14,.44-.14,.75s.05,.55,.15,.74c.1,.2,.23,.35,.38,.44,.16,.1,.32,.14,.5,.14,.2,0,.37-.04,.51-.13,.15-.09,.26-.2,.33-.33l.55,.2c-.13,.23-.33,.42-.58,.57-.25,.15-.53,.23-.85,.23Z"/><path class="cls-1" d="M26.9,63.67c-.37,0-.69-.08-.95-.25-.26-.17-.46-.39-.59-.67s-.21-.6-.21-.95c0-.38,.08-.71,.23-.98s.36-.49,.62-.64c.26-.15,.56-.23,.88-.23,.28,0,.53,.06,.75,.17s.39,.26,.54,.45,.25,.4,.31,.64,.09,.49,.07,.74h-2.75c0,.3,.08,.53,.2,.71,.12,.17,.27,.29,.44,.36,.17,.07,.32,.1,.47,.1,.2,0,.37-.03,.51-.1,.14-.06,.25-.15,.33-.26l.58,.17c-.13,.21-.31,.38-.55,.51-.24,.13-.53,.2-.86,.2Zm-1.09-2.19h2.1c0-.17-.04-.33-.13-.48s-.2-.28-.35-.38c-.15-.1-.33-.15-.54-.15-.18,0-.35,.03-.5,.1-.16,.07-.29,.18-.39,.32-.1,.15-.16,.34-.18,.58Z"/><path class="cls-1" d="M29.26,63.58v-3.57h.44l.19,.66c.12-.22,.29-.39,.51-.52s.47-.2,.77-.2v.63h-.1s-.07,0-.1,0c-.41,.03-.69,.18-.85,.42-.16,.25-.24,.6-.24,1.04v1.53h-.6Z"/><path class="cls-1" d="M32.91,63.58c-.23,0-.4-.02-.52-.07-.12-.05-.21-.13-.25-.26s-.07-.32-.07-.56v-2.19h-.6v-.48h.6v-.9h.6v.9h.69v.48h-.69v2.09c0,.18,.02,.3,.05,.37,.04,.06,.14,.09,.31,.09h.32v.53h-.45Z"/><path class="cls-1" d="M35.15,63.67c-.23,0-.43-.04-.62-.12-.19-.08-.34-.2-.45-.35-.11-.15-.17-.34-.17-.55,0-.28,.1-.51,.3-.67,.2-.16,.48-.29,.84-.38s.79-.16,1.27-.21c0-.3-.05-.53-.18-.7-.13-.16-.34-.24-.63-.24-.22,0-.39,.05-.53,.15-.14,.1-.22,.23-.26,.41l-.58-.17c.1-.27,.27-.49,.51-.64,.25-.15,.53-.23,.85-.23,.49,0,.85,.12,1.08,.35,.23,.23,.34,.6,.34,1.1v.83c0,.3,.01,.55,.04,.77s.05,.41,.09,.58h-.55l-.14-.49c-.11,.18-.26,.32-.45,.42-.2,.1-.45,.15-.76,.15Zm.13-.48c.19,0,.36-.03,.53-.1,.17-.07,.3-.18,.41-.34,.11-.16,.16-.38,.16-.66v-.22c-.36,.04-.68,.08-.95,.14s-.48,.13-.62,.23c-.15,.1-.22,.23-.22,.39s.06,.3,.18,.41c.12,.1,.29,.15,.51,.15Z"/><path class="cls-1" d="M38.25,63.58v-3.09h-.5v-.48h1.1v3.57h-.6Zm.3-4.25c-.12,0-.22-.04-.31-.13s-.13-.2-.13-.32,.04-.23,.13-.32,.19-.13,.31-.13,.23,.04,.32,.13,.13,.19,.13,.32-.04,.23-.13,.32-.2,.13-.32,.13Z"/><path class="cls-1" d="M39.94,63.58v-3.57h.45l.16,.54c.1-.17,.24-.31,.42-.42,.18-.12,.42-.17,.73-.17,.43,0,.74,.13,.91,.38,.18,.25,.27,.58,.27,.99v2.26h-.6v-2.08c0-.18-.02-.35-.05-.51-.03-.16-.11-.28-.22-.38-.11-.1-.28-.14-.51-.14-.29,0-.52,.1-.69,.3-.17,.2-.25,.49-.25,.87v1.94h-.6Z"/><path class="cls-1" d="M46.09,63.58v-3.09h-.6v-.48h.6v-.53c0-.24,.02-.44,.07-.58,.05-.14,.14-.25,.28-.31,.14-.06,.34-.09,.6-.09h.39v.51h-.37c-.15,0-.25,.03-.3,.09s-.07,.18-.07,.37v.54h.74v.48h-.74v3.09h-.6Z"/><path class="cls-1" d="M48.9,63.67c-.23,0-.43-.04-.62-.12-.19-.08-.34-.2-.45-.35-.11-.15-.17-.34-.17-.55,0-.28,.1-.51,.3-.67,.2-.16,.48-.29,.84-.38s.79-.16,1.27-.21c0-.3-.05-.53-.18-.7-.13-.16-.34-.24-.63-.24-.22,0-.39,.05-.53,.15-.14,.1-.22,.23-.26,.41l-.58-.17c.1-.27,.27-.49,.51-.64,.25-.15,.53-.23,.85-.23,.49,0,.85,.12,1.08,.35,.23,.23,.34,.6,.34,1.1v.83c0,.3,.01,.55,.04,.77s.05,.41,.09,.58h-.55l-.14-.49c-.11,.18-.26,.32-.45,.42-.2,.1-.45,.15-.76,.15Zm.13-.48c.19,0,.36-.03,.53-.1,.17-.07,.3-.18,.41-.34,.11-.16,.16-.38,.16-.66v-.22c-.36,.04-.68,.08-.95,.14s-.48,.13-.62,.23c-.15,.1-.22,.23-.22,.39s.06,.3,.18,.41c.12,.1,.29,.15,.51,.15Z"/><path class="cls-1" d="M53.11,63.67c-.34,0-.64-.08-.89-.24s-.44-.38-.58-.66c-.13-.28-.2-.6-.2-.96s.07-.67,.21-.95c.14-.28,.34-.5,.6-.66,.26-.16,.56-.24,.91-.24,.32,0,.6,.08,.83,.24,.23,.16,.4,.35,.52,.57l-.55,.2c-.08-.14-.19-.26-.34-.35-.15-.09-.31-.13-.5-.13s-.35,.05-.5,.14c-.16,.09-.29,.24-.38,.43s-.14,.44-.14,.75,.05,.55,.15,.74c.1,.2,.23,.35,.38,.44,.16,.1,.32,.14,.5,.14,.2,0,.37-.04,.51-.13,.15-.09,.26-.2,.33-.33l.55,.2c-.13,.23-.33,.42-.58,.57-.25,.15-.53,.23-.85,.23Z"/><path class="cls-1" d="M56.37,63.58c-.23,0-.4-.02-.52-.07-.12-.05-.21-.13-.25-.26s-.07-.32-.07-.56v-2.19h-.6v-.48h.6v-.9h.6v.9h.69v.48h-.69v2.09c0,.18,.02,.3,.05,.37,.04,.06,.14,.09,.31,.09h.32v.53h-.45Z"/><path class="cls-1" d="M57.54,60.5l.34-.89c-.11-.02-.2-.07-.28-.15-.07-.08-.11-.18-.11-.3,0-.13,.05-.24,.14-.33s.2-.14,.32-.14,.24,.05,.33,.14c.09,.09,.14,.2,.14,.32,0,.06-.01,.12-.04,.18l-.45,1.17h-.4Zm1.17,0l.34-.89c-.11-.02-.2-.07-.28-.15-.07-.08-.11-.18-.11-.3,0-.13,.05-.24,.14-.33,.09-.09,.2-.14,.33-.14s.24,.05,.33,.14,.13,.2,.13,.32c0,.06-.01,.12-.04,.18l-.44,1.17h-.4Z"/></g><g><path class="cls-1" d="M28.82,36.38c-1.42,0-2.64-.29-3.66-.86-1.02-.57-1.81-1.39-2.35-2.45s-.82-2.32-.82-3.76,.28-2.7,.85-3.75c.57-1.06,1.37-1.87,2.4-2.45s2.26-.87,3.66-.87c1.29,0,2.42,.29,3.38,.86s1.7,1.34,2.22,2.31l-2.86,1.04c-.3-.56-.71-.96-1.23-1.2-.52-.24-1.06-.36-1.62-.36-.63,0-1.2,.17-1.72,.52-.52,.35-.93,.85-1.23,1.51-.3,.66-.45,1.46-.45,2.38,0,1.43,.33,2.53,.99,3.28,.66,.76,1.48,1.14,2.44,1.14,.52,0,1.05-.11,1.61-.33,.55-.22,.99-.62,1.3-1.21l2.84,1.04c-.55,.97-1.32,1.73-2.32,2.3-1,.57-2.15,.85-3.45,.85Z"/><path class="cls-1" d="M40.75,36.38c-1.09,0-2.06-.21-2.89-.64-.84-.43-1.49-1.05-1.96-1.85-.47-.8-.71-1.77-.71-2.88s.25-2.01,.75-2.8c.5-.79,1.16-1.4,1.98-1.84,.82-.44,1.73-.65,2.71-.65,1.12,0,2.08,.26,2.87,.79,.8,.53,1.4,1.25,1.81,2.17,.41,.92,.58,1.98,.51,3.18h-7.5c.05,.71,.32,1.24,.79,1.59,.47,.35,.99,.53,1.56,.53,.48,0,.89-.07,1.24-.21,.35-.14,.62-.32,.81-.54l2.47,.9c-.53,.78-1.2,1.35-1.99,1.72-.8,.37-1.61,.55-2.44,.55Zm-2.43-6.38h4.62c-.01-.65-.24-1.15-.67-1.48-.44-.33-.95-.5-1.55-.5s-1.11,.16-1.56,.47c-.46,.31-.73,.82-.83,1.51Z"/><path class="cls-1" d="M47.29,36.13v-10.14h2.45l.55,1.86c.31-.82,.74-1.39,1.29-1.72,.54-.33,1.21-.47,1.98-.43v3.11c-.16-.03-.31-.04-.43-.05-.12,0-.26-.01-.41-.01-.75,0-1.33,.18-1.73,.53-.4,.35-.6,.93-.6,1.74v5.11h-3.11Z"/><path class="cls-1" d="M59.5,36.13c-.83,0-1.49-.07-1.98-.21s-.84-.42-1.05-.84c-.21-.42-.32-1.02-.32-1.81v-4.91h-1.68v-2.37h1.68v-2.54h3.11v2.54h2.21v2.37h-2.21v4.09c0,.48,.09,.79,.28,.93,.18,.14,.53,.21,1.03,.21h.9v2.54h-1.96Z"/><path class="cls-1" d="M64.36,36.13v-7.77h-1.92v-2.37h5.05v10.14h-3.13Zm1.57-11.82c-.5,0-.94-.18-1.3-.54s-.54-.79-.54-1.3,.18-.95,.54-1.31,.79-.53,1.3-.53,.95,.18,1.31,.53,.53,.79,.53,1.31-.18,.94-.53,1.3-.79,.54-1.31,.54Z"/><path class="cls-1" d="M70.17,36.13v-7.77h-1.68v-2.37h1.68v-1.66c0-.8,.14-1.43,.41-1.88,.27-.45,.7-.76,1.27-.94,.57-.18,1.32-.27,2.23-.27h1.41v2.45h-.86c-.55,0-.91,.05-1.08,.16-.18,.11-.27,.36-.27,.76v1.37h2.21v2.37h-2.21v7.77h-3.11Z"/><path class="cls-1" d="M78.31,36.13v-7.77h-1.92v-2.37h5.05v10.14h-3.13Zm1.57-11.82c-.5,0-.94-.18-1.3-.54-.36-.36-.54-.79-.54-1.3s.18-.95,.54-1.31c.36-.35,.79-.53,1.3-.53s.95,.18,1.31,.53c.35,.35,.53,.79,.53,1.31s-.18,.94-.53,1.3c-.35,.36-.79,.54-1.31,.54Z"/><path class="cls-1" d="M88.03,36.38c-1.12,0-2.06-.23-2.83-.68-.77-.45-1.36-1.08-1.76-1.89-.4-.81-.6-1.75-.6-2.81s.22-1.99,.65-2.79c.44-.8,1.05-1.41,1.83-1.85,.78-.44,1.69-.65,2.71-.65,.59,0,1.17,.08,1.75,.25,.58,.16,1.12,.44,1.62,.83,.5,.39,.9,.92,1.22,1.58l-2.6,.94c-.16-.44-.41-.74-.73-.92-.32-.18-.68-.27-1.07-.27-.37,0-.72,.09-1.06,.28-.34,.18-.62,.49-.83,.91-.21,.42-.32,1-.32,1.72s.11,1.32,.33,1.75c.22,.43,.49,.74,.83,.92s.69,.28,1.05,.28c.44,0,.8-.08,1.1-.26s.54-.41,.72-.71l2.54,.92c-.34,.61-.76,1.1-1.27,1.46-.5,.36-1.04,.62-1.6,.77-.57,.15-1.12,.23-1.67,.23Z"/><path class="cls-1" d="M96.96,36.38c-.64,0-1.23-.12-1.76-.37-.53-.25-.95-.59-1.27-1.03-.31-.44-.47-.97-.47-1.58,0-.83,.29-1.49,.87-1.98,.58-.49,1.37-.86,2.38-1.1,1.01-.25,2.17-.42,3.48-.51,0-.72-.12-1.23-.35-1.53-.23-.3-.68-.45-1.35-.45-.42,0-.79,.1-1.12,.3-.32,.2-.54,.5-.64,.91l-2.62-.94c.34-.68,.91-1.25,1.71-1.7,.8-.45,1.78-.67,2.93-.67,1.44,0,2.56,.32,3.33,.96,.78,.64,1.17,1.73,1.17,3.27v2.23c0,.44,.01,.91,.04,1.41s.07,.98,.12,1.43c.05,.45,.12,.83,.18,1.12h-2.88l-.37-1.23c-.38,.53-.86,.91-1.44,1.14-.58,.22-1.23,.34-1.95,.34Zm1.15-2.13c.61,0,1.12-.16,1.53-.49,.41-.33,.61-.95,.61-1.88v-.25c-1.08,.1-1.94,.24-2.6,.44-.65,.2-.98,.56-.98,1.09,0,.33,.14,.59,.41,.79,.27,.2,.61,.3,1.02,.3Z"/><path class="cls-1" d="M109.58,36.13c-.83,0-1.49-.07-1.98-.21s-.84-.42-1.05-.84c-.21-.42-.32-1.02-.32-1.81v-4.91h-1.68v-2.37h1.68v-2.54h3.11v2.54h2.21v2.37h-2.21v4.09c0,.48,.09,.79,.28,.93,.18,.14,.53,.21,1.03,.21h.9v2.54h-1.96Z"/><path class="cls-1" d="M118.09,36.38c-1.09,0-2.06-.21-2.89-.64-.84-.43-1.49-1.05-1.96-1.85-.47-.8-.71-1.77-.71-2.88s.25-2.01,.75-2.8c.5-.79,1.16-1.4,1.98-1.84,.82-.44,1.73-.65,2.71-.65,1.12,0,2.08,.26,2.87,.79,.8,.53,1.4,1.25,1.81,2.17,.41,.92,.58,1.98,.51,3.18h-7.51c.05,.71,.32,1.24,.79,1.59,.47,.35,.99,.53,1.56,.53,.48,0,.89-.07,1.24-.21,.35-.14,.62-.32,.81-.54l2.47,.9c-.53,.78-1.2,1.35-1.99,1.72-.8,.37-1.61,.55-2.44,.55Zm-2.43-6.38h4.62c-.01-.65-.24-1.15-.67-1.48s-.95-.5-1.55-.5-1.11,.16-1.56,.47c-.46,.31-.73,.82-.83,1.51Z"/></g><g><path class="cls-1" d="M21.94,45.33l.89-4.2h.54l.05,.58c.14-.18,.33-.33,.55-.46,.23-.13,.53-.19,.91-.19,.35,0,.63,.1,.83,.29,.2,.19,.3,.49,.3,.89,0,.19-.03,.41-.08,.66l-.52,2.43h-.72l.5-2.36c.05-.25,.08-.45,.08-.61,0-.25-.06-.42-.17-.52s-.29-.15-.53-.15c-.2,0-.4,.05-.59,.14-.19,.09-.36,.24-.51,.46s-.26,.5-.34,.87l-.46,2.17h-.73Z"/><path class="cls-1" d="M28.47,45.43c-.56,0-.99-.17-1.28-.5-.29-.33-.44-.76-.44-1.29,0-.49,.1-.93,.3-1.32s.47-.7,.82-.92c.35-.23,.76-.34,1.21-.34,.29,0,.56,.06,.82,.19,.26,.12,.47,.31,.63,.57,.16,.26,.24,.59,.24,.99,0,.35-.06,.69-.17,1.01-.11,.32-.27,.6-.47,.84-.2,.24-.45,.43-.73,.57-.28,.14-.59,.21-.93,.21Zm.06-.63c.33,0,.6-.1,.82-.3s.39-.45,.5-.76c.11-.31,.17-.63,.17-.97,0-.41-.1-.7-.3-.85s-.45-.24-.74-.24c-.33,0-.61,.1-.83,.29s-.38,.44-.49,.74c-.11,.3-.16,.61-.16,.94,0,.34,.09,.62,.26,.83s.43,.32,.77,.32Z"/><path class="cls-1" d="M32.62,45.43c-.41,0-.7-.11-.87-.34-.17-.23-.25-.5-.25-.84,0-.2,.03-.41,.08-.63l.52-2.48h.73l-.52,2.46c-.02,.1-.04,.2-.05,.3-.01,.1-.02,.19-.02,.27,0,.19,.05,.34,.14,.46,.09,.12,.26,.18,.51,.18,.33,0,.63-.11,.88-.34,.25-.23,.44-.6,.55-1.13l.47-2.2h.72l-.89,4.2h-.55l-.05-.59c-.18,.24-.38,.41-.59,.52s-.48,.17-.8,.17Z"/><path class="cls-1" d="M35.79,45.33l.89-4.2h.54l.05,.58c.14-.18,.33-.33,.55-.46,.23-.13,.53-.19,.91-.19,.35,0,.63,.1,.83,.29,.2,.19,.3,.49,.3,.89,0,.19-.03,.41-.08,.66l-.52,2.43h-.72l.5-2.36c.05-.25,.08-.45,.08-.61,0-.25-.06-.42-.17-.52s-.29-.15-.53-.15c-.2,0-.4,.05-.59,.14-.19,.09-.36,.24-.51,.46s-.26,.5-.34,.87l-.46,2.17h-.73Z"/></g></svg>