<?xml version="1.0" encoding="UTF-8"?><svg id="Layer_1" xmlns="http://www.w3.org/2000/svg" viewBox="0 0 167.92 48.42"><defs><style>.cls-1{fill:#ff8f15;}</style></defs><path class="cls-1" d="M0,0H161c3.82,0,6.93,3.1,6.93,6.93V41.49c0,3.82-3.1,6.93-6.93,6.93H0V0H0Z"/><g><path d="M14.65,12.68c0-1.55,.04-3.16,.07-4.03h-.02c-.28,1.38-1.18,5.1-1.79,7.58h-1.04c-.47-2.13-1.4-6.12-1.67-7.59h-.03c.03,.96,.09,2.84,.09,4.26v3.32h-.99V7.93h1.55c.65,2.53,1.44,5.73,1.59,6.77h.02c.17-1,1.07-4.38,1.72-6.77h1.53v8.3h-1.03v-3.55Z"/><path d="M21.29,11.68v2.69c0,1.37-.85,1.96-2.14,1.96s-2.1-.57-2.1-1.92v-2.74c0-1.18,.81-1.84,2.15-1.84s2.09,.69,2.09,1.85Zm-3.18-.01v2.77c0,.73,.33,1.19,1.06,1.19,.67,0,1.06-.34,1.06-1.19v-2.76c0-.65-.3-1.12-1.05-1.12s-1.06,.41-1.06,1.13Z"/><path d="M23.31,14.38v.27c0,.66,.37,.99,.98,.99,.68,0,.95-.32,.95-.94,0-.66-.26-.95-1.2-1.42-1.11-.56-1.63-1-1.63-1.86s.56-1.59,1.91-1.59c1.46,0,1.88,.72,1.88,1.62v.3h-1.03v-.34c0-.56-.21-.89-.87-.89-.59,0-.84,.31-.84,.83s.21,.75,1.07,1.19c1.18,.58,1.77,1.02,1.77,2.06,0,1.13-.66,1.74-2.06,1.74-1.58,0-2-.8-2-1.66v-.29h1.07Z"/><path d="M26.78,9.93h.98v-1.56h1.04v1.56h1.21v.7h-1.21v4.35c0,.33,.08,.66,.62,.66,.16,0,.42-.01,.54-.04v.62c-.24,.07-.6,.09-.88,.09-.76,0-1.32-.25-1.32-1.18v-4.49h-.98v-.7Z"/><path d="M34.12,13.48l-.56,2.75h-1.06l1.82-8.3h1.5l1.9,8.3h-1.1l-.6-2.75h-1.9Zm1.76-.73c-.42-1.93-.7-3.35-.8-4.1h-.04c-.04,.63-.45,2.52-.76,4.1h1.61Z"/><path d="M38.84,9.93c.25,1.02,1.06,4.25,1.23,5.39h.02c.12-1.02,1.04-4.29,1.28-5.39h1.06l-1.78,6.3h-1.21l-1.73-6.3h1.12Z"/><path d="M44.19,13.23v1.06c0,.66,.17,1.36,1.04,1.36,.83,0,.99-.5,.99-1.13v-.06h1.03v.05c0,.75-.24,1.83-2.02,1.83-1.66,0-2.07-.83-2.07-2.11v-2.41c0-.98,.46-1.97,2.1-1.97s2.02,.9,2.02,1.98v1.42h-3.09Zm2.06-.66v-.82c0-.59-.11-1.23-1.01-1.23s-1.05,.54-1.05,1.24v.81h2.06Z"/><path d="M48.54,12.08c0-1.01,0-1.61-.02-2.15h1c.02,.18,.04,.53,.04,.98,.3-.76,1.02-1.04,1.75-1.06v.98c-1.05,0-1.72,.52-1.72,1.62v3.78h-1.05v-4.15Z"/><path d="M55.82,15.19c0,.44,.01,.87,.03,1.04h-.98c-.04-.16-.08-.41-.08-.52-.27,.48-.8,.62-1.37,.62-1.2,0-1.67-.79-1.67-1.77v-.11c0-1.39,1.12-1.92,2.61-1.92h.41v-1.04c0-.59-.14-.97-.83-.97s-.88,.39-.88,.91v.18h-1.04v-.17c0-.87,.46-1.6,1.95-1.6s1.85,.69,1.85,1.6v3.76Zm-1.03-2.02h-.44c-.99,0-1.57,.32-1.57,1.26v.11c0,.59,.24,1.08,.92,1.08,.82,0,1.09-.5,1.09-1.47v-.97Z"/><path d="M61.4,16.15c0,1.25-.19,2.31-2.22,2.31-1.69,0-2.01-.87-2.01-1.55v-.03h1.06v.04c0,.35,.17,.86,1.01,.86,.91,0,1.11-.51,1.11-1.44v-.84c-.23,.45-.67,.68-1.43,.68-1.22,0-1.75-.66-1.75-1.92v-2.57c0-1.17,.69-1.86,1.92-1.86,.86,0,1.25,.33,1.37,.65,0-.17,.04-.41,.06-.55h.91c-.02,.34-.03,.92-.03,1.68v4.54Zm-3.17-4.42v2.46c0,.85,.3,1.26,.96,1.26,1.01,0,1.17-.79,1.17-1.66v-1.86c0-.77-.11-1.38-1.06-1.38-.76,0-1.07,.43-1.07,1.17Z"/><path d="M63.77,13.23v1.06c0,.66,.17,1.36,1.04,1.36,.83,0,.99-.5,.99-1.13v-.06h1.03v.05c0,.75-.24,1.83-2.02,1.83-1.66,0-2.07-.83-2.07-2.11v-2.41c0-.98,.46-1.97,2.1-1.97s2.02,.9,2.02,1.98v1.42h-3.09Zm2.06-.66v-.82c0-.59-.11-1.23-1.01-1.23s-1.05,.54-1.05,1.24v.81h2.06Z"/></g><g><path d="M59.98,39.31v-15.5h5.1c1.27,0,2.45,.13,3.54,.38,1.09,.25,2.04,.68,2.85,1.28,.81,.6,1.45,1.39,1.9,2.39,.46,1,.68,2.23,.68,3.7s-.23,2.72-.68,3.71c-.46,.99-1.09,1.78-1.9,2.38-.81,.6-1.76,1.02-2.85,1.28-1.09,.25-2.27,.38-3.54,.38h-5.1Zm3.67-3.09h1.51c.66,0,1.3-.05,1.91-.16,.61-.11,1.16-.32,1.65-.64,.49-.32,.87-.78,1.15-1.4,.28-.62,.42-1.44,.42-2.46s-.14-1.85-.42-2.47c-.28-.63-.66-1.1-1.15-1.42-.49-.32-1.04-.53-1.65-.65-.61-.12-1.25-.17-1.91-.17h-1.51v9.37Z"/><path d="M78.74,39.59c-.73,0-1.39-.14-2-.42-.6-.28-1.08-.67-1.44-1.17-.36-.5-.53-1.1-.53-1.8,0-.94,.33-1.69,.99-2.25s1.56-.97,2.7-1.25c1.14-.28,2.46-.47,3.94-.58,0-.82-.13-1.4-.39-1.74s-.77-.51-1.53-.51c-.48,0-.9,.11-1.26,.34-.36,.22-.61,.57-.73,1.03l-2.97-1.07c.39-.77,1.03-1.42,1.94-1.93,.91-.51,2.01-.77,3.33-.77,1.64,0,2.9,.36,3.78,1.09,.88,.73,1.32,1.96,1.32,3.71v2.53c0,.5,.02,1.03,.05,1.6,.03,.57,.08,1.11,.14,1.62,.06,.51,.13,.94,.21,1.28h-3.27l-.42-1.39c-.43,.6-.98,1.03-1.64,1.29-.66,.26-1.4,.38-2.22,.38Zm1.3-2.41c.7,0,1.28-.19,1.74-.56,.46-.37,.7-1.08,.7-2.13v-.28c-1.22,.11-2.2,.27-2.95,.5-.74,.22-1.11,.64-1.11,1.24,0,.37,.15,.67,.46,.89s.7,.34,1.16,.34Z"/><path d="M93.06,39.31c-.94,0-1.69-.08-2.25-.24-.56-.16-.96-.48-1.19-.95-.24-.47-.36-1.16-.36-2.05v-5.57h-1.9v-2.69h1.9v-2.88h3.53v2.88h2.51v2.69h-2.51v4.64c0,.54,.1,.89,.31,1.05,.21,.16,.6,.24,1.17,.24h1.02v2.88h-2.23Z"/><path d="M102.71,39.59c-1.24,0-2.33-.24-3.28-.73-.95-.49-1.69-1.19-2.23-2.1-.53-.91-.8-2-.8-3.27s.28-2.28,.85-3.18c.56-.9,1.31-1.59,2.25-2.09,.94-.49,1.96-.74,3.07-.74,1.27,0,2.35,.3,3.26,.89,.9,.6,1.59,1.42,2.05,2.46s.66,2.25,.58,3.61h-8.51c.06,.8,.36,1.41,.89,1.81,.53,.4,1.13,.6,1.77,.6,.54,0,1.01-.08,1.4-.24,.39-.16,.7-.37,.92-.62l2.81,1.02c-.6,.88-1.36,1.53-2.26,1.95-.9,.42-1.83,.63-2.77,.63Zm-2.76-7.24h5.24c-.02-.74-.27-1.3-.77-1.68-.5-.38-1.08-.57-1.76-.57s-1.26,.18-1.77,.53c-.52,.36-.83,.93-.94,1.72Z"/></g></svg>