<?xml version="1.0" encoding="UTF-8"?><svg id="Layer_2" xmlns="http://www.w3.org/2000/svg" viewBox="0 0 167.92 48.42"><defs><style>.cls-1{fill:#ff8f15;}.cls-2{letter-spacing:-.03em;}.cls-3{font-family:AtkinsonHyperlegible-Bold, 'Atkinson Hyperlegible';font-size:23.2px;font-weight:700;}</style></defs><g id="Layer_1-2"><g><path class="cls-1" d="M0,0H161c3.82,0,6.93,3.1,6.93,6.93V41.49c0,3.82-3.1,6.93-6.93,6.93H0V0H0Z"/><g><path d="M14.65,12.68c0-1.55,.04-3.16,.07-4.03h-.02c-.28,1.38-1.18,5.1-1.79,7.58h-1.04c-.47-2.13-1.4-6.12-1.67-7.59h-.03c.03,.96,.09,2.84,.09,4.26v3.32h-.99V7.93h1.55c.65,2.53,1.44,5.73,1.59,6.77h.02c.17-1,1.07-4.38,1.72-6.77h1.53v8.3h-1.03v-3.55Z"/><path d="M21.29,11.68v2.69c0,1.37-.85,1.96-2.14,1.96s-2.1-.57-2.1-1.92v-2.74c0-1.18,.81-1.84,2.15-1.84s2.09,.69,2.09,1.85Zm-3.18-.01v2.77c0,.73,.33,1.19,1.06,1.19,.67,0,1.06-.34,1.06-1.19v-2.76c0-.65-.3-1.12-1.05-1.12s-1.06,.41-1.06,1.13Z"/><path d="M23.31,14.38v.27c0,.66,.37,.99,.98,.99,.68,0,.95-.32,.95-.94,0-.66-.26-.95-1.2-1.42-1.11-.56-1.63-1-1.63-1.86s.56-1.59,1.91-1.59c1.46,0,1.88,.72,1.88,1.62v.3h-1.03v-.34c0-.56-.21-.89-.87-.89-.59,0-.84,.31-.84,.83s.21,.75,1.07,1.19c1.18,.58,1.77,1.02,1.77,2.06,0,1.13-.66,1.74-2.06,1.74-1.58,0-2-.8-2-1.66v-.29h1.07Z"/><path d="M26.78,9.93h.98v-1.56h1.04v1.56h1.21v.7h-1.21v4.35c0,.33,.08,.66,.62,.66,.16,0,.42-.01,.54-.04v.62c-.24,.07-.6,.09-.88,.09-.76,0-1.32-.25-1.32-1.18v-4.49h-.98v-.7Z"/><path d="M34.12,13.48l-.56,2.75h-1.06l1.82-8.3h1.5l1.9,8.3h-1.1l-.6-2.75h-1.9Zm1.76-.73c-.42-1.93-.7-3.35-.8-4.1h-.04c-.04,.63-.45,2.52-.76,4.1h1.61Z"/><path d="M38.84,9.93c.25,1.02,1.06,4.25,1.23,5.39h.02c.12-1.02,1.04-4.29,1.28-5.39h1.06l-1.78,6.3h-1.21l-1.73-6.3h1.12Z"/><path d="M44.19,13.23v1.06c0,.66,.17,1.36,1.04,1.36,.83,0,.99-.5,.99-1.13v-.06h1.03v.05c0,.75-.24,1.83-2.02,1.83-1.66,0-2.07-.83-2.07-2.11v-2.41c0-.98,.46-1.97,2.1-1.97s2.02,.9,2.02,1.98v1.42h-3.09Zm2.06-.66v-.82c0-.59-.11-1.23-1.01-1.23s-1.05,.54-1.05,1.24v.81h2.06Z"/><path d="M48.54,12.08c0-1.01,0-1.61-.02-2.15h1c.02,.18,.04,.53,.04,.98,.3-.76,1.02-1.04,1.75-1.06v.98c-1.05,0-1.72,.52-1.72,1.62v3.78h-1.05v-4.15Z"/><path d="M55.82,15.19c0,.44,.01,.87,.03,1.04h-.98c-.04-.16-.08-.41-.08-.52-.27,.48-.8,.62-1.37,.62-1.2,0-1.67-.79-1.67-1.77v-.11c0-1.39,1.12-1.92,2.61-1.92h.41v-1.04c0-.59-.14-.97-.83-.97s-.88,.39-.88,.91v.18h-1.04v-.17c0-.87,.46-1.6,1.95-1.6s1.85,.69,1.85,1.6v3.76Zm-1.03-2.02h-.44c-.99,0-1.57,.32-1.57,1.26v.11c0,.59,.24,1.08,.92,1.08,.82,0,1.09-.5,1.09-1.47v-.97Z"/><path d="M61.4,16.15c0,1.25-.19,2.31-2.22,2.31-1.69,0-2.01-.87-2.01-1.55v-.03h1.06v.04c0,.35,.17,.86,1.01,.86,.91,0,1.11-.51,1.11-1.44v-.84c-.23,.45-.67,.68-1.43,.68-1.22,0-1.75-.66-1.75-1.92v-2.57c0-1.17,.69-1.86,1.92-1.86,.86,0,1.25,.33,1.37,.65,0-.17,.04-.41,.06-.55h.91c-.02,.34-.03,.92-.03,1.68v4.54Zm-3.17-4.42v2.46c0,.85,.3,1.26,.96,1.26,1.01,0,1.17-.79,1.17-1.66v-1.86c0-.77-.11-1.38-1.06-1.38-.76,0-1.07,.43-1.07,1.17Z"/><path d="M63.77,13.23v1.06c0,.66,.17,1.36,1.04,1.36,.83,0,.99-.5,.99-1.13v-.06h1.03v.05c0,.75-.24,1.83-2.02,1.83-1.66,0-2.07-.83-2.07-2.11v-2.41c0-.98,.46-1.97,2.1-1.97s2.02,.9,2.02,1.98v1.42h-3.09Zm2.06-.66v-.82c0-.59-.11-1.23-1.01-1.23s-1.05,.54-1.05,1.24v.81h2.06Z"/></g><text class="cls-3" transform="translate(58.95 39.31)"><tspan class="cls-2" x="0" y="0">D</tspan><tspan x="15.26" y="0">ate</tspan></text></g></g></svg>