<svg xmlns="http://www.w3.org/2000/svg" viewBox="0 0 578.34 354.2"><defs><style>.cls-1{fill:#fff;}.cls-2{fill:#015b9a;}.cls-3{fill:#f6907a;}</style></defs><g id="Layer_2" data-name="Layer 2"><g id="Layer_1-2" data-name="Layer 1"><path class="cls-1" d="M41,215.09C49,221.94,78,236.31,83.94,243.4c25.26,29.94,27.31,39.57,71,70.59,82.76,52.82,202.66,53.1,287.76,3.79,43.5-20.17,67.3-61.81,86.52-103.33,13.54-28.11,38.87-85.49,47-115.61A55.7,55.7,0,0,0,577.11,72c-7.77-41.43-63.2-57.84-92.44-27.75a54.3,54.3,0,0,0-26-14.23h0a55.28,55.28,0,0,0-36.31,3.58c-13.39-6-28.22-6-42.09-2-14.51-4.39-30.26-3.95-44,2.63a57.89,57.89,0,0,0-47-3.77c-28.62-10.26-62.48-2.92-85,17.29C185.15-8.56,104.85-8.65,60,14.6-15.17,53.46-17.65,162.84,41,215.09Z"/><path class="cls-1" d="M32.88,34.93l.08-.08.09-.09Z"/><path class="cls-1" d="M2.52,145.65v0h0Z"/><path class="cls-1" d="M148.73,3Z"/><path class="cls-1" d="M182.84,17.56l.09.06.15.11Z"/><path class="cls-2" d="M546.1,80v.57A23.67,23.67,0,0,1,544.22,90v0L489.61,224.35a38.14,38.14,0,0,1-2.48,5.08l0,0a23.75,23.75,0,0,1-5.49,6.51,17.49,17.49,0,0,1-11.19,3.77h-.91a23.83,23.83,0,0,1-5.4-.59,19.59,19.59,0,0,1-10.94-6.58A16.36,16.36,0,0,1,449.23,222l0-.46v-.1l0-.45a24.19,24.19,0,0,1,.77-5.47,95.17,95.17,0,0,1,3.05-10l0,0q2.15-6,5.48-13.74l0-.05c2.19-4.7,4.28-9.44,6.31-14.17l.22-.47L430.58,89.5a24.81,24.81,0,0,1-1.95-9.22,18.69,18.69,0,0,1,.49-4.24,17.57,17.57,0,0,1,7.69-10.67l0,0A18.78,18.78,0,0,1,448,61.55h.37a23.26,23.26,0,0,1,5.35.59,19.6,19.6,0,0,1,9,4.66,22.79,22.79,0,0,1,5.77,9.07l18,49.86L506.27,76a23.35,23.35,0,0,1,9.83-11.59,18.63,18.63,0,0,1,9.61-2.71,20.6,20.6,0,0,1,4.66.54,21.89,21.89,0,0,1,10.77,6l0,0A16.57,16.57,0,0,1,546.1,80Z"/><path class="cls-3" d="M471.6,250.72A182.43,182.43,0,0,1,428,285.59a222.23,222.23,0,0,1-48.35,20.78,262.34,262.34,0,0,1-75.09,10.75c-34.8,0-67.57-6.53-96.23-18.18s-51.09-28.18-68.92-49.58c-11.09-13.3-20.26-29.13-26-39.69q-2.7-.36-5.37-.94a64.06,64.06,0,0,1-20.43-8.25,65,65,0,0,1-8.55-6.38l0,0h0a10.76,10.76,0,0,1-3.73-8v-.24a21.4,21.4,0,0,1,8-16.05,27.86,27.86,0,0,1,6.69-4.21,18.18,18.18,0,0,1,7.23-1.67,11,11,0,0,1,5.51,1.38c.58.34,1.21.78,1.87,1.26l2,1.55a34.79,34.79,0,0,0,3.64,2.59,27.89,27.89,0,0,0,7.21,2.89h0a33.48,33.48,0,0,0,7,.8,23.35,23.35,0,0,0,4.65-.45h0a31.28,31.28,0,0,0,8.52-3.1l.06,0,.1-.05a26.93,26.93,0,0,0,5.35-3.42h0a21.12,21.12,0,0,0,4.84-5.46,10.89,10.89,0,0,1,7.13-5.09,20.45,20.45,0,0,1,4-.39,23,23,0,0,1,9.8,2.24,21.58,21.58,0,0,1,11.63,12.65,10.37,10.37,0,0,1,.49,3.16,11.08,11.08,0,0,1-1.62,5.73,60,60,0,0,1-7,9.31c-.63.69-1.26,1.35-1.91,2l-2.25,2.26,0-.19a61.71,61.71,0,0,1-12.51,8.54c1.12,1.71,3.34,7.51,6,11.52,9.23,13.75,20.82,26.48,38.58,36.84a184.3,184.3,0,0,0,40,17.14,224.07,224.07,0,0,0,64.17,9.14c30,0,58.07-5.67,81.86-15.36,21.41-8.7,39.31-20.65,52.3-34.19a27.38,27.38,0,0,0,5.93,12.41l0,0,0,0a30.56,30.56,0,0,0,16.85,10.25h.06a35,35,0,0,0,7.89.88h1C470.85,250.75,471.23,250.74,471.6,250.72Z"/><path class="cls-3" d="M285,228.44a22.06,22.06,0,1,1-22.06-22.06A22.06,22.06,0,0,1,285,228.44Z"/><path class="cls-3" d="M358.27,228.44a22.06,22.06,0,1,1-22.06-22.06A22.06,22.06,0,0,1,358.27,228.44Z"/><path class="cls-2" d="M327.7,68.57a14.9,14.9,0,0,0-10-7.54,34.07,34.07,0,0,0-6.4-.81h-.08c-7.05.17-12.3,2.88-16.19,8.35l-.79,1.11-1-.89a40.47,40.47,0,0,0-17.43-8.72,46.51,46.51,0,0,0-10.3-1.14H265C251.66,59,240,63.57,229.7,72.69s-17,20.9-20.38,35.39a80.23,80.23,0,0,0-2.07,17.65v0c.12,16.54,4.33,30.71,12.64,42.64s19.08,19.4,32.48,22.5a54,54,0,0,0,12.25,1.38h.79A41,41,0,0,0,293,182l1.11-1,.74,1.25a16.5,16.5,0,0,0,10.79,8.11,24.34,24.34,0,0,0,5.55.62v1.23l0-1.23h.32c5.23,0,9.27-1.19,12.28-3.43s5.07-5.62,6.16-10.33a56.87,56.87,0,0,0,1.11-11.63v0l.1-79.81C331.17,78.36,330,72.64,327.7,68.57ZM290.08,126.1a40.11,40.11,0,0,1-1,9c-1.43,6.14-4.16,11-8.18,14.47l0,0a16.28,16.28,0,0,1-11.27,4.53,19,19,0,0,1-4.48-.54c-5.3-1.21-9.54-4.54-12.5-9.74a35.43,35.43,0,0,1-4.41-17.94v-.05a50.24,50.24,0,0,1,1.21-9.39,28.24,28.24,0,0,1,8.43-15,15.86,15.86,0,0,1,10.94-4.28,20.72,20.72,0,0,1,4.66.56c5.15,1.19,9.29,4.56,12.22,9.81a36.37,36.37,0,0,1,4.36,18.07Z"/><path class="cls-2" d="M422.73,83.46a14.71,14.71,0,0,1-2.29,8.16,19.25,19.25,0,0,1-6.9,6.21l-18.78,8h-.05l0,0a22.57,22.57,0,0,0-7.93,6.38,14.16,14.16,0,0,0-2.79,8.43l0,49.42v0c-.15,6.51-2.12,11.76-5.94,16a18.86,18.86,0,0,1-14.77,6.28h-.1a18.71,18.71,0,0,1-14.54-6.28c-3.84-4.22-5.77-9.47-5.77-15.95l.08-87.84v0c.15-6.63,2.44-11.65,7-15.52a20.71,20.71,0,0,1,13.82-5h.3a26,26,0,0,1,10.75,2,15.44,15.44,0,0,1,6.75,5.84l.91,1.48,1.09-1.36c4.16-5.2,10.47-7.86,19.34-7.88h0a19.44,19.44,0,0,1,13.7,5.42C420.66,71.4,422.71,76.7,422.73,83.46Z"/><path class="cls-2" d="M110.2,74.47q-11.26,2.25-18.27,9.34T82.42,102.6a60.31,60.31,0,0,0,.2,25.15l.08.44c2.23,11,5.91,19.79,11.11,26.29.53.7,1.11,1.32,1.67,2-6.66-2-14.9-.27-21.47,5.25-7.82,6.54-10.84,16.38-8,24-1.21-1.14-2.37-2.35-3.52-3.6q-17.05-18.42-22.55-45l-.07-.34a96.27,96.27,0,0,1,0-40q5.09-23.37,21-39.27a76.21,76.21,0,0,1,18.59-14,83.09,83.09,0,0,1,22.62-8c.38-.1.77-.17,1.15-.27a99.09,99.09,0,0,1,41.09,0c8.92,2,15.86,4.82,20.76,8.5a22.18,22.18,0,0,1,9.05,13.52v0a24,24,0,0,1-.12,9.54,18.75,18.75,0,0,1-4.68,9.26,17.7,17.7,0,0,1-9.09,4.69l0,0c-4.52.84-11.66-.42-21.14-3.93a51.13,51.13,0,0,0-28.2-2.57l-.63.16Z"/><path class="cls-2" d="M189.86,168.29c.08-7.74-5.24-15.77-14-19.88-7.44-3.5-15.52-3.27-21.38,0a31,31,0,0,0,1.69-5.14,30.47,30.47,0,0,0,.55-8l-.09-1.46-18,4-.43.11a19.84,19.84,0,0,1-8.23,0,19,19,0,0,1-9.9-5.2,20.42,20.42,0,0,1-5-10.35l0-.27a19.88,19.88,0,0,1,0-8.55,17.92,17.92,0,0,1,5.2-9.65,21.63,21.63,0,0,1,10.57-5.11L168,91h0a30.16,30.16,0,0,1,12.38-.17,18.19,18.19,0,0,1,10.48,6.44c2.75,3.37,4.8,8,6.11,14.09v0a90.92,90.92,0,0,1,0,37.33A75.78,75.78,0,0,1,191,166Z"/></g></g></svg>