<?xml version="1.0" encoding="UTF-8"?><svg id="Layer_2" xmlns="http://www.w3.org/2000/svg" xmlns:xlink="http://www.w3.org/1999/xlink" viewBox="0 0 357.9 197.71"><defs><style>.cls-1{letter-spacing:0em;}.cls-1,.cls-2,.cls-3,.cls-4,.cls-5{font-size:41.54px;}.cls-1,.cls-3,.cls-6,.cls-4,.cls-7,.cls-5{font-family:"2000s";}.cls-8{letter-spacing:-.01em;}.cls-9{font-family:AtkinsonHyperlegible-Italic, 'Atkinson Hyperlegible';font-size:12.12px;font-style:italic;}.cls-10{fill:#ffda3e;}.cls-11{fill:#f1e9de;}.cls-12{fill:#ff1800;}.cls-13{fill:#ff8f15;}.cls-14{fill:#212121;}.cls-2{font-family:"1900s";}.cls-15{letter-spacing:.02em;}.cls-3{letter-spacing:-.04em;}.cls-6{font-size:37.17px;letter-spacing:0em;}.cls-4{letter-spacing:.03em;}.cls-16{filter:url(#drop-shadow-1);}.cls-17{font-family:AtkinsonHyperlegible-Bold, 'Atkinson Hyperlegible';font-size:37.21px;font-weight:700;}.cls-7{font-size:35.62px;letter-spacing:0em;}.cls-18{letter-spacing:0em;}.cls-19{letter-spacing:0em;}.cls-20{letter-spacing:0em;}.cls-21{letter-spacing:-.03em;}.cls-22{letter-spacing:0em;}.cls-23{letter-spacing:0em;}</style><filter id="drop-shadow-1" filterUnits="userSpaceOnUse"><feOffset dx="7" dy="7"/><feGaussianBlur result="blur" stdDeviation="5"/><feFlood flood-color="#000" flood-opacity=".75"/><feComposite in2="blur" operator="in"/><feComposite in="SourceGraphic"/></filter></defs><g id="Layer_1-2"><g class="cls-16"><rect class="cls-11" x=".72" y=".47" width="354.67" height="197.23"/><g><ellipse class="cls-14" cx="19.53" cy="19.2" rx="18.81" ry="18.73"/><path class="cls-14" d="M346.9,11V186.71H11V11H346.9m11-11H0V197.71H357.9V0h0Z"/><ellipse class="cls-14" cx="19.53" cy="177.55" rx="18.81" ry="18.73"/><ellipse class="cls-14" cx="339.09" cy="177.21" rx="18.81" ry="18.73"/><ellipse class="cls-14" cx="339.09" cy="18.86" rx="18.81" ry="18.73"/></g></g><text transform="translate(95.59 122.11)"><tspan><tspan class="cls-2" x="0" y="0">Certi</tspan><tspan class="cls-7" x="80.41" y="0">f</tspan><tspan class="cls-6" x="94.59" y="0">i</tspan><tspan class="cls-4" x="101.65" y="0">c</tspan><tspan class="cls-3" x="118.84" y="0">a</tspan><tspan class="cls-1" x="136" y="0">t</tspan><tspan class="cls-5" x="149.74" y="0">e</tspan></tspan></text><text class="cls-9" transform="translate(74.31 156.51)"><tspan class="cls-19" x="0" y="0">The sum of a gene</tspan><tspan class="cls-8" x="100.53" y="0">r</tspan><tspan class="cls-22" x="104.69" y="0">ation of ce</tspan><tspan class="cls-15" x="162.03" y="0">r</tspan><tspan class="cls-22" x="166.56" y="0">tificates.</tspan></text><g><text class="cls-17" transform="translate(59.58 81.8)"><tspan class="cls-23" x="0" y="0">Most </tspan><tspan class="cls-21" x="99.47" y="0">A</tspan><tspan class="cls-20" x="123.85" y="0">v</tspan><tspan class="cls-23" x="143.24" y="0">e</tspan><tspan class="cls-18" x="164.49" y="0">r</tspan><tspan class="cls-23" x="178.03" y="0">age</tspan></text><g><g><path class="cls-12" d="M43.31,69.89c-.53-.23-.95-.68-1.13-1.3l-.61-2.11c-.34-1.16-1.54-2.31-2.67-2.56l-2.06-.46c-.52-.11-.94-.43-1.21-.85-4.48,4.28-9.7,7.46-10,7.65-.3,.18-.48,.51-.47,.87,0,.35,.22,.65,.51,.78l5.14,2.15-.56,6.05c-.03,.33,.11,.64,.36,.82,.04,.03,.09,.06,.14,.08,.23,.1,.5,.09,.73-.04,5.61-3.02,11.2-8.12,14.56-11.47l-1.31,.45c-.49,.17-1,.14-1.43-.05Z"/><path class="cls-12" d="M58.8,81.65c-.2-.93-1.6-7.87-1.26-14.4,0,0,0,0,0,0l-1.5,1.67c-.8,.89-2.1,.99-2.92,.22l-1.55-1.45c-.66-.61-1.76-.95-2.76-.89-.99,.99-2.17,2.15-3.5,3.37,.06,4.46,.45,9.98,1.71,14.68,.07,.26,.24,.46,.47,.56,.05,.02,.1,.04,.15,.05,.3,.06,.62-.05,.84-.3l4-4.57,5.1,2.25h.01c.44,.19,.96-.04,1.16-.51,.1-.23,.1-.47,.03-.68Z"/><circle class="cls-10" cx="51.45" cy="53.71" r="15.29" transform="translate(-17.25 25.21) rotate(-23.7)"/><path class="cls-13" d="M68.54,60.91l-.57-1.9c-.31-1.04,.02-2.57,.75-3.38l1.32-1.48c.7-.79,.65-2-.12-2.72l-1.44-1.36c-.79-.75-1.26-2.23-1.04-3.3l.4-1.94c.22-1.04-.44-2.06-1.47-2.3l-1.93-.45c-1.06-.25-2.21-1.3-2.55-2.34l-.62-1.88c-.33-1.01-1.41-1.56-2.42-1.26l-1.9,.57c-1.04,.31-2.57-.02-3.38-.75l-1.48-1.32c-.79-.7-2-.65-2.72,.12l-1.36,1.44c-.75,.79-2.23,1.26-3.3,1.04l-1.94-.4c-1.04-.21-2.06,.44-2.3,1.47l-.45,1.93c-.25,1.06-1.3,2.21-2.34,2.55l-1.88,.62c-1.01,.33-1.56,1.41-1.26,2.42l.57,1.9c.31,1.04-.02,2.57-.75,3.38l-1.32,1.48c-.7,.79-.65,2,.12,2.72l1.44,1.36c.79,.75,1.26,2.23,1.04,3.3l-.4,1.94c-.21,1.04,.44,2.06,1.47,2.3l1.93,.45c1.06,.25,2.21,1.3,2.55,2.34l.62,1.88c.18,.55,.59,.97,1.08,1.18,.41,.18,.88,.21,1.34,.08l1.9-.57c1.04-.31,2.57,.02,3.38,.75l1.48,1.32c.79,.71,2,.65,2.72-.12l1.36-1.44c.75-.79,2.23-1.26,3.3-1.04l1.94,.4c1.04,.22,2.06-.44,2.3-1.47l.45-1.93c.25-1.06,1.3-2.21,2.34-2.55l1.88-.62c1.01-.33,1.56-1.41,1.26-2.42Zm-21.96,4.47c-6.56-2.82-9.6-10.43-6.78-17,2.82-6.56,10.43-9.6,17-6.78,6.56,2.82,9.6,10.43,6.78,17-2.82,6.56-10.43,9.6-17,6.78Z"/></g><g><path d="M45.04,48.36h-2.09v-1.13h5.39v1.13h-2.07v11.24h-1.24v-11.24Z"/><path d="M50.38,47.22v4.58c.24-.57,.81-1.05,1.79-1.05,1.46,0,1.89,1.1,1.89,2.51v6.34h-1.23v-6.04c0-.84-.1-1.68-1.08-1.68-1.12,0-1.37,.87-1.37,2.37v5.35h-1.23v-12.38h1.23Z"/><path d="M56.83,56.02v.55c0,1.03,.2,2.12,1.22,2.12,.97,0,1.15-.77,1.15-1.76v-.09h1.21v.08c0,1.16-.27,2.84-2.37,2.84-1.94,0-2.42-1.29-2.42-3.28v-2.66c0-1.52,.54-3.07,2.45-3.07s2.36,1.4,2.36,3.07v2.2h-3.61Zm2.41-1.02v-1.28c0-.91-.13-1.91-1.18-1.91s-1.23,.84-1.23,1.92v1.27h2.41Z"/></g></g></g></g></svg>