<?xml version="1.0" encoding="UTF-8"?><svg id="Layer_2" xmlns="http://www.w3.org/2000/svg" xmlns:xlink="http://www.w3.org/1999/xlink" viewBox="0 0 357.9 197.71"><defs><style>.cls-1{fill:#ffda3e;}.cls-2{fill:#f1e9de;}.cls-3{fill:#ff1800;}.cls-4{fill:#ff8f15;}.cls-5{fill:#212121;}.cls-6{filter:url(#drop-shadow-1);}</style><filter id="drop-shadow-1" filterUnits="userSpaceOnUse"><feOffset dx="7" dy="7"/><feGaussianBlur result="blur" stdDeviation="5"/><feFlood flood-color="#000" flood-opacity=".75"/><feComposite in2="blur" operator="in"/><feComposite in="SourceGraphic"/></filter></defs><g id="Layer_1-2"><g class="cls-6"><rect class="cls-2" x=".72" y=".47" width="357.18" height="197.23"/><path class="cls-5" d="M346.9,0H0V197.71H357.9V0h-11Zm-7.81,160.24c-10.39,0-18.81,8.39-18.81,18.73,0,2.76,.61,5.37,1.69,7.73H35.93c1.08-2.36,1.69-4.97,1.69-7.73,0-10.35-8.42-18.73-18.81-18.73-2.79,0-5.43,.62-7.81,1.71V35.76c2.38,1.09,5.02,1.71,7.81,1.71,10.39,0,18.81-8.39,18.81-18.73,0-2.76-.61-5.37-1.69-7.73H321.97c-1.08,2.36-1.69,4.97-1.69,7.73,0,10.35,8.42,18.73,18.81,18.73,2.79,0,5.43-.62,7.81-1.71v126.19c-2.38-1.09-5.02-1.71-7.81-1.71Z"/></g><g><path d="M120.77,112.1c-.17,.71-.21,1.87-.5,2.91-.91,2.95-2.58,4.82-4.61,5.81-3.82,1.87-7.73,1.58-11.51-.46-2.57-1.37-3.74-3.86-5.61-6.85-1.33-2.41-2.45-4.9-3.82-7.35,1.58-2.53,2.87-4.94,4.4-7.48,2.87-4.69,5.77-5.9,9.93-5.48,1.95,.25,3.9,.91,5.4,2.82,.66,.79,1.25,.66,1.91-.04,1.08-1.16,2.24-1.29,3.49-.58-1.45,3.32-1.79,6.56-.12,9.84-1.5,.5-2.91-.37-3.82-2.2-.33-.79-.58-1.29-1.41-.79-1.08,.66-2.08-.21-2.66-1.79,.29-1.12,1-2.2,.83-2.87-.42-1.04-1.12-2.2-1.95-2.49-1.79-.75-3.78-1.04-5.11,1.29-1.62,3.07-2.24,5.98,.62,8.89-2.49,3.28-2.08,6.98-.71,10.76,.96,2.49,2.53,3.57,4.4,4.07,2.2,.79,4.53,.17,6.65-1.58,1.62-1.25,2.12-3.28,2.2-5.69v-2.58c.58,.37,1,.87,1.41,1.29l.58,.54Z"/><path d="M140.92,107.36c-4.03,2.12-7.93,4.19-11.84,6.27v2.41c1.54,.75,2.95,1.5,4.4,2.12,.33,.12,.87-.08,1.29-.25,.62-.21,1.2-.5,1.79-.79,.12,.12,.21,.25,.29,.37-.25,.25-.46,.58-.75,.79-1.95,1.16-3.95,2.37-5.94,3.45-.37,.25-1.16,.37-1.41,.17-2.08-1.74-4.49-2.16-7.1-1.95-.21,0-.42-.04-.87-.37,.71-.66,1.41-1.29,2.08-1.99,.37-.42,.87-.96,.87-1.45,.04-3.28,.04-6.56-.08-9.84-.04-.87-.5-1.74-.79-2.58-.12-.33-.29-.62-.46-1.08,1.62-.12,3.07-.21,4.53-.33,2.66-.25,5.23-.91,7.56-2.33,.58-.37,.96-.42,1.45,.29,1.41,2.08,2.99,4.11,4.49,6.15,.21,.29,.33,.62,.5,.96Zm-9.93-4.73q-1.95,.33-1.87,2.24c0,.42,0,.83,.04,1.25v6.4c2.24-1.25,4.15-2.28,5.98-3.28-1.41-2.28-2.78-4.4-4.15-6.6Z"/><path d="M154.5,109.44c-1.16,.54-2.12,.91-2.99,1.5-.42,.21-.58,.87-.91,1.29-.25,.33-.62,.54-.96,.79-.12-.37-.5-.96-.33-1.12,1.58-2.16-.5-3.41-.79-5.07l-.5-.12c-.17,.46-.54,.91-.54,1.29,0,2.99,.04,5.86,.21,8.76,.04,.71,.5,1.33,1,2.33-1.16,1-2.53,2.2-3.95,3.36-.17,.12-.83-.08-1.04-.29-.79-1.04-1.41-2.04-2.08-3.03-.58-.71-.29-1.25,.37-1.62,1.16-.75,1.45-1.87,1.37-3.12-.17-3.03-.25-6.02-.46-9.05,0-.58-.46-1.16-.91-1.66-.75-.71-.79-1.5,.12-1.83,.87-.37,1.95-.62,2.99-.62,1.12-.08,1.91,.96,1.99,2.45,.04,.75,.04,1.54,.04,2.28h.37c.5-.46,.91,.25,1.04-.25,.75-.54,1.45-1.12,2.24-1.54,.42-.17,1.37-.12,1.41,.08,.91,1.74,1.62,3.57,2.28,5.19Z"/><path d="M155.87,96.9s1.66-.37,2.62-.96c1.33-.66,2.28-1.33,2.28-1.33l-.66,6.52h4.57v11.38s.33-.33,1-.33c.29,0,.29,.66,.29,.96,0,.33-.62,.33-.96,.33s-.66-.96-.66-.96v-9.47h-4.24l.37,16.86,1.91,1.29s1.29-.12,1.33,0c.08,.25-1.62,.66-1.99,.96-.29,.37-.96,1.33-.96,1.33,0,0-.96-1.33-1.95-1.33-.96-.29-3.9-.29-3.9-.29,0,0,.66-1,1.33-1.33l1.29-.62,.12-16.9h-2.04v-1.99h1.91v-2.82l-.66-.66c-.33-.33-1-.62-1-.62Z"/><path d="M169.91,101.76s.5,1.5,1.37,1.58,3.36-.42,3.36-.42c0,0-.62,1.58-1.41,2.04l-1.41,.79,.12,11.84s0,1.45,1.08,1.58c1.08,.17,2.12,0,2.12,0,0,0-2.04,1-2.78,1.7-.71,.71-1.12,1.25-1.12,1.25,0,0-2.08-1-2.24-2.37-.25-1.29,0-13.91,0-13.91,0,0-.87-.29-1.29-.67-.46-.42-.83-.91-.83-.91l-1,.54-.33-.29,4.36-2.74Zm-2.87-4.86s1.2,1.12,2.99,1.12,3.53-1.95,3.53-1.95c0,0,.71-1.16,.62-1.45-.08-.33-.96,.83-1.83,.83s-1.58-.17-1.95-.46c-.37-.25-.71-1.16-.71-1.16l-3.66,3.36,.21,.25,.79-.54Z"/><path d="M181.2,114.27v4.2c.04,1.64,.36,2.03,1.89,2.53,.5,.14,1.07,.21,.93,.89-.11,.61-.68,.57-1.14,.5-1.71-.29-3.49-.14-5.24,.04-.46,.04-1.03,.14-1.28-.46-.28-.61,.28-.85,.68-1.1,.75-.5,.96-1.28,.96-2.07,.04-3.28,0-6.59,0-9.87,0-.93-.32-1.25-1.18-1.21-.68,0-1.6,.25-1.67-.85-.07-.82,.46-1.28,1.71-1.32,.85,0,1.25-.36,1.28-1.18,.18-2.85,1.18-5.45,2.99-7.62,1.67-2.14,3.78-3.7,6.73-3.38,1.28,.14,1.71,.71,1.32,1.92-.11,.32-.21,.61-.36,.89-.5,1.14-1.14,1.25-2.03,.43-.96-.89-2.24-.85-3.28,.04-.82,.68-1.28,1.5-1.6,2.49-.57,1.82-.71,3.67-.57,5.59,.04,.53,.28,.82,.85,.82,.93-.04,1.89,.07,2.81-.18,.36-.11,.82-.21,1.1,.14,.36,.39,.11,.82-.04,1.21-.32,.89-.89,1.18-1.89,1.1-2.99-.21-2.85-.28-2.96,2.6-.07,1.32-.04,2.6-.04,3.85Z"/><path d="M192.89,96.16c1.64,0,2.75,1.11,2.75,2.71,0,1.71-1.12,2.82-2.83,2.82-1.56-.07-2.75-1.19-2.75-2.79s1.19-2.75,2.82-2.75Zm-2.08,25.94v-17.8h4.2v17.8h-4.2Z"/><path d="M212.16,118.16c.21,1.12-.12,1.91-1.04,2.45-2.7,1.37-5.4,2.12-8.35,1.2-3.07-1.08-4.94-3.2-5.9-6.35-.83-2.53-.58-4.98,.25-7.39,.91-2.28,2.45-4.07,4.65-5.23,3.2-1.79,6.52-1.74,9.93-.87,.33,.08,.71,.54,.75,.91,.04,1.12,0,2.24-.04,3.36-.04,.33-.46,.71-.75,.91-.21,.04-.58-.42-.83-.67-.62-.75-1.04-1.83-1.83-2.37-1.95-1.37-4.73-.54-5.98,1.5-1.29,2.08-1.2,4.32-.91,6.56,.33,2.04,1.16,3.78,2.74,5.19,1.45,1.2,3.12,1.66,5.07,1.33,.71-.08,1.5-.33,2.24-.54Z"/><path d="M232.47,119.16c-.04,1.12-.71,1.83-1.5,2.41-1.29,1.04-3.36,1-4.61-.08-.33-.33-.5-.87-.71-1.41-.33-.83-.5-.87-1.29-.46-.62,.37-1.29,.83-1.91,1.25-1.29,.87-2.74,1.45-4.32,1.5-.66,0-1.37,.04-2.04-.08-1.99-.5-2.33-1.87-1.74-3.53,.62-1.95,2.04-3.36,3.53-4.57,1.99-1.58,4.24-2.66,6.65-3.49,.58-.17,.91-.54,.87-1.16,0-1.08,.04-2.2-.04-3.2-.29-1.87-.83-2.95-2.66-3.61-.87-.37-1.66,.04-2.37,.25-1.41,.42-2.57,1.25-2.95,2.82-.17,.79-.42,1.54-.71,2.37-.37,.91-1.5,1.5-2.45,1.29-.62-.21-.83-.54-.58-1.12,1.33-3.41,3.57-5.86,7.19-6.73,2.04-.5,4.11-.5,5.9,1.12,.87,.71,1.41,1.66,1.41,2.78v12.71c.04,1,.33,1.7,1.29,2.12,.83,.29,1.66,.04,2.37-.79,.21-.12,.29-.37,.37-.62,.12,.08,.21,.17,.29,.25Zm-7.14-4.69v-2.49c0-.54-.37-.83-.91-.58-.87,.37-1.74,.79-2.53,1.33-1.58,1.12-3.32,2.16-4.24,3.99-.5,1.04-.58,2.08,.04,3.07,.71,.96,1.66,1.25,2.78,1.04,1.66-.42,3.07-1.33,4.19-2.62,.37-.37,.5-1,.66-1.62,.08-.71,0-1.41,0-2.12Z"/><path d="M238.58,91.08v6.73h4.61v3.53h-4.07v16.45s.21,1.74,1.29,1.74,2.62-2.33,2.62-2.33l1.04,.83s-2.37,4.07-6.23,4.07-3.82-3.66-3.82-3.66v-17.11h-3.28v-3.53l7.85-6.73Z"/><path d="M252.45,122.07c-1.41,.04-2.87-.17-4.24-.87-2.12-1.16-3.2-3.03-3.53-5.36-.66-4.94,1.66-11.05,6.73-13.42,2.45-1.12,4.98-1.37,7.56-.66,2.04,.58,3.24,2.2,3.36,4.28,.25,3.49-1.91,5.81-4.49,6.81-1.87,.75-3.78,1.29-5.81,1.37-.71,0-.91,.33-.71,1,.29,1.04,1.12,1.74,2.24,1.87,1.7,.21,3.24-.29,4.69-1.12,.66-.37,1-.29,1.2,.46,.25,.83,.54,1.66,.87,2.49,.25,.66,.04,1.08-.58,1.41-1.99,1.08-4.65,1.74-7.31,1.74Zm2.78-15.91h-.25c-1.33,.21-3.2,2.28-3.24,3.61,0,.42,.25,.37,.5,.33,.62-.12,1.25-.29,1.83-.46,.91-.33,1.74-.75,2.2-1.66,.5-1,.04-1.83-1.04-1.83Z"/></g><g><path d="M63.84,156.51l.19-.91h1.13l1.33-6.28h-1.13l.19-.91h3.41l-.18,.91h-1.14l-1.32,6.28h1.11l-.19,.91h-3.41Z"/><path d="M68.97,156.51l1.27-6.01h.78l.07,.84c.2-.26,.47-.48,.79-.66,.33-.18,.76-.27,1.3-.27,.51,0,.91,.14,1.19,.41,.29,.27,.43,.7,.43,1.27,0,.27-.04,.59-.11,.95l-.75,3.48h-1.03l.72-3.38c.07-.36,.11-.65,.11-.87,0-.36-.08-.6-.24-.75-.16-.14-.42-.21-.76-.21-.29,0-.57,.06-.85,.19s-.52,.35-.73,.65c-.21,.31-.38,.72-.49,1.25l-.65,3.11h-1.04Z"/><path d="M76.99,156.51l-.87-6.01h1.05l.57,4.68,2.57-4.68h1.19l-3.43,6.01h-1.08Z"/><path d="M83.92,156.65c-.79,0-1.42-.23-1.87-.69s-.68-1.08-.68-1.87c0-.7,.14-1.33,.42-1.89,.28-.56,.67-1,1.19-1.32,.51-.32,1.12-.48,1.81-.48,.54,0,.99,.11,1.35,.33,.36,.22,.62,.52,.81,.89,.18,.38,.27,.79,.27,1.25,0,.29-.04,.59-.11,.91h-4.65c0,.06-.01,.11-.01,.17v.17c0,.41,.08,.74,.24,.98,.16,.24,.36,.41,.61,.51,.25,.1,.5,.15,.76,.15,.34,0,.63-.05,.87-.16,.24-.11,.45-.25,.62-.43l.95,.29c-.27,.36-.62,.64-1.05,.87-.42,.22-.93,.33-1.51,.33Zm-1.33-3.7h3.55s.01-.08,.01-.11v-.1c0-.24-.05-.48-.15-.7-.1-.23-.26-.41-.48-.56-.22-.15-.52-.22-.88-.22-.3,0-.59,.06-.87,.19-.28,.13-.53,.32-.74,.57s-.36,.56-.44,.92Z"/><path d="M90.25,156.65c-.61,0-1.11-.12-1.53-.35s-.72-.62-.93-1.16l1.04-.35c.06,.36,.24,.62,.53,.79,.29,.17,.6,.25,.92,.25s.63-.08,.91-.25c.27-.17,.41-.41,.41-.73,0-.23-.08-.4-.24-.53s-.37-.23-.62-.31c-.25-.08-.52-.16-.81-.24-.28-.08-.55-.18-.81-.3-.25-.12-.46-.3-.62-.52-.16-.22-.24-.51-.24-.87s.11-.69,.34-.94c.23-.25,.52-.43,.87-.56s.72-.19,1.11-.19c.33,0,.65,.05,.97,.14,.31,.09,.59,.23,.84,.41,.24,.18,.41,.41,.51,.69l-.97,.34c-.08-.24-.26-.43-.55-.55-.28-.12-.58-.19-.88-.19s-.58,.06-.83,.19c-.25,.13-.37,.33-.37,.59,0,.22,.08,.39,.24,.52,.16,.13,.37,.23,.63,.31,.26,.08,.53,.16,.82,.24s.56,.18,.82,.31,.47,.3,.63,.52c.16,.21,.24,.5,.24,.87,0,.41-.11,.76-.33,1.04s-.51,.49-.87,.63c-.36,.14-.77,.21-1.22,.21Z"/><path d="M95.47,156.51c-.47,0-.79-.07-.96-.2s-.26-.34-.26-.61c0-.18,.04-.45,.12-.82l.76-3.55h-1.01l.17-.82h1.01l.33-1.5h1.04l-.33,1.5h1.15l-.17,.82h-1.15l-.7,3.26c-.03,.15-.06,.28-.08,.39-.02,.12-.03,.21-.03,.27,0,.13,.04,.22,.11,.27,.07,.05,.21,.08,.41,.08h.53l-.19,.91h-.75Z"/><path d="M98.08,156.51l1.1-5.19h-.97l.17-.82h2.01l-1.27,6.01h-1.04Zm2.22-7.16c-.2,0-.38-.07-.53-.22-.15-.15-.22-.32-.22-.53s.07-.39,.22-.54c.15-.15,.33-.22,.53-.22s.39,.07,.54,.22c.15,.15,.22,.33,.22,.54s-.07,.38-.22,.53c-.15,.15-.33,.22-.54,.22Z"/><path d="M103.03,158.81c-.51,0-.97-.12-1.39-.36-.42-.24-.7-.57-.84-.99l1.09-.3c.04,.19,.16,.37,.36,.53,.2,.16,.48,.24,.85,.24,.43,0,.77-.07,1.02-.22s.44-.35,.57-.61,.23-.55,.3-.86l.16-.69c-.2,.26-.45,.45-.74,.58-.29,.13-.59,.19-.91,.19-.37,0-.73-.09-1.08-.27-.35-.18-.63-.46-.85-.83-.22-.37-.33-.84-.33-1.39,0-.62,.11-1.19,.35-1.72,.23-.52,.56-.94,.98-1.25,.42-.31,.93-.47,1.51-.47,.43,0,.82,.1,1.18,.29s.61,.45,.76,.78l.48-.95h.75c-.19,.9-.39,1.81-.58,2.71-.19,.9-.38,1.81-.58,2.73-.04,.18-.09,.39-.15,.64-.06,.25-.14,.5-.26,.76-.12,.26-.28,.5-.5,.72-.21,.22-.5,.4-.85,.54s-.79,.21-1.31,.21Zm.82-3.38c.38,0,.71-.13,.98-.38s.49-.57,.64-.96c.15-.38,.22-.77,.22-1.17,0-.54-.15-.95-.45-1.23-.3-.28-.65-.42-1.05-.42s-.76,.12-1.04,.36c-.28,.24-.49,.55-.63,.93s-.21,.78-.21,1.2c0,.52,.14,.92,.42,1.22,.28,.29,.65,.44,1.11,.44Z"/><path d="M109.5,156.65c-.52,0-.95-.14-1.29-.42-.34-.28-.52-.66-.52-1.14,0-.4,.11-.74,.32-1.01,.21-.27,.49-.48,.84-.64,.34-.16,.72-.28,1.11-.37s.79-.15,1.17-.19c.38-.04,.71-.08,.98-.11,.02-.11,.04-.22,.06-.31,.02-.1,.02-.19,.02-.28,0-.64-.37-.96-1.11-.96-.37,0-.69,.08-.95,.25-.26,.17-.46,.39-.59,.68l-.91-.28c.21-.45,.52-.81,.92-1.08s.9-.4,1.48-.4c.7,0,1.24,.14,1.62,.42,.38,.28,.57,.72,.57,1.31,0,.14-.01,.27-.03,.41-.02,.14-.06,.33-.11,.58-.05,.25-.13,.62-.24,1.1-.11,.5-.18,.94-.21,1.3s-.06,.69-.07,.98h-.96l-.05-.76c-.27,.3-.56,.53-.88,.68-.32,.15-.72,.23-1.19,.23Zm.33-.84c.55,0,1.02-.18,1.41-.55,.39-.37,.64-.86,.75-1.47l.04-.21c-.67,.06-1.24,.14-1.72,.22-.48,.08-.84,.22-1.09,.39-.25,.18-.38,.44-.38,.79,0,.27,.1,.48,.29,.62,.19,.14,.43,.21,.7,.21Z"/><path d="M115.95,156.51c-.47,0-.79-.07-.96-.2s-.26-.34-.26-.61c0-.18,.04-.45,.12-.82l.76-3.55h-1.01l.17-.82h1.01l.33-1.5h1.04l-.33,1.5h1.15l-.17,.82h-1.15l-.7,3.26c-.03,.15-.06,.28-.08,.39-.02,.12-.03,.21-.03,.27,0,.13,.04,.22,.11,.27,.07,.05,.21,.08,.41,.08h.53l-.19,.91h-.75Z"/><path d="M118.56,156.51l1.1-5.19h-.97l.17-.82h2.01l-1.27,6.01h-1.04Zm2.22-7.16c-.2,0-.38-.07-.53-.22-.15-.15-.22-.32-.22-.53s.07-.39,.22-.54c.15-.15,.33-.22,.53-.22s.39,.07,.54,.22c.15,.15,.22,.33,.22,.54s-.07,.38-.22,.53c-.15,.15-.33,.22-.54,.22Z"/><path d="M121.43,156.51l1.27-6.01h.78l.07,.84c.2-.26,.47-.48,.79-.66,.33-.18,.76-.27,1.3-.27,.51,0,.91,.14,1.19,.41,.29,.27,.43,.7,.43,1.27,0,.27-.04,.59-.11,.95l-.75,3.48h-1.03l.72-3.38c.07-.36,.11-.65,.11-.87,0-.36-.08-.6-.24-.75-.16-.14-.42-.21-.76-.21-.29,0-.57,.06-.85,.19s-.52,.35-.73,.65c-.21,.31-.38,.72-.49,1.25l-.65,3.11h-1.04Z"/><path d="M130.07,158.81c-.51,0-.97-.12-1.39-.36-.42-.24-.7-.57-.84-.99l1.09-.3c.04,.19,.16,.37,.36,.53,.2,.16,.48,.24,.85,.24,.43,0,.77-.07,1.02-.22s.44-.35,.57-.61,.23-.55,.3-.86l.16-.69c-.2,.26-.45,.45-.74,.58-.29,.13-.59,.19-.91,.19-.37,0-.73-.09-1.08-.27-.35-.18-.63-.46-.85-.83-.22-.37-.33-.84-.33-1.39,0-.62,.11-1.19,.35-1.72,.23-.52,.56-.94,.98-1.25,.42-.31,.93-.47,1.51-.47,.43,0,.82,.1,1.18,.29s.61,.45,.76,.78l.48-.95h.75c-.19,.9-.39,1.81-.58,2.71-.19,.9-.38,1.81-.58,2.73-.04,.18-.09,.39-.15,.64-.06,.25-.14,.5-.26,.76-.12,.26-.28,.5-.5,.72-.21,.22-.5,.4-.85,.54s-.79,.21-1.31,.21Zm.82-3.38c.38,0,.71-.13,.98-.38s.49-.57,.64-.96c.15-.38,.22-.77,.22-1.17,0-.54-.15-.95-.45-1.23-.3-.28-.65-.42-1.05-.42s-.76,.12-1.04,.36c-.28,.24-.49,.55-.63,.93s-.21,.78-.21,1.2c0,.52,.14,.92,.42,1.22,.28,.29,.65,.44,1.11,.44Z"/><path d="M142.01,156.51l.44-2h-4.11l.21-.96,5.19-5.14h1.05l-1.09,5.14h1.5l-.21,.96h-1.5l-.42,2h-1.05Zm-2.34-2.96h2.97l.8-3.73-3.77,3.73Z"/><path d="M151.54,158.81c-.51,0-.97-.12-1.39-.36-.42-.24-.7-.57-.84-.99l1.09-.3c.04,.19,.16,.37,.36,.53,.2,.16,.48,.24,.85,.24,.43,0,.77-.07,1.02-.22s.44-.35,.57-.61,.23-.55,.3-.86l.16-.69c-.2,.26-.45,.45-.74,.58-.29,.13-.59,.19-.91,.19-.37,0-.73-.09-1.08-.27-.35-.18-.63-.46-.85-.83-.22-.37-.33-.84-.33-1.39,0-.62,.11-1.19,.35-1.72,.23-.52,.56-.94,.98-1.25,.42-.31,.93-.47,1.51-.47,.43,0,.82,.1,1.18,.29s.61,.45,.76,.78l.48-.95h.75c-.19,.9-.39,1.81-.58,2.71-.19,.9-.38,1.81-.58,2.73-.04,.18-.09,.39-.15,.64-.06,.25-.14,.5-.26,.76-.12,.26-.28,.5-.5,.72-.21,.22-.5,.4-.85,.54s-.79,.21-1.31,.21Zm.82-3.38c.38,0,.71-.13,.98-.38s.49-.57,.64-.96c.15-.38,.22-.77,.22-1.17,0-.54-.15-.95-.45-1.23-.3-.28-.65-.42-1.05-.42s-.76,.12-1.04,.36c-.28,.24-.49,.55-.63,.93s-.21,.78-.21,1.2c0,.52,.14,.92,.42,1.22,.28,.29,.65,.44,1.11,.44Z"/><path d="M159.03,156.65c-.79,0-1.42-.23-1.87-.69s-.68-1.08-.68-1.87c0-.7,.14-1.33,.42-1.89,.28-.56,.67-1,1.19-1.32,.51-.32,1.12-.48,1.81-.48,.54,0,.99,.11,1.35,.33,.36,.22,.62,.52,.81,.89,.18,.38,.27,.79,.27,1.25,0,.29-.04,.59-.11,.91h-4.65c0,.06-.01,.11-.01,.17v.17c0,.41,.08,.74,.24,.98,.16,.24,.36,.41,.61,.51,.25,.1,.5,.15,.76,.15,.34,0,.63-.05,.87-.16,.24-.11,.45-.25,.62-.43l.95,.29c-.27,.36-.62,.64-1.05,.87-.42,.22-.93,.33-1.51,.33Zm-1.33-3.7h3.55s.01-.08,.01-.11v-.1c0-.24-.05-.48-.15-.7-.1-.23-.26-.41-.48-.56-.22-.15-.52-.22-.88-.22-.3,0-.59,.06-.87,.19-.28,.13-.53,.32-.74,.57s-.36,.56-.44,.92Z"/><path d="M162.87,156.51l1.27-6.01h.78l.07,.84c.2-.26,.47-.48,.79-.66,.33-.18,.76-.27,1.3-.27,.51,0,.91,.14,1.19,.41,.29,.27,.43,.7,.43,1.27,0,.27-.04,.59-.11,.95l-.75,3.48h-1.03l.72-3.38c.07-.36,.11-.65,.11-.87,0-.36-.08-.6-.24-.75-.16-.14-.42-.21-.76-.21-.29,0-.57,.06-.85,.19s-.52,.35-.73,.65c-.21,.31-.38,.72-.49,1.25l-.65,3.11h-1.04Z"/><path d="M172.38,156.65c-.79,0-1.42-.23-1.87-.69s-.68-1.08-.68-1.87c0-.7,.14-1.33,.42-1.89,.28-.56,.67-1,1.19-1.32,.51-.32,1.12-.48,1.81-.48,.54,0,.99,.11,1.35,.33,.36,.22,.62,.52,.81,.89,.18,.38,.27,.79,.27,1.25,0,.29-.04,.59-.11,.91h-4.65c0,.06-.01,.11-.01,.17v.17c0,.41,.08,.74,.24,.98,.16,.24,.36,.41,.61,.51,.25,.1,.5,.15,.76,.15,.34,0,.63-.05,.87-.16,.24-.11,.45-.25,.62-.43l.95,.29c-.27,.36-.62,.64-1.05,.87-.42,.22-.93,.33-1.51,.33Zm-1.33-3.7h3.55s.01-.08,.01-.11v-.1c0-.24-.05-.48-.15-.7-.1-.23-.26-.41-.48-.56-.22-.15-.52-.22-.88-.22-.3,0-.59,.06-.87,.19-.28,.13-.53,.32-.74,.57s-.36,.56-.44,.92Z"/><path d="M176.22,156.51l1.27-6.01h.76l.1,1.13c.25-.36,.54-.65,.88-.88,.34-.23,.8-.35,1.4-.35h.13l-.23,1.08c-.23,0-.44,0-.63,.04-.61,.1-1.08,.37-1.41,.82s-.56,1.01-.71,1.69l-.52,2.48h-1.04Z"/><path d="M182.15,156.65c-.52,0-.95-.14-1.29-.42-.34-.28-.52-.66-.52-1.14,0-.4,.11-.74,.32-1.01,.21-.27,.49-.48,.84-.64,.34-.16,.72-.28,1.11-.37s.79-.15,1.17-.19c.38-.04,.71-.08,.98-.11,.02-.11,.04-.22,.06-.31,.02-.1,.02-.19,.02-.28,0-.64-.37-.96-1.11-.96-.37,0-.69,.08-.95,.25-.26,.17-.46,.39-.59,.68l-.91-.28c.21-.45,.52-.81,.92-1.08s.9-.4,1.48-.4c.7,0,1.24,.14,1.62,.42,.38,.28,.57,.72,.57,1.31,0,.14-.01,.27-.03,.41-.02,.14-.06,.33-.11,.58-.05,.25-.13,.62-.24,1.1-.11,.5-.18,.94-.21,1.3s-.06,.69-.07,.98h-.96l-.05-.76c-.27,.3-.56,.53-.88,.68-.32,.15-.72,.23-1.19,.23Zm.33-.84c.55,0,1.02-.18,1.41-.55,.39-.37,.64-.86,.75-1.47l.04-.21c-.67,.06-1.24,.14-1.72,.22-.48,.08-.84,.22-1.09,.39-.25,.18-.38,.44-.38,.79,0,.27,.1,.48,.29,.62,.19,.14,.43,.21,.7,.21Z"/><path d="M188.6,156.51c-.47,0-.79-.07-.96-.2s-.26-.34-.26-.61c0-.18,.04-.45,.12-.82l.76-3.55h-1.01l.17-.82h1.01l.33-1.5h1.04l-.33,1.5h1.15l-.17,.82h-1.15l-.7,3.26c-.03,.15-.06,.28-.08,.39-.02,.12-.03,.21-.03,.27,0,.13,.04,.22,.11,.27,.07,.05,.21,.08,.41,.08h.53l-.19,.91h-.75Z"/><path d="M191.2,156.51l1.1-5.19h-.97l.17-.82h2.01l-1.27,6.01h-1.04Zm2.22-7.16c-.2,0-.38-.07-.53-.22-.15-.15-.22-.32-.22-.53s.07-.39,.22-.54c.15-.15,.33-.22,.53-.22s.39,.07,.54,.22c.15,.15,.22,.33,.22,.54s-.07,.38-.22,.53c-.15,.15-.33,.22-.54,.22Z"/><path d="M196.77,156.65c-.81,0-1.42-.24-1.84-.72-.42-.48-.62-1.09-.62-1.84,0-.7,.14-1.33,.42-1.89,.28-.56,.68-1,1.18-1.32,.5-.32,1.08-.48,1.74-.48,.41,0,.8,.09,1.17,.27s.67,.45,.9,.82,.35,.84,.35,1.41c0,.51-.08,.99-.24,1.44-.16,.45-.39,.85-.68,1.2-.29,.35-.64,.62-1.04,.82-.4,.2-.85,.3-1.33,.3Zm.08-.9c.47,0,.86-.14,1.18-.42,.31-.28,.55-.64,.72-1.08,.16-.44,.24-.9,.24-1.39,0-.59-.14-1-.43-1.22-.29-.23-.64-.34-1.06-.34-.48,0-.87,.14-1.19,.41-.31,.27-.55,.63-.7,1.05-.15,.43-.23,.88-.23,1.35,0,.49,.13,.89,.38,1.19,.25,.3,.62,.45,1.1,.45Z"/><path d="M200.76,156.51l1.27-6.01h.78l.07,.84c.2-.26,.47-.48,.79-.66,.33-.18,.76-.27,1.3-.27,.51,0,.91,.14,1.19,.41,.29,.27,.43,.7,.43,1.27,0,.27-.04,.59-.11,.95l-.75,3.48h-1.03l.72-3.38c.07-.36,.11-.65,.11-.87,0-.36-.08-.6-.24-.75-.16-.14-.42-.21-.76-.21-.29,0-.57,.06-.85,.19s-.52,.35-.73,.65c-.21,.31-.38,.72-.49,1.25l-.65,3.11h-1.04Z"/><path d="M209.98,156.65c-.61,0-1.11-.12-1.53-.35s-.72-.62-.93-1.16l1.04-.35c.06,.36,.24,.62,.53,.79,.29,.17,.6,.25,.92,.25s.63-.08,.91-.25c.27-.17,.41-.41,.41-.73,0-.23-.08-.4-.24-.53s-.37-.23-.62-.31c-.25-.08-.52-.16-.81-.24-.28-.08-.55-.18-.81-.3-.25-.12-.46-.3-.62-.52-.16-.22-.24-.51-.24-.87s.11-.69,.34-.94c.23-.25,.52-.43,.87-.56s.72-.19,1.11-.19c.33,0,.65,.05,.97,.14,.31,.09,.59,.23,.84,.41,.24,.18,.41,.41,.51,.69l-.97,.34c-.08-.24-.26-.43-.55-.55-.28-.12-.58-.19-.88-.19s-.58,.06-.83,.19c-.25,.13-.37,.33-.37,.59,0,.22,.08,.39,.24,.52,.16,.13,.37,.23,.63,.31,.26,.08,.53,.16,.82,.24s.56,.18,.82,.31,.47,.3,.63,.52c.16,.21,.24,.5,.24,.87,0,.41-.11,.76-.33,1.04s-.51,.49-.87,.63c-.36,.14-.77,.21-1.22,.21Z"/><path d="M219.5,156.65c-.81,0-1.42-.24-1.84-.72-.42-.48-.62-1.09-.62-1.84,0-.7,.14-1.33,.42-1.89,.28-.56,.68-1,1.18-1.32,.5-.32,1.08-.48,1.74-.48,.41,0,.8,.09,1.17,.27s.67,.45,.9,.82,.35,.84,.35,1.41c0,.51-.08,.99-.24,1.44-.16,.45-.39,.85-.68,1.2-.29,.35-.64,.62-1.04,.82-.4,.2-.85,.3-1.33,.3Zm.08-.9c.47,0,.86-.14,1.18-.42,.31-.28,.55-.64,.72-1.08,.16-.44,.24-.9,.24-1.39,0-.59-.14-1-.43-1.22-.29-.23-.64-.34-1.06-.34-.48,0-.87,.14-1.19,.41-.31,.27-.55,.63-.7,1.05-.15,.43-.23,.88-.23,1.35,0,.49,.13,.89,.38,1.19,.25,.3,.62,.45,1.1,.45Z"/><path d="M223.85,156.51l1.1-5.19h-1.02l.18-.82h1.01l.15-.64c.1-.41,.2-.74,.3-.99s.23-.44,.38-.57c.15-.13,.33-.22,.55-.26,.22-.04,.49-.07,.82-.08h.62l-.18,.86h-.29c-.19,0-.36,.02-.51,.05-.15,.03-.27,.11-.36,.23-.1,.12-.18,.32-.24,.59l-.18,.81h1.24l-.18,.82h-1.22l-1.1,5.19h-1.04Z"/><path d="M233.49,156.65c-.75,0-1.34-.22-1.75-.67-.42-.44-.62-1.05-.62-1.81,0-.69,.14-1.31,.41-1.88,.27-.57,.65-1.03,1.15-1.38,.5-.35,1.08-.52,1.74-.52,.55,0,1.01,.12,1.38,.35,.37,.23,.66,.56,.86,1l-1.01,.35c-.08-.24-.24-.44-.47-.58-.23-.15-.51-.22-.81-.22-.46,0-.85,.13-1.16,.4-.31,.27-.56,.61-.72,1.04s-.25,.89-.25,1.38c0,.46,.11,.85,.33,1.16,.22,.31,.61,.47,1.16,.47,.33,0,.62-.07,.87-.21,.25-.14,.46-.33,.64-.58l.86,.34c-.27,.44-.64,.78-1.1,1.01-.46,.23-.96,.34-1.5,.34Z"/><path d="M239.74,156.65c-.79,0-1.42-.23-1.87-.69s-.68-1.08-.68-1.87c0-.7,.14-1.33,.42-1.89,.28-.56,.67-1,1.19-1.32,.51-.32,1.12-.48,1.81-.48,.54,0,.99,.11,1.35,.33,.36,.22,.62,.52,.81,.89,.18,.38,.27,.79,.27,1.25,0,.29-.04,.59-.11,.91h-4.65c0,.06-.01,.11-.01,.17v.17c0,.41,.08,.74,.24,.98,.16,.24,.36,.41,.61,.51,.25,.1,.5,.15,.76,.15,.34,0,.63-.05,.87-.16,.24-.11,.45-.25,.62-.43l.95,.29c-.27,.36-.62,.64-1.05,.87-.42,.22-.93,.33-1.51,.33Zm-1.33-3.7h3.55s.01-.08,.01-.11v-.1c0-.24-.05-.48-.15-.7-.1-.23-.26-.41-.48-.56-.22-.15-.52-.22-.88-.22-.3,0-.59,.06-.87,.19-.28,.13-.53,.32-.74,.57s-.36,.56-.44,.92Z"/><path d="M243.58,156.51l1.27-6.01h.76l.1,1.13c.25-.36,.54-.65,.88-.88,.34-.23,.8-.35,1.4-.35h.13l-.23,1.08c-.23,0-.44,0-.63,.04-.61,.1-1.08,.37-1.41,.82s-.56,1.01-.71,1.69l-.52,2.48h-1.04Z"/><path d="M249.96,156.51c-.47,0-.79-.07-.96-.2s-.26-.34-.26-.61c0-.18,.04-.45,.12-.82l.76-3.55h-1.01l.17-.82h1.01l.33-1.5h1.04l-.33,1.5h1.15l-.17,.82h-1.15l-.7,3.26c-.03,.15-.06,.28-.08,.39-.02,.12-.03,.21-.03,.27,0,.13,.04,.22,.11,.27,.07,.05,.21,.08,.41,.08h.53l-.19,.91h-.75Z"/><path d="M252.56,156.51l1.1-5.19h-.97l.17-.82h2.01l-1.27,6.01h-1.04Zm2.22-7.16c-.2,0-.38-.07-.53-.22-.15-.15-.22-.32-.22-.53s.07-.39,.22-.54c.15-.15,.33-.22,.53-.22s.39,.07,.54,.22c.15,.15,.22,.33,.22,.54s-.07,.38-.22,.53c-.15,.15-.33,.22-.54,.22Z"/><path d="M255.79,156.51l1.1-5.19h-1.02l.18-.82h1.01l.15-.64c.1-.41,.2-.74,.3-.99s.23-.44,.38-.57c.15-.13,.33-.22,.55-.26,.22-.04,.49-.07,.82-.08h.62l-.18,.86h-.29c-.19,0-.36,.02-.51,.05-.15,.03-.27,.11-.36,.23-.1,.12-.18,.32-.24,.59l-.18,.81h1.24l-.18,.82h-1.22l-1.1,5.19h-1.04Z"/><path d="M259.84,156.51l1.1-5.19h-.97l.17-.82h2.01l-1.27,6.01h-1.04Zm2.22-7.16c-.2,0-.38-.07-.53-.22-.15-.15-.22-.32-.22-.53s.07-.39,.22-.54c.15-.15,.33-.22,.53-.22s.39,.07,.54,.22c.15,.15,.22,.33,.22,.54s-.07,.38-.22,.53c-.15,.15-.33,.22-.54,.22Z"/><path d="M265.3,156.65c-.75,0-1.34-.22-1.75-.67-.42-.44-.62-1.05-.62-1.81,0-.69,.14-1.31,.41-1.88,.27-.57,.65-1.03,1.15-1.38,.5-.35,1.08-.52,1.74-.52,.55,0,1.01,.12,1.38,.35,.37,.23,.66,.56,.86,1l-1.01,.35c-.08-.24-.24-.44-.47-.58-.23-.15-.51-.22-.81-.22-.46,0-.85,.13-1.16,.4-.31,.27-.56,.61-.72,1.04s-.25,.89-.25,1.38c0,.46,.11,.85,.33,1.16,.22,.31,.61,.47,1.16,.47,.33,0,.62-.07,.87-.21,.25-.14,.46-.33,.64-.58l.86,.34c-.27,.44-.64,.78-1.1,1.01-.46,.23-.96,.34-1.5,.34Z"/><path d="M270.54,156.65c-.52,0-.95-.14-1.29-.42-.34-.28-.52-.66-.52-1.14,0-.4,.11-.74,.32-1.01,.21-.27,.49-.48,.84-.64,.34-.16,.72-.28,1.11-.37s.79-.15,1.17-.19c.38-.04,.71-.08,.98-.11,.02-.11,.04-.22,.06-.31,.02-.1,.02-.19,.02-.28,0-.64-.37-.96-1.11-.96-.37,0-.69,.08-.95,.25-.26,.17-.46,.39-.59,.68l-.91-.28c.21-.45,.52-.81,.92-1.08s.9-.4,1.48-.4c.7,0,1.24,.14,1.62,.42,.38,.28,.57,.72,.57,1.31,0,.14-.01,.27-.03,.41-.02,.14-.06,.33-.11,.58-.05,.25-.13,.62-.24,1.1-.11,.5-.18,.94-.21,1.3s-.06,.69-.07,.98h-.96l-.05-.76c-.27,.3-.56,.53-.88,.68-.32,.15-.72,.23-1.19,.23Zm.33-.84c.55,0,1.02-.18,1.41-.55,.39-.37,.64-.86,.75-1.47l.04-.21c-.67,.06-1.24,.14-1.72,.22-.48,.08-.84,.22-1.09,.39-.25,.18-.38,.44-.38,.79,0,.27,.1,.48,.29,.62,.19,.14,.43,.21,.7,.21Z"/><path d="M276.98,156.51c-.47,0-.79-.07-.96-.2s-.26-.34-.26-.61c0-.18,.04-.45,.12-.82l.76-3.55h-1.01l.17-.82h1.01l.33-1.5h1.04l-.33,1.5h1.15l-.17,.82h-1.15l-.7,3.26c-.03,.15-.06,.28-.08,.39-.02,.12-.03,.21-.03,.27,0,.13,.04,.22,.11,.27,.07,.05,.21,.08,.41,.08h.53l-.19,.91h-.75Z"/><path d="M281.92,156.65c-.79,0-1.42-.23-1.87-.69s-.68-1.08-.68-1.87c0-.7,.14-1.33,.42-1.89,.28-.56,.67-1,1.19-1.32,.51-.32,1.12-.48,1.81-.48,.54,0,.99,.11,1.35,.33,.36,.22,.62,.52,.81,.89,.18,.38,.27,.79,.27,1.25,0,.29-.04,.59-.11,.91h-4.65c0,.06-.01,.11-.01,.17v.17c0,.41,.08,.74,.24,.98,.16,.24,.36,.41,.61,.51,.25,.1,.5,.15,.76,.15,.34,0,.63-.05,.87-.16,.24-.11,.45-.25,.62-.43l.95,.29c-.27,.36-.62,.64-1.05,.87-.42,.22-.93,.33-1.51,.33Zm-1.33-3.7h3.55s.01-.08,.01-.11v-.1c0-.24-.05-.48-.15-.7-.1-.23-.26-.41-.48-.56-.22-.15-.52-.22-.88-.22-.3,0-.59,.06-.87,.19-.28,.13-.53,.32-.74,.57s-.36,.56-.44,.92Z"/><path d="M288.24,156.65c-.61,0-1.11-.12-1.53-.35s-.72-.62-.93-1.16l1.04-.35c.06,.36,.24,.62,.53,.79,.29,.17,.6,.25,.92,.25s.63-.08,.91-.25c.27-.17,.41-.41,.41-.73,0-.23-.08-.4-.24-.53s-.37-.23-.62-.31c-.25-.08-.52-.16-.81-.24-.28-.08-.55-.18-.81-.3-.25-.12-.46-.3-.62-.52-.16-.22-.24-.51-.24-.87s.11-.69,.34-.94c.23-.25,.52-.43,.87-.56s.72-.19,1.11-.19c.33,0,.65,.05,.97,.14,.31,.09,.59,.23,.84,.41,.24,.18,.41,.41,.51,.69l-.97,.34c-.08-.24-.26-.43-.55-.55-.28-.12-.58-.19-.88-.19s-.58,.06-.83,.19c-.25,.13-.37,.33-.37,.59,0,.22,.08,.39,.24,.52,.16,.13,.37,.23,.63,.31,.26,.08,.53,.16,.82,.24s.56,.18,.82,.31,.47,.3,.63,.52c.16,.21,.24,.5,.24,.87,0,.41-.11,.76-.33,1.04s-.51,.49-.87,.63c-.36,.14-.77,.21-1.22,.21Z"/><path d="M292.29,156.65c-.21,0-.39-.08-.55-.23-.15-.15-.23-.33-.23-.55s.08-.4,.23-.56c.15-.15,.33-.23,.55-.23s.4,.08,.56,.23c.15,.15,.23,.34,.23,.56s-.08,.39-.23,.55c-.15,.15-.34,.23-.56,.23Z"/></g><g><g><path d="M61.22,81.8v-24.86h8.82l5.17,17.83,5.25-17.83h8.82v24.86h-5.73v-19.54l-5.92,19.54h-4.84l-5.88-19.54v19.54h-5.69Z"/><path d="M101.78,82.25c-1.71,0-3.31-.35-4.8-1.04-1.49-.69-2.69-1.77-3.61-3.22-.92-1.45-1.38-3.28-1.38-5.49s.46-4.06,1.38-5.49c.92-1.43,2.12-2.48,3.61-3.16,1.49-.68,3.09-1.02,4.8-1.02s3.27,.34,4.76,1.02c1.49,.68,2.69,1.74,3.61,3.16,.92,1.43,1.38,3.26,1.38,5.49s-.46,4.04-1.38,5.49c-.92,1.45-2.12,2.52-3.61,3.22-1.49,.69-3.08,1.04-4.76,1.04Zm0-4.39c1.14,0,2.09-.41,2.85-1.23,.76-.82,1.14-2.2,1.14-4.13s-.39-3.33-1.17-4.11c-.78-.78-1.72-1.17-2.81-1.17s-2.07,.39-2.85,1.17c-.78,.78-1.17,2.15-1.17,4.11s.38,3.31,1.15,4.13c.77,.82,1.72,1.23,2.87,1.23Z"/><path d="M122.44,82.25c-2.16,0-4.03-.4-5.6-1.19-1.58-.79-2.72-1.96-3.44-3.5l4.8-1.75c.27,.77,.8,1.35,1.58,1.73,.78,.39,1.71,.58,2.77,.58,.92,0,1.73-.14,2.44-.43,.71-.28,1.06-.71,1.06-1.28,0-.4-.21-.73-.63-1-.42-.27-1.17-.5-2.23-.67l-3.31-.56c-1.79-.3-3.24-.91-4.35-1.82-1.12-.92-1.67-2.15-1.67-3.68,0-1.29,.39-2.37,1.17-3.24,.78-.87,1.82-1.52,3.11-1.95,1.29-.43,2.69-.65,4.21-.65,1.76,0,3.39,.32,4.89,.95,1.5,.63,2.6,1.68,3.29,3.14l-4.76,1.75c-.17-.67-.58-1.12-1.23-1.36-.65-.24-1.39-.35-2.23-.35-2.03,0-3.05,.5-3.05,1.49,0,.37,.17,.68,.52,.91,.35,.24,.93,.43,1.75,.58l3.42,.63c2.23,.4,3.88,.98,4.95,1.75,1.07,.77,1.6,1.92,1.6,3.46,0,1.44-.41,2.64-1.23,3.61-.82,.97-1.91,1.69-3.27,2.16-1.36,.47-2.88,.71-4.54,.71Z"/><path d="M142.31,81.8c-1.51,0-2.72-.13-3.61-.39-.89-.26-1.53-.77-1.92-1.53-.38-.76-.58-1.85-.58-3.29v-8.93h-3.05v-4.32h3.05v-4.61h5.66v4.61h4.02v4.32h-4.02v7.44c0,.87,.17,1.43,.5,1.69,.33,.26,.96,.39,1.88,.39h1.64v4.61h-3.57Z"/><path d="M159.24,81.8l9.42-24.86h6.48l9.42,24.86h-6.4l-1.49-4.43h-9.53l-1.49,4.43h-6.4Zm9.49-9.19h6.33l-3.2-9.45-3.13,9.45Z"/><path d="M190.02,81.8l-6.59-18.46h5.84l3.94,12.58,3.94-12.58h5.84l-6.62,18.46h-6.36Z"/><path d="M213.84,82.25c-1.99,0-3.74-.39-5.27-1.17-1.53-.78-2.72-1.9-3.57-3.37-.86-1.46-1.28-3.21-1.28-5.25s.45-3.66,1.36-5.1c.91-1.44,2.11-2.56,3.61-3.35,1.5-.79,3.14-1.19,4.93-1.19,2.03,0,3.78,.48,5.23,1.43s2.55,2.27,3.29,3.94c.74,1.67,1.05,3.6,.93,5.79h-13.66c.1,1.29,.58,2.26,1.43,2.9,.86,.65,1.8,.97,2.85,.97,.87,0,1.62-.13,2.25-.39,.63-.26,1.12-.59,1.47-.99l4.5,1.64c-.97,1.41-2.18,2.46-3.63,3.13-1.45,.67-2.93,1-4.45,1Zm-4.43-11.61h8.41c-.02-1.19-.43-2.09-1.23-2.7-.79-.61-1.74-.91-2.83-.91s-2.02,.29-2.85,.86c-.83,.57-1.33,1.49-1.51,2.75Z"/><path d="M225.93,81.8v-18.46h4.47l1,3.39c.57-1.49,1.35-2.53,2.34-3.13,.99-.6,2.2-.86,3.61-.78v5.66c-.3-.05-.56-.08-.78-.09-.22-.01-.47-.02-.74-.02-1.36,0-2.41,.32-3.14,.97-.73,.65-1.1,1.7-1.1,3.16v9.3h-5.66Z"/><path d="M244.87,82.25c-1.17,0-2.23-.22-3.2-.67-.97-.45-1.74-1.07-2.31-1.88-.57-.81-.86-1.77-.86-2.88,0-1.51,.53-2.72,1.58-3.61,1.05-.89,2.5-1.56,4.34-2.01,1.84-.45,3.94-.76,6.33-.93,0-1.31-.21-2.24-.63-2.79-.42-.55-1.24-.82-2.46-.82-.77,0-1.45,.18-2.03,.54-.58,.36-.97,.91-1.17,1.66l-4.76-1.71c.62-1.24,1.66-2.27,3.11-3.09,1.45-.82,3.23-1.23,5.34-1.23,2.63,0,4.65,.58,6.07,1.75,1.41,1.17,2.12,3.15,2.12,5.95v4.06c0,.79,.02,1.65,.07,2.57,.05,.92,.12,1.79,.22,2.6,.1,.82,.21,1.5,.33,2.05h-5.25l-.67-2.23c-.69,.97-1.57,1.66-2.62,2.07-1.05,.41-2.24,.61-3.55,.61Zm2.08-3.87c1.12,0,2.05-.3,2.79-.89,.74-.6,1.12-1.74,1.12-3.42v-.45c-1.96,.17-3.54,.44-4.73,.8-1.19,.36-1.79,1.02-1.79,1.99,0,.6,.25,1.07,.74,1.43,.5,.36,1.12,.54,1.86,.54Z"/><path d="M269.28,89.36c-1.02,0-2.05-.13-3.09-.39-1.04-.26-2.01-.71-2.9-1.36-.89-.65-1.63-1.53-2.2-2.64l4.61-1.67c.35,.67,.84,1.13,1.49,1.38,.64,.25,1.29,.37,1.94,.37,1.19,0,2.15-.28,2.87-.84,.72-.56,1.08-1.45,1.08-2.66v-3.31c-.79,.99-1.71,1.72-2.74,2.2-1.03,.47-2.07,.71-3.11,.71-1.34,0-2.62-.36-3.83-1.08-1.22-.72-2.21-1.75-2.98-3.09-.77-1.34-1.15-2.94-1.15-4.8,0-2.16,.38-3.93,1.15-5.3,.77-1.38,1.75-2.4,2.94-3.07,1.19-.67,2.42-1,3.68-1,1.17,0,2.29,.26,3.37,.78s1.97,1.29,2.66,2.31l.74-2.53h4.88v17.08c0,3.08-.83,5.33-2.49,6.77-1.66,1.44-3.97,2.16-6.92,2.16Zm-.04-12.62c.74,0,1.42-.14,2.03-.43,.61-.28,1.1-.77,1.47-1.47,.37-.69,.56-1.64,.56-2.83,0-1.81-.4-3.06-1.21-3.76-.81-.69-1.76-1.04-2.85-1.04s-2.08,.37-2.88,1.12c-.81,.74-1.21,1.92-1.21,3.54s.4,2.86,1.21,3.67c.81,.81,1.77,1.21,2.88,1.21Z"/><path d="M291.8,82.25c-1.99,0-3.74-.39-5.27-1.17-1.53-.78-2.72-1.9-3.57-3.37-.86-1.46-1.28-3.21-1.28-5.25s.45-3.66,1.36-5.1c.91-1.44,2.11-2.56,3.61-3.35,1.5-.79,3.14-1.19,4.93-1.19,2.03,0,3.78,.48,5.23,1.43s2.55,2.27,3.29,3.94c.74,1.67,1.05,3.6,.93,5.79h-13.66c.1,1.29,.58,2.26,1.43,2.9,.86,.65,1.8,.97,2.85,.97,.87,0,1.62-.13,2.25-.39,.63-.26,1.12-.59,1.47-.99l4.5,1.64c-.97,1.41-2.18,2.46-3.63,3.13-1.45,.67-2.93,1-4.45,1Zm-4.43-11.61h8.41c-.02-1.19-.43-2.09-1.23-2.7-.79-.61-1.74-.91-2.83-.91s-2.02,.29-2.85,.86c-.83,.57-1.33,1.49-1.51,2.75Z"/></g><g><g><path class="cls-3" d="M43.31,69.89c-.53-.23-.95-.68-1.13-1.3l-.61-2.11c-.34-1.16-1.54-2.31-2.67-2.56l-2.06-.46c-.52-.11-.94-.43-1.21-.85-4.48,4.28-9.7,7.46-10,7.65-.3,.18-.48,.51-.47,.87,0,.35,.22,.65,.51,.78l5.14,2.15-.56,6.05c-.03,.33,.11,.64,.36,.82,.04,.03,.09,.06,.14,.08,.23,.1,.5,.09,.73-.04,5.61-3.02,11.2-8.12,14.56-11.47l-1.31,.45c-.49,.17-1,.14-1.43-.05Z"/><path class="cls-3" d="M58.8,81.65c-.2-.93-1.6-7.87-1.26-14.4,0,0,0,0,0,0l-1.5,1.67c-.8,.89-2.1,.99-2.92,.22l-1.55-1.45c-.66-.61-1.76-.95-2.76-.89-.99,.99-2.17,2.15-3.5,3.37,.06,4.46,.45,9.98,1.71,14.68,.07,.26,.24,.46,.47,.56,.05,.02,.1,.04,.15,.05,.3,.06,.62-.05,.84-.3l4-4.57,5.1,2.25h.01c.44,.19,.96-.04,1.16-.51,.1-.23,.1-.47,.03-.68Z"/><circle class="cls-1" cx="51.45" cy="53.71" r="15.29" transform="translate(-17.25 25.21) rotate(-23.7)"/><path class="cls-4" d="M68.54,60.91l-.57-1.9c-.31-1.04,.02-2.57,.75-3.38l1.32-1.48c.7-.79,.65-2-.12-2.72l-1.44-1.36c-.79-.75-1.26-2.23-1.04-3.3l.4-1.94c.22-1.04-.44-2.06-1.47-2.3l-1.93-.45c-1.06-.25-2.21-1.3-2.55-2.34l-.62-1.88c-.33-1.01-1.41-1.56-2.42-1.26l-1.9,.57c-1.04,.31-2.57-.02-3.38-.75l-1.48-1.32c-.79-.7-2-.65-2.72,.12l-1.36,1.44c-.75,.79-2.23,1.26-3.3,1.04l-1.94-.4c-1.04-.21-2.06,.44-2.3,1.47l-.45,1.93c-.25,1.06-1.3,2.21-2.34,2.55l-1.88,.62c-1.01,.33-1.56,1.41-1.26,2.42l.57,1.9c.31,1.04-.02,2.57-.75,3.38l-1.32,1.48c-.7,.79-.65,2,.12,2.72l1.44,1.36c.79,.75,1.26,2.23,1.04,3.3l-.4,1.94c-.21,1.04,.44,2.06,1.47,2.3l1.93,.45c1.06,.25,2.21,1.3,2.55,2.34l.62,1.88c.18,.55,.59,.97,1.08,1.18,.41,.18,.88,.21,1.34,.08l1.9-.57c1.04-.31,2.57,.02,3.38,.75l1.48,1.32c.79,.71,2,.65,2.72-.12l1.36-1.44c.75-.79,2.23-1.26,3.3-1.04l1.94,.4c1.04,.22,2.06-.44,2.3-1.47l.45-1.93c.25-1.06,1.3-2.21,2.34-2.55l1.88-.62c1.01-.33,1.56-1.41,1.26-2.42Zm-21.96,4.47c-6.56-2.82-9.6-10.43-6.78-17,2.82-6.56,10.43-9.6,17-6.78,6.56,2.82,9.6,10.43,6.78,17-2.82,6.56-10.43,9.6-17,6.78Z"/></g><g><path d="M45.04,48.36h-2.09v-1.13h5.39v1.13h-2.07v11.24h-1.24v-11.24Z"/><path d="M50.38,47.22v4.58c.24-.57,.81-1.05,1.79-1.05,1.46,0,1.89,1.1,1.89,2.51v6.34h-1.23v-6.04c0-.84-.1-1.68-1.08-1.68-1.12,0-1.37,.87-1.37,2.37v5.35h-1.23v-12.38h1.23Z"/><path d="M56.83,56.02v.55c0,1.03,.2,2.12,1.22,2.12,.97,0,1.15-.77,1.15-1.76v-.09h1.21v.08c0,1.16-.27,2.84-2.37,2.84-1.94,0-2.42-1.29-2.42-3.28v-2.66c0-1.52,.54-3.07,2.45-3.07s2.36,1.4,2.36,3.07v2.2h-3.61Zm2.41-1.02v-1.28c0-.91-.13-1.91-1.18-1.91s-1.23,.84-1.23,1.92v1.27h2.41Z"/></g></g></g></g></svg>