<?xml version="1.0" encoding="UTF-8"?><svg id="Layer_1" xmlns="http://www.w3.org/2000/svg" viewBox="0 0 167.92 48.42"><defs><style>.cls-1{fill:#ff8f15;}</style></defs><path class="cls-1" d="M0,0H161C164.82,0,167.92,3.1,167.92,6.93V41.49c0,3.82-3.1,6.93-6.93,6.93H0V0H0Z"/><g><path d="M14.65,12.68c0-1.55,.04-3.16,.07-4.03h-.02c-.28,1.38-1.18,5.1-1.79,7.58h-1.04c-.47-2.13-1.4-6.12-1.67-7.59h-.03c.03,.96,.09,2.85,.09,4.27v3.32h-.99V7.93h1.55c.65,2.53,1.44,5.73,1.59,6.77h.02c.17-1,1.07-4.38,1.72-6.77h1.53v8.3h-1.03v-3.55Z"/><path d="M21.29,11.68v2.69c0,1.37-.85,1.96-2.14,1.96s-2.1-.57-2.1-1.92v-2.74c0-1.18,.81-1.84,2.15-1.84s2.09,.69,2.09,1.85Zm-3.18-.01v2.77c0,.73,.33,1.19,1.06,1.19,.67,0,1.06-.34,1.06-1.19v-2.76c0-.65-.3-1.12-1.05-1.12s-1.06,.41-1.06,1.13Z"/><path d="M23.31,14.38v.27c0,.66,.37,.99,.98,.99,.68,0,.95-.32,.95-.94,0-.66-.26-.95-1.2-1.42-1.11-.56-1.63-1-1.63-1.86s.56-1.59,1.91-1.59c1.46,0,1.88,.72,1.88,1.62v.3h-1.03v-.34c0-.56-.21-.89-.87-.89-.59,0-.84,.31-.84,.83s.21,.75,1.07,1.18c1.18,.59,1.77,1.02,1.77,2.06,0,1.13-.66,1.74-2.06,1.74-1.58,0-2-.8-2-1.66v-.29h1.07Z"/><path d="M26.78,9.93h.98v-1.56h1.04v1.56h1.21v.7h-1.21v4.35c0,.33,.08,.66,.62,.66,.16,0,.42-.01,.54-.04v.62c-.24,.07-.6,.09-.88,.09-.76,0-1.32-.25-1.32-1.18v-4.5h-.98v-.7Z"/><path d="M34.12,13.48l-.56,2.75h-1.06l1.82-8.3h1.5l1.9,8.3h-1.1l-.6-2.75h-1.9Zm1.76-.72c-.42-1.93-.7-3.36-.8-4.1h-.04c-.04,.63-.45,2.52-.76,4.1h1.61Z"/><path d="M38.84,9.93c.25,1.02,1.06,4.25,1.23,5.39h.02c.12-1.02,1.04-4.29,1.28-5.39h1.06l-1.78,6.3h-1.21l-1.73-6.3h1.12Z"/><path d="M44.19,13.22v1.06c0,.66,.17,1.36,1.04,1.36,.83,0,.99-.49,.99-1.13v-.06h1.03v.05c0,.75-.24,1.83-2.02,1.83-1.66,0-2.07-.83-2.07-2.11v-2.41c0-.98,.46-1.97,2.1-1.97s2.02,.9,2.02,1.98v1.42h-3.09Zm2.06-.65v-.82c0-.59-.11-1.23-1.01-1.23s-1.05,.54-1.05,1.24v.81h2.06Z"/><path d="M48.54,12.08c0-1.01,0-1.61-.02-2.15h1c.02,.18,.04,.53,.04,.98,.3-.76,1.02-1.04,1.75-1.06v.98c-1.05,0-1.72,.52-1.72,1.62v3.78h-1.05v-4.15Z"/><path d="M55.82,15.19c0,.44,.01,.87,.03,1.04h-.98c-.04-.16-.08-.41-.08-.52-.27,.49-.8,.62-1.37,.62-1.2,0-1.67-.79-1.67-1.77v-.11c0-1.39,1.12-1.92,2.61-1.92h.41v-1.04c0-.59-.14-.97-.83-.97s-.88,.39-.88,.91v.18h-1.04v-.17c0-.87,.46-1.6,1.95-1.6s1.85,.69,1.85,1.6v3.76Zm-1.03-2.02h-.44c-.99,0-1.57,.32-1.57,1.26v.11c0,.59,.24,1.08,.92,1.08,.82,0,1.09-.5,1.09-1.47v-.97Z"/><path d="M61.4,16.15c0,1.25-.19,2.31-2.22,2.31-1.69,0-2.01-.87-2.01-1.55v-.03h1.06v.04c0,.34,.17,.86,1.01,.86,.91,0,1.11-.51,1.11-1.44v-.84c-.23,.45-.67,.68-1.43,.68-1.22,0-1.75-.66-1.75-1.92v-2.57c0-1.17,.69-1.86,1.92-1.86,.86,0,1.25,.33,1.37,.65,0-.17,.04-.41,.06-.55h.91c-.02,.34-.03,.92-.03,1.68v4.54Zm-3.17-4.42v2.46c0,.85,.3,1.26,.96,1.26,1.01,0,1.17-.79,1.17-1.65v-1.87c0-.77-.11-1.38-1.06-1.38-.76,0-1.07,.43-1.07,1.17Z"/><path d="M63.77,13.22v1.06c0,.66,.17,1.36,1.04,1.36,.83,0,.99-.49,.99-1.13v-.06h1.03v.05c0,.75-.24,1.83-2.02,1.83-1.66,0-2.07-.83-2.07-2.11v-2.41c0-.98,.46-1.97,2.1-1.97s2.02,.9,2.02,1.98v1.42h-3.09Zm2.06-.65v-.82c0-.59-.11-1.23-1.01-1.23s-1.05,.54-1.05,1.24v.81h2.06Z"/></g><g><path d="M17.09,39.31v-2.88h2.18v-9.74h-2.18v-2.88h7.98v2.88h-2.13v9.74h2.13v2.88h-7.98Z"/><path d="M27.56,39.31v-11.51h3.08l.44,1.53c.26-.43,.7-.85,1.31-1.25,.61-.4,1.36-.6,2.24-.6,1.48,0,2.5,.41,3.05,1.24,.55,.83,.82,2.02,.82,3.58v7.01h-3.53v-6.12c0-.54-.03-1.04-.09-1.48-.06-.45-.21-.81-.45-1.08-.24-.27-.65-.41-1.22-.41-.74,0-1.28,.27-1.62,.8-.34,.53-.51,1.33-.51,2.38v5.92h-3.53Z"/><path d="M45.67,39.31c-.94,0-1.69-.08-2.25-.24-.56-.16-.96-.48-1.19-.95-.24-.47-.36-1.16-.36-2.05v-5.57h-1.9v-2.69h1.9v-2.88h3.53v2.88h2.51v2.69h-2.51v4.64c0,.54,.1,.89,.31,1.06,.21,.16,.6,.24,1.17,.24h1.02v2.88h-2.23Z"/><path d="M49.62,39.31v-11.51h2.78l.63,2.11c.36-.93,.84-1.58,1.46-1.95,.62-.37,1.37-.53,2.25-.49v3.53c-.19-.03-.35-.05-.49-.06-.14,0-.29-.01-.46-.01-.85,0-1.5,.2-1.96,.6s-.68,1.06-.68,1.97v5.8h-3.53Z"/><path d="M63.74,39.59c-1.07,0-2.06-.22-2.99-.65-.93-.43-1.68-1.1-2.25-2.01-.57-.91-.86-2.04-.86-3.42s.29-2.53,.86-3.42c.57-.89,1.32-1.55,2.25-1.97s1.93-.64,2.99-.64,2.04,.21,2.97,.64c.93,.43,1.68,1.08,2.25,1.97,.57,.89,.86,2.03,.86,3.42s-.29,2.52-.86,3.42c-.57,.9-1.32,1.57-2.25,2.01-.93,.43-1.92,.65-2.97,.65Zm0-2.74c.71,0,1.3-.26,1.77-.77,.47-.51,.71-1.37,.71-2.58s-.24-2.08-.73-2.56-1.07-.73-1.75-.73-1.29,.24-1.77,.73-.73,1.34-.73,2.56,.24,2.06,.72,2.58c.48,.51,1.08,.77,1.79,.77Z"/><path d="M76.02,39.59c-.99,0-1.87-.25-2.63-.74-.77-.5-1.37-1.2-1.8-2.12-.43-.92-.65-2.01-.65-3.26s.22-2.32,.65-3.21c.43-.89,1.03-1.57,1.8-2.05s1.64-.72,2.63-.72c.63,0,1.28,.16,1.95,.48,.66,.32,1.18,.79,1.55,1.43v-5.57h3.53v11c0,.57,.03,1.25,.08,2.04,.05,.79,.16,1.61,.31,2.46h-3.36l-.46-1.55c-.48,.67-1.04,1.14-1.68,1.42-.64,.28-1.28,.42-1.91,.42Zm1.14-2.74c.68,0,1.27-.26,1.77-.77,.5-.51,.75-1.36,.75-2.55s-.25-2.02-.75-2.54c-.5-.52-1.09-.78-1.77-.78s-1.3,.28-1.8,.83c-.5,.56-.75,1.36-.75,2.41s.25,1.9,.75,2.49c.5,.6,1.1,.89,1.8,.89Z"/><path d="M89.36,39.59c-1.02,0-1.82-.19-2.4-.57s-.99-.93-1.23-1.66c-.24-.73-.36-1.61-.36-2.64v-6.91h3.53v6.43c0,1.05,.16,1.75,.48,2.1,.32,.35,.76,.52,1.33,.52,.7,0,1.2-.23,1.52-.7,.32-.46,.48-1.23,.48-2.3v-6.05h3.55v11.51h-3.06l-.49-1.62c-.34,.57-.76,1.03-1.26,1.38-.5,.35-1.19,.52-2.08,.52Z"/><path d="M103.88,39.59c-1.27,0-2.34-.25-3.21-.77-.87-.51-1.54-1.23-1.99-2.15-.46-.92-.68-1.98-.68-3.19s.25-2.26,.74-3.17c.49-.91,1.19-1.6,2.08-2.1,.89-.5,1.91-.74,3.07-.74,.66,0,1.33,.09,1.98,.28,.66,.19,1.27,.5,1.83,.94,.56,.44,1.02,1.04,1.38,1.8l-2.95,1.07c-.19-.5-.46-.84-.82-1.04-.36-.2-.77-.3-1.22-.3-.42,0-.82,.1-1.21,.31-.39,.21-.7,.55-.94,1.03-.24,.48-.36,1.13-.36,1.95s.12,1.5,.37,1.98c.25,.49,.56,.83,.94,1.04,.38,.21,.78,.31,1.19,.31,.5,0,.91-.1,1.25-.29,.34-.19,.61-.46,.81-.8l2.88,1.04c-.39,.7-.87,1.25-1.44,1.66-.57,.41-1.18,.7-1.82,.87-.64,.17-1.27,.25-1.89,.25Z"/><path d="M115.5,39.31c-.94,0-1.69-.08-2.25-.24-.56-.16-.96-.48-1.19-.95-.24-.47-.36-1.16-.36-2.05v-5.57h-1.9v-2.69h1.9v-2.88h3.53v2.88h2.51v2.69h-2.51v4.64c0,.54,.1,.89,.31,1.06,.21,.16,.6,.24,1.17,.24h1.02v2.88h-2.23Z"/><path d="M121.02,39.31v-8.82h-2.18v-2.69h5.73v11.51h-3.55Zm1.79-13.41c-.57,0-1.06-.2-1.47-.61-.41-.41-.61-.9-.61-1.47s.2-1.08,.61-1.48c.41-.4,.9-.6,1.47-.6s1.08,.2,1.48,.6c.4,.4,.6,.9,.6,1.48s-.2,1.06-.6,1.47c-.4,.41-.9,.61-1.48,.61Z"/><path d="M132.25,39.59c-1.07,0-2.06-.22-2.99-.65-.93-.43-1.68-1.1-2.25-2.01-.57-.91-.86-2.04-.86-3.42s.29-2.53,.86-3.42c.57-.89,1.32-1.55,2.25-1.97s1.93-.64,2.99-.64,2.04,.21,2.97,.64c.93,.43,1.68,1.08,2.25,1.97,.57,.89,.86,2.03,.86,3.42s-.29,2.52-.86,3.42c-.57,.9-1.32,1.57-2.25,2.01-.93,.43-1.92,.65-2.97,.65Zm0-2.74c.71,0,1.3-.26,1.77-.77,.47-.51,.71-1.37,.71-2.58s-.24-2.08-.73-2.56-1.07-.73-1.75-.73-1.29,.24-1.77,.73-.73,1.34-.73,2.56,.24,2.06,.72,2.58c.48,.51,1.08,.77,1.79,.77Z"/><path d="M140.04,39.31v-11.51h3.09l.44,1.53c.26-.43,.7-.85,1.31-1.25,.61-.4,1.36-.6,2.24-.6,1.48,0,2.5,.41,3.05,1.24,.55,.83,.82,2.02,.82,3.58v7.01h-3.53v-6.12c0-.54-.03-1.04-.09-1.48-.06-.45-.21-.81-.45-1.08-.24-.27-.65-.41-1.22-.41-.74,0-1.28,.27-1.62,.8-.34,.53-.51,1.33-.51,2.38v5.92h-3.53Z"/></g></svg>