<?xml version="1.0" encoding="UTF-8"?><svg id="Layer_2" xmlns="http://www.w3.org/2000/svg" viewBox="0 0 316.75 53.53"><defs><style>.cls-1{fill:#ff8f15;}</style></defs><g id="Layer_1-2"><g><g><path class="cls-1" d="M0,.71v3.74c1.41-.19,2.42-1.19,3.09-2.92-1.11-.23-2.07-.53-3.09-.82ZM16.67,6.02c-1.25-.85-2.39-1.76-3.64-2.61-.4-.4-.85-.85-1.25-.8-2.95,.29-5.85,.63-8.69,1.2-1.14,.23-2.19,.68-3.09,1.31V39.71c1.45-1.94,2.37-4.31,2.23-7.04-.11-2.67-.05-5.28-.05-8.18,2.33,.74,4.43,1.37,6.65,2.1,.39,.17,.68,.97,.73,1.6,0,2.72,.17,5.45-.05,8.18-.12,1.3-1.03,2.61-1.76,3.63-.57,.8-.69,1.25-.17,1.94,1.02,1.3,2.04,2.67,3.12,4.26,1.93-1.42,3.98-2.79,5.97-4.21,.34-.56-.57-1.19-.8-1.81-.28-.4-.62-.8-.68-1.25-.06-5.97-.11-11.94-.11-17.96,0-2.79,0-5.57-.06-8.47-.06-1.59-.17-3.07,1.82-3.81,.62-.28,1.13-1.07,1.7-1.53-.62-.4-1.36-.68-1.87-1.14ZM2.23,8.81c.23-2.22,1.42-3.87,4.04-4.09,.06,.22,.23,.57,.4,.74,3.12,2.38,2.55,5.85,2.67,9.03,.05,1.93,.05,3.92,.05,5.97-2.78-.8-4.94-1.54-7.21-2.11,0-3.18-.17-6.42,.05-9.54Zm.4,14.66c-.34-.11-.4-.8-.62-1.31,3.29,.29,7.21,1.93,7.5,3.35-2.45-.62-4.61-1.3-6.88-2.04Z"/><path class="cls-1" d="M31.1,10.06c-2.9,1.82-4.83,4.09-3.81,7.78,.28,1.25-.51,1.71-1.65,2.16-2.1,.63-4.72,4.43-4.49,6.65,0,.4,.23,.8,.4,1.19,.28-.62,.28-1.13,.4-1.64,.4-1.42,1.87-2.28,3.63-2.05,1.42,.28,1.71,1.25,1.71,2.56-.06,2.44,0,4.88,0,7.39,2.84-1.71,5.11-3.59,4.77-7.62-.4-4.49-.11-9.03,.06-13.47,.06-1.02,.62-2.04,1.14-3.01,.45-.85,1.13-1.59,1.76-2.38-1.48,.68-2.67,1.64-3.92,2.44Zm-4.66-7.33c-1.82,1.3-3.75,2.84-5.74,4.26,.11,.28,.17,.51,.28,.85,2.62,.23,5.17,.63,7.79,.51,2.67-.11,5.05-1.36,6.99-4.43-3.53,1.14-6.54,1.42-9.32-1.19Zm22.56,16.31c-.97-.69-1.14-1.37-.17-2.33,.73-.8,1.47-1.76,2.04-2.67,2.56-3.92,2.33-7.5-.74-10.86-.91-1.08-1.87-2.04-2.95-3.18-.46,.23-1.2,.4-1.65,.74-3.3,2.27-6.59,4.55-9.6,7.1-1.2,.91-2.22,2.73-2.33,4.15-.29,3.24,.11,6.54,.11,9.83,0,3.86,.91,7.96-1.76,11.37-.23,.22-.17,.56-.23,1.08l1.65-1.03c4.32-3.01,5.57-7.21,5.28-12.33-.28-3.69-.22-7.56-.11-11.31,.06-1.3,.85-2.55,1.25-3.8l.91,.17v11.36h.28c.29-4.03,.46-8.07,.74-12.16,5,.68,7.62,5.74,5.46,10.12-1.31,2.72-3.18,4.88-6.03,6.25-.34,.22-.45,.91-.79,1.59,1.36-.51,2.44-1.42,2.95-1.2,1.08,.63,2.33,1.2,2.33,2.96,.06,1.53-.34,2.5-1.99,2.95-.9,.23-1.81,.86-2.78,1.31l.28,.51c1.48-.62,2.96-1.13,4.44-1.76,.11,.17,.22,.34,.28,.63-1.02,1.76-3.35,1.98-4.94,3.12,.05,.17,.17,.34,.22,.46,1.48-.69,3.02-1.42,4.66-2.11,0,1.71,.17,3.19,0,4.61-.17,1.36-2.04,2.33-3.35,1.81-3.29-1.25-6.76-1.64-10.23-1.47-3.41,.17-6.65,.74-9.2,3.12-1.42,1.31-2.9,2.73-4.32,4.09,1.65-.22,3.01-.85,4.43-1.25,5.63-1.53,11.31-2.1,16.65,1.03,.4,.22,1.25,.22,1.53,0,1.14-1.25,2.28-2.5,3.19-3.92,.96-1.48,2.27-1.82,3.92-1.77,.96,.06,2.04,0,3.24,0-.23-3.29-.23-6.19-.51-9.14-.4-2.33,.51-3.81,2.84-4.38,.11,0,.11-.17,.11-.17-1.7-1.19-3.47-2.33-5.11-3.52Z"/><path class="cls-1" d="M89.22,27.73c-.57-.57-1.13-1.25-1.93-1.76v3.52c-.11,3.3-.8,6.08-3.01,7.79-2.9,2.38-6.08,3.24-9.09,2.16-2.56-.69-4.72-2.16-6.03-5.57-1.87-5.17-2.44-10.23,.97-14.72-3.92-3.98-3.07-7.95-.85-12.16,1.82-3.18,4.54-2.78,6.99-1.76,1.13,.4,2.1,1.99,2.67,3.41,.22,.91-.74,2.38-1.14,3.92,.8,2.16,2.16,3.35,3.64,2.44,1.13-.68,1.47,0,1.93,1.08,1.25,2.5,3.18,3.7,5.23,3.01-2.28-4.49-1.82-8.92,.17-13.46-1.71-.97-3.3-.8-4.78,.79-.9,.97-1.7,1.14-2.61,.06-2.05-2.62-4.72-3.52-7.39-3.87-5.68-.56-9.66,1.08-13.58,7.51-2.1,3.46-3.86,6.76-6.02,10.22,1.87,3.36,3.41,6.77,5.23,10.06,2.55,4.09,4.15,7.5,7.67,9.38,5.17,2.78,10.51,3.18,15.74,.62,2.78-1.36,5.06-3.92,6.31-7.95,.39-1.42,.45-3.01,.68-3.98l-.8-.74Z"/><path class="cls-1" d="M130.42,29.26c-.12-2.44-.46-4.83-.63-7.27-.23-3.46-.51-6.99-1.7-10.28-1.43-3.87-3.76-6.48-7.11-7.96-1.13-.45-2.33-.45-3.52-.74-2.27-.62-4.6-.05-6.82,0-1.31,.06-2.61,.23-3.86,.4-1.88,.11-3.75,.28-5.63,.34-1.42,.06-2.9,.06-4.32,0-.34,0-.74-.17-1.02-.17-.34-.06-.63,0-.91-.06-.97-.22-1.25-1.02-1.76-1.7-.46-.74-.91-.74-1.19,.11-.18,.57-.18,1.31-.12,1.99,.23,3.58,2.33,6.2,5.51,6.59,1.77,.23,3.53,.57,5.35,.17,1.07-.28,2.21-.17,3.52-.34-.29,.29-.51,.46-.68,.63-1.37,1.3-2.84,2.33-3.98,3.86-1.59,2.27-2.44,5.06-2.44,8.07,0,1.36-.23,1.59-1.37,1.36-.4-.11-.91-.22-1.31-.22-2.67-.34-5.22,2.33-4.77,5.17,.06,.28,.11,.57,.23,.85,.23-.17,.45-.4,.79-.57,.46-.4,.97-1.08,1.48-1.08,2.56-.05,4.38,2.5,4.21,5.29-.12,1.53-.86,2.9-1.77,4.03-.45,.63-.96,1.08-1.47,1.65l-2.79,3.07c-.22,.23-.28,.62-.39,.91,.05,.05,.05,.17,.11,.28,.28-.11,.62-.11,.85-.23,.57-.34,1.02-.73,1.54-1.08,2.27-1.98,4.83-3.4,6.7-6.02,1.14-1.59,2.39-3.24,3.47-4.89,.34-.62,.62-1.47,.68-2.21,.11-4.04,.17-8.07,.17-12.11,.06-3.01,1.25-5.22,3.3-6.93,.22-.17,.45-.17,.79-.34-.23,1.08-.45,1.99-.68,2.9-.11,1.02-.74,1.93-.17,2.95,.06,.17,0,.46,0,.63-.12,.91-.17,1.87-.23,2.9-.4,4.15,.85,8.46-1.02,12.5-.46,1.02-.97,2.16-1.71,2.9-1.93,1.76-4.03,3.35-6.02,4.88-1.7,1.31-3.47,2.45-5.17,3.64-.51,.4-1.14,.85-1.71,1.36-.17,.17-.17,.57-.22,.91,.17,.06,.4,.17,.62,.12,1.37-.69,2.84-1.31,4.21-2.05,3.29-1.65,6.65-2.67,10.23-2.67,1.36,.06,2.67,.06,4.03,.17,3.13,.17,6.19,.91,9.21,2.05,.39,.17,.62,.11,1.02-.34,1.82-2.05,3.81-4.04,6.25-5.18,.68-.34,1.25-.68,1.87-1.13,.23-.12,.46-.46,.46-.74,0-2.1,0-4.21-.11-6.37Zm-6.77-6.87c.17,1.99,.34,4.03,.46,6.42-3.58-2.67-6.93-2.22-10.34,.11v-7.21c.85,.34,1.7,.79,2.55,1.13,2.22,.97,4.32,.4,6.31-.96,.74-.51,.97-.51,1.02,.51Zm-11.13-10.68c0,3.52-.12,6.93-.17,10.4v10.62q0,1.25-1.2,1.19h-3.12c.22-.34,.34-.68,.51-.96,1.42-2.39,1.36-5.17,1.3-7.84-.05-1.76-.22-3.53-.17-5.34,.12-2.39,.29-4.78,.52-7.16,.05-.8,.39-1.6,.62-2.39,.06-.17,.46-.4,.74-.4,.23,0,.68,.17,.74,.4,.17,.45,.28,.97,.23,1.48Zm1.25-1.82c2.61-.57,4.94,.05,6.81,1.93,.91,.91,1.43,2.39,1.99,3.75,.34,.8,.34,1.82,.63,2.67,.23,.97,.06,1.54-.68,1.93-.69,.29-1.31,.74-2.05,1.03-2.16,.96-4.09,.22-5.91-1.03-.45-.28-.74-.91-.79-1.42-.12-2.95,0-5.79,0-8.86Zm9.71,26.02c-2.44-.56-4.94-1.13-7.5-1.59-.45-.11-.96-.22-1.42-.28-.68,0-.96-.4-.74-1.08,.06-.74-.17-1.76,.17-2.1,.86-.8,1.82-1.25,2.79-1.71,.74-.28,1.47-.45,2.21-.51,1.94-.23,3.53,.62,5,1.82,.12,.11,.23,.34,.23,.62l.17,3.92c0,.74-.17,1.08-.91,.91Z"/><path class="cls-1" d="M165.36,31.82c-.06-1.08-.23-2.27-.74-3.24-.46-.85-1.42-1.13-2.05,.06-.28,.57-.51,1.14-.74,1.65-.85,1.76-1.42,3.81-2.67,5.23-2.9,3.29-7.04,2.95-10.96,2.84-.57,0-1.48-.57-1.6-1.03-.45-2.1-.85-4.31-.96-6.47-.06-1.82,.28-3.58,.34-5.4,0-1.76,.97-2.5,2.73-2.05,2.5,.63,3.29,2.45,3.8,4.66,.17,.8,1.25,1.37,1.94,1.99,.39-.62,1.13-1.25,1.13-1.87,.06-4.38,.06-8.76-.11-13.19,0-.51-.68-1.08-1.08-1.59-.51,.4-1.14,.74-1.53,1.25-1.08,1.48-2.05,3.13-3.24,4.55-.4,.45-1.59,.79-2.11,.57-.68-.35-1.25-1.25-1.42-2.05-.17-1.25-.11-2.56,0-3.81,.17-2.27,.46-4.49,.74-7.38,1.93-.12,4.15-.46,6.37-.46,1.13,0,2.55,.34,3.29,1.08,1.31,1.25,2.16,3.01,3.24,4.55,.8,1.08,1.54,2.61,3.13,2.04,1.59-.62,1.76-2.16,1.36-3.81-.4-1.42-.57-2.95-.51-4.43,0-1.87-.63-3.01-2.62-3.01-7.16-.06-14.26-.11-21.36-.11-2.05,0-4.09,.05-6.08,.39-.68,.12-1.31,1.14-1.59,1.94-.12,.22,.79,1.13,1.36,1.36,1.48,.57,2.5,1.25,2.44,3.07-.11,2.95-.05,5.91-.05,8.86,.11,5.35,.4,10.63,.34,15.97,0,2.1,.51,4.95-3.18,5-.4,0-1.03,1.25-1.03,1.88,0,.39,1.03,1.08,1.6,1.08,2.21,.05,4.43-.17,6.7-.12,6.99,.06,13.98,.12,20.91,.29,2.67,.05,4.15-1.48,4.09-4.21-.11-1.99,.17-4.03,.12-6.08Z"/><path class="cls-1" d="M200.3,15.29V4.15h-2.9v-1.76h-30.51v5.62h1.99v2.67h.9v25.63h-2.89v5.85h1.99v2.62h18.8v-6.54l-2.84-.05v-1.59h-2.61v-8.07l14.94,.11v-7.5l-3.01,.06v-1.77l-11.31,.17,.12-8.35,6.99,.12v1.36l1.93-.06v2.73l8.41-.11Zm-15.46,26.87v-2.95l1.82,.06v4.54h-16.82v-1.65h15Zm9.32-16.19v-3.86l1.93-.06v5.62l-14.77-.05v8.92h-2.05v-10.68l14.89,.11Zm-4.2-15.63l-8.02-.17-.17,9.43-1.98,.06,.22-11.08,9.95,.17v1.59Zm2.89,2.33l4.55-.05V5.06h1.82V14.21l-6.37,.11v-1.65Z"/><path class="cls-1" d="M225.13,22.67c0,.12,0,.29-.06,.46,1.36,.23,2.16,1.08,2.61,2.5,.86,2.67-.17,5.11-.39,7.67-.17,1.25-.57,2.56-1.2,3.69-1.02,1.76-2.44,2.84-4.49,3.24-3.01,.63-5.45-.28-6.42-3.46-.79-2.62-1.87-5.23-1.65-8.19,.06-.45-.11-1.02-.17-1.59-.05-2.5-.39-5.06-.17-7.5,.23-2.73,.74-5.51,1.54-8.07,.57-2.04,1.65-3.86,2.73-5.62,.45-.74,1.36-1.31,2.15-1.48,3.24-.63,6.43,0,9.38,1.48,2.5,1.19,4.55,3.12,6.08,5.79,.51,.97,1.08,1.82,1.65,2.79,.11-.06,.28-.12,.4-.23,.05-.63,.05-1.19,.11-1.82,.11-2.84,.23-5.68,.4-8.41,.05-.91-.63-1.53-1.37-1.31-3.69,1.42-7.44,1.25-11.25,.57-.96-.17-1.99-.62-2.95-.62-1.82,0-3.58,.22-5.4,.45-1.19,.17-2.44,.46-3.58,.91-4.15,1.71-7.05,5.06-9.55,8.92-.74,1.14-1.42,2.56-1.7,3.98-.63,3.41-.85,6.82-.06,10.29,1.08,4.48,3.53,7.89,6.82,10.39,2.39,1.88,5.06,3.41,8.13,3.98,3.92,.68,7.67,.12,11.25-1.65,1.59-.73,2.95-2.04,4.43-3.01,.74-.57,1.36-.91,2.27-.17,.68,.51,1.54,.85,2.33,.97,1.71,.34,1.99-.12,1.42-1.93-.05-.34-.11-.69-.11-1.03,0-2.1-.17-4.2,.11-6.25,.23-1.7,.34-3.58,1.82-4.71,.23-.17,.34-.52,.63-1.03h-15.74Z"/><path class="cls-1" d="M268.54,42.11h11.36c-1.36-1.14-2.16-2.39-2.33-3.92-.06-.97-.17-1.94-.17-2.9,0-8.41-.06-16.76,0-25.06,0-2.79-.4-5.68,2.33-7.84h-11.19c2.1,1.3,2.55,3.12,2.55,5.17,.06,3.29,.06,6.53,.12,9.83,.05,.85-.4,.91-1.03,.91-6.59,0-13.18,.05-19.83,.05-.79,.06-1.08-.22-1.02-1.02,0-2.5-.06-5.06,0-7.56,0-2.61-.23-5.28,2.16-7.27h-10.97c1.71,1.19,2.39,2.67,2.5,4.32,.06,1.14,.12,2.22,.12,3.35,.05,8.3,.05,16.59,.05,24.95,0,2.55,.06,5.11-2.5,7.04h11.2c-2.05-1.42-2.45-3.29-2.45-5.22-.05-4.15-.05-8.36-.11-12.56-.06-.97,.23-1.25,1.19-1.25,6.54,0,13.01-.06,19.49-.06,.34,0,.74,.06,1.2,.11v1.65c0,3.3,.05,6.59,0,9.95,0,2.55,.22,5.34-2.67,7.33Z"/><path class="cls-1" d="M303.82,3.07c-3.18,1.65-5.12,4.66-5.29,8.52-.22,4.09,.06,8.3,.29,12.45,.23,4.43,.85,8.92,1.02,13.35,.06,2.9-1.7,4.09-4.03,2.96-1.08-.52-1.99-1.54-3.47-2.79,5.63-1.25,5.57-5.51,5.23-9.89-.23-2.44-.46-4.88-.74-7.33-.57-5.79-1.08-11.53,3.47-15.96,.28-.29,.39-1.03,.28-1.42-.17-.35-.91-.74-1.14-.57-3.18,1.76-6.25,.28-9.43-.17-4.09-.69-7.56,3.35-6.7,8.07,2.72-5.46,6.53-1.08,9.71-2.28l-2.9,9.95c-2.67,.79-5.45,1.7-6.08,6.25,1.31-.23,2.22-.34,3.07-.57,2.28-.57,3.58,.68,4.43,2.9,1.2,3.35,.91,7.33-.68,8.35-.57,.34-1.25,.46-1.87,.51-.85,.12-1.76,0-2.56,.17-3.3,.63-5.68,4.26-5,8.01,2.73-3.52,5.74-2.33,8.81-.96,1.19,.51,2.38,.68,3.58,1.02,4.37,1.08,8.63-.51,10.28-5.11,1.25-3.58,1.59-7.84,1.54-11.77-.12-5.22-1.03-10.39-1.59-15.62-.29-2.79,0-5.34,2.55-6.82,.34-.17,.46-.8,1.2-2.16-1.82,.4-3.02,.4-3.98,.91Z"/><path class="cls-1" d="M309.9,2.39v2.33c1.79,.16,3.02,.33,3.85,.73,1.39,.69,1.66,2.09,1.66,5.4V31.31c0,4.72-.17,8.58-.74,12.1-.2,1.18-.5,2.2-.92,3.09-.99,2.12-2.62,3.52-5.1,4.64l.96,2.39c1.3-.36,2.71-.89,4.14-1.58,1.01-.49,2.02-1.07,3-1.74V2.39h-6.85Z"/></g><g><path d="M0,.71v3.74c1.41-.19,2.42-1.19,3.09-2.92-1.11-.23-2.07-.53-3.09-.82ZM16.67,6.02c-1.25-.85-2.39-1.76-3.64-2.61-.4-.4-.85-.85-1.25-.8-2.95,.29-5.85,.63-8.69,1.2-1.14,.23-2.19,.68-3.09,1.31V39.71c1.45-1.94,2.37-4.31,2.23-7.04-.11-2.67-.05-5.28-.05-8.18,2.33,.74,4.43,1.37,6.65,2.1,.39,.17,.68,.97,.73,1.6,0,2.72,.17,5.45-.05,8.18-.12,1.3-1.03,2.61-1.76,3.63-.57,.8-.69,1.25-.17,1.94,1.02,1.3,2.04,2.67,3.12,4.26,1.93-1.42,3.98-2.79,5.97-4.21,.34-.56-.57-1.19-.8-1.81-.28-.4-.62-.8-.68-1.25-.06-5.97-.11-11.94-.11-17.96,0-2.79,0-5.57-.06-8.47-.06-1.59-.17-3.07,1.82-3.81,.62-.28,1.13-1.07,1.7-1.53-.62-.4-1.36-.68-1.87-1.14ZM2.23,8.81c.23-2.22,1.42-3.87,4.04-4.09,.06,.22,.23,.57,.4,.74,3.12,2.38,2.55,5.85,2.67,9.03,.05,1.93,.05,3.92,.05,5.97-2.78-.8-4.94-1.54-7.21-2.11,0-3.18-.17-6.42,.05-9.54Zm.4,14.66c-.34-.11-.4-.8-.62-1.31,3.29,.29,7.21,1.93,7.5,3.35-2.45-.62-4.61-1.3-6.88-2.04Z"/><path d="M31.1,10.06c-2.9,1.82-4.83,4.09-3.81,7.78,.28,1.25-.51,1.71-1.65,2.16-2.1,.63-4.72,4.43-4.49,6.65,0,.4,.23,.8,.4,1.19,.28-.62,.28-1.13,.4-1.64,.4-1.42,1.87-2.28,3.63-2.05,1.42,.28,1.71,1.25,1.71,2.56-.06,2.44,0,4.88,0,7.39,2.84-1.71,5.11-3.59,4.77-7.62-.4-4.49-.11-9.03,.06-13.47,.06-1.02,.62-2.04,1.14-3.01,.45-.85,1.13-1.59,1.76-2.38-1.48,.68-2.67,1.64-3.92,2.44Zm-4.66-7.33c-1.82,1.3-3.75,2.84-5.74,4.26,.11,.28,.17,.51,.28,.85,2.62,.23,5.17,.63,7.79,.51,2.67-.11,5.05-1.36,6.99-4.43-3.53,1.14-6.54,1.42-9.32-1.19Zm22.56,16.31c-.97-.69-1.14-1.37-.17-2.33,.73-.8,1.47-1.76,2.04-2.67,2.56-3.92,2.33-7.5-.74-10.86-.91-1.08-1.87-2.04-2.95-3.18-.46,.23-1.2,.4-1.65,.74-3.3,2.27-6.59,4.55-9.6,7.1-1.2,.91-2.22,2.73-2.33,4.15-.29,3.24,.11,6.54,.11,9.83,0,3.86,.91,7.96-1.76,11.37-.23,.22-.17,.56-.23,1.08l1.65-1.03c4.32-3.01,5.57-7.21,5.28-12.33-.28-3.69-.22-7.56-.11-11.31,.06-1.3,.85-2.55,1.25-3.8l.91,.17v11.36h.28c.29-4.03,.46-8.07,.74-12.16,5,.68,7.62,5.74,5.46,10.12-1.31,2.72-3.18,4.88-6.03,6.25-.34,.22-.45,.91-.79,1.59,1.36-.51,2.44-1.42,2.95-1.2,1.08,.63,2.33,1.2,2.33,2.96,.06,1.53-.34,2.5-1.99,2.95-.9,.23-1.81,.86-2.78,1.31l.28,.51c1.48-.62,2.96-1.13,4.44-1.76,.11,.17,.22,.34,.28,.63-1.02,1.76-3.35,1.98-4.94,3.12,.05,.17,.17,.34,.22,.46,1.48-.69,3.02-1.42,4.66-2.11,0,1.71,.17,3.19,0,4.61-.17,1.36-2.04,2.33-3.35,1.81-3.29-1.25-6.76-1.64-10.23-1.47-3.41,.17-6.65,.74-9.2,3.12-1.42,1.31-2.9,2.73-4.32,4.09,1.65-.22,3.01-.85,4.43-1.25,5.63-1.53,11.31-2.1,16.65,1.03,.4,.22,1.25,.22,1.53,0,1.14-1.25,2.28-2.5,3.19-3.92,.96-1.48,2.27-1.82,3.92-1.77,.96,.06,2.04,0,3.24,0-.23-3.29-.23-6.19-.51-9.14-.4-2.33,.51-3.81,2.84-4.38,.11,0,.11-.17,.11-.17-1.7-1.19-3.47-2.33-5.11-3.52Z"/><path d="M89.22,27.73c-.57-.57-1.13-1.25-1.93-1.76v3.52c-.11,3.3-.8,6.08-3.01,7.79-2.9,2.38-6.08,3.24-9.09,2.16-2.56-.69-4.72-2.16-6.03-5.57-1.87-5.17-2.44-10.23,.97-14.72-3.92-3.98-3.07-7.95-.85-12.16,1.82-3.18,4.54-2.78,6.99-1.76,1.13,.4,2.1,1.99,2.67,3.41,.22,.91-.74,2.38-1.14,3.92,.8,2.16,2.16,3.35,3.64,2.44,1.13-.68,1.47,0,1.93,1.08,1.25,2.5,3.18,3.7,5.23,3.01-2.28-4.49-1.82-8.92,.17-13.46-1.71-.97-3.3-.8-4.78,.79-.9,.97-1.7,1.14-2.61,.06-2.05-2.62-4.72-3.52-7.39-3.87-5.68-.56-9.66,1.08-13.58,7.51-2.1,3.46-3.86,6.76-6.02,10.22,1.87,3.36,3.41,6.77,5.23,10.06,2.55,4.09,4.15,7.5,7.67,9.38,5.17,2.78,10.51,3.18,15.74,.62,2.78-1.36,5.06-3.92,6.31-7.95,.39-1.42,.45-3.01,.68-3.98l-.8-.74Z"/><path d="M130.42,29.26c-.12-2.44-.46-4.83-.63-7.27-.23-3.46-.51-6.99-1.7-10.28-1.43-3.87-3.76-6.48-7.11-7.96-1.13-.45-2.33-.45-3.52-.74-2.27-.62-4.6-.05-6.82,0-1.31,.06-2.61,.23-3.86,.4-1.88,.11-3.75,.28-5.63,.34-1.42,.06-2.9,.06-4.32,0-.34,0-.74-.17-1.02-.17-.34-.06-.63,0-.91-.06-.97-.22-1.25-1.02-1.76-1.7-.46-.74-.91-.74-1.19,.11-.18,.57-.18,1.31-.12,1.99,.23,3.58,2.33,6.2,5.51,6.59,1.77,.23,3.53,.57,5.35,.17,1.07-.28,2.21-.17,3.52-.34-.29,.29-.51,.46-.68,.63-1.37,1.3-2.84,2.33-3.98,3.86-1.59,2.27-2.44,5.06-2.44,8.07,0,1.36-.23,1.59-1.37,1.36-.4-.11-.91-.22-1.31-.22-2.67-.34-5.22,2.33-4.77,5.17,.06,.28,.11,.57,.23,.85,.23-.17,.45-.4,.79-.57,.46-.4,.97-1.08,1.48-1.08,2.56-.05,4.38,2.5,4.21,5.29-.12,1.53-.86,2.9-1.77,4.03-.45,.63-.96,1.08-1.47,1.65l-2.79,3.07c-.22,.23-.28,.62-.39,.91,.05,.05,.05,.17,.11,.28,.28-.11,.62-.11,.85-.23,.57-.34,1.02-.73,1.54-1.08,2.27-1.98,4.83-3.4,6.7-6.02,1.14-1.59,2.39-3.24,3.47-4.89,.34-.62,.62-1.47,.68-2.21,.11-4.04,.17-8.07,.17-12.11,.06-3.01,1.25-5.22,3.3-6.93,.22-.17,.45-.17,.79-.34-.23,1.08-.45,1.99-.68,2.9-.11,1.02-.74,1.93-.17,2.95,.06,.17,0,.46,0,.63-.12,.91-.17,1.87-.23,2.9-.4,4.15,.85,8.46-1.02,12.5-.46,1.02-.97,2.16-1.71,2.9-1.93,1.76-4.03,3.35-6.02,4.88-1.7,1.31-3.47,2.45-5.17,3.64-.51,.4-1.14,.85-1.71,1.36-.17,.17-.17,.57-.22,.91,.17,.06,.4,.17,.62,.12,1.37-.69,2.84-1.31,4.21-2.05,3.29-1.65,6.65-2.67,10.23-2.67,1.36,.06,2.67,.06,4.03,.17,3.13,.17,6.19,.91,9.21,2.05,.39,.17,.62,.11,1.02-.34,1.82-2.05,3.81-4.04,6.25-5.18,.68-.34,1.25-.68,1.87-1.13,.23-.12,.46-.46,.46-.74,0-2.1,0-4.21-.11-6.37Zm-6.77-6.87c.17,1.99,.34,4.03,.46,6.42-3.58-2.67-6.93-2.22-10.34,.11v-7.21c.85,.34,1.7,.79,2.55,1.13,2.22,.97,4.32,.4,6.31-.96,.74-.51,.97-.51,1.02,.51Zm-11.13-10.68c0,3.52-.12,6.93-.17,10.4v10.62q0,1.25-1.2,1.19h-3.12c.22-.34,.34-.68,.51-.96,1.42-2.39,1.36-5.17,1.3-7.84-.05-1.76-.22-3.53-.17-5.34,.12-2.39,.29-4.78,.52-7.16,.05-.8,.39-1.6,.62-2.39,.06-.17,.46-.4,.74-.4,.23,0,.68,.17,.74,.4,.17,.45,.28,.97,.23,1.48Zm1.25-1.82c2.61-.57,4.94,.05,6.81,1.93,.91,.91,1.43,2.39,1.99,3.75,.34,.8,.34,1.82,.63,2.67,.23,.97,.06,1.54-.68,1.93-.69,.29-1.31,.74-2.05,1.03-2.16,.96-4.09,.22-5.91-1.03-.45-.28-.74-.91-.79-1.42-.12-2.95,0-5.79,0-8.86Zm9.71,26.02c-2.44-.56-4.94-1.13-7.5-1.59-.45-.11-.96-.22-1.42-.28-.68,0-.96-.4-.74-1.08,.06-.74-.17-1.76,.17-2.1,.86-.8,1.82-1.25,2.79-1.71,.74-.28,1.47-.45,2.21-.51,1.94-.23,3.53,.62,5,1.82,.12,.11,.23,.34,.23,.62l.17,3.92c0,.74-.17,1.08-.91,.91Z"/><path d="M165.36,31.82c-.06-1.08-.23-2.27-.74-3.24-.46-.85-1.42-1.13-2.05,.06-.28,.57-.51,1.14-.74,1.65-.85,1.76-1.42,3.81-2.67,5.23-2.9,3.29-7.04,2.95-10.96,2.84-.57,0-1.48-.57-1.6-1.03-.45-2.1-.85-4.31-.96-6.47-.06-1.82,.28-3.58,.34-5.4,0-1.76,.97-2.5,2.73-2.05,2.5,.63,3.29,2.45,3.8,4.66,.17,.8,1.25,1.37,1.94,1.99,.39-.62,1.13-1.25,1.13-1.87,.06-4.38,.06-8.76-.11-13.19,0-.51-.68-1.08-1.08-1.59-.51,.4-1.14,.74-1.53,1.25-1.08,1.48-2.05,3.13-3.24,4.55-.4,.45-1.59,.79-2.11,.57-.68-.35-1.25-1.25-1.42-2.05-.17-1.25-.11-2.56,0-3.81,.17-2.27,.46-4.49,.74-7.38,1.93-.12,4.15-.46,6.37-.46,1.13,0,2.55,.34,3.29,1.08,1.31,1.25,2.16,3.01,3.24,4.55,.8,1.08,1.54,2.61,3.13,2.04,1.59-.62,1.76-2.16,1.36-3.81-.4-1.42-.57-2.95-.51-4.43,0-1.87-.63-3.01-2.62-3.01-7.16-.06-14.26-.11-21.36-.11-2.05,0-4.09,.05-6.08,.39-.68,.12-1.31,1.14-1.59,1.94-.12,.22,.79,1.13,1.36,1.36,1.48,.57,2.5,1.25,2.44,3.07-.11,2.95-.05,5.91-.05,8.86,.11,5.35,.4,10.63,.34,15.97,0,2.1,.51,4.95-3.18,5-.4,0-1.03,1.25-1.03,1.88,0,.39,1.03,1.08,1.6,1.08,2.21,.05,4.43-.17,6.7-.12,6.99,.06,13.98,.12,20.91,.29,2.67,.05,4.15-1.48,4.09-4.21-.11-1.99,.17-4.03,.12-6.08Z"/><path d="M200.3,15.29V4.15h-2.9v-1.76h-30.51v5.62h1.99v2.67h.9v25.63h-2.89v5.85h1.99v2.62h18.8v-6.54l-2.84-.05v-1.59h-2.61v-8.07l14.94,.11v-7.5l-3.01,.06v-1.77l-11.31,.17,.12-8.35,6.99,.12v1.36l1.93-.06v2.73l8.41-.11Zm-15.46,26.87v-2.95l1.82,.06v4.54h-16.82v-1.65h15Zm9.32-16.19v-3.86l1.93-.06v5.62l-14.77-.05v8.92h-2.05v-10.68l14.89,.11Zm-4.2-15.63l-8.02-.17-.17,9.43-1.98,.06,.22-11.08,9.95,.17v1.59Zm2.89,2.33l4.55-.05V5.06h1.82V14.21l-6.37,.11v-1.65Z"/><path d="M225.13,22.67c0,.12,0,.29-.06,.46,1.36,.23,2.16,1.08,2.61,2.5,.86,2.67-.17,5.11-.39,7.67-.17,1.25-.57,2.56-1.2,3.69-1.02,1.76-2.44,2.84-4.49,3.24-3.01,.63-5.45-.28-6.42-3.46-.79-2.62-1.87-5.23-1.65-8.19,.06-.45-.11-1.02-.17-1.59-.05-2.5-.39-5.06-.17-7.5,.23-2.73,.74-5.51,1.54-8.07,.57-2.04,1.65-3.86,2.73-5.62,.45-.74,1.36-1.31,2.15-1.48,3.24-.63,6.43,0,9.38,1.48,2.5,1.19,4.55,3.12,6.08,5.79,.51,.97,1.08,1.82,1.65,2.79,.11-.06,.28-.12,.4-.23,.05-.63,.05-1.19,.11-1.82,.11-2.84,.23-5.68,.4-8.41,.05-.91-.63-1.53-1.37-1.31-3.69,1.42-7.44,1.25-11.25,.57-.96-.17-1.99-.62-2.95-.62-1.82,0-3.58,.22-5.4,.45-1.19,.17-2.44,.46-3.58,.91-4.15,1.71-7.05,5.06-9.55,8.92-.74,1.14-1.42,2.56-1.7,3.98-.63,3.41-.85,6.82-.06,10.29,1.08,4.48,3.53,7.89,6.82,10.39,2.39,1.88,5.06,3.41,8.13,3.98,3.92,.68,7.67,.12,11.25-1.65,1.59-.73,2.95-2.04,4.43-3.01,.74-.57,1.36-.91,2.27-.17,.68,.51,1.54,.85,2.33,.97,1.71,.34,1.99-.12,1.42-1.93-.05-.34-.11-.69-.11-1.03,0-2.1-.17-4.2,.11-6.25,.23-1.7,.34-3.58,1.82-4.71,.23-.17,.34-.52,.63-1.03h-15.74Z"/><path d="M268.54,42.11h11.36c-1.36-1.14-2.16-2.39-2.33-3.92-.06-.97-.17-1.94-.17-2.9,0-8.41-.06-16.76,0-25.06,0-2.79-.4-5.68,2.33-7.84h-11.19c2.1,1.3,2.55,3.12,2.55,5.17,.06,3.29,.06,6.53,.12,9.83,.05,.85-.4,.91-1.03,.91-6.59,0-13.18,.05-19.83,.05-.79,.06-1.08-.22-1.02-1.02,0-2.5-.06-5.06,0-7.56,0-2.61-.23-5.28,2.16-7.27h-10.97c1.71,1.19,2.39,2.67,2.5,4.32,.06,1.14,.12,2.22,.12,3.35,.05,8.3,.05,16.59,.05,24.95,0,2.55,.06,5.11-2.5,7.04h11.2c-2.05-1.42-2.45-3.29-2.45-5.22-.05-4.15-.05-8.36-.11-12.56-.06-.97,.23-1.25,1.19-1.25,6.54,0,13.01-.06,19.49-.06,.34,0,.74,.06,1.2,.11v1.65c0,3.3,.05,6.59,0,9.95,0,2.55,.22,5.34-2.67,7.33Z"/><path d="M303.82,3.07c-3.18,1.65-5.12,4.66-5.29,8.52-.22,4.09,.06,8.3,.29,12.45,.23,4.43,.85,8.92,1.02,13.35,.06,2.9-1.7,4.09-4.03,2.96-1.08-.52-1.99-1.54-3.47-2.79,5.63-1.25,5.57-5.51,5.23-9.89-.23-2.44-.46-4.88-.74-7.33-.57-5.79-1.08-11.53,3.47-15.96,.28-.29,.39-1.03,.28-1.42-.17-.35-.91-.74-1.14-.57-3.18,1.76-6.25,.28-9.43-.17-4.09-.69-7.56,3.35-6.7,8.07,2.72-5.46,6.53-1.08,9.71-2.28l-2.9,9.95c-2.67,.79-5.45,1.7-6.08,6.25,1.31-.23,2.22-.34,3.07-.57,2.28-.57,3.58,.68,4.43,2.9,1.2,3.35,.91,7.33-.68,8.35-.57,.34-1.25,.46-1.87,.51-.85,.12-1.76,0-2.56,.17-3.3,.63-5.68,4.26-5,8.01,2.73-3.52,5.74-2.33,8.81-.96,1.19,.51,2.38,.68,3.58,1.02,4.37,1.08,8.63-.51,10.28-5.11,1.25-3.58,1.59-7.84,1.54-11.77-.12-5.22-1.03-10.39-1.59-15.62-.29-2.79,0-5.34,2.55-6.82,.34-.17,.46-.8,1.2-2.16-1.82,.4-3.02,.4-3.98,.91Z"/><path d="M309.9,2.39v2.33c1.79,.16,3.02,.33,3.85,.73,1.39,.69,1.66,2.09,1.66,5.4V31.31c0,4.72-.17,8.58-.74,12.1-.2,1.18-.5,2.2-.92,3.09-.99,2.12-2.62,3.52-5.1,4.64l.96,2.39c1.3-.36,2.71-.89,4.14-1.58,1.01-.49,2.02-1.07,3-1.74V2.39h-6.85Z"/></g></g></g></svg>