<?xml version="1.0" encoding="UTF-8"?><svg id="Layer_2" xmlns="http://www.w3.org/2000/svg" xmlns:xlink="http://www.w3.org/1999/xlink" viewBox="0 0 316.75 64.74"><defs><style>.cls-1{fill:#fff;}.cls-2{fill:#ffda3e;}.cls-3{fill:#ff1800;}.cls-4{fill:#ff8f15;}.cls-5{fill:#2378b2;}.cls-6{filter:url(#drop-shadow-1);}</style><filter id="drop-shadow-1" filterUnits="userSpaceOnUse"><feOffset dx="0" dy="0"/><feGaussianBlur result="blur" stdDeviation=".72"/><feFlood flood-color="#000" flood-opacity=".1"/><feComposite in2="blur" operator="in"/><feComposite in="SourceGraphic"/></filter></defs><g id="Layer_1-2"><rect class="cls-5" x="0" y="7.1" width="316.75" height="57.65"/><g><g><g><path class="cls-1" d="M81.84,30.16V14.16h5.68l3.33,11.48,3.38-11.48h5.68V30.16h-3.69v-12.58l-3.81,12.58h-3.11l-3.79-12.58v12.58h-3.67Z"/><path class="cls-1" d="M107.83,30.45c-1.1,0-2.13-.22-3.09-.67s-1.73-1.14-2.32-2.07c-.59-.93-.89-2.11-.89-3.53s.3-2.61,.89-3.53c.59-.92,1.37-1.6,2.32-2.04,.96-.44,1.99-.66,3.09-.66s2.11,.22,3.07,.66c.96,.44,1.73,1.12,2.32,2.04,.59,.92,.89,2.1,.89,3.53s-.3,2.6-.89,3.53c-.59,.93-1.37,1.63-2.32,2.07-.96,.45-1.98,.67-3.07,.67Zm0-2.83c.73,0,1.35-.26,1.83-.79,.49-.53,.73-1.41,.73-2.66s-.25-2.14-.75-2.65c-.5-.5-1.11-.75-1.81-.75s-1.33,.25-1.83,.75c-.5,.5-.75,1.39-.75,2.65s.25,2.13,.74,2.66c.49,.53,1.11,.79,1.84,.79Z"/><path class="cls-1" d="M121.01,30.45c-1.39,0-2.59-.26-3.61-.77-1.01-.51-1.75-1.26-2.22-2.25l3.09-1.13c.18,.5,.52,.87,1.02,1.11,.5,.25,1.1,.37,1.78,.37,.59,0,1.11-.09,1.57-.28,.46-.18,.68-.46,.68-.83,0-.26-.14-.47-.41-.65-.27-.18-.75-.32-1.44-.43l-2.13-.36c-1.15-.19-2.08-.58-2.8-1.17-.72-.59-1.08-1.38-1.08-2.37,0-.83,.25-1.53,.75-2.08s1.17-.98,2-1.26c.83-.28,1.73-.42,2.71-.42,1.13,0,2.18,.2,3.15,.61,.97,.41,1.67,1.08,2.12,2.02l-3.07,1.13c-.11-.43-.38-.72-.79-.87-.42-.15-.89-.23-1.44-.23-1.31,0-1.96,.32-1.96,.96,0,.24,.11,.44,.34,.59,.22,.15,.6,.28,1.13,.37l2.2,.41c1.44,.26,2.5,.63,3.19,1.13,.69,.5,1.03,1.24,1.03,2.23,0,.93-.26,1.7-.79,2.32-.53,.62-1.23,1.09-2.11,1.39-.88,.3-1.85,.46-2.92,.46Z"/><path class="cls-1" d="M133.68,30.16c-.97,0-1.75-.08-2.32-.25-.57-.17-.99-.49-1.23-.98-.25-.49-.37-1.19-.37-2.12v-5.75h-1.96v-2.78h1.96v-2.97h3.64v2.97h2.59v2.78h-2.59v4.79c0,.56,.11,.92,.32,1.09s.62,.25,1.21,.25h1.05v2.97h-2.3Z"/><path class="cls-1" d="M144.34,30.16l6.06-16h4.17l6.06,16h-4.12l-.96-2.85h-6.13l-.96,2.85h-4.12Zm6.11-5.92h4.07l-2.06-6.08-2.01,6.08Z"/><path class="cls-1" d="M164.03,30.16l-4.24-11.88h3.76l2.54,8.1,2.54-8.1h3.76l-4.26,11.88h-4.1Z"/><path class="cls-1" d="M179.24,30.45c-1.28,0-2.41-.25-3.39-.75-.98-.5-1.75-1.23-2.3-2.17-.55-.94-.83-2.07-.83-3.38s.29-2.36,.87-3.28c.58-.93,1.36-1.64,2.32-2.16,.97-.51,2.02-.77,3.17-.77,1.31,0,2.43,.31,3.37,.92s1.64,1.46,2.12,2.54c.48,1.08,.68,2.32,.6,3.72h-8.79c.06,.83,.37,1.45,.92,1.87,.55,.42,1.16,.62,1.83,.62,.56,0,1.04-.08,1.45-.25,.41-.17,.72-.38,.95-.63l2.9,1.05c-.62,.91-1.4,1.58-2.34,2.01-.93,.43-1.89,.65-2.86,.65Zm-2.85-7.47h5.41c-.02-.77-.28-1.35-.79-1.74-.51-.39-1.12-.59-1.82-.59s-1.3,.18-1.83,.55c-.54,.37-.86,.96-.97,1.77Z"/><path class="cls-1" d="M186.91,30.16v-11.88h2.87l.65,2.18c.37-.96,.87-1.63,1.51-2.01,.64-.38,1.41-.55,2.32-.5v3.64c-.19-.03-.36-.05-.5-.06-.14,0-.3-.01-.48-.01-.88,0-1.55,.21-2.02,.62-.47,.42-.71,1.09-.71,2.04v5.99h-3.64Z"/><path class="cls-1" d="M198.98,30.45c-.75,0-1.44-.14-2.06-.43-.62-.29-1.12-.69-1.49-1.21-.37-.52-.55-1.14-.55-1.86,0-.97,.34-1.75,1.02-2.32,.68-.57,1.61-1.01,2.79-1.29,1.18-.29,2.54-.49,4.07-.6,0-.85-.14-1.45-.41-1.8-.27-.35-.8-.53-1.58-.53-.5,0-.93,.12-1.31,.35-.38,.23-.63,.59-.75,1.07l-3.07-1.1c.4-.8,1.07-1.46,2-1.99,.93-.53,2.08-.79,3.44-.79,1.69,0,2.99,.38,3.9,1.13,.91,.75,1.37,2.03,1.37,3.83v2.61c0,.51,.02,1.06,.05,1.65,.03,.59,.08,1.15,.14,1.68,.06,.53,.14,.97,.22,1.32h-3.38l-.43-1.44c-.45,.62-1.01,1.07-1.69,1.33-.68,.26-1.44,.4-2.29,.4Zm1.34-2.49c.72,0,1.32-.19,1.8-.57s.72-1.12,.72-2.2v-.29c-1.26,.11-2.28,.28-3.04,.52-.77,.23-1.15,.66-1.15,1.28,0,.38,.16,.69,.48,.92,.32,.23,.72,.35,1.2,.35Z"/><path class="cls-1" d="M214.58,35.03c-.66,0-1.32-.08-1.99-.25s-1.29-.46-1.87-.87c-.58-.42-1.05-.98-1.41-1.7l2.97-1.08c.22,.43,.54,.73,.96,.89,.42,.16,.83,.24,1.25,.24,.77,0,1.38-.18,1.84-.54,.46-.36,.69-.93,.69-1.71v-2.13c-.51,.64-1.1,1.11-1.76,1.41-.66,.3-1.33,.46-2,.46-.86,0-1.69-.23-2.47-.69-.78-.46-1.42-1.13-1.92-1.99-.5-.86-.74-1.89-.74-3.09,0-1.39,.25-2.53,.74-3.41,.49-.89,1.13-1.55,1.89-1.98,.77-.43,1.56-.65,2.37-.65,.75,0,1.47,.17,2.17,.5,.69,.34,1.27,.83,1.71,1.49l.48-1.63h3.14v11c0,1.98-.54,3.43-1.61,4.36-1.07,.93-2.56,1.39-4.46,1.39Zm-.02-8.12c.48,0,.91-.09,1.31-.28,.39-.18,.71-.5,.95-.95,.24-.45,.36-1.05,.36-1.82,0-1.17-.26-1.97-.78-2.42-.52-.45-1.13-.67-1.83-.67s-1.34,.24-1.86,.72c-.52,.48-.78,1.24-.78,2.28s.26,1.84,.78,2.36c.52,.52,1.14,.78,1.86,.78Z"/><path class="cls-1" d="M228.95,30.45c-1.28,0-2.41-.25-3.39-.75-.98-.5-1.75-1.23-2.3-2.17-.55-.94-.83-2.07-.83-3.38s.29-2.36,.87-3.28c.58-.93,1.36-1.64,2.32-2.16,.97-.51,2.02-.77,3.17-.77,1.31,0,2.43,.31,3.37,.92s1.64,1.46,2.12,2.54c.48,1.08,.68,2.32,.6,3.72h-8.79c.06,.83,.37,1.45,.92,1.87,.55,.42,1.16,.62,1.83,.62,.56,0,1.04-.08,1.45-.25,.41-.17,.72-.38,.95-.63l2.9,1.05c-.62,.91-1.4,1.58-2.34,2.01-.93,.43-1.89,.65-2.86,.65Zm-2.85-7.47h5.41c-.02-.77-.28-1.35-.79-1.74-.51-.39-1.12-.59-1.82-.59s-1.3,.18-1.83,.55c-.54,.37-.86,.96-.97,1.77Z"/></g><g><path class="cls-1" d="M121.4,49.79c-.11,.45-.13,1.2-.32,1.86-.58,1.89-1.65,3.08-2.95,3.72-2.45,1.2-4.94,1.01-7.36-.29-1.65-.88-2.39-2.47-3.59-4.39-.85-1.54-1.57-3.14-2.45-4.71,1.01-1.62,1.83-3.16,2.82-4.79,1.83-3,3.7-3.78,6.35-3.51,1.25,.16,2.5,.58,3.46,1.81,.43,.51,.8,.43,1.22-.03,.69-.74,1.44-.82,2.23-.37-.93,2.13-1.14,4.2-.08,6.3-.96,.32-1.86-.24-2.45-1.41-.21-.51-.37-.82-.9-.51-.69,.43-1.33-.13-1.7-1.14,.19-.72,.64-1.41,.53-1.83-.27-.66-.72-1.41-1.25-1.59-1.14-.48-2.42-.66-3.27,.82-1.04,1.97-1.44,3.83,.4,5.69-1.6,2.1-1.33,4.47-.45,6.89,.61,1.59,1.62,2.29,2.82,2.6,1.41,.51,2.9,.11,4.25-1.01,1.04-.8,1.36-2.1,1.41-3.64v-1.65c.37,.24,.64,.56,.9,.82l.37,.35Z"/><path class="cls-1" d="M134.29,46.76c-2.58,1.36-5.08,2.69-7.58,4.01v1.54c.98,.48,1.89,.96,2.82,1.36,.21,.08,.56-.05,.82-.16,.4-.13,.77-.32,1.14-.51,.08,.08,.13,.16,.19,.24-.16,.16-.29,.37-.48,.51-1.25,.74-2.53,1.52-3.8,2.21-.24,.16-.74,.24-.9,.11-1.33-1.12-2.87-1.38-4.55-1.25-.13,0-.27-.03-.56-.24,.45-.43,.9-.82,1.33-1.28,.24-.27,.56-.61,.56-.93,.03-2.1,.03-4.2-.05-6.3-.03-.56-.32-1.12-.51-1.65-.08-.21-.19-.4-.29-.69,1.04-.08,1.97-.13,2.9-.21,1.7-.16,3.35-.58,4.84-1.49,.37-.24,.61-.27,.93,.19,.9,1.33,1.91,2.63,2.87,3.93,.13,.19,.21,.4,.32,.61Zm-6.35-3.03q-1.25,.21-1.2,1.44c0,.27,0,.53,.03,.8v4.09c1.44-.8,2.66-1.46,3.83-2.1-.9-1.46-1.78-2.82-2.66-4.23Z"/><path class="cls-1" d="M142.99,48.08c-.74,.35-1.36,.58-1.91,.96-.27,.13-.37,.56-.58,.82-.16,.21-.4,.35-.61,.51-.08-.24-.32-.61-.21-.72,1.01-1.38-.32-2.18-.51-3.24l-.32-.08c-.11,.29-.35,.58-.35,.82,0,1.91,.03,3.75,.13,5.61,.03,.45,.32,.85,.64,1.49-.74,.64-1.62,1.41-2.53,2.15-.11,.08-.53-.05-.66-.19-.51-.66-.9-1.3-1.33-1.94-.37-.45-.19-.8,.24-1.04,.74-.48,.93-1.2,.88-1.99-.11-1.94-.16-3.85-.29-5.8,0-.37-.29-.74-.58-1.06-.48-.45-.51-.96,.08-1.17,.56-.24,1.25-.4,1.91-.4,.72-.05,1.22,.61,1.28,1.57,.03,.48,.03,.98,.03,1.46h.24c.32-.29,.58,.16,.66-.16,.48-.35,.93-.72,1.44-.98,.27-.11,.88-.08,.9,.05,.58,1.12,1.04,2.29,1.46,3.32Z"/><path class="cls-1" d="M143.86,40.06s1.06-.24,1.67-.61c.85-.43,1.46-.85,1.46-.85l-.43,4.17h2.92v7.28s.21-.21,.64-.21c.19,0,.19,.43,.19,.61,0,.21-.4,.21-.61,.21s-.43-.61-.43-.61v-6.06h-2.71l.24,10.79,1.22,.82s.82-.08,.85,0c.05,.16-1.04,.43-1.28,.61-.19,.24-.61,.85-.61,.85,0,0-.61-.85-1.25-.85-.61-.19-2.5-.19-2.5-.19,0,0,.43-.64,.85-.85l.82-.4,.08-10.82h-1.3v-1.28h1.22v-1.81l-.43-.43c-.21-.21-.64-.4-.64-.4Z"/><path class="cls-1" d="M152.85,43.17s.32,.96,.88,1.01c.56,.05,2.15-.27,2.15-.27,0,0-.4,1.01-.9,1.3l-.9,.51,.08,7.58s0,.93,.69,1.01c.69,.11,1.36,0,1.36,0,0,0-1.3,.64-1.78,1.09-.45,.45-.72,.8-.72,.8,0,0-1.33-.64-1.44-1.52-.16-.82,0-8.91,0-8.91,0,0-.56-.19-.82-.43-.29-.27-.53-.58-.53-.58l-.64,.35-.21-.19,2.79-1.75Zm-1.83-3.11s.77,.72,1.91,.72,2.26-1.25,2.26-1.25c0,0,.45-.74,.4-.93-.05-.21-.61,.53-1.17,.53s-1.01-.11-1.25-.29c-.24-.16-.45-.74-.45-.74l-2.34,2.15,.13,.16,.51-.35Z"/><path class="cls-1" d="M160.07,51.18v2.69c.02,1.05,.23,1.3,1.21,1.62,.32,.09,.68,.14,.59,.57-.07,.39-.43,.36-.73,.32-1.09-.18-2.23-.09-3.35,.02-.3,.02-.66,.09-.82-.3-.18-.39,.18-.55,.43-.71,.48-.32,.62-.82,.62-1.32,.02-2.1,0-4.22,0-6.31,0-.59-.21-.8-.75-.77-.43,0-1.03,.16-1.07-.55-.05-.52,.3-.82,1.09-.84,.55,0,.8-.23,.82-.75,.11-1.82,.75-3.49,1.91-4.88,1.07-1.37,2.42-2.37,4.31-2.17,.82,.09,1.09,.46,.84,1.23-.07,.2-.14,.39-.23,.57-.32,.73-.73,.8-1.3,.27-.62-.57-1.44-.55-2.1,.02-.52,.43-.82,.96-1.03,1.6-.36,1.16-.46,2.35-.36,3.58,.02,.34,.18,.52,.55,.52,.59-.02,1.21,.05,1.8-.11,.23-.07,.52-.14,.71,.09,.23,.25,.07,.52-.02,.77-.21,.57-.57,.75-1.21,.71-1.91-.14-1.82-.18-1.89,1.66-.05,.84-.02,1.66-.02,2.46Z"/><path class="cls-1" d="M167.55,39.59c1.05,0,1.76,.71,1.76,1.74,0,1.09-.71,1.81-1.81,1.81-1-.05-1.76-.76-1.76-1.78s.76-1.76,1.81-1.76Zm-1.33,16.6v-11.39h2.69v11.39h-2.69Z"/><path class="cls-1" d="M179.89,53.67c.13,.72-.08,1.22-.66,1.57-1.73,.88-3.46,1.36-5.34,.77-1.97-.69-3.16-2.05-3.77-4.07-.53-1.62-.37-3.19,.16-4.73,.58-1.46,1.57-2.61,2.98-3.35,2.05-1.14,4.17-1.12,6.35-.56,.21,.05,.45,.35,.48,.58,.03,.72,0,1.44-.03,2.15-.03,.21-.29,.45-.48,.58-.13,.03-.37-.27-.53-.43-.4-.48-.66-1.17-1.17-1.52-1.25-.88-3.03-.35-3.83,.96-.82,1.33-.77,2.76-.58,4.2,.21,1.3,.74,2.42,1.75,3.32,.93,.77,1.99,1.06,3.24,.85,.45-.05,.96-.21,1.44-.35Z"/><path class="cls-1" d="M192.89,54.31c-.03,.72-.45,1.17-.96,1.54-.82,.66-2.15,.64-2.95-.05-.21-.21-.32-.56-.45-.9-.21-.53-.32-.56-.82-.29-.4,.24-.82,.53-1.22,.8-.82,.56-1.75,.93-2.76,.96-.43,0-.88,.03-1.3-.05-1.28-.32-1.49-1.2-1.12-2.26,.4-1.25,1.3-2.15,2.26-2.92,1.28-1.01,2.71-1.7,4.25-2.23,.37-.11,.58-.35,.56-.74,0-.69,.03-1.41-.03-2.05-.19-1.2-.53-1.89-1.7-2.31-.56-.24-1.06,.03-1.52,.16-.9,.27-1.65,.8-1.89,1.81-.11,.51-.27,.98-.45,1.52-.24,.58-.96,.96-1.57,.82-.4-.13-.53-.35-.37-.72,.85-2.18,2.29-3.75,4.6-4.31,1.3-.32,2.63-.32,3.78,.72,.56,.45,.9,1.06,.9,1.78v8.13c.03,.64,.21,1.09,.82,1.36,.53,.19,1.06,.03,1.52-.51,.13-.08,.19-.24,.24-.4,.08,.05,.13,.11,.19,.16Zm-4.57-3v-1.59c0-.35-.24-.53-.58-.37-.56,.24-1.12,.51-1.62,.85-1.01,.72-2.13,1.38-2.71,2.55-.32,.66-.37,1.33,.03,1.97,.45,.61,1.06,.8,1.78,.66,1.06-.27,1.97-.85,2.68-1.67,.24-.24,.32-.64,.43-1.04,.05-.45,0-.9,0-1.36Z"/><path class="cls-1" d="M196.8,36.33v4.31h2.95v2.26h-2.61v10.53s.13,1.12,.82,1.12,1.67-1.49,1.67-1.49l.66,.53s-1.52,2.61-3.99,2.61-2.45-2.34-2.45-2.34v-10.95h-2.1v-2.26l5.02-4.31Z"/><path class="cls-1" d="M205.68,56.17c-.9,.03-1.83-.11-2.71-.56-1.36-.74-2.05-1.94-2.26-3.43-.43-3.16,1.06-7.07,4.31-8.59,1.57-.72,3.19-.88,4.84-.43,1.3,.37,2.07,1.41,2.15,2.74,.16,2.23-1.22,3.72-2.87,4.36-1.2,.48-2.42,.82-3.72,.88-.45,0-.58,.21-.45,.64,.19,.66,.72,1.12,1.44,1.2,1.09,.13,2.07-.19,3-.72,.43-.24,.64-.19,.77,.29,.16,.53,.35,1.06,.56,1.59,.16,.43,.03,.69-.37,.9-1.28,.69-2.98,1.12-4.68,1.12Zm1.78-10.18h-.16c-.85,.13-2.05,1.46-2.07,2.31,0,.27,.16,.24,.32,.21,.4-.08,.8-.19,1.17-.29,.58-.21,1.12-.48,1.41-1.06,.32-.64,.03-1.17-.66-1.17Z"/></g></g><g class="cls-6"><g><path class="cls-3" d="M68.85,22.63c-.34-.14-.61-.44-.72-.83l-.39-1.35c-.22-.74-.99-1.48-1.71-1.64l-1.32-.29c-.33-.07-.6-.27-.78-.55-2.87,2.74-6.22,4.78-6.41,4.9-.19,.11-.31,.33-.3,.55,0,.22,.14,.42,.33,.5l3.3,1.38-.36,3.88c-.02,.21,.07,.41,.23,.52,.03,.02,.06,.04,.09,.05,.15,.06,.32,.06,.47-.03,3.59-1.94,7.18-5.21,9.34-7.35l-.84,.29c-.32,.11-.64,.09-.92-.03Z"/><path class="cls-3" d="M78.78,30.17c-.13-.6-1.03-5.04-.81-9.23,0,0,0,0,0,0l-.96,1.07c-.51,.57-1.34,.63-1.87,.14l-.99-.93c-.42-.39-1.13-.61-1.77-.57-.63,.64-1.39,1.38-2.24,2.16,.04,2.86,.29,6.4,1.1,9.41,.04,.16,.16,.29,.3,.36,.03,.01,.06,.02,.1,.03,.19,.04,.4-.03,.54-.19l2.57-2.93,3.27,1.44h0c.28,.12,.61-.02,.74-.32,.06-.15,.07-.3,.02-.44Z"/><circle class="cls-2" cx="74.07" cy="12.25" r="9.8" transform="translate(1.32 30.81) rotate(-23.7)"/><path class="cls-4" d="M85.03,16.87l-.37-1.22c-.2-.67,.01-1.64,.48-2.17l.85-.95c.45-.51,.42-1.28-.08-1.75l-.93-.87c-.51-.48-.81-1.43-.67-2.12l.26-1.25c.14-.66-.28-1.32-.94-1.47l-1.24-.29c-.68-.16-1.42-.83-1.64-1.5l-.4-1.21c-.21-.64-.9-1-1.55-.81l-1.22,.37c-.67,.2-1.64-.01-2.17-.48l-.95-.85c-.51-.45-1.28-.42-1.75,.08l-.87,.93c-.48,.51-1.43,.81-2.12,.67l-1.25-.26c-.66-.14-1.32,.28-1.47,.94l-.29,1.24c-.16,.68-.83,1.42-1.5,1.64l-1.21,.4c-.64,.21-1,.9-.81,1.55l.37,1.22c.2,.67-.01,1.64-.48,2.17l-.85,.95c-.45,.51-.42,1.28,.08,1.75l.93,.87c.51,.48,.81,1.43,.67,2.12l-.26,1.25c-.14,.66,.28,1.32,.94,1.47l1.24,.29c.68,.16,1.42,.83,1.64,1.5l.4,1.21c.12,.35,.38,.62,.7,.76,.26,.11,.56,.14,.86,.05l1.22-.37c.67-.2,1.64,.01,2.17,.48l.95,.85c.51,.45,1.28,.42,1.75-.08l.87-.93c.48-.51,1.43-.81,2.12-.67l1.25,.26c.66,.14,1.32-.28,1.47-.94l.29-1.24c.16-.68,.83-1.42,1.5-1.64l1.21-.4c.64-.21,1-.9,.81-1.55Zm-14.08,2.87c-4.21-1.81-6.15-6.69-4.34-10.9s6.69-6.15,10.9-4.34c4.21,1.81,6.15,6.69,4.34,10.9s-6.69,6.15-10.9,4.34Z"/></g><g><path d="M69.96,8.83h-1.34v-.73h3.46v.73h-1.33v7.21h-.79v-7.21Z"/><path d="M73.38,8.1v2.93c.15-.36,.52-.68,1.14-.68,.93,0,1.21,.7,1.21,1.61v4.07h-.79v-3.87c0-.54-.07-1.08-.69-1.08-.72,0-.88,.56-.88,1.52v3.43h-.79v-7.94h.79Z"/><path d="M77.52,13.74v.35c0,.66,.13,1.36,.78,1.36,.62,0,.74-.49,.74-1.13v-.06h.77v.05c0,.74-.18,1.82-1.52,1.82-1.24,0-1.55-.83-1.55-2.1v-1.71c0-.97,.35-1.97,1.57-1.97s1.51,.9,1.51,1.97v1.41h-2.31Zm1.55-.65v-.82c0-.59-.08-1.23-.76-1.23s-.79,.54-.79,1.23v.81h1.54Z"/></g></g></g></g></svg>