<?xml version="1.0" encoding="UTF-8"?><svg id="Layer_1" xmlns="http://www.w3.org/2000/svg" viewBox="0 0 167.92 48.42"><defs><style>.cls-1{fill:#ff8f15;}</style></defs><path class="cls-1" d="M0,0H161c3.82,0,6.93,3.1,6.93,6.93V41.49c0,3.82-3.1,6.93-6.93,6.93H0V0H0Z"/><g><path d="M14.65,11.68c0-1.55,.04-3.16,.07-4.03h-.02c-.28,1.38-1.18,5.1-1.79,7.58h-1.04c-.47-2.13-1.4-6.12-1.67-7.59h-.03c.03,.96,.09,2.84,.09,4.26v3.32h-.99V6.93h1.55c.65,2.53,1.44,5.73,1.59,6.77h.02c.17-1,1.07-4.38,1.72-6.77h1.53V15.23h-1.03v-3.55Z"/><path d="M21.29,10.68v2.69c0,1.37-.85,1.96-2.14,1.96s-2.1-.57-2.1-1.92v-2.74c0-1.18,.81-1.84,2.15-1.84s2.09,.69,2.09,1.85Zm-3.18-.01v2.77c0,.73,.33,1.19,1.06,1.19,.67,0,1.06-.34,1.06-1.19v-2.76c0-.65-.3-1.12-1.05-1.12s-1.06,.41-1.06,1.13Z"/><path d="M23.31,13.38v.27c0,.66,.37,.99,.98,.99,.68,0,.95-.32,.95-.94,0-.66-.26-.95-1.2-1.42-1.11-.55-1.63-1-1.63-1.86s.56-1.59,1.91-1.59c1.46,0,1.88,.72,1.88,1.62v.3h-1.03v-.34c0-.56-.21-.89-.87-.89-.59,0-.84,.31-.84,.83s.21,.75,1.07,1.18c1.18,.58,1.77,1.02,1.77,2.06,0,1.13-.66,1.74-2.06,1.74-1.58,0-2-.8-2-1.66v-.29h1.07Z"/><path d="M26.78,8.93h.98v-1.56h1.04v1.56h1.21v.7h-1.21v4.35c0,.33,.08,.66,.62,.66,.16,0,.42-.01,.54-.04v.62c-.24,.07-.6,.09-.88,.09-.76,0-1.32-.25-1.32-1.18v-4.5h-.98v-.7Z"/><path d="M34.12,12.48l-.56,2.75h-1.06l1.82-8.3h1.5l1.9,8.3h-1.1l-.6-2.75h-1.9Zm1.76-.73c-.42-1.93-.7-3.35-.8-4.1h-.04c-.04,.63-.45,2.52-.76,4.1h1.61Z"/><path d="M38.84,8.93c.25,1.02,1.06,4.25,1.23,5.39h.02c.12-1.02,1.04-4.29,1.28-5.39h1.06l-1.78,6.3h-1.21l-1.73-6.3h1.12Z"/><path d="M44.19,12.22v1.06c0,.66,.17,1.36,1.04,1.36,.83,0,.99-.5,.99-1.13v-.06h1.03v.05c0,.75-.24,1.83-2.02,1.83-1.66,0-2.07-.83-2.07-2.11v-2.41c0-.98,.46-1.97,2.1-1.97s2.02,.9,2.02,1.98v1.42h-3.09Zm2.06-.66v-.82c0-.59-.11-1.23-1.01-1.23s-1.05,.54-1.05,1.24v.81h2.06Z"/><path d="M48.54,11.08c0-1.01,0-1.61-.02-2.15h1c.02,.18,.04,.53,.04,.98,.3-.76,1.02-1.04,1.75-1.06v.98c-1.05,0-1.72,.52-1.72,1.62v3.78h-1.05v-4.15Z"/><path d="M55.82,14.19c0,.44,.01,.87,.03,1.04h-.98c-.04-.16-.08-.41-.08-.52-.27,.48-.8,.62-1.37,.62-1.2,0-1.67-.79-1.67-1.77v-.11c0-1.39,1.12-1.92,2.61-1.92h.41v-1.04c0-.59-.14-.97-.83-.97s-.88,.39-.88,.91v.18h-1.04v-.17c0-.87,.46-1.6,1.95-1.6s1.85,.69,1.85,1.6v3.76Zm-1.03-2.02h-.44c-.99,0-1.57,.32-1.57,1.26v.11c0,.59,.24,1.08,.92,1.08,.82,0,1.09-.5,1.09-1.47v-.97Z"/><path d="M61.4,15.15c0,1.25-.19,2.31-2.22,2.31-1.69,0-2.01-.87-2.01-1.55v-.03h1.06v.04c0,.35,.17,.86,1.01,.86,.91,0,1.11-.51,1.11-1.44v-.84c-.23,.45-.67,.68-1.43,.68-1.22,0-1.75-.66-1.75-1.92v-2.57c0-1.17,.69-1.86,1.92-1.86,.86,0,1.25,.33,1.37,.65,0-.17,.04-.41,.06-.55h.91c-.02,.34-.03,.92-.03,1.68v4.54Zm-3.17-4.42v2.46c0,.85,.3,1.26,.96,1.26,1.01,0,1.17-.79,1.17-1.66v-1.86c0-.77-.11-1.38-1.06-1.38-.76,0-1.07,.43-1.07,1.17Z"/><path d="M63.77,12.22v1.06c0,.66,.17,1.36,1.04,1.36,.83,0,.99-.5,.99-1.13v-.06h1.03v.05c0,.75-.24,1.83-2.02,1.83-1.66,0-2.07-.83-2.07-2.11v-2.41c0-.98,.46-1.97,2.1-1.97s2.02,.9,2.02,1.98v1.42h-3.09Zm2.06-.66v-.82c0-.59-.11-1.23-1.01-1.23s-1.05,.54-1.05,1.24v.81h2.06Z"/></g><g><path d="M22.44,37.59c-1.58,0-2.97-.33-4.18-1s-2.15-1.6-2.83-2.81c-.68-1.21-1.02-2.61-1.02-4.22s.34-3.02,1.02-4.22c.68-1.21,1.62-2.14,2.83-2.81s2.6-1,4.18-1,2.99,.33,4.2,1c1.21,.67,2.15,1.6,2.84,2.81,.69,1.21,1.03,2.61,1.03,4.22s-.34,3.02-1.03,4.22c-.69,1.21-1.64,2.14-2.84,2.81-1.21,.67-2.61,1-4.2,1Zm0-3.02c.76,0,1.45-.19,2.09-.57,.63-.38,1.14-.94,1.52-1.68s.57-1.66,.57-2.76-.19-2.02-.57-2.76-.89-1.3-1.52-1.68c-.63-.38-1.33-.57-2.09-.57s-1.43,.19-2.06,.57c-.63,.38-1.14,.94-1.52,1.68-.38,.74-.57,1.66-.57,2.76s.19,2.02,.57,2.76c.38,.74,.88,1.3,1.52,1.68,.63,.38,1.32,.57,2.06,.57Z"/><path d="M32.49,37.31v-11.51h2.78l.63,2.11c.36-.93,.84-1.58,1.46-1.95,.62-.37,1.37-.53,2.25-.49v3.53c-.19-.03-.35-.05-.49-.06-.14,0-.29-.01-.46-.01-.85,0-1.5,.2-1.96,.6-.46,.4-.68,1.06-.68,1.97v5.8h-3.53Z"/><path d="M46.75,42.02c-.63,0-1.28-.08-1.93-.24-.65-.16-1.25-.44-1.81-.85-.56-.4-1.01-.95-1.37-1.65l2.88-1.04c.22,.42,.53,.7,.93,.86,.4,.16,.8,.23,1.21,.23,.74,0,1.34-.17,1.79-.52,.45-.35,.67-.9,.67-1.66v-2.06c-.5,.62-1.06,1.08-1.71,1.37-.64,.29-1.29,.44-1.94,.44-.84,0-1.63-.22-2.39-.67-.76-.45-1.38-1.09-1.86-1.93s-.72-1.83-.72-2.99c0-1.35,.24-2.45,.72-3.31,.48-.86,1.09-1.5,1.83-1.91,.74-.42,1.51-.63,2.3-.63,.73,0,1.43,.16,2.1,.49,.67,.33,1.23,.8,1.66,1.44l.46-1.58h3.04v10.65c0,1.92-.52,3.33-1.55,4.22-1.04,.9-2.47,1.35-4.31,1.35Zm-.02-7.86c.46,0,.89-.09,1.26-.27,.38-.18,.68-.48,.92-.92,.23-.43,.35-1.02,.35-1.76,0-1.13-.25-1.91-.75-2.34-.5-.43-1.09-.65-1.77-.65s-1.29,.23-1.8,.7c-.5,.46-.75,1.2-.75,2.2s.25,1.78,.75,2.28c.5,.5,1.1,.75,1.8,.75Z"/><path d="M58.33,37.59c-.73,0-1.39-.14-2-.42s-1.08-.67-1.44-1.17c-.36-.5-.53-1.1-.53-1.8,0-.94,.33-1.69,.99-2.25s1.56-.97,2.7-1.25c1.14-.28,2.46-.47,3.94-.58,0-.82-.13-1.4-.39-1.74-.26-.34-.77-.51-1.53-.51-.48,0-.9,.11-1.26,.34-.36,.22-.61,.57-.73,1.03l-2.97-1.07c.39-.77,1.03-1.42,1.94-1.93,.9-.51,2.01-.77,3.33-.77,1.64,0,2.9,.36,3.78,1.09,.88,.73,1.32,1.96,1.32,3.71v2.53c0,.5,.02,1.03,.05,1.6,.03,.57,.08,1.11,.14,1.62,.06,.51,.13,.94,.21,1.28h-3.27l-.42-1.39c-.43,.6-.98,1.03-1.64,1.29-.66,.26-1.4,.38-2.22,.38Zm1.3-2.41c.7,0,1.28-.19,1.74-.56,.46-.37,.7-1.08,.7-2.13v-.28c-1.22,.11-2.2,.27-2.95,.5s-1.11,.64-1.11,1.24c0,.37,.15,.67,.46,.89,.31,.22,.7,.34,1.16,.34Z"/><path d="M67.79,37.31v-11.51h3.09l.44,1.53c.26-.43,.7-.85,1.31-1.25s1.36-.6,2.24-.6c1.48,0,2.5,.41,3.05,1.24,.55,.83,.82,2.02,.82,3.58v7.01h-3.53v-6.12c0-.54-.03-1.04-.09-1.48-.06-.45-.21-.81-.45-1.08-.24-.27-.65-.41-1.22-.41-.74,0-1.28,.27-1.62,.8-.34,.53-.51,1.33-.51,2.38v5.92h-3.53Z"/><path d="M82.29,37.31v-8.82h-2.18v-2.69h5.73v11.51h-3.55Zm1.79-13.41c-.57,0-1.06-.21-1.47-.62-.41-.41-.61-.9-.61-1.47s.2-1.08,.61-1.49c.41-.4,.9-.6,1.47-.6s1.08,.2,1.48,.6c.4,.4,.6,.9,.6,1.49s-.2,1.06-.6,1.47c-.4,.41-.9,.62-1.48,.62Z"/><path d="M87.56,37.31v-2.81l5.96-5.89h-5.64v-2.81h10.16v2.81l-5.94,5.89h6.26v2.81h-10.81Z"/><path d="M103.36,37.59c-.73,0-1.39-.14-2-.42s-1.08-.67-1.44-1.17c-.36-.5-.53-1.1-.53-1.8,0-.94,.33-1.69,.99-2.25s1.56-.97,2.7-1.25c1.14-.28,2.46-.47,3.94-.58,0-.82-.13-1.4-.39-1.74-.26-.34-.77-.51-1.53-.51-.48,0-.9,.11-1.26,.34-.36,.22-.61,.57-.73,1.03l-2.97-1.07c.39-.77,1.03-1.42,1.94-1.93,.9-.51,2.01-.77,3.33-.77,1.64,0,2.9,.36,3.78,1.09,.88,.73,1.32,1.96,1.32,3.71v2.53c0,.5,.02,1.03,.05,1.6,.03,.57,.08,1.11,.14,1.62,.06,.51,.13,.94,.21,1.28h-3.27l-.42-1.39c-.43,.6-.98,1.03-1.64,1.29-.66,.26-1.4,.38-2.22,.38Zm1.3-2.41c.7,0,1.28-.19,1.74-.56,.46-.37,.7-1.08,.7-2.13v-.28c-1.22,.11-2.2,.27-2.95,.5s-1.11,.64-1.11,1.24c0,.37,.15,.67,.46,.89,.31,.22,.7,.34,1.16,.34Z"/><path d="M117.67,37.31c-.94,0-1.69-.08-2.25-.24s-.96-.48-1.19-.95c-.24-.47-.36-1.16-.36-2.05v-5.57h-1.9v-2.69h1.9v-2.88h3.53v2.88h2.51v2.69h-2.51v4.64c0,.54,.1,.89,.31,1.06s.6,.24,1.17,.24h1.02v2.88h-2.23Z"/><path d="M123.19,37.31v-8.82h-2.18v-2.69h5.73v11.51h-3.55Zm1.79-13.41c-.57,0-1.06-.21-1.47-.62-.41-.41-.62-.9-.62-1.47s.21-1.08,.62-1.49c.41-.4,.9-.6,1.47-.6s1.08,.2,1.48,.6c.4,.4,.6,.9,.6,1.49s-.2,1.06-.6,1.47c-.4,.41-.9,.62-1.48,.62Z"/><path d="M134.42,37.59c-1.07,0-2.06-.22-2.99-.65-.93-.43-1.68-1.1-2.25-2.01-.57-.9-.86-2.04-.86-3.42s.29-2.53,.86-3.42c.57-.89,1.32-1.55,2.25-1.97,.93-.42,1.93-.64,2.99-.64s2.04,.21,2.97,.64c.93,.43,1.68,1.08,2.25,1.97,.57,.89,.86,2.03,.86,3.42s-.29,2.52-.86,3.42c-.57,.91-1.32,1.57-2.25,2.01s-1.92,.65-2.97,.65Zm0-2.74c.71,0,1.3-.25,1.77-.77,.47-.51,.71-1.37,.71-2.58s-.24-2.08-.73-2.56c-.49-.49-1.07-.73-1.75-.73s-1.29,.24-1.77,.73c-.49,.49-.73,1.34-.73,2.56s.24,2.07,.72,2.58c.48,.51,1.08,.77,1.79,.77Z"/><path d="M142.21,37.31v-11.51h3.09l.44,1.53c.26-.43,.7-.85,1.31-1.25,.61-.4,1.36-.6,2.24-.6,1.49,0,2.5,.41,3.05,1.24s.82,2.02,.82,3.58v7.01h-3.53v-6.12c0-.54-.03-1.04-.09-1.48-.06-.45-.21-.81-.45-1.08s-.65-.41-1.22-.41c-.74,0-1.28,.27-1.62,.8-.34,.53-.51,1.33-.51,2.38v5.92h-3.53Z"/></g></svg>