<?xml version="1.0" encoding="UTF-8"?><svg id="Layer_2" xmlns="http://www.w3.org/2000/svg" viewBox="0 0 291.33 87.46"><defs><style>.cls-1{fill:#f3eedc;}.cls-2{fill:#f6e3ca;}.cls-3{fill:#f6e5cd;}.cls-4{fill:#f6e5d1;}.cls-5{fill:#f6f4ed;}.cls-6{fill:#f6f7f5;}.cls-7{fill:#f7f6f3;}.cls-8{fill:#f7f8f6;}.cls-9{fill:#f7f6ea;}.cls-10{fill:#f2e8d7;}.cls-11{fill:#f2e7dd;}.cls-12{fill:#f2ece2;}.cls-13{fill:#f2ede6;}.cls-14{fill:#f2f1ef;}.cls-15{fill:#f9eccc;}.cls-16{fill:#fab6c3;}.cls-17{fill:#f9fafa;}.cls-18{fill:#f8f6f3;}.cls-19{fill:#f8ecd7;}.cls-20{fill:#eeeae0;}.cls-21{fill:#f1e8d7;}.cls-22{fill:#ecc186;}.cls-23{fill:#f0eee7;}.cls-24{fill:#f0e3cf;}.cls-25{fill:#eae4da;}.cls-26{fill:#eae8db;}.cls-27{fill:#f4e1ca;}.cls-28{fill:#f4f3f1;}.cls-29{fill:#f4eee4;}.cls-30{fill:#f4eeea;}.cls-31{fill:#f4f5ee;}.cls-32{fill:#f5eee8;}.cls-33{fill:#f5f1ee;}.cls-34{fill:#f5e9e9;}.cls-35{fill:#f5f0e5;}.cls-36{fill:#f5e5d3;}.cls-37{fill:#e7e2cc;}.cls-38{fill:#e4cebc;}.cls-39{fill:#edeee3;}.cls-40{fill:#ede9e0;}.cls-41{fill:#ede8de;}.cls-42{fill:#ede7c7;}.cls-43{fill:#e3d1c0;}.cls-44{fill:#e3d3c2;}.cls-45{fill:#fff;}.cls-46{fill:#fffbe8;}.cls-47{fill:#fff6e4;}.cls-48{fill:#fffffd;}.cls-49{fill:#eaccab;}.cls-50{fill:#e8e1d9;}.cls-51{fill:#f0f1f2;}.cls-52{fill:#f2d89e;}.cls-53{fill:#ece7df;}.cls-54{fill:#ece5dd;}.cls-55{fill:#fefcf1;}.cls-56{fill:#fefefa;}.cls-57{fill:#fbfae7;}.cls-58{fill:#fef1ea;}.cls-59{fill:#fbf9ee;}.cls-60{fill:#e5e6e6;}.cls-61{fill:#e6ddd6;}.cls-62{fill:#e2e4df;}.cls-63{fill:#e6ccb2;}.cls-64{fill:#fcf6ee;}.cls-65{fill:#fcfbef;}.cls-66{fill:#efebe1;}.cls-67{fill:#efefef;}.cls-68{fill:#e5dcc5;}.cls-69{fill:#e5cbb2;}.cls-70{fill:#e4e2de;}.cls-71{fill:#e5dfd8;}.cls-72{fill:#fdfbf0;}.cls-73{fill:#fcf5d9;}.cls-74{fill:#fdf9ee;}.cls-75{fill:#fdf9e8;}.cls-76{fill:#fdf9e0;}.cls-77{fill:#fdfef6;}.cls-78{fill:#c2ab79;}.cls-79{fill:#cc9e76;}.cls-80{fill:#d0d2ce;}.cls-81{fill:#d2aa90;}.cls-82{fill:#d4b89c;}.cls-83{fill:#dce0d4;}.cls-84{fill:#dcbda0;}.cls-85{fill:#dbdbd8;}.cls-86{fill:#d9cfbf;}.cls-87{fill:#d9c5a7;}.cls-88{fill:#dfc3ab;}.cls-89{fill:#e1dfd2;}.cls-90{fill:#d6b39c;}.cls-91{fill:#dfdfdf;}</style></defs><g id="Layer_1-2"><g><g><rect class="cls-80" x="0" width="14.58" height="14.58"/><rect class="cls-37" x="14.58" width="14.58" height="14.58"/><rect class="cls-63" x="29.15" width="14.58" height="14.58"/><rect class="cls-34" x="43.73" width="14.58" height="14.58"/><rect class="cls-33" x="58.31" width="14.58" height="14.58"/><rect class="cls-60" x="72.88" width="14.58" height="14.58"/><rect class="cls-69" x="87.36" width="14.58" height="14.58"/><rect class="cls-82" x="101.93" width="14.58" height="14.58"/><rect class="cls-20" x="116.51" width="14.58" height="14.58"/><rect class="cls-84" x="131.09" width="14.58" height="14.58"/><rect class="cls-56" x="145.67" width="14.58" height="14.58"/><rect class="cls-81" x="160.24" width="14.58" height="14.58"/><rect class="cls-90" x="174.82" width="14.58" height="14.58"/><rect class="cls-66" x="189.4" width="14.58" height="14.58"/><rect class="cls-44" x="203.87" width="14.58" height="14.58"/><rect class="cls-36" x="218.45" width="14.58" height="14.58"/><rect class="cls-25" x="233.02" width="14.58" height="14.58"/><rect class="cls-23" x="247.6" width="14.58" height="14.58"/><rect class="cls-88" x="262.18" width="14.58" height="14.58"/><rect class="cls-3" x="276.75" width="14.58" height="14.58"/></g><g><rect class="cls-14" x="0" y="14.58" width="14.58" height="14.58"/><rect class="cls-45" x="14.58" y="14.58" width="14.58" height="14.58"/><rect class="cls-7" x="29.15" y="14.58" width="14.58" height="14.58"/><rect class="cls-75" x="43.73" y="14.58" width="14.58" height="14.58"/><rect class="cls-91" x="58.31" y="14.58" width="14.58" height="14.58"/><rect class="cls-38" x="72.88" y="14.58" width="14.58" height="14.58"/><rect class="cls-12" x="87.36" y="14.58" width="14.58" height="14.58"/><rect class="cls-64" x="101.93" y="14.58" width="14.58" height="14.58"/><rect class="cls-47" x="116.51" y="14.58" width="14.58" height="14.58"/><rect class="cls-32" x="131.09" y="14.58" width="14.58" height="14.58"/><rect class="cls-15" x="145.67" y="14.58" width="14.58" height="14.58"/><rect class="cls-39" x="160.24" y="14.58" width="14.58" height="14.58"/><rect class="cls-11" x="174.82" y="14.58" width="14.58" height="14.58"/><rect class="cls-18" x="189.4" y="14.58" width="14.58" height="14.58"/><rect class="cls-53" x="203.87" y="14.58" width="14.58" height="14.58"/><rect class="cls-52" x="218.45" y="14.58" width="14.58" height="14.58"/><rect class="cls-43" x="233.02" y="14.58" width="14.58" height="14.58"/><rect class="cls-51" x="247.6" y="14.58" width="14.58" height="14.58"/><rect class="cls-78" x="262.18" y="14.58" width="14.58" height="14.58"/><rect class="cls-84" x="276.75" y="14.58" width="14.58" height="14.58"/></g><g><rect class="cls-6" x="0" y="29.15" width="14.58" height="14.58"/><rect class="cls-17" x="14.58" y="29.15" width="14.58" height="14.58"/><rect class="cls-42" x="29.15" y="29.15" width="14.58" height="14.58"/><rect class="cls-74" x="43.73" y="29.15" width="14.58" height="14.58"/><rect class="cls-61" x="58.31" y="29.15" width="14.58" height="14.58"/><rect class="cls-2" x="72.88" y="29.15" width="14.58" height="14.58"/><rect class="cls-41" x="87.36" y="29.15" width="14.58" height="14.58"/><rect class="cls-31" x="101.93" y="29.15" width="14.58" height="14.58"/><rect class="cls-4" x="116.51" y="29.15" width="14.58" height="14.58"/><rect class="cls-72" x="131.09" y="29.15" width="14.58" height="14.58"/><rect class="cls-68" x="145.67" y="29.15" width="14.58" height="14.58"/><rect class="cls-58" x="160.24" y="29.15" width="14.58" height="14.58"/><rect class="cls-55" x="174.82" y="29.15" width="14.58" height="14.58"/><rect class="cls-76" x="189.4" y="29.15" width="14.58" height="14.58"/><rect class="cls-73" x="203.87" y="29.15" width="14.58" height="14.58"/><rect class="cls-48" x="218.45" y="29.15" width="14.58" height="14.58"/><rect class="cls-16" x="233.02" y="29.15" width="14.58" height="14.58"/><rect class="cls-28" x="247.6" y="29.15" width="14.58" height="14.58"/><rect class="cls-77" x="262.18" y="29.15" width="14.58" height="14.58"/><rect class="cls-54" x="276.75" y="29.15" width="14.58" height="14.58"/></g><g><rect class="cls-71" x="0" y="43.73" width="14.58" height="14.58"/><rect class="cls-89" x="14.58" y="43.73" width="14.58" height="14.58"/><rect class="cls-85" x="29.15" y="43.73" width="14.58" height="14.58"/><rect class="cls-62" x="43.73" y="43.73" width="14.58" height="14.58"/><rect class="cls-22" x="58.31" y="43.73" width="14.58" height="14.58"/><rect class="cls-79" x="72.88" y="43.73" width="14.58" height="14.58"/><rect class="cls-5" x="87.36" y="43.73" width="14.58" height="14.58"/><rect class="cls-70" x="101.93" y="43.73" width="14.58" height="14.58"/><rect class="cls-30" x="116.51" y="43.73" width="14.58" height="14.58"/><rect class="cls-87" x="131.09" y="43.73" width="14.58" height="14.58"/><rect class="cls-40" x="145.67" y="43.73" width="14.58" height="14.58"/><rect class="cls-13" x="160.24" y="43.73" width="14.58" height="14.58"/><rect class="cls-26" x="174.82" y="43.73" width="14.58" height="14.58"/><rect class="cls-10" x="189.4" y="43.73" width="14.58" height="14.58"/><rect class="cls-35" x="203.87" y="43.73" width="14.58" height="14.58"/><rect class="cls-19" x="218.45" y="43.73" width="14.58" height="14.58"/><rect class="cls-50" x="233.02" y="43.73" width="14.58" height="14.58"/><rect class="cls-49" x="247.6" y="43.73" width="14.58" height="14.58"/><rect class="cls-86" x="262.18" y="43.73" width="14.58" height="14.58"/><rect class="cls-24" x="276.75" y="43.73" width="14.58" height="14.58"/></g><g><rect class="cls-65" x="0" y="58.31" width="14.58" height="14.58"/><rect class="cls-8" x="14.58" y="58.31" width="14.58" height="14.58"/><rect class="cls-21" x="29.15" y="58.31" width="14.58" height="14.58"/><rect class="cls-29" x="43.73" y="58.31" width="14.58" height="14.58"/><rect class="cls-83" x="58.31" y="58.31" width="14.58" height="14.58"/><rect class="cls-45" x="72.88" y="58.31" width="14.58" height="14.58"/><rect class="cls-27" x="87.36" y="58.31" width="14.58" height="14.58"/><rect class="cls-45" x="101.93" y="58.31" width="14.58" height="14.58"/><rect class="cls-45" x="116.51" y="58.31" width="14.58" height="14.58"/><rect class="cls-45" x="131.09" y="58.31" width="14.58" height="14.58"/><rect class="cls-45" x="145.67" y="58.31" width="14.58" height="14.58"/><rect class="cls-45" x="160.24" y="58.31" width="14.58" height="14.58"/><rect class="cls-45" x="174.82" y="58.31" width="14.58" height="14.58"/><rect class="cls-45" x="189.4" y="58.31" width="14.58" height="14.58"/><rect class="cls-46" x="203.87" y="58.31" width="14.58" height="14.58"/><rect class="cls-45" x="218.45" y="58.31" width="14.58" height="14.58"/><rect class="cls-45" x="233.02" y="58.31" width="14.58" height="14.58"/><rect class="cls-45" x="247.6" y="58.31" width="14.58" height="14.58"/><rect class="cls-45" x="262.18" y="58.31" width="14.58" height="14.58"/><rect class="cls-45" x="276.75" y="58.31" width="14.58" height="14.58"/></g><g><rect class="cls-9" x="101.93" y="72.88" width="14.58" height="14.58"/><rect class="cls-59" x="116.51" y="72.88" width="14.58" height="14.58"/><rect class="cls-57" x="131.09" y="72.88" width="14.58" height="14.58"/><rect class="cls-1" x="145.67" y="72.88" width="14.58" height="14.58"/><rect class="cls-45" x="160.24" y="72.88" width="14.58" height="14.58"/><rect class="cls-67" x="174.82" y="72.88" width="14.58" height="14.58"/></g></g></g></svg>