<?xml version="1.0" encoding="UTF-8"?><svg id="Layer_1" xmlns="http://www.w3.org/2000/svg" xmlns:xlink="http://www.w3.org/1999/xlink" viewBox="0 0 244 99.9"><defs><style>.cls-1{fill:#fdfcf8;filter:url(#drop-shadow-2);}.cls-2{fill:#eee5d8;filter:url(#drop-shadow-1);}</style><filter id="drop-shadow-1" filterUnits="userSpaceOnUse"><feOffset dx="0" dy="0"/><feGaussianBlur result="blur" stdDeviation="3.6"/><feFlood flood-color="#000" flood-opacity=".1"/><feComposite in2="blur" operator="in"/><feComposite in="SourceGraphic"/></filter><filter id="drop-shadow-2" filterUnits="userSpaceOnUse"><feOffset dx="0" dy="0"/><feGaussianBlur result="blur-2" stdDeviation="3.6"/><feFlood flood-color="#000" flood-opacity=".1"/><feComposite in2="blur-2" operator="in"/><feComposite in="SourceGraphic"/></filter></defs><g><rect class="cls-2" x="23.31" y="-.31" width="76.03" height="99.09" transform="translate(110.56 -12.09) rotate(90)"/><g><path d="M50.74,99.79v-4.54h-1.6v-.6c.29,0,.56-.02,.81-.06,.25-.04,.46-.12,.65-.25,.18-.12,.32-.31,.4-.56h.5v6.01h-.76Z"/><path d="M54.34,99.79c.16-.23,.31-.44,.44-.62,.13-.19,.27-.39,.41-.61s.28-.43,.4-.63c-.15,.04-.31,.05-.48,.05-.39,0-.75-.1-1.08-.29-.33-.2-.59-.46-.78-.78-.2-.33-.29-.69-.29-1.08s.1-.76,.29-1.08c.19-.32,.45-.58,.78-.78,.33-.19,.69-.29,1.08-.29s.78,.1,1.11,.29c.32,.19,.58,.46,.77,.78,.19,.33,.28,.69,.28,1.08,0,.28-.05,.55-.16,.82-.03,.07-.1,.21-.21,.42s-.24,.46-.41,.75c-.17,.29-.35,.61-.56,.95-.21,.34-.42,.68-.65,1.01h-.94Zm.77-2.58c.26,0,.49-.06,.7-.19,.21-.13,.38-.29,.5-.5s.19-.44,.19-.69-.06-.48-.19-.69c-.13-.21-.29-.38-.5-.5-.21-.12-.44-.18-.7-.18s-.48,.06-.69,.18-.38,.29-.5,.5c-.12,.21-.18,.44-.18,.69s.06,.48,.18,.69c.12,.21,.29,.38,.5,.5s.44,.19,.69,.19Z"/><path d="M60.76,99.9c-.77,0-1.36-.27-1.77-.8-.4-.54-.61-1.31-.61-2.32s.2-1.77,.61-2.3,.99-.8,1.77-.8,1.36,.27,1.77,.8,.61,1.3,.61,2.3-.2,1.78-.61,2.32c-.4,.54-.99,.8-1.77,.8Zm0-.67c.41,0,.75-.13,1-.4l-2.38-3.41c-.06,.19-.1,.39-.14,.62-.03,.23-.04,.47-.04,.74,0,.79,.13,1.39,.38,1.82,.25,.43,.65,.64,1.17,.64Zm1.4-1.15c.1-.36,.15-.79,.15-1.3,0-.79-.13-1.39-.38-1.81s-.65-.63-1.17-.63c-.39,0-.71,.12-.96,.36l2.37,3.38Z"/><path d="M66.64,99.9c-.77,0-1.36-.27-1.77-.8-.4-.54-.61-1.31-.61-2.32s.2-1.77,.61-2.3,.99-.8,1.77-.8,1.36,.27,1.77,.8,.61,1.3,.61,2.3-.2,1.78-.61,2.32c-.4,.54-.99,.8-1.77,.8Zm0-.67c.41,0,.75-.13,1-.4l-2.38-3.41c-.06,.19-.1,.39-.14,.62-.03,.23-.04,.47-.04,.74,0,.79,.13,1.39,.38,1.82,.25,.43,.65,.64,1.17,.64Zm1.4-1.15c.1-.36,.15-.79,.15-1.3,0-.79-.13-1.39-.38-1.81s-.65-.63-1.17-.63c-.39,0-.71,.12-.96,.36l2.37,3.38Z"/><path d="M71.75,99.9c-.26,0-.51-.04-.76-.12-.25-.08-.47-.2-.67-.37s-.34-.37-.45-.62l.73-.27c.07,.26,.21,.45,.44,.57,.22,.12,.46,.18,.71,.18,.18,0,.35-.03,.51-.08,.16-.05,.29-.13,.39-.23s.15-.22,.15-.35c0-.25-.1-.42-.29-.52-.2-.1-.43-.18-.7-.23l-.62-.13c-.22-.05-.42-.12-.6-.2-.19-.09-.34-.21-.45-.37-.11-.16-.17-.38-.17-.65s.08-.5,.25-.68c.17-.18,.38-.32,.64-.42,.26-.1,.54-.14,.82-.14,.35,0,.69,.07,1,.22,.32,.15,.54,.38,.67,.69l-.71,.26c-.08-.18-.21-.31-.41-.4-.19-.09-.4-.13-.61-.13-.23,0-.43,.05-.62,.15-.19,.1-.28,.25-.28,.44s.08,.33,.24,.42c.16,.09,.36,.16,.59,.2l.59,.12c.24,.05,.47,.12,.68,.21s.39,.22,.53,.4c.14,.18,.21,.42,.21,.74,0,.28-.09,.52-.26,.72-.17,.2-.4,.35-.68,.45-.28,.1-.57,.16-.88,.16Z"/></g></g><g><rect class="cls-1" x="144.68" y="-.31" width="76.03" height="99.09" transform="translate(231.94 -133.46) rotate(90)"/><g><path d="M169.55,99.79v-.68c.71-.52,1.31-1,1.81-1.44s.88-.85,1.15-1.23c.27-.38,.4-.75,.4-1.1,0-.31-.1-.56-.3-.76-.2-.19-.47-.29-.83-.29-.28,0-.54,.08-.79,.23-.24,.15-.4,.41-.47,.78l-.76-.22c.11-.44,.34-.78,.7-1.04,.36-.25,.8-.38,1.33-.38,.37,0,.7,.06,.99,.19,.28,.12,.51,.3,.68,.54,.16,.23,.25,.52,.25,.86s-.08,.69-.25,1.02c-.17,.33-.4,.66-.69,.97-.29,.32-.63,.63-1.01,.94-.38,.31-.78,.62-1.2,.92h3.31v.69h-4.33Z"/><path d="M177.15,99.9c-.77,0-1.36-.27-1.77-.8-.4-.54-.61-1.31-.61-2.32s.2-1.77,.61-2.3,.99-.8,1.77-.8,1.36,.27,1.77,.8,.61,1.3,.61,2.3-.2,1.78-.61,2.32c-.4,.54-.99,.8-1.77,.8Zm0-.67c.41,0,.75-.13,1-.4l-2.38-3.41c-.06,.19-.1,.39-.14,.62-.03,.23-.04,.47-.04,.74,0,.79,.13,1.39,.38,1.82,.25,.43,.65,.64,1.17,.64Zm1.4-1.15c.1-.36,.15-.79,.15-1.3,0-.79-.13-1.39-.38-1.81s-.65-.63-1.17-.63c-.39,0-.71,.12-.96,.36l2.37,3.38Z"/><path d="M183.03,99.9c-.77,0-1.36-.27-1.77-.8-.4-.54-.61-1.31-.61-2.32s.2-1.77,.61-2.3,.99-.8,1.77-.8,1.36,.27,1.77,.8,.61,1.3,.61,2.3-.2,1.78-.61,2.32c-.4,.54-.99,.8-1.77,.8Zm0-.67c.41,0,.75-.13,1-.4l-2.38-3.41c-.06,.19-.1,.39-.14,.62-.03,.23-.04,.47-.04,.74,0,.79,.13,1.39,.38,1.82,.25,.43,.65,.64,1.17,.64Zm1.4-1.15c.1-.36,.15-.79,.15-1.3,0-.79-.13-1.39-.38-1.81s-.65-.63-1.17-.63c-.39,0-.71,.12-.96,.36l2.37,3.38Z"/><path d="M188.9,99.9c-.77,0-1.36-.27-1.77-.8-.4-.54-.61-1.31-.61-2.32s.2-1.77,.61-2.3,.99-.8,1.77-.8,1.36,.27,1.77,.8,.61,1.3,.61,2.3-.2,1.78-.61,2.32c-.4,.54-.99,.8-1.77,.8Zm0-.67c.41,0,.75-.13,1-.4l-2.38-3.41c-.06,.19-.1,.39-.14,.62-.03,.23-.04,.47-.04,.74,0,.79,.13,1.39,.38,1.82,.25,.43,.65,.64,1.17,.64Zm1.4-1.15c.1-.36,.15-.79,.15-1.3,0-.79-.13-1.39-.38-1.81s-.65-.63-1.17-.63c-.39,0-.71,.12-.96,.36l2.37,3.38Z"/><path d="M194.02,99.9c-.26,0-.51-.04-.76-.12-.25-.08-.47-.2-.67-.37s-.34-.37-.45-.62l.73-.27c.07,.26,.21,.45,.44,.57,.22,.12,.46,.18,.71,.18,.18,0,.35-.03,.51-.08,.16-.05,.29-.13,.39-.23s.15-.22,.15-.35c0-.25-.1-.42-.29-.52-.2-.1-.43-.18-.7-.23l-.62-.13c-.22-.05-.42-.12-.6-.2-.19-.09-.34-.21-.45-.37-.11-.16-.17-.38-.17-.65s.08-.5,.25-.68c.17-.18,.38-.32,.64-.42,.26-.1,.54-.14,.82-.14,.35,0,.69,.07,1,.22,.32,.15,.54,.38,.67,.69l-.71,.26c-.08-.18-.21-.31-.41-.4-.19-.09-.4-.13-.61-.13-.23,0-.43,.05-.62,.15-.19,.1-.28,.25-.28,.44s.08,.33,.24,.42c.16,.09,.36,.16,.59,.2l.59,.12c.24,.05,.47,.12,.68,.21s.39,.22,.53,.4c.14,.18,.21,.42,.21,.74,0,.28-.09,.52-.26,.72-.17,.2-.4,.35-.68,.45-.28,.1-.57,.16-.88,.16Z"/></g></g></svg>