<?xml version="1.0" encoding="UTF-8"?><svg id="Layer_1" xmlns="http://www.w3.org/2000/svg" viewBox="0 0 167.92 48.42"><defs><style>.cls-1{fill:#ff8f15;}</style></defs><path class="cls-1" d="M0,0H161C164.82,0,167.92,3.1,167.92,6.93V41.49c0,3.82-3.1,6.93-6.93,6.93H0V0H0Z"/><g><path d="M14.65,11.68c0-1.55,.04-3.16,.07-4.03h-.02c-.28,1.38-1.18,5.1-1.79,7.58h-1.04c-.47-2.13-1.4-6.12-1.67-7.59h-.03c.03,.96,.09,2.84,.09,4.26v3.32h-.99V6.93h1.55c.65,2.53,1.44,5.73,1.59,6.77h.02c.17-1,1.07-4.38,1.72-6.77h1.53V15.23h-1.03v-3.55Z"/><path d="M21.29,10.68v2.69c0,1.37-.85,1.96-2.14,1.96s-2.1-.57-2.1-1.92v-2.74c0-1.18,.81-1.84,2.15-1.84s2.09,.69,2.09,1.85Zm-3.18-.01v2.77c0,.73,.33,1.19,1.06,1.19,.67,0,1.06-.34,1.06-1.19v-2.76c0-.65-.3-1.12-1.05-1.12s-1.06,.41-1.06,1.13Z"/><path d="M23.31,13.38v.27c0,.66,.37,.99,.98,.99,.68,0,.95-.32,.95-.94,0-.66-.26-.95-1.2-1.42-1.11-.55-1.63-1-1.63-1.86s.56-1.59,1.91-1.59c1.46,0,1.88,.72,1.88,1.62v.3h-1.03v-.34c0-.56-.21-.89-.87-.89-.59,0-.84,.31-.84,.83s.21,.75,1.07,1.18c1.18,.58,1.77,1.02,1.77,2.06,0,1.13-.66,1.74-2.06,1.74-1.58,0-2-.8-2-1.66v-.29h1.07Z"/><path d="M26.78,8.93h.98v-1.56h1.04v1.56h1.21v.7h-1.21v4.35c0,.33,.08,.66,.62,.66,.16,0,.42-.01,.54-.04v.62c-.24,.07-.6,.09-.88,.09-.76,0-1.32-.25-1.32-1.18v-4.5h-.98v-.7Z"/><path d="M34.12,12.48l-.56,2.75h-1.06l1.82-8.3h1.5l1.9,8.3h-1.1l-.6-2.75h-1.9Zm1.76-.73c-.42-1.93-.7-3.35-.8-4.1h-.04c-.04,.63-.45,2.52-.76,4.1h1.61Z"/><path d="M38.84,8.93c.25,1.02,1.06,4.25,1.23,5.39h.02c.12-1.02,1.04-4.29,1.28-5.39h1.06l-1.78,6.3h-1.21l-1.73-6.3h1.12Z"/><path d="M44.19,12.22v1.06c0,.66,.17,1.36,1.04,1.36,.83,0,.99-.5,.99-1.13v-.06h1.03v.05c0,.75-.24,1.83-2.02,1.83-1.66,0-2.07-.83-2.07-2.11v-2.41c0-.98,.46-1.97,2.1-1.97s2.02,.9,2.02,1.98v1.42h-3.09Zm2.06-.66v-.82c0-.59-.11-1.23-1.01-1.23s-1.05,.54-1.05,1.24v.81h2.06Z"/><path d="M48.54,11.08c0-1.01,0-1.61-.02-2.15h1c.02,.18,.04,.53,.04,.98,.3-.76,1.02-1.04,1.75-1.06v.98c-1.05,0-1.72,.52-1.72,1.62v3.78h-1.05v-4.15Z"/><path d="M55.82,14.19c0,.44,.01,.87,.03,1.04h-.98c-.04-.16-.08-.41-.08-.52-.27,.48-.8,.62-1.37,.62-1.2,0-1.67-.79-1.67-1.77v-.11c0-1.39,1.12-1.92,2.61-1.92h.41v-1.04c0-.59-.14-.97-.83-.97s-.88,.39-.88,.91v.18h-1.04v-.17c0-.87,.46-1.6,1.95-1.6s1.85,.69,1.85,1.6v3.76Zm-1.03-2.02h-.44c-.99,0-1.57,.32-1.57,1.26v.11c0,.59,.24,1.08,.92,1.08,.82,0,1.09-.5,1.09-1.47v-.97Z"/><path d="M61.4,15.15c0,1.25-.19,2.31-2.22,2.31-1.69,0-2.01-.87-2.01-1.55v-.03h1.06v.04c0,.35,.17,.86,1.01,.86,.91,0,1.11-.51,1.11-1.44v-.84c-.23,.45-.67,.68-1.43,.68-1.22,0-1.75-.66-1.75-1.92v-2.57c0-1.17,.69-1.86,1.92-1.86,.86,0,1.25,.33,1.37,.65,0-.17,.04-.41,.06-.55h.91c-.02,.34-.03,.92-.03,1.68v4.54Zm-3.17-4.42v2.46c0,.85,.3,1.26,.96,1.26,1.01,0,1.17-.79,1.17-1.66v-1.86c0-.77-.11-1.38-1.06-1.38-.76,0-1.07,.43-1.07,1.17Z"/><path d="M63.77,12.22v1.06c0,.66,.17,1.36,1.04,1.36,.83,0,.99-.5,.99-1.13v-.06h1.03v.05c0,.75-.24,1.83-2.02,1.83-1.66,0-2.07-.83-2.07-2.11v-2.41c0-.98,.46-1.97,2.1-1.97s2.02,.9,2.02,1.98v1.42h-3.09Zm2.06-.66v-.82c0-.59-.11-1.23-1.01-1.23s-1.05,.54-1.05,1.24v.81h2.06Z"/></g><g><path d="M40.48,37.31v-15.5h5.96c1.35,0,2.55,.14,3.61,.42,1.06,.28,1.89,.78,2.51,1.51,.61,.73,.92,1.77,.92,3.13s-.31,2.39-.92,3.12-1.45,1.24-2.51,1.52c-1.06,.28-2.26,.42-3.61,.42h-2.3v5.38h-3.67Zm3.67-8.42h2.41c.57,0,1.09-.05,1.54-.16,.46-.11,.82-.31,1.09-.6s.41-.71,.41-1.25-.14-.96-.41-1.24-.63-.48-1.09-.58c-.46-.1-.97-.15-1.54-.15h-2.41v3.99Z"/><path d="M59.13,37.59c-1.02,0-1.82-.19-2.4-.57s-.99-.93-1.23-1.66c-.24-.73-.36-1.61-.36-2.64v-6.91h3.53v6.43c0,1.05,.16,1.75,.48,2.1,.32,.35,.76,.52,1.33,.52,.7,0,1.2-.23,1.52-.7,.32-.46,.48-1.23,.48-2.3v-6.05h3.55v11.51h-3.06l-.49-1.62c-.34,.57-.76,1.03-1.26,1.38-.5,.35-1.19,.52-2.08,.52Z"/><path d="M68.36,37.31v-11.51h2.78l.63,2.11c.36-.93,.84-1.58,1.46-1.95,.62-.37,1.37-.53,2.25-.49v3.53c-.19-.03-.35-.05-.49-.06-.14,0-.29-.01-.46-.01-.85,0-1.5,.2-1.96,.6-.46,.4-.68,1.06-.68,1.97v5.8h-3.53Z"/><path d="M76.99,41.05v-15.24h3.06l.46,1.58c.37-.63,.89-1.11,1.57-1.43,.67-.32,1.32-.48,1.94-.48,.99,0,1.87,.25,2.63,.74,.77,.5,1.37,1.19,1.8,2.1,.43,.9,.65,1.98,.65,3.24s-.22,2.33-.65,3.24c-.43,.91-1.03,1.6-1.8,2.08-.77,.48-1.64,.72-2.63,.72-.62,0-1.26-.16-1.94-.49-.67-.33-1.19-.8-1.57-1.44v5.38h-3.53Zm5.92-6.19c.68,0,1.27-.28,1.77-.83,.5-.56,.75-1.38,.75-2.46s-.25-1.87-.75-2.46c-.5-.59-1.09-.88-1.77-.88s-1.3,.25-1.8,.74c-.5,.5-.75,1.34-.75,2.53s.25,2.03,.75,2.56c.5,.53,1.1,.8,1.8,.8Z"/><path d="M96.32,37.59c-1.07,0-2.06-.22-2.99-.65-.93-.43-1.68-1.1-2.25-2.01-.57-.91-.86-2.04-.86-3.42s.29-2.53,.86-3.42c.57-.89,1.32-1.55,2.25-1.97s1.93-.64,2.99-.64,2.04,.21,2.97,.64c.93,.43,1.68,1.08,2.25,1.97,.57,.89,.86,2.03,.86,3.42s-.29,2.52-.86,3.42c-.57,.9-1.32,1.57-2.25,2.01-.93,.43-1.92,.65-2.97,.65Zm0-2.74c.71,0,1.3-.26,1.77-.77,.47-.51,.71-1.37,.71-2.58s-.24-2.08-.73-2.56c-.49-.49-1.07-.73-1.75-.73s-1.29,.24-1.77,.73c-.49,.49-.73,1.34-.73,2.56s.24,2.06,.72,2.58c.48,.51,1.07,.77,1.79,.77Z"/><path d="M109.07,37.59c-1.35,0-2.51-.25-3.49-.74-.98-.5-1.7-1.22-2.15-2.18l2.99-1.09c.17,.48,.5,.84,.99,1.08,.49,.24,1.06,.36,1.73,.36,.57,0,1.08-.09,1.52-.27s.66-.44,.66-.8c0-.25-.13-.46-.39-.63-.26-.17-.73-.31-1.39-.42l-2.06-.35c-1.11-.19-2.02-.56-2.71-1.14-.7-.57-1.04-1.34-1.04-2.3,0-.8,.24-1.48,.73-2.02,.49-.54,1.13-.95,1.94-1.22,.8-.27,1.68-.41,2.62-.41,1.1,0,2.11,.2,3.05,.59,.94,.39,1.62,1.05,2.05,1.96l-2.97,1.09c-.11-.42-.36-.7-.77-.85-.4-.15-.87-.22-1.39-.22-1.27,0-1.9,.31-1.9,.93,0,.23,.11,.42,.32,.57,.22,.15,.58,.27,1.09,.36l2.13,.39c1.39,.25,2.42,.61,3.09,1.09,.66,.48,1,1.2,1,2.16,0,.9-.26,1.65-.77,2.25-.51,.6-1.19,1.05-2.04,1.34-.85,.29-1.79,.44-2.83,.44Z"/><path d="M122.2,37.59c-1.24,0-2.33-.24-3.28-.73-.95-.49-1.69-1.19-2.23-2.1-.53-.91-.8-2-.8-3.27s.28-2.28,.85-3.18c.56-.9,1.31-1.59,2.25-2.09,.94-.5,1.96-.74,3.07-.74,1.27,0,2.35,.3,3.26,.89,.9,.6,1.59,1.42,2.05,2.46s.66,2.25,.58,3.61h-8.51c.06,.8,.36,1.41,.89,1.81s1.13,.6,1.77,.6c.54,0,1.01-.08,1.4-.24,.39-.16,.7-.37,.92-.61l2.81,1.02c-.6,.88-1.36,1.53-2.26,1.95-.9,.42-1.83,.63-2.77,.63Zm-2.76-7.24h5.24c-.02-.74-.27-1.3-.77-1.68-.5-.38-1.08-.57-1.76-.57s-1.26,.18-1.77,.53c-.52,.36-.83,.93-.94,1.72Z"/></g></svg>