<?xml version="1.0" encoding="UTF-8"?><svg id="Layer_1" xmlns="http://www.w3.org/2000/svg" viewBox="0 0 167.92 48.42"><defs><style>.cls-1{fill:#ff8f15;}</style></defs><path class="cls-1" d="M.8,0H160.2c4.26,0,7.72,3.46,7.72,7.72V40.69c0,4.26-3.46,7.72-7.72,7.72H.8c-.44,0-.8-.36-.8-.8V.8C0,.36,.36,0,.8,0Z"/><g><path d="M14.65,12.68c0-1.55,.04-3.16,.07-4.03h-.02c-.28,1.38-1.18,5.1-1.79,7.58h-1.04c-.47-2.13-1.4-6.12-1.67-7.59h-.03c.03,.96,.09,2.85,.09,4.27v3.32h-.99V7.93h1.55c.65,2.53,1.44,5.73,1.59,6.77h.02c.17-1,1.07-4.38,1.72-6.77h1.53v8.3h-1.03v-3.55Z"/><path d="M21.29,11.68v2.69c0,1.37-.85,1.96-2.14,1.96s-2.1-.57-2.1-1.92v-2.74c0-1.18,.81-1.84,2.15-1.84s2.09,.69,2.09,1.85Zm-3.18-.01v2.77c0,.73,.33,1.19,1.06,1.19,.67,0,1.06-.34,1.06-1.19v-2.76c0-.65-.3-1.12-1.05-1.12s-1.06,.41-1.06,1.13Z"/><path d="M23.31,14.38v.27c0,.66,.37,.99,.98,.99,.68,0,.95-.32,.95-.94,0-.66-.26-.95-1.2-1.42-1.11-.56-1.63-1-1.63-1.86s.56-1.59,1.91-1.59c1.46,0,1.88,.72,1.88,1.62v.3h-1.03v-.34c0-.56-.21-.89-.87-.89-.59,0-.84,.31-.84,.83s.21,.75,1.07,1.18c1.18,.59,1.77,1.02,1.77,2.06,0,1.13-.66,1.74-2.06,1.74-1.58,0-2-.8-2-1.66v-.29h1.07Z"/><path d="M26.78,9.93h.98v-1.56h1.04v1.56h1.21v.7h-1.21v4.35c0,.33,.08,.66,.62,.66,.16,0,.42-.01,.54-.04v.62c-.24,.07-.6,.09-.88,.09-.76,0-1.32-.25-1.32-1.18v-4.5h-.98v-.7Z"/><path d="M34.12,13.48l-.56,2.75h-1.06l1.82-8.3h1.5l1.9,8.3h-1.1l-.6-2.75h-1.9Zm1.76-.72c-.42-1.93-.7-3.36-.8-4.1h-.04c-.04,.63-.45,2.52-.76,4.1h1.61Z"/><path d="M38.84,9.93c.25,1.02,1.06,4.25,1.23,5.39h.02c.12-1.02,1.04-4.29,1.28-5.39h1.06l-1.78,6.3h-1.21l-1.73-6.3h1.12Z"/><path d="M44.19,13.22v1.06c0,.66,.17,1.36,1.04,1.36,.83,0,.99-.49,.99-1.13v-.06h1.03v.05c0,.75-.24,1.83-2.02,1.83-1.66,0-2.07-.83-2.07-2.11v-2.41c0-.98,.46-1.97,2.1-1.97s2.02,.9,2.02,1.98v1.42h-3.09Zm2.06-.65v-.82c0-.59-.11-1.23-1.01-1.23s-1.05,.54-1.05,1.24v.81h2.06Z"/><path d="M48.54,12.08c0-1.01,0-1.61-.02-2.15h1c.02,.18,.04,.53,.04,.98,.3-.76,1.02-1.04,1.75-1.06v.98c-1.05,0-1.72,.52-1.72,1.62v3.78h-1.05v-4.15Z"/><path d="M55.82,15.19c0,.44,.01,.87,.03,1.04h-.98c-.04-.16-.08-.41-.08-.52-.27,.49-.8,.62-1.37,.62-1.2,0-1.67-.79-1.67-1.77v-.11c0-1.39,1.12-1.92,2.61-1.92h.41v-1.04c0-.59-.14-.97-.83-.97s-.88,.39-.88,.91v.18h-1.04v-.17c0-.87,.46-1.6,1.95-1.6s1.85,.69,1.85,1.6v3.76Zm-1.03-2.02h-.44c-.99,0-1.57,.32-1.57,1.26v.11c0,.59,.24,1.08,.92,1.08,.82,0,1.09-.5,1.09-1.47v-.97Z"/><path d="M61.4,16.15c0,1.25-.19,2.31-2.22,2.31-1.69,0-2.01-.87-2.01-1.55v-.03h1.06v.04c0,.34,.17,.86,1.01,.86,.91,0,1.11-.51,1.11-1.44v-.84c-.23,.45-.67,.68-1.43,.68-1.22,0-1.75-.66-1.75-1.92v-2.57c0-1.17,.69-1.86,1.92-1.86,.86,0,1.25,.33,1.37,.65,0-.17,.04-.41,.06-.55h.91c-.02,.34-.03,.92-.03,1.68v4.54Zm-3.17-4.42v2.46c0,.85,.3,1.26,.96,1.26,1.01,0,1.17-.79,1.17-1.65v-1.87c0-.77-.11-1.38-1.06-1.38-.76,0-1.07,.43-1.07,1.17Z"/><path d="M63.77,13.22v1.06c0,.66,.17,1.36,1.04,1.36,.83,0,.99-.49,.99-1.13v-.06h1.03v.05c0,.75-.24,1.83-2.02,1.83-1.66,0-2.07-.83-2.07-2.11v-2.41c0-.98,.46-1.97,2.1-1.97s2.02,.9,2.02,1.98v1.42h-3.09Zm2.06-.65v-.82c0-.59-.11-1.23-1.01-1.23s-1.05,.54-1.05,1.24v.81h2.06Z"/></g><g><path d="M67.45,39.59c-1.69,0-3.1-.34-4.26-1.03s-1.97-1.65-2.45-2.89l3.34-1.21c.22,.74,.62,1.29,1.22,1.65,.6,.36,1.32,.53,2.17,.53,.45,0,.88-.05,1.3-.15,.42-.1,.77-.27,1.04-.51,.28-.24,.42-.56,.42-.96,0-.54-.26-.96-.79-1.26-.53-.3-1.21-.53-2.04-.68l-1.88-.37c-.84-.17-1.61-.43-2.33-.78-.72-.35-1.29-.81-1.73-1.39-.43-.58-.65-1.31-.65-2.19s.19-1.55,.58-2.16c.39-.6,.9-1.1,1.54-1.48s1.35-.68,2.12-.87c.77-.19,1.55-.29,2.32-.29,.83,0,1.64,.12,2.42,.35,.78,.23,1.48,.59,2.1,1.08,.62,.49,1.09,1.13,1.42,1.94l-3.32,1.21c-.2-.53-.56-.93-1.08-1.21-.52-.28-1.14-.42-1.87-.42s-1.3,.13-1.77,.38-.71,.62-.71,1.1c0,.39,.16,.72,.49,1s.75,.47,1.28,.58l2.09,.42c.63,.12,1.28,.28,1.93,.48,.65,.19,1.25,.45,1.8,.77,.55,.32,.99,.74,1.33,1.26,.34,.53,.51,1.19,.51,2s-.19,1.55-.57,2.19-.88,1.18-1.51,1.61c-.63,.43-1.33,.76-2.1,.99-.77,.22-1.56,.34-2.37,.34Z"/><path d="M81.39,39.59c-1.24,0-2.33-.24-3.28-.73-.95-.49-1.69-1.19-2.23-2.1-.53-.91-.8-2-.8-3.27s.28-2.28,.85-3.18c.56-.9,1.31-1.59,2.25-2.09,.94-.5,1.96-.74,3.07-.74,1.27,0,2.35,.3,3.26,.89,.9,.6,1.59,1.42,2.05,2.46,.46,1.04,.66,2.25,.58,3.61h-8.51c.06,.8,.36,1.41,.89,1.81,.53,.4,1.12,.6,1.77,.6,.54,0,1.01-.08,1.4-.24,.39-.16,.7-.37,.92-.61l2.81,1.02c-.6,.88-1.36,1.53-2.26,1.95-.91,.42-1.83,.63-2.77,.63Zm-2.76-7.24h5.24c-.02-.74-.27-1.3-.77-1.68-.5-.38-1.08-.57-1.76-.57s-1.26,.18-1.77,.53c-.52,.36-.83,.93-.94,1.72Z"/><path d="M92.17,39.59c-.73,0-1.39-.14-2-.42-.6-.28-1.08-.67-1.44-1.17-.36-.5-.53-1.1-.53-1.8,0-.94,.33-1.69,.99-2.25,.66-.56,1.56-.97,2.7-1.25,1.14-.28,2.46-.47,3.94-.58,0-.82-.13-1.4-.39-1.74-.26-.34-.77-.51-1.53-.51-.48,0-.9,.11-1.26,.34s-.61,.57-.73,1.03l-2.97-1.07c.39-.77,1.03-1.42,1.94-1.92,.9-.51,2.01-.77,3.33-.77,1.64,0,2.9,.36,3.78,1.09,.88,.73,1.32,1.96,1.32,3.71v2.53c0,.5,.01,1.03,.05,1.6,.03,.57,.08,1.11,.14,1.62,.06,.51,.13,.94,.21,1.28h-3.27l-.42-1.39c-.43,.6-.98,1.03-1.64,1.29-.66,.25-1.4,.38-2.22,.38Zm1.3-2.41c.7,0,1.28-.19,1.74-.56s.7-1.08,.7-2.13v-.28c-1.22,.11-2.2,.27-2.95,.5-.74,.22-1.11,.64-1.11,1.24,0,.37,.15,.67,.46,.89,.31,.22,.7,.34,1.16,.34Z"/><path d="M105.44,39.31c-.94,0-1.69-.08-2.25-.24-.56-.16-.96-.48-1.19-.95-.24-.47-.36-1.16-.36-2.05v-12.25h3.53v11.32c0,.54,.11,.89,.32,1.06,.22,.16,.62,.24,1.21,.24h1v2.88h-2.25Z"/></g></svg>