<?xml version="1.0" encoding="UTF-8"?><svg id="Layer_1" xmlns="http://www.w3.org/2000/svg" viewBox="0 0 149.46 51.83"><defs><style>.cls-1{fill:#ff8f15;}.cls-2{fill:#adadad;}</style></defs><g><g><circle class="cls-2" cx="18.26" cy="32.89" r="4.11"/><circle class="cls-2" cx="8.15" cy="32.89" r="4.11"/><circle class="cls-1" cx="38.49" cy="32.89" r="4.11"/><circle class="cls-1" cx="28.37" cy="32.89" r="4.11"/><circle class="cls-1" cx="58.71" cy="32.89" r="4.11"/><circle class="cls-1" cx="48.6" cy="32.89" r="4.11"/></g><g><circle class="cls-2" cx="4.11" cy="4.11" r="4.11"/><circle class="cls-2" cx="62.75" cy="4.11" r="4.11"/><circle class="cls-2" cx="53.59" cy="4.11" r="4.11"/><circle class="cls-2" cx="43.69" cy="4.11" r="4.11"/><circle class="cls-2" cx="33.8" cy="4.11" r="4.11"/><circle class="cls-2" cx="23.9" cy="4.11" r="4.11"/><circle class="cls-2" cx="14.01" cy="4.11" r="4.11"/><circle class="cls-2" cx="4.11" cy="13.71" r="4.11"/><circle class="cls-2" cx="62.75" cy="13.71" r="4.11"/><circle class="cls-2" cx="53.59" cy="13.71" r="4.11"/><circle class="cls-2" cx="43.69" cy="13.71" r="4.11"/><circle class="cls-2" cx="33.8" cy="13.71" r="4.11"/><circle class="cls-2" cx="23.9" cy="13.71" r="4.11"/><circle class="cls-2" cx="14.01" cy="13.71" r="4.11"/><circle class="cls-2" cx="4.11" cy="23.3" r="4.11"/><circle class="cls-2" cx="62.75" cy="23.3" r="4.11"/><circle class="cls-2" cx="53.59" cy="23.3" r="4.11"/><circle class="cls-2" cx="43.69" cy="23.3" r="4.11"/><circle class="cls-2" cx="33.8" cy="23.3" r="4.11"/><circle class="cls-2" cx="23.9" cy="23.3" r="4.11"/><circle class="cls-2" cx="14.01" cy="23.3" r="4.11"/></g></g><g><g><circle class="cls-1" cx="100.86" cy="32.89" r="4.11"/><circle class="cls-2" cx="90.75" cy="32.89" r="4.11"/><circle class="cls-1" cx="121.09" cy="32.89" r="4.11"/><circle class="cls-1" cx="110.98" cy="32.89" r="4.11"/><circle class="cls-1" cx="141.32" cy="32.89" r="4.11"/><circle class="cls-1" cx="131.2" cy="32.89" r="4.11"/></g><g><circle class="cls-2" cx="86.72" cy="4.11" r="4.11"/><circle class="cls-2" cx="145.35" cy="4.11" r="4.11"/><circle class="cls-2" cx="136.19" cy="4.11" r="4.11"/><circle class="cls-2" cx="126.3" cy="4.11" r="4.11"/><circle class="cls-2" cx="116.4" cy="4.11" r="4.11"/><circle class="cls-2" cx="106.51" cy="4.11" r="4.11"/><circle class="cls-2" cx="96.61" cy="4.11" r="4.11"/><circle class="cls-2" cx="86.72" cy="13.71" r="4.11"/><circle class="cls-2" cx="145.35" cy="13.71" r="4.11"/><circle class="cls-2" cx="136.19" cy="13.71" r="4.11"/><circle class="cls-2" cx="126.3" cy="13.71" r="4.11"/><circle class="cls-2" cx="116.4" cy="13.71" r="4.11"/><circle class="cls-2" cx="106.51" cy="13.71" r="4.11"/><circle class="cls-2" cx="96.61" cy="13.71" r="4.11"/><circle class="cls-2" cx="86.72" cy="23.3" r="4.11"/><circle class="cls-2" cx="145.35" cy="23.3" r="4.11"/><circle class="cls-2" cx="136.19" cy="23.3" r="4.11"/><circle class="cls-2" cx="126.3" cy="23.3" r="4.11"/><circle class="cls-2" cx="116.4" cy="23.3" r="4.11"/><circle class="cls-2" cx="106.51" cy="23.3" r="4.11"/><circle class="cls-2" cx="96.61" cy="23.3" r="4.11"/></g></g><g><path d="M26.27,43.74c-.18,0-.34-.04-.49-.12s-.29-.16-.42-.23-.28-.12-.42-.12c-.09,0-.17,.04-.24,.12s-.09,.25-.08,.51l-.81-.29c.03-.4,.12-.71,.27-.94,.16-.23,.42-.34,.78-.34,.2,0,.37,.04,.52,.12,.15,.08,.29,.15,.42,.23s.25,.12,.38,.12c.09,0,.16-.04,.23-.12,.07-.08,.09-.25,.08-.5l.82,.29c-.03,.4-.11,.71-.26,.94s-.41,.34-.77,.34Z"/><path d="M29.16,45.04v-3.46h-1.17v-.95c.27,0,.5-.01,.68-.04,.18-.03,.33-.1,.45-.2s.23-.27,.32-.51h.89v5.16h-1.17Z"/><path d="M33.36,45.13c-.45,0-.85-.1-1.19-.3s-.6-.49-.77-.87l1.02-.37c.07,.25,.19,.43,.35,.52,.16,.1,.34,.14,.53,.14,.27,0,.5-.08,.67-.24,.17-.16,.26-.39,.26-.69,0-.32-.09-.55-.27-.7s-.4-.22-.64-.22c-.38,0-.66,.17-.85,.5l-1.04-.39,.33-2.64h3.45v.96h-2.48l-.12,.97c.12-.09,.27-.15,.47-.2,.19-.05,.38-.07,.56-.07,.31,0,.6,.07,.88,.2,.28,.13,.5,.33,.67,.6,.17,.27,.26,.6,.26,1s-.1,.72-.29,.99-.45,.47-.77,.61c-.32,.14-.66,.21-1.03,.21Z"/><path d="M37.52,42.83c-.28,0-.53-.07-.77-.21s-.42-.32-.55-.55-.21-.48-.21-.76,.07-.54,.21-.77,.32-.41,.55-.55c.23-.14,.49-.21,.77-.21s.53,.07,.76,.21c.23,.14,.42,.32,.55,.55,.14,.23,.2,.49,.2,.77s-.07,.53-.2,.76c-.14,.23-.32,.41-.55,.55s-.49,.21-.76,.21Zm0-.91c.17,0,.31-.06,.43-.18s.18-.26,.18-.43-.06-.31-.18-.43-.26-.18-.43-.18-.31,.06-.43,.18c-.12,.12-.18,.26-.18,.43s.06,.31,.18,.43c.12,.12,.26,.18,.43,.18Zm-.22,3.12l3.61-5.16h.98l-3.62,5.16h-.97Zm4.36,.09c-.28,0-.53-.07-.77-.21-.23-.14-.42-.32-.55-.56-.14-.23-.21-.49-.21-.76s.07-.54,.21-.76c.14-.23,.32-.41,.55-.54,.23-.14,.49-.21,.77-.21s.54,.07,.77,.21c.23,.14,.41,.32,.55,.54,.14,.23,.2,.48,.2,.76s-.07,.53-.2,.76c-.14,.23-.32,.42-.55,.56-.23,.14-.49,.21-.77,.21Zm0-.92c.16,0,.31-.06,.43-.18,.12-.12,.18-.26,.18-.43s-.06-.31-.18-.42c-.12-.12-.26-.18-.43-.18s-.31,.06-.43,.18c-.12,.12-.18,.26-.18,.42s.06,.31,.18,.43c.12,.12,.26,.18,.43,.18Z"/></g><g><path d="M109.07,43.74c-.18,0-.34-.04-.49-.12-.15-.08-.29-.16-.42-.23-.13-.08-.28-.12-.43-.12-.09,0-.17,.04-.24,.12s-.09,.25-.08,.51l-.81-.29c.03-.4,.12-.71,.27-.94,.15-.23,.41-.34,.78-.34,.2,0,.37,.04,.52,.12,.15,.08,.29,.15,.42,.23,.13,.08,.25,.12,.38,.12,.09,0,.17-.04,.23-.12,.07-.08,.09-.25,.08-.5l.82,.29c-.03,.4-.11,.71-.26,.94s-.41,.34-.77,.34Z"/><path d="M111.96,45.04v-3.46h-1.17v-.95c.27,0,.5-.01,.68-.04,.18-.03,.33-.1,.45-.2s.23-.27,.32-.51h.89v5.16h-1.17Z"/><path d="M115.2,45.04c.15-.26,.29-.52,.43-.77,.14-.26,.27-.52,.41-.79h-.08c-.33-.01-.62-.11-.89-.27-.27-.17-.48-.39-.64-.66-.16-.27-.24-.58-.24-.91s.08-.65,.25-.93,.39-.5,.66-.66,.58-.25,.92-.25,.65,.08,.94,.25c.28,.17,.51,.39,.68,.67,.17,.28,.25,.59,.25,.93,0,.16-.02,.31-.07,.46s-.11,.32-.21,.51c-.17,.34-.35,.73-.55,1.14-.2,.42-.41,.84-.62,1.28h-1.24Zm.83-2.59c.23,0,.42-.08,.57-.24,.16-.16,.23-.37,.22-.61s-.09-.43-.25-.56c-.17-.13-.35-.2-.56-.2-.24,0-.43,.08-.58,.24-.14,.16-.21,.35-.21,.56,0,.25,.08,.45,.25,.59,.17,.14,.35,.22,.56,.22Z"/><path d="M119.92,42.83c-.28,0-.53-.07-.76-.21-.23-.14-.42-.32-.55-.55s-.21-.48-.21-.76,.07-.54,.21-.77,.32-.41,.55-.55c.23-.14,.49-.21,.76-.21s.53,.07,.77,.21c.23,.14,.42,.32,.55,.55,.14,.23,.2,.49,.2,.77s-.07,.53-.2,.76c-.14,.23-.32,.41-.55,.55-.23,.14-.49,.21-.77,.21Zm0-.91c.17,0,.31-.06,.43-.18s.18-.26,.18-.43-.06-.31-.18-.43-.26-.18-.43-.18-.31,.06-.42,.18c-.12,.12-.18,.26-.18,.43s.06,.31,.18,.43c.12,.12,.26,.18,.42,.18Zm-.22,3.12l3.61-5.16h.98l-3.62,5.16h-.97Zm4.36,.09c-.28,0-.53-.07-.76-.21-.23-.14-.42-.32-.55-.56-.14-.23-.21-.49-.21-.76s.07-.54,.21-.76c.14-.23,.32-.41,.55-.54,.23-.14,.49-.21,.76-.21s.54,.07,.77,.21c.23,.14,.41,.32,.55,.54,.14,.23,.2,.48,.2,.76s-.07,.53-.2,.76c-.14,.23-.32,.42-.55,.56-.23,.14-.49,.21-.77,.21Zm0-.92c.17,0,.31-.06,.43-.18,.12-.12,.18-.26,.18-.43s-.06-.31-.18-.42c-.12-.12-.26-.18-.43-.18s-.31,.06-.43,.18c-.12,.12-.18,.26-.18,.42s.06,.31,.18,.43c.12,.12,.26,.18,.43,.18Z"/></g><g><path d="M4.27,49.05c-.15,0-.27-.05-.37-.15s-.15-.23-.15-.38c0-.07,0-.13,.03-.18,.02-.06,.06-.13,.11-.21l.56-.9h.55l-.49,.79c.1,.04,.17,.11,.23,.19,.06,.09,.09,.19,.09,.29,0,.16-.05,.29-.16,.39-.11,.1-.24,.15-.39,.15Zm1.24,0c-.15,0-.28-.05-.38-.16s-.15-.22-.15-.34c0-.07,0-.14,.02-.19s.03-.1,.06-.14l.62-1h.55l-.49,.79c.1,.04,.17,.11,.23,.2,.06,.09,.09,.19,.09,.3,0,.16-.05,.28-.16,.38-.11,.1-.24,.15-.39,.15Z"/><path d="M7.05,50.93l.62-2.93h-1.18l.17-.77h3.25l-.16,.77h-1.19l-.62,2.93h-.89Z"/><path d="M9.48,50.93l.79-3.7h.84l-.28,1.31c.08-.11,.2-.21,.36-.3,.16-.09,.36-.14,.61-.14,.22,0,.39,.06,.53,.19,.13,.12,.2,.33,.2,.61,0,.07,0,.14-.01,.22,0,.08-.02,.16-.04,.25l-.33,1.56h-.86l.31-1.46c.03-.14,.05-.26,.05-.36,0-.13-.03-.22-.08-.27-.05-.06-.13-.08-.23-.08-.35,0-.58,.26-.68,.77l-.3,1.41h-.87Z"/><path d="M13,50.93l.45-2.11h-.57l.14-.64h1.43l-.58,2.75h-.86Zm1.21-3.21c-.14,0-.25-.05-.35-.15s-.14-.21-.14-.35,.05-.25,.14-.35c.1-.1,.21-.14,.35-.14s.26,.05,.36,.14c.1,.1,.14,.21,.14,.35s-.05,.25-.14,.35-.21,.15-.36,.15Z"/><path d="M15.87,51c-.14,0-.3-.02-.47-.05s-.33-.1-.49-.21c-.15-.1-.28-.26-.37-.46l.72-.24c.03,.12,.1,.22,.22,.27,.12,.06,.23,.08,.36,.08,.12,0,.22-.02,.32-.07,.09-.04,.14-.1,.14-.17,0-.07-.04-.12-.11-.16-.07-.04-.17-.08-.29-.11s-.24-.07-.37-.11c-.13-.04-.25-.09-.37-.16-.12-.06-.21-.15-.29-.26-.07-.11-.11-.24-.11-.41s.05-.31,.16-.43c.1-.13,.25-.23,.42-.3s.38-.11,.6-.11c.27,0,.51,.04,.74,.13,.22,.09,.4,.25,.53,.48l-.73,.25c-.04-.1-.1-.16-.2-.19-.1-.03-.21-.05-.34-.05s-.22,.02-.28,.07c-.06,.04-.09,.09-.09,.14,0,.07,.04,.13,.11,.17,.07,.04,.17,.08,.29,.11s.24,.07,.38,.1,.26,.08,.38,.14c.12,.06,.21,.14,.29,.24,.07,.1,.11,.22,.11,.37,0,.29-.11,.51-.33,.68-.22,.17-.53,.25-.91,.25Z"/><path d="M19.5,50.93l.45-2.11h-.57l.14-.64h1.43l-.58,2.75h-.87Zm1.21-3.21c-.14,0-.25-.05-.35-.15-.1-.1-.14-.21-.14-.35s.05-.25,.14-.35,.21-.14,.35-.14,.26,.05,.36,.14,.14,.21,.14,.35-.05,.25-.14,.35c-.1,.1-.21,.15-.36,.15Z"/><path d="M22.38,51c-.14,0-.3-.02-.47-.05s-.33-.1-.49-.21c-.15-.1-.28-.26-.37-.46l.72-.24c.03,.12,.1,.22,.22,.27,.11,.06,.23,.08,.36,.08s.22-.02,.32-.07c.09-.04,.14-.1,.14-.17,0-.07-.04-.12-.11-.16-.07-.04-.17-.08-.29-.11-.12-.03-.24-.07-.37-.11-.13-.04-.25-.09-.37-.16-.12-.06-.21-.15-.29-.26-.07-.11-.11-.24-.11-.41s.05-.31,.15-.43c.1-.13,.25-.23,.42-.3,.18-.07,.38-.11,.6-.11,.27,0,.51,.04,.74,.13s.4,.25,.53,.48l-.73,.25c-.04-.1-.11-.16-.2-.19s-.21-.05-.34-.05-.22,.02-.28,.07c-.06,.04-.09,.09-.09,.14,0,.07,.04,.13,.11,.17,.07,.04,.17,.08,.29,.11,.12,.03,.24,.07,.38,.1s.26,.08,.38,.14c.12,.06,.21,.14,.29,.24,.07,.1,.11,.22,.11,.37,0,.29-.11,.51-.33,.68s-.53,.25-.91,.25Z"/><path d="M26.81,50.93c-.24,0-.43-.04-.58-.12-.14-.08-.22-.22-.22-.42,0-.07,.01-.16,.04-.29l.27-1.27h-.43l.14-.64h.43l.14-.69h.86l-.14,.69h.6l-.13,.64h-.6l-.21,.97s-.02,.09-.03,.14c0,.04-.01,.08-.01,.11,0,.06,.02,.11,.06,.15,.04,.04,.12,.05,.24,.05h.24l-.14,.69h-.53Z"/><path d="M29.23,51c-.26,0-.49-.05-.68-.15-.2-.1-.35-.24-.46-.42-.11-.18-.16-.39-.16-.64,0-.33,.07-.62,.21-.87,.14-.25,.33-.46,.58-.6,.25-.15,.54-.22,.87-.22,.24,0,.46,.04,.66,.13s.35,.22,.47,.4c.12,.18,.17,.4,.17,.66,0,.33-.07,.62-.2,.88-.14,.26-.33,.46-.57,.61-.25,.15-.54,.22-.87,.22Zm.03-.65c.17,0,.31-.05,.42-.15,.11-.1,.19-.22,.25-.38s.08-.33,.08-.51c0-.2-.04-.35-.13-.43-.09-.08-.21-.12-.36-.12-.17,0-.31,.05-.42,.15s-.19,.23-.24,.39-.08,.32-.08,.49c0,.09,.01,.18,.04,.27s.08,.16,.14,.21c.07,.05,.17,.08,.29,.08Z"/><path d="M34.11,51c-.39,0-.69-.11-.9-.32-.21-.21-.32-.49-.32-.82s.07-.63,.22-.9c.15-.26,.36-.47,.62-.63,.26-.15,.56-.23,.9-.23,.24,0,.46,.05,.65,.15,.19,.1,.33,.29,.43,.56l-.74,.25c-.03-.12-.08-.2-.16-.24-.08-.04-.17-.07-.28-.07-.18,0-.32,.05-.44,.16-.12,.11-.2,.25-.26,.41-.06,.17-.09,.33-.09,.5,0,.18,.04,.32,.13,.4,.09,.08,.19,.12,.31,.12s.22-.02,.32-.06c.09-.04,.18-.11,.27-.22l.68,.26c-.18,.25-.38,.42-.62,.52-.24,.1-.48,.14-.71,.14Z"/><path d="M37.09,51c-.39,0-.69-.1-.92-.3-.22-.2-.33-.49-.33-.85,0-.24,.04-.47,.12-.68,.08-.21,.2-.4,.35-.55,.15-.16,.33-.28,.54-.37s.43-.13,.67-.13c.39,0,.7,.11,.91,.32s.32,.5,.32,.86c0,.08,0,.16-.01,.24,0,.08-.03,.17-.05,.25h-2.02s0,.04,0,.06,0,.04,0,.06c0,.16,.06,.28,.17,.35,.11,.07,.25,.11,.39,.11,.11,0,.22-.02,.32-.05,.11-.04,.19-.08,.25-.15l.63,.24c-.16,.2-.35,.35-.58,.45s-.48,.16-.77,.16Zm-.34-1.72h1.26s0-.03,0-.04v-.04c0-.16-.05-.28-.15-.36-.1-.08-.23-.12-.37-.12s-.3,.05-.44,.14c-.15,.09-.25,.23-.3,.42Z"/><path d="M38.85,50.93l.58-2.75h.68l.04,.48c.1-.17,.21-.3,.34-.4,.13-.1,.32-.15,.56-.16h.14l-.18,.84c-.09-.01-.18-.02-.26-.02-.24,0-.42,.06-.53,.19-.12,.12-.2,.3-.24,.53l-.27,1.28h-.87Z"/><path d="M42.29,50.93c-.24,0-.43-.04-.58-.12-.14-.08-.22-.22-.22-.42,0-.07,.01-.16,.04-.29l.27-1.27h-.43l.14-.64h.43l.14-.69h.86l-.14,.69h.6l-.13,.64h-.6l-.21,.97s-.02,.09-.03,.14c0,.04-.01,.08-.01,.11,0,.06,.02,.11,.06,.15,.04,.04,.12,.05,.24,.05h.24l-.14,.69h-.53Z"/><path d="M43.65,50.93l.45-2.11h-.57l.14-.64h1.43l-.58,2.75h-.87Zm1.21-3.21c-.14,0-.25-.05-.35-.15-.1-.1-.14-.21-.14-.35s.05-.25,.14-.35,.21-.14,.35-.14,.26,.05,.36,.14,.14,.21,.14,.35-.05,.25-.14,.35c-.1,.1-.21,.15-.36,.15Z"/><path d="M45.36,50.93l.45-2.11h-.44l.13-.64h.45l.06-.28c.04-.2,.09-.36,.15-.5,.05-.13,.12-.23,.22-.3,.09-.07,.21-.12,.36-.15,.15-.03,.33-.04,.56-.04h.38l-.14,.66h-.23c-.11,0-.2,0-.25,.03s-.1,.06-.12,.12c-.03,.07-.05,.16-.08,.3l-.04,.17h.59l-.14,.64h-.59l-.44,2.11h-.86Z"/><path d="M47.11,51.83l.13-.61h.17c.15,0,.27,0,.35-.03s.13-.05,.17-.09c.04-.04,.07-.1,.1-.17l-.48-2.75h.86l.17,1.75,.92-1.75h.98l-1.64,2.75c-.12,.21-.23,.37-.32,.49s-.18,.21-.27,.27-.21,.09-.34,.11c-.13,.02-.31,.02-.52,.02h-.27Z"/><path d="M53.12,50.93c-.24,0-.43-.04-.58-.12s-.22-.22-.22-.42c0-.07,.01-.16,.04-.29l.27-1.27h-.43l.14-.64h.43l.14-.69h.86l-.14,.69h.6l-.13,.64h-.6l-.21,.97s-.02,.09-.03,.14c0,.04-.01,.08-.01,.11,0,.06,.02,.11,.06,.15s.12,.05,.24,.05h.24l-.14,.69h-.53Z"/><path d="M54.11,50.93l.79-3.7h.84l-.28,1.31c.08-.11,.2-.21,.36-.3,.16-.09,.36-.14,.61-.14,.22,0,.39,.06,.53,.19,.13,.12,.2,.33,.2,.61,0,.07,0,.14-.01,.22,0,.08-.02,.16-.04,.25l-.33,1.56h-.86l.31-1.46c.03-.14,.05-.26,.05-.36,0-.13-.03-.22-.08-.27-.05-.06-.13-.08-.23-.08-.35,0-.58,.26-.68,.77l-.3,1.41h-.87Z"/><path d="M58.16,51c-.14,0-.27-.03-.4-.09s-.23-.14-.31-.25c-.08-.11-.12-.24-.12-.39,0-.21,.06-.38,.18-.51,.12-.13,.28-.24,.47-.31,.2-.08,.41-.14,.64-.18,.23-.04,.46-.07,.68-.09,.02-.06,.02-.1,.03-.13,0-.03,0-.06,0-.08,0-.11-.04-.18-.11-.23-.07-.04-.17-.07-.29-.07s-.23,.03-.33,.08-.18,.14-.23,.25l-.65-.25c.14-.22,.32-.38,.54-.49s.48-.16,.79-.16c.21,0,.41,.03,.57,.1s.3,.16,.4,.29c.1,.13,.14,.29,.14,.48,0,.07,0,.17-.03,.28-.02,.11-.04,.22-.07,.33-.03,.11-.05,.2-.06,.28-.03,.12-.05,.25-.07,.38-.02,.14-.04,.27-.05,.39-.01,.12-.02,.22-.02,.3h-.8l-.03-.33c-.13,.15-.26,.25-.4,.31s-.31,.08-.5,.08Zm.43-.57c.15,0,.28-.05,.39-.15,.11-.1,.2-.27,.26-.53l.02-.07c-.31,.03-.56,.07-.75,.15s-.28,.18-.28,.34c0,.08,.04,.14,.1,.19,.07,.05,.16,.07,.25,.07Z"/><path d="M61.53,50.93c-.24,0-.43-.04-.58-.12-.14-.08-.22-.22-.22-.42,0-.07,.01-.16,.04-.29l.27-1.27h-.43l.14-.64h.43l.14-.69h.86l-.14,.69h.6l-.13,.64h-.6l-.21,.97s-.02,.09-.03,.14c0,.04-.01,.08-.01,.11,0,.06,.02,.11,.06,.15,.04,.04,.12,.05,.24,.05h.24l-.14,.69h-.53Z"/><path d="M62.99,48.99l.49-.79c-.1-.04-.17-.11-.23-.2-.06-.09-.09-.19-.09-.3,0-.16,.05-.28,.16-.38s.24-.15,.38-.15,.28,.05,.38,.16,.15,.22,.15,.34c0,.07,0,.13-.02,.19-.01,.05-.03,.1-.06,.14l-.62,1h-.55Zm1.24,0l.49-.79c-.1-.04-.17-.11-.23-.2-.06-.09-.09-.19-.09-.29,0-.16,.05-.29,.16-.39,.11-.1,.24-.15,.38-.15s.27,.05,.37,.15c.1,.1,.15,.23,.15,.37,0,.07-.01,.13-.03,.18-.02,.06-.06,.13-.11,.21l-.56,.9h-.55Z"/></g><g><path d="M91.22,49.05c-.15,0-.27-.05-.37-.15s-.15-.23-.15-.38c0-.07,0-.13,.03-.18s.06-.13,.11-.21l.56-.9h.55l-.49,.79c.1,.04,.17,.11,.23,.19,.06,.09,.09,.19,.09,.29,0,.16-.05,.29-.16,.39-.11,.1-.24,.15-.39,.15Zm1.24,0c-.15,0-.28-.05-.38-.16-.1-.1-.15-.22-.15-.34,0-.07,0-.14,.02-.19s.03-.1,.06-.14l.62-1h.55l-.49,.79c.1,.04,.17,.11,.23,.2,.06,.09,.09,.19,.09,.3,0,.16-.05,.28-.16,.38-.11,.1-.24,.15-.38,.15Z"/><path d="M94,50.93l.62-2.93h-1.18l.17-.77h3.25l-.16,.77h-1.19l-.62,2.93h-.89Z"/><path d="M96.43,50.93l.79-3.7h.84l-.28,1.31c.08-.11,.2-.21,.36-.3,.16-.09,.36-.14,.61-.14,.22,0,.39,.06,.53,.19,.13,.12,.2,.33,.2,.61,0,.07,0,.14-.01,.22,0,.08-.02,.16-.04,.25l-.33,1.56h-.86l.31-1.46c.03-.14,.05-.26,.05-.36,0-.13-.03-.22-.08-.27-.05-.06-.13-.08-.23-.08-.35,0-.58,.26-.68,.77l-.3,1.41h-.87Z"/><path d="M99.94,50.93l.45-2.11h-.57l.14-.64h1.43l-.58,2.75h-.87Zm1.21-3.21c-.14,0-.25-.05-.35-.15-.1-.1-.14-.21-.14-.35s.05-.25,.14-.35,.21-.14,.35-.14,.26,.05,.35,.14c.1,.1,.14,.21,.14,.35s-.05,.25-.14,.35c-.1,.1-.21,.15-.35,.15Z"/><path d="M102.82,51c-.14,0-.3-.02-.47-.05s-.33-.1-.49-.21c-.15-.1-.28-.26-.37-.46l.72-.24c.03,.12,.1,.22,.22,.27,.12,.06,.24,.08,.36,.08s.22-.02,.32-.07c.09-.04,.14-.1,.14-.17,0-.07-.04-.12-.11-.16-.07-.04-.17-.08-.29-.11s-.24-.07-.37-.11c-.13-.04-.25-.09-.37-.16-.12-.06-.21-.15-.29-.26-.07-.11-.11-.24-.11-.41s.05-.31,.16-.43c.1-.13,.25-.23,.42-.3,.18-.07,.38-.11,.6-.11,.27,0,.51,.04,.74,.13s.4,.25,.53,.48l-.73,.25c-.04-.1-.1-.16-.2-.19s-.21-.05-.34-.05-.22,.02-.28,.07c-.06,.04-.09,.09-.09,.14,0,.07,.04,.13,.11,.17,.07,.04,.17,.08,.29,.11s.24,.07,.38,.1c.13,.04,.26,.08,.38,.14,.12,.06,.21,.14,.29,.24,.07,.1,.11,.22,.11,.37,0,.29-.11,.51-.33,.68s-.53,.25-.91,.25Z"/><path d="M107.42,51c-.39,0-.69-.11-.9-.32-.21-.21-.32-.49-.32-.82s.07-.63,.22-.9c.15-.26,.36-.47,.62-.63,.26-.15,.56-.23,.9-.23,.24,0,.46,.05,.65,.15s.33,.29,.43,.56l-.74,.25c-.03-.12-.08-.2-.16-.24-.08-.04-.17-.07-.28-.07-.18,0-.32,.05-.44,.16-.12,.11-.2,.25-.26,.41-.06,.17-.09,.33-.09,.5,0,.18,.04,.32,.13,.4,.09,.08,.19,.12,.31,.12s.22-.02,.32-.06c.09-.04,.18-.11,.27-.22l.68,.26c-.18,.25-.39,.42-.62,.52-.24,.1-.48,.14-.71,.14Z"/><path d="M110.39,51c-.39,0-.69-.1-.92-.3-.22-.2-.33-.49-.33-.85,0-.24,.04-.47,.12-.68,.08-.21,.2-.4,.35-.55,.15-.16,.33-.28,.54-.37s.43-.13,.67-.13c.4,0,.7,.11,.91,.32,.21,.21,.32,.5,.32,.86,0,.08,0,.16-.01,.24,0,.08-.03,.17-.05,.25h-2.02s0,.04,0,.06c0,.02,0,.04,0,.06,0,.16,.06,.28,.17,.35,.11,.07,.25,.11,.39,.11,.11,0,.22-.02,.32-.05s.19-.08,.25-.15l.63,.24c-.16,.2-.35,.35-.58,.45-.23,.11-.48,.16-.76,.16Zm-.34-1.72h1.26s0-.03,0-.04v-.04c0-.16-.05-.28-.16-.36-.1-.08-.23-.12-.37-.12s-.3,.05-.44,.14c-.15,.09-.25,.23-.3,.42Z"/><path d="M112.16,50.93l.58-2.75h.68l.04,.48c.1-.17,.21-.3,.34-.4,.13-.1,.32-.15,.56-.16h.14l-.18,.84c-.09-.01-.18-.02-.25-.02-.24,0-.42,.06-.53,.19-.11,.12-.2,.3-.24,.53l-.27,1.28h-.87Z"/><path d="M115.59,50.93c-.24,0-.43-.04-.58-.12-.14-.08-.22-.22-.22-.42,0-.07,.01-.16,.04-.29l.27-1.27h-.43l.14-.64h.43l.14-.69h.86l-.14,.69h.6l-.13,.64h-.6l-.21,.97s-.02,.09-.03,.14c0,.04-.01,.08-.01,.11,0,.06,.02,.11,.06,.15,.04,.04,.12,.05,.24,.05h.24l-.14,.69h-.53Z"/><path d="M116.96,50.93l.45-2.11h-.57l.14-.64h1.43l-.58,2.75h-.86Zm1.21-3.21c-.14,0-.25-.05-.35-.15-.1-.1-.14-.21-.14-.35s.05-.25,.14-.35c.1-.1,.21-.14,.35-.14s.26,.05,.36,.14,.14,.21,.14,.35-.05,.25-.14,.35c-.1,.1-.21,.15-.36,.15Z"/><path d="M118.67,50.93l.45-2.11h-.44l.13-.64h.45l.06-.28c.04-.2,.09-.36,.15-.5,.05-.13,.13-.23,.22-.3,.09-.07,.21-.12,.36-.15,.15-.03,.33-.04,.56-.04h.38l-.14,.66h-.23c-.12,0-.2,0-.26,.03-.05,.02-.1,.06-.12,.12-.03,.07-.05,.16-.08,.3l-.04,.17h.59l-.14,.64h-.59l-.44,2.11h-.86Z"/><path d="M120.93,50.93l.45-2.11h-.57l.14-.64h1.43l-.58,2.75h-.87Zm1.21-3.21c-.14,0-.25-.05-.35-.15-.1-.1-.14-.21-.14-.35s.05-.25,.14-.35,.21-.14,.35-.14,.26,.05,.35,.14c.1,.1,.14,.21,.14,.35s-.05,.25-.14,.35c-.1,.1-.21,.15-.35,.15Z"/><path d="M123.81,51c-.39,0-.69-.1-.92-.3-.22-.2-.33-.49-.33-.85,0-.24,.04-.47,.12-.68,.08-.21,.2-.4,.35-.55,.15-.16,.33-.28,.54-.37s.43-.13,.67-.13c.4,0,.7,.11,.91,.32,.21,.21,.32,.5,.32,.86,0,.08,0,.16-.01,.24,0,.08-.03,.17-.05,.25h-2.02s0,.04,0,.06c0,.02,0,.04,0,.06,0,.16,.06,.28,.17,.35,.11,.07,.25,.11,.39,.11,.11,0,.22-.02,.32-.05s.19-.08,.25-.15l.63,.24c-.16,.2-.35,.35-.58,.45-.23,.11-.48,.16-.76,.16Zm-.34-1.72h1.26s0-.03,0-.04v-.04c0-.16-.05-.28-.16-.36-.1-.08-.23-.12-.37-.12s-.3,.05-.44,.14c-.15,.09-.25,.23-.3,.42Z"/><path d="M126.96,51c-.14,0-.3-.02-.47-.05s-.33-.1-.49-.21c-.15-.1-.28-.26-.37-.46l.72-.24c.03,.12,.1,.22,.22,.27,.12,.06,.24,.08,.36,.08s.22-.02,.32-.07c.09-.04,.14-.1,.14-.17,0-.07-.04-.12-.11-.16-.07-.04-.17-.08-.29-.11s-.24-.07-.37-.11c-.13-.04-.25-.09-.37-.16-.12-.06-.21-.15-.29-.26-.07-.11-.11-.24-.11-.41s.05-.31,.16-.43c.1-.13,.25-.23,.42-.3,.18-.07,.38-.11,.6-.11,.27,0,.51,.04,.74,.13s.4,.25,.53,.48l-.73,.25c-.04-.1-.1-.16-.2-.19s-.21-.05-.34-.05-.22,.02-.28,.07c-.06,.04-.09,.09-.09,.14,0,.07,.04,.13,.11,.17,.07,.04,.17,.08,.29,.11s.24,.07,.38,.1c.13,.04,.26,.08,.38,.14,.12,.06,.21,.14,.29,.24,.07,.1,.11,.22,.11,.37,0,.29-.11,.51-.33,.68s-.53,.25-.91,.25Z"/><path d="M131.38,50.93c-.24,0-.43-.04-.58-.12-.14-.08-.22-.22-.22-.42,0-.07,.01-.16,.04-.29l.27-1.27h-.43l.14-.64h.43l.14-.69h.86l-.14,.69h.6l-.13,.64h-.6l-.21,.97s-.02,.09-.03,.14c0,.04-.01,.08-.01,.11,0,.06,.02,.11,.06,.15,.04,.04,.12,.05,.24,.05h.24l-.14,.69h-.53Z"/><path d="M132.37,50.93l.79-3.7h.84l-.28,1.31c.08-.11,.2-.21,.36-.3,.16-.09,.36-.14,.61-.14,.22,0,.39,.06,.53,.19s.2,.33,.2,.61c0,.07,0,.14-.01,.22,0,.08-.02,.16-.04,.25l-.33,1.56h-.87l.31-1.46c.03-.14,.05-.26,.05-.36,0-.13-.03-.22-.08-.27-.05-.06-.13-.08-.23-.08-.35,0-.58,.26-.68,.77l-.3,1.41h-.86Z"/><path d="M136.42,51c-.14,0-.27-.03-.4-.09s-.23-.14-.3-.25c-.08-.11-.12-.24-.12-.39,0-.21,.06-.38,.18-.51,.12-.13,.28-.24,.47-.31,.2-.08,.41-.14,.64-.18,.23-.04,.46-.07,.68-.09,.01-.06,.02-.1,.03-.13s0-.06,0-.08c0-.11-.04-.18-.11-.23-.07-.04-.17-.07-.29-.07-.12,0-.23,.03-.33,.08s-.18,.14-.23,.25l-.65-.25c.14-.22,.32-.38,.54-.49,.22-.11,.48-.16,.79-.16,.21,0,.41,.03,.57,.1s.3,.16,.4,.29c.1,.13,.14,.29,.14,.48,0,.07,0,.17-.03,.28-.02,.11-.04,.22-.07,.33-.03,.11-.05,.2-.06,.28-.03,.12-.05,.25-.07,.38s-.04,.27-.05,.39c-.01,.12-.02,.22-.02,.3h-.8l-.03-.33c-.13,.15-.26,.25-.4,.31s-.31,.08-.5,.08Zm.43-.57c.15,0,.28-.05,.39-.15,.11-.1,.19-.27,.26-.53l.02-.07c-.31,.03-.56,.07-.75,.15s-.28,.18-.28,.34c0,.08,.04,.14,.1,.19,.07,.05,.16,.07,.26,.07Z"/><path d="M139.79,50.93c-.24,0-.43-.04-.58-.12s-.22-.22-.22-.42c0-.07,.01-.16,.04-.29l.27-1.27h-.43l.14-.64h.43l.14-.69h.86l-.14,.69h.6l-.13,.64h-.6l-.21,.97s-.02,.09-.03,.14c0,.04-.01,.08-.01,.11,0,.06,.02,.11,.06,.15,.04,.04,.12,.05,.24,.05h.24l-.14,.69h-.53Z"/><path d="M141.25,48.99l.49-.79c-.1-.04-.17-.11-.23-.2-.06-.09-.09-.19-.09-.3,0-.16,.05-.28,.16-.38s.24-.15,.39-.15,.28,.05,.38,.16c.1,.1,.15,.22,.15,.34,0,.07,0,.13-.02,.19s-.03,.1-.06,.14l-.62,1h-.55Zm1.24,0l.49-.79c-.1-.04-.17-.11-.23-.2-.06-.09-.09-.19-.09-.29,0-.16,.05-.29,.16-.39,.11-.1,.24-.15,.38-.15s.27,.05,.37,.15c.1,.1,.15,.23,.15,.37,0,.07-.01,.13-.03,.18-.02,.06-.06,.13-.11,.21l-.56,.9h-.55Z"/></g></svg>