<?xml version="1.0" encoding="UTF-8"?><svg id="Layer_2" xmlns="http://www.w3.org/2000/svg" viewBox="0 0 149.46 52.31"><defs><style>.cls-1{letter-spacing:.02em;}.cls-2{font-family:AtkinsonHyperlegible-Bold, 'Atkinson Hyperlegible';font-size:7.73px;}.cls-2,.cls-3{font-weight:700;}.cls-4{fill:#ff8f15;}.cls-5{fill:#adadad;}.cls-3{font-family:AtkinsonHyperlegible-BoldItalic, 'Atkinson Hyperlegible';font-size:5.54px;font-style:italic;}.cls-6{letter-spacing:-.02em;}</style></defs><g id="Layer_1-2"><g><g><circle class="cls-5" cx="18.26" cy="32.89" r="4.11"/><circle class="cls-5" cx="8.15" cy="32.89" r="4.11"/><circle class="cls-4" cx="38.49" cy="32.89" r="4.11"/><circle class="cls-4" cx="28.37" cy="32.89" r="4.11"/><circle class="cls-4" cx="58.71" cy="32.89" r="4.11"/><circle class="cls-4" cx="48.6" cy="32.89" r="4.11"/></g><g><circle class="cls-5" cx="4.11" cy="4.11" r="4.11"/><circle class="cls-5" cx="62.75" cy="4.11" r="4.11"/><circle class="cls-5" cx="53.59" cy="4.11" r="4.11"/><circle class="cls-5" cx="43.69" cy="4.11" r="4.11"/><circle class="cls-5" cx="33.8" cy="4.11" r="4.11"/><circle class="cls-5" cx="23.9" cy="4.11" r="4.11"/><circle class="cls-5" cx="14.01" cy="4.11" r="4.11"/><circle class="cls-5" cx="4.11" cy="13.71" r="4.11"/><circle class="cls-5" cx="62.75" cy="13.71" r="4.11"/><circle class="cls-5" cx="53.59" cy="13.71" r="4.11"/><circle class="cls-5" cx="43.69" cy="13.71" r="4.11"/><circle class="cls-5" cx="33.8" cy="13.71" r="4.11"/><circle class="cls-5" cx="23.9" cy="13.71" r="4.11"/><circle class="cls-5" cx="14.01" cy="13.71" r="4.11"/><circle class="cls-5" cx="4.11" cy="23.3" r="4.11"/><circle class="cls-5" cx="62.75" cy="23.3" r="4.11"/><circle class="cls-5" cx="53.59" cy="23.3" r="4.11"/><circle class="cls-5" cx="43.69" cy="23.3" r="4.11"/><circle class="cls-5" cx="33.8" cy="23.3" r="4.11"/><circle class="cls-5" cx="23.9" cy="23.3" r="4.11"/><circle class="cls-5" cx="14.01" cy="23.3" r="4.11"/></g></g><g><g><circle class="cls-4" cx="100.86" cy="32.89" r="4.11"/><circle class="cls-5" cx="90.75" cy="32.89" r="4.11"/><circle class="cls-4" cx="121.09" cy="32.89" r="4.11"/><circle class="cls-4" cx="110.98" cy="32.89" r="4.11"/><circle class="cls-4" cx="141.32" cy="32.89" r="4.11"/><circle class="cls-4" cx="131.2" cy="32.89" r="4.11"/></g><g><circle class="cls-5" cx="86.72" cy="4.11" r="4.11"/><circle class="cls-5" cx="145.35" cy="4.11" r="4.11"/><circle class="cls-5" cx="136.19" cy="4.11" r="4.11"/><circle class="cls-5" cx="126.3" cy="4.11" r="4.11"/><circle class="cls-5" cx="116.4" cy="4.11" r="4.11"/><circle class="cls-5" cx="106.51" cy="4.11" r="4.11"/><circle class="cls-5" cx="96.61" cy="4.11" r="4.11"/><circle class="cls-5" cx="86.72" cy="13.71" r="4.11"/><circle class="cls-5" cx="145.35" cy="13.71" r="4.11"/><circle class="cls-5" cx="136.19" cy="13.71" r="4.11"/><circle class="cls-5" cx="126.3" cy="13.71" r="4.11"/><circle class="cls-5" cx="116.4" cy="13.71" r="4.11"/><circle class="cls-5" cx="106.51" cy="13.71" r="4.11"/><circle class="cls-5" cx="96.61" cy="13.71" r="4.11"/><circle class="cls-5" cx="86.72" cy="23.3" r="4.11"/><circle class="cls-5" cx="145.35" cy="23.3" r="4.11"/><circle class="cls-5" cx="136.19" cy="23.3" r="4.11"/><circle class="cls-5" cx="126.3" cy="23.3" r="4.11"/><circle class="cls-5" cx="116.4" cy="23.3" r="4.11"/><circle class="cls-5" cx="106.51" cy="23.3" r="4.11"/><circle class="cls-5" cx="96.61" cy="23.3" r="4.11"/></g></g><text class="cls-2" transform="translate(23.5 45.04)"><tspan x="0" y="0">~15%</tspan></text><text class="cls-2" transform="translate(106.3 45.04)"><tspan x="0" y="0">~19%</tspan></text><text class="cls-3" transform="translate(3.38 50.93)"><tspan x="0" y="0">“T</tspan><tspan class="cls-6" x="6.22" y="0">h</tspan><tspan x="9.35" y="0">is is to ce</tspan><tspan class="cls-1" x="35.58" y="0">r</tspan><tspan x="37.84" y="0">tify that”</tspan></text><text class="cls-3" transform="translate(90.32 50.93)"><tspan x="0" y="0">“T</tspan><tspan class="cls-6" x="6.22" y="0">h</tspan><tspan x="9.35" y="0">is ce</tspan><tspan class="cls-1" x="21.94" y="0">r</tspan><tspan x="24.2" y="0">tifies that”</tspan></text></g></svg>