<?xml version="1.0" encoding="UTF-8"?><svg id="Layer_2" xmlns="http://www.w3.org/2000/svg" viewBox="0 0 277.34 143.49"><defs><style>.cls-1{letter-spacing:.01em;}.cls-2{font-size:17.72px;}.cls-2,.cls-3,.cls-4,.cls-5,.cls-6,.cls-7,.cls-8,.cls-9,.cls-10,.cls-11,.cls-12,.cls-13,.cls-14,.cls-15,.cls-16{font-family:AtkinsonHyperlegible-Bold, 'Atkinson Hyperlegible';font-weight:700;isolation:isolate;}.cls-2,.cls-5,.cls-6,.cls-8,.cls-10,.cls-12,.cls-13,.cls-14{fill:#ff8f15;}.cls-17{letter-spacing:-.01em;}.cls-3{fill:#2378b0;}.cls-3,.cls-4,.cls-7{font-size:6.45px;}.cls-4,.cls-9,.cls-11{fill:#58a5b3;}.cls-18{letter-spacing:-.02em;}.cls-5{font-size:10.21px;}.cls-19{letter-spacing:.02em;}.cls-20{letter-spacing:.02em;}.cls-21{letter-spacing:-.02em;}.cls-6{font-size:13.96px;}.cls-22{letter-spacing:.02em;}.cls-23{letter-spacing:.02em;}.cls-24{letter-spacing:.02em;}.cls-25{letter-spacing:0em;}.cls-26{letter-spacing:.02em;}.cls-27{letter-spacing:-.01em;}.cls-28{letter-spacing:0em;}.cls-7,.cls-16{fill:#f2cb6b;}.cls-29{letter-spacing:-.01em;}.cls-30{letter-spacing:-.01em;}.cls-31{letter-spacing:-.01em;}.cls-32{letter-spacing:-.01em;}.cls-8{font-size:12.71px;}.cls-33{letter-spacing:-.03em;}.cls-34{letter-spacing:0em;}.cls-35{letter-spacing:0em;}.cls-36{letter-spacing:.02em;}.cls-37{letter-spacing:0em;}.cls-38{letter-spacing:-.03em;}.cls-39{letter-spacing:-.03em;}.cls-9{font-size:7.7px;}.cls-40{letter-spacing:0em;}.cls-41{letter-spacing:0em;}.cls-42{letter-spacing:0em;}.cls-43{letter-spacing:0em;}.cls-44{letter-spacing:0em;}.cls-45{letter-spacing:0em;}.cls-46{letter-spacing:0em;}.cls-47{letter-spacing:0em;}.cls-48{letter-spacing:0em;}.cls-49{letter-spacing:0em;}.cls-50{letter-spacing:.01em;}.cls-51{letter-spacing:.01em;}.cls-52{letter-spacing:0em;}.cls-53{letter-spacing:-.01em;}.cls-54{letter-spacing:.01em;}.cls-55{letter-spacing:.01em;}.cls-10{font-size:11.46px;}.cls-56{letter-spacing:0em;}.cls-57{letter-spacing:0em;}.cls-58{letter-spacing:-.02em;}.cls-59{letter-spacing:.03em;}.cls-60{letter-spacing:-.02em;}.cls-61{letter-spacing:-.01em;}.cls-62{letter-spacing:-.02em;}.cls-11,.cls-14{font-size:8.95px;}.cls-12{font-size:16.47px;}.cls-63{letter-spacing:0em;}.cls-13{font-size:22.73px;}.cls-64{letter-spacing:0em;}.cls-65{letter-spacing:-.01em;}.cls-66{letter-spacing:.03em;}.cls-67{letter-spacing:.03em;}.cls-68{letter-spacing:.03em;}.cls-69{letter-spacing:-.01em;}.cls-70{letter-spacing:-.01em;}.cls-71{letter-spacing:0em;}.cls-72{letter-spacing:-.01em;}.cls-15{fill:#e25d64;}.cls-15,.cls-16{font-size:3.9px;}.cls-73{letter-spacing:-.03em;}.cls-74{letter-spacing:.02em;}.cls-75{letter-spacing:.02em;}</style></defs><g id="Layer_1-2"><g><g><text class="cls-3" transform="translate(209.21 54.52)"><tspan class="cls-49" x="0" y="0">m</tspan><tspan class="cls-71" x="5.66" y="0">et</tspan><tspan class="cls-49" x="11.76" y="0">h</tspan><tspan class="cls-71" x="15.39" y="0">odist</tspan></text><text class="cls-3" transform="translate(22.5 107.96)"><tspan x="0" y="0">texas</tspan></text><text class="cls-3" transform="translate(225.66 62.31)"><tspan x="0" y="0">readers</tspan></text><text class="cls-3" transform="translate(40.7 31.46)"><tspan x="0" y="0">club</tspan></text><text class="cls-3" transform="translate(149.83 125.64)"><tspan x="0" y="0">ele</tspan><tspan class="cls-49" x="9.32" y="0">m</tspan><tspan x="14.99" y="0">enta</tspan><tspan class="cls-66" x="28.34" y="0">r</tspan><tspan class="cls-71" x="30.9" y="0">y</tspan></text><text class="cls-3" transform="translate(70.48 49.97)"><tspan x="0" y="0">teac</tspan><tspan class="cls-45" x="13.01" y="0">h</tspan><tspan x="16.65" y="0">ers</tspan></text><text class="cls-3" transform="translate(223.23 78.55)"><tspan class="cls-21" x="0" y="0">f</tspan><tspan class="cls-71" x="2.23" y="0">ede</tspan><tspan class="cls-69" x="13.37" y="0">r</tspan><tspan class="cls-35" x="15.69" y="0">ation</tspan></text><text class="cls-3" transform="translate(227.82 45.75)"><tspan x="0" y="0">clubs</tspan></text><text class="cls-3" transform="translate(198.04 9.7)"><tspan x="0" y="0">pia</tspan><tspan class="cls-49" x="9.44" y="0">n</tspan><tspan class="cls-71" x="13.08" y="0">o-p</tspan><tspan class="cls-19" x="23.03" y="0">l</tspan><tspan x="25.2" y="0">a</tspan><tspan class="cls-75" x="28.76" y="0">y</tspan><tspan x="32.21" y="0">ing</tspan></text><text class="cls-3" transform="translate(136.46 133.76)"><tspan x="0" y="0">auditions</tspan></text><text class="cls-3" transform="translate(38.27 113.62)"><tspan x="0" y="0">present</tspan></text><text class="cls-3" transform="translate(110.31 133.11)"><tspan x="0" y="0">ju</tspan><tspan class="cls-58" x="5.35" y="0">n</tspan><tspan class="cls-71" x="8.94" y="0">ior</tspan></text><text class="cls-3" transform="translate(133.31 35.68)"><tspan x="0" y="0">c</tspan><tspan class="cls-45" x="3.35" y="0">h</tspan><tspan x="6.99" y="0">oir</tspan></text><text class="cls-3" transform="translate(151.17 36.33)"><tspan x="0" y="0">first</tspan></text><text class="cls-3" transform="translate(162.65 96.74)"><tspan x="0" y="0">scie</tspan><tspan class="cls-49" x="12.48" y="0">n</tspan><tspan x="16.12" y="0">ce</tspan></text><text class="cls-3" transform="translate(80.81 118.17)"><tspan x="0" y="0">cent</tspan><tspan class="cls-70" x="13.14" y="0">r</tspan><tspan x="15.45" y="0">al</tspan></text><text class="cls-3" transform="translate(33.82 73.35)"><tspan x="0" y="0">boy</tspan></text><text class="cls-3" transform="translate(44.98 40.88)"><tspan x="0" y="0">a</tspan><tspan class="cls-1" x="3.57" y="0">l</tspan><tspan class="cls-35" x="5.67" y="0">pha</tspan></text><text class="cls-3" transform="translate(167.85 35.03)"><tspan class="cls-49" x="0" y="0">m</tspan><tspan class="cls-71" x="5.66" y="0">edical</tspan></text><text class="cls-3" transform="translate(16.45 81.47)"><tspan x="0" y="0">f</tspan><tspan class="cls-51" x="2.37" y="0">r</tspan><tspan x="4.86" y="0">ie</tspan><tspan class="cls-45" x="10.54" y="0">n</tspan><tspan class="cls-35" x="14.18" y="0">d</tspan></text></g><g><text class="cls-13" transform="translate(134.98 26.76)"><tspan x="0" y="0">ok</tspan><tspan class="cls-20" x="25.92" y="0">l</tspan><tspan x="33.55" y="0">a</tspan><tspan class="cls-42" x="46.12" y="0">h</tspan><tspan x="58.95" y="0">oma</tspan></text><text class="cls-2" transform="translate(148.06 63.14)"><tspan x="0" y="0">sc</tspan><tspan class="cls-41" x="18.68" y="0">h</tspan><tspan class="cls-64" x="28.67" y="0">ool</tspan></text><text class="cls-12" transform="translate(57.74 92.69)"><tspan x="0" y="0">college</tspan></text><text class="cls-12" transform="translate(51.94 73.53)"><tspan x="0" y="0">national</tspan></text><text class="cls-6" transform="translate(117.96 68.81)"><tspan class="cls-62" x="0" y="0">h</tspan><tspan x="7.78" y="0">igh</tspan></text><text class="cls-6" transform="translate(43.4 106)"><tspan x="0" y="0">society</tspan></text><text class="cls-6" transform="translate(171.16 75.15)"><tspan x="0" y="0">state</tspan></text><text class="cls-8" transform="translate(117.96 90.09)"><tspan x="0" y="0">ba</tspan><tspan class="cls-24" x="14.61" y="0">r</tspan><tspan class="cls-59" x="19.54" y="0">t</tspan><tspan x="24.71" y="0">les</tspan><tspan class="cls-74" x="42.69" y="0">v</tspan><tspan class="cls-40" x="49.59" y="0">ille</tspan></text><text class="cls-8" transform="translate(94.54 106)"><tspan x="0" y="0">a</tspan><tspan class="cls-53" x="7.03" y="0">s</tspan><tspan class="cls-34" x="13.68" y="0">sociation</tspan></text><text class="cls-8" transform="translate(35.9 52.09)"><tspan class="cls-46" x="0" y="0">h</tspan><tspan class="cls-34" x="7.17" y="0">o</tspan><tspan class="cls-46" x="14.45" y="0">n</tspan><tspan class="cls-34" x="21.62" y="0">or</tspan></text><text class="cls-10" transform="translate(141.74 45.92)"><tspan x="0" y="0">a</tspan><tspan class="cls-43" x="6.34" y="0">m</tspan><tspan class="cls-37" x="16.4" y="0">e</tspan><tspan class="cls-54" x="22.88" y="0">r</tspan><tspan x="27.32" y="0">ica</tspan></text><text class="cls-5" transform="translate(191.89 106.65)"><tspan x="0" y="0">board</tspan></text><text class="cls-5" transform="translate(120.12 54.04)"><tspan x="0" y="0">order</tspan></text><text class="cls-14" transform="translate(105.69 115.42)"><tspan x="0" y="0">scouts</tspan></text><text class="cls-14" transform="translate(15.29 93.99)"><tspan x="0" y="0">u</tspan><tspan class="cls-61" x="5.1" y="0">n</tspan><tspan class="cls-63" x="10.09" y="0">i</tspan><tspan class="cls-17" x="12.91" y="0">v</tspan><tspan class="cls-63" x="17.53" y="0">er</tspan><tspan class="cls-32" x="25.93" y="0">s</tspan><tspan class="cls-63" x="30.6" y="0">ity</tspan></text><text class="cls-14" transform="translate(67.09 117.7)"><tspan x="0" y="0">de</tspan></text><text class="cls-14" transform="translate(46.39 23.89)"><tspan x="0" y="0">p</tspan><tspan class="cls-61" x="5.34" y="0">h</tspan><tspan x="10.32" y="0">il</tspan><tspan class="cls-38" x="15.96" y="0">l</tspan><tspan x="18.53" y="0">ips</tspan></text><text class="cls-14" transform="translate(137.4 117.05)"><tspan x="0" y="0">depa</tspan><tspan class="cls-22" x="20.69" y="0">r</tspan><tspan x="24.17" y="0">t</tspan><tspan class="cls-44" x="27.56" y="0">m</tspan><tspan class="cls-63" x="35.42" y="0">ent</tspan></text><text class="cls-14" transform="translate(210.91 92.04)"><tspan x="0" y="0">u</tspan><tspan class="cls-61" x="5.1" y="0">n</tspan><tspan class="cls-63" x="10.09" y="0">ited</tspan></text><text class="cls-14" transform="translate(188.77 44.95)"><tspan class="cls-44" x="0" y="0">h</tspan><tspan class="cls-63" x="5.05" y="0">e</tspan><tspan class="cls-50" x="10.12" y="0">r</tspan><tspan x="13.58" y="0">itage</tspan></text></g><g><text class="cls-7" transform="translate(188.63 123.2)"><tspan class="cls-45" x="0" y="0">h</tspan><tspan x="3.64" y="0">ealth</tspan></text><text class="cls-7" transform="translate(218.95 35.52)"><tspan x="0" y="0">di</tspan><tspan class="cls-75" x="5.87" y="0">v</tspan><tspan x="9.38" y="0">i</tspan><tspan class="cls-30" x="11.41" y="0">s</tspan><tspan x="14.77" y="0">ion</tspan></text><text class="cls-7" transform="translate(185.01 83.26)"><tspan class="cls-36" x="0" y="0">v</tspan><tspan class="cls-71" x="3.5" y="0">ital</tspan></text><text class="cls-7" transform="translate(68.7 127.75)"><tspan x="0" y="0">statistics</tspan></text><text class="cls-7" transform="translate(76.75 17.83)"><tspan x="0" y="0">sout</tspan><tspan class="cls-45" x="13.26" y="0">h</tspan><tspan x="16.9" y="0">eastern</tspan></text><text class="cls-7" transform="translate(59 61.17)"><tspan class="cls-45" x="0" y="0">m</tspan><tspan x="5.66" y="0">e</tspan><tspan class="cls-51" x="9.31" y="0">r</tspan><tspan x="11.81" y="0">it</tspan></text><text class="cls-7" transform="translate(242.17 28.7)"><tspan x="0" y="0">sc</tspan><tspan class="cls-45" x="6.8" y="0">h</tspan><tspan x="10.43" y="0">o</tspan><tspan class="cls-19" x="14.13" y="0">l</tspan><tspan x="16.3" y="0">ars</tspan><tspan class="cls-58" x="25.7" y="0">h</tspan><tspan x="29.3" y="0">ip</tspan></text><text class="cls-16" transform="translate(183.23 6.62)"><tspan x="0" y="0">i</tspan><tspan class="cls-52" x="1.23" y="0">n</tspan><tspan class="cls-56" x="3.43" y="0">dia</tspan></text><text class="cls-16" transform="translate(223.64 107.29)"><tspan x="0" y="0">impe</tspan><tspan class="cls-55" x="9.21" y="0">r</tspan><tspan x="10.72" y="0">ial</tspan></text><text class="cls-16" transform="translate(41.76 124.83)"><tspan x="0" y="0">prost</tspan><tspan class="cls-52" x="9.56" y="0">h</tspan><tspan class="cls-56" x="11.76" y="0">etic</tspan></text><text class="cls-16" transform="translate(105.76 9.7)"><tspan x="0" y="0">dentist</tspan><tspan class="cls-67" x="13.02" y="0">r</tspan><tspan x="14.57" y="0">y</tspan></text><text class="cls-16" transform="translate(83.84 134.9)"><tspan x="0" y="0">western</tspan></text><text class="cls-16" transform="translate(195.23 130.02)"><tspan x="0" y="0">hunting</tspan></text><text class="cls-16" transform="translate(93.91 80.01)"><tspan x="0" y="0">fis</tspan><tspan class="cls-27" x="4.74" y="0">h</tspan><tspan x="6.91" y="0">ing</tspan></text><text class="cls-16" transform="translate(131.56 6.96)"><tspan x="0" y="0">petroleum</tspan></text><text class="cls-16" transform="translate(8.17 101.77)"><tspan x="0" y="0">company</tspan></text><text class="cls-16" transform="translate(52.49 131.97)"><tspan x="0" y="0">spel</tspan><tspan class="cls-33" x="7.83" y="0">l</tspan><tspan x="8.95" y="0">ing</tspan></text><text class="cls-16" transform="translate(123.81 35.52)"><tspan x="0" y="0">bee</tspan></text><text class="cls-16" transform="translate(107.56 141.39)"><tspan x="0" y="0">f</tspan><tspan class="cls-65" x="1.43" y="0">r</tspan><tspan x="2.83" y="0">ank</tspan></text></g><g><text class="cls-15" transform="translate(241.95 70.09)"><tspan x="0" y="0">a</tspan><tspan class="cls-65" x="2.16" y="0">r</tspan><tspan x="3.55" y="0">a</tspan><tspan class="cls-65" x="5.71" y="0">r</tspan><tspan x="7.11" y="0">at</tspan></text><text class="cls-15" transform="translate(10.86 113.6)"><tspan class="cls-73" x="0" y="0">l</tspan><tspan x="1.12" y="0">i</tspan><tspan class="cls-47" x="2.35" y="0">m</tspan><tspan x="5.77" y="0">esto</tspan><tspan class="cls-52" x="13.76" y="0">n</tspan><tspan x="15.96" y="0">e</tspan></text><text class="cls-15" transform="translate(17.38 73.98)"><tspan x="0" y="0">aetna</tspan></text><text class="cls-15" transform="translate(246.48 56.12)"><tspan x="0" y="0">building</tspan></text><text class="cls-15" transform="translate(100.04 41.83)"><tspan x="0" y="0">loan</tspan></text><text class="cls-15" transform="translate(214.33 123.35)"><tspan x="0" y="0">crea</tspan><tspan class="cls-47" x="7.84" y="0">m</tspan><tspan x="11.26" y="0">ers</tspan></text><text class="cls-15" transform="translate(6.95 66.19)"><tspan x="0" y="0">ce</tspan><tspan class="cls-23" x="4.23" y="0">r</tspan><tspan x="5.74" y="0">tificate</tspan></text><text class="cls-15" transform="translate(0 91.2)"><tspan x="0" y="0">award</tspan></text><text class="cls-15" transform="translate(161.15 3.25)"><tspan x="0" y="0">shaw</tspan><tspan class="cls-52" x="9.28" y="0">n</tspan><tspan x="11.48" y="0">ee</tspan></text><text class="cls-15" transform="translate(138.01 140.23)"><tspan x="0" y="0">com</tspan><tspan class="cls-52" x="7.71" y="0">m</tspan><tspan class="cls-56" x="11.13" y="0">erce</tspan></text><text class="cls-15" transform="translate(175.7 134.06)"><tspan x="0" y="0">bureau</tspan></text><text class="cls-15" transform="translate(0 81.78)"><tspan x="0" y="0">census</tspan></text><text class="cls-15" transform="translate(19.33 58.72)"><tspan class="cls-31" x="0" y="0">s</tspan><tspan x="2.03" y="0">igma</tspan></text><text class="cls-15" transform="translate(35.43 36.96)"><tspan x="0" y="0">nu</tspan></text><text class="cls-15" transform="translate(18.67 120.75)"><tspan x="0" y="0">chapter</tspan></text><text class="cls-15" transform="translate(120.16 26.57)"><tspan x="0" y="0">pierre</tspan></text><text class="cls-15" transform="translate(167.89 142.51)"><tspan class="cls-18" x="0" y="0">f</tspan><tspan x="1.34" y="0">auchard</tspan></text><text class="cls-15" transform="translate(247.62 97.37)"><tspan x="0" y="0">academy</tspan></text><text class="cls-15" transform="translate(15.59 48.98)"><tspan class="cls-47" x="0" y="0">m</tspan><tspan x="3.42" y="0">edico</tspan></text><text class="cls-15" transform="translate(223.1 116.53)"><tspan class="cls-60" x="0" y="0">m</tspan><tspan x="3.39" y="0">i</tspan><tspan class="cls-33" x="4.62" y="0">l</tspan><tspan x="5.74" y="0">ita</tspan><tspan class="cls-68" x="10.6" y="0">r</tspan><tspan class="cls-25" x="12.15" y="0">y</tspan></text><text class="cls-15" transform="translate(247.27 107.43)"><tspan x="0" y="0">instruction</tspan></text></g><g><text class="cls-11" transform="translate(206.45 82.07)"><tspan x="0" y="0">hall</tspan></text><text class="cls-9" transform="translate(88.11 59.34)"><tspan x="0" y="0">dental</tspan></text><text class="cls-9" transform="translate(31.72 62.59)"><tspan class="cls-48" x="0" y="0">m</tspan><tspan class="cls-28" x="6.76" y="0">o</tspan><tspan class="cls-26" x="11.17" y="0">l</tspan><tspan class="cls-28" x="13.76" y="0">ay</tspan></text><text class="cls-9" transform="translate(122.54 125.26)"><tspan x="0" y="0">church</tspan></text><text class="cls-9" transform="translate(100.96 123.97)"><tspan x="0" y="0">army</tspan></text><text class="cls-9" transform="translate(144.61 75.25)"><tspan x="0" y="0">mu</tspan><tspan class="cls-29" x="11.21" y="0">s</tspan><tspan x="15.23" y="0">ic</tspan></text><text class="cls-9" transform="translate(41.66 82.07)"><tspan x="0" y="0">delta</tspan></text><text class="cls-9" transform="translate(92.66 30.11)"><tspan x="0" y="0">states</tspan></text><text class="cls-9" transform="translate(205.37 69.08)"><tspan x="0" y="0">prog</tspan><tspan class="cls-72" x="16.47" y="0">r</tspan><tspan x="19.23" y="0">am</tspan></text><text class="cls-4" transform="translate(206.42 61.94)"><tspan x="0" y="0">cub</tspan></text><text class="cls-4" transform="translate(188.07 93.76)"><tspan x="0" y="0">temple</tspan></text><text class="cls-4" transform="translate(219.31 99.61)"><tspan x="0" y="0">cou</tspan><tspan class="cls-45" x="10.72" y="0">n</tspan><tspan x="14.36" y="0">cil</tspan></text><text class="cls-4" transform="translate(188.77 113.62)"><tspan x="0" y="0">go</tspan><tspan class="cls-57" x="7.54" y="0">v</tspan><tspan x="10.87" y="0">er</tspan><tspan class="cls-45" x="16.92" y="0">n</tspan><tspan x="20.56" y="0">ors</tspan></text><text class="cls-4" transform="translate(59.69 36.28)"><tspan x="0" y="0">registered</tspan></text><text class="cls-4" transform="translate(164.83 106)"><tspan x="0" y="0">dentists</tspan></text><text class="cls-4" transform="translate(239.39 89.54)"><tspan x="0" y="0">kansas</tspan></text><text class="cls-4" transform="translate(106.12 49.92)"><tspan x="0" y="0">city</tspan></text><text class="cls-4" transform="translate(197.17 34.33)"><tspan x="0" y="0">pub</tspan><tspan class="cls-39" x="11.36" y="0">l</tspan><tspan x="13.21" y="0">ic</tspan></text><text class="cls-4" transform="translate(114.08 42.78)"><tspan x="0" y="0">sc</tspan><tspan class="cls-45" x="6.8" y="0">h</tspan><tspan x="10.43" y="0">ools</tspan></text><text class="cls-4" transform="translate(127.5 78.5)"><tspan x="0" y="0">bar</tspan></text></g></g></g></svg>